<?xml version="1.0" encoding="utf-8" standalone="no"?>
<!DOCTYPE svg PUBLIC "-//W3C//DTD SVG 1.1//EN"
  "http://www.w3.org/Graphics/SVG/1.1/DTD/svg11.dtd">
<!-- Created with matplotlib (https://matplotlib.org/) -->
<svg height="275.389204pt" version="1.1" viewBox="0 0 280.001563 275.389204" width="280.001563pt" xmlns="http://www.w3.org/2000/svg" xmlns:xlink="http://www.w3.org/1999/xlink">
 <metadata>
  <rdf:RDF xmlns:cc="http://creativecommons.org/ns#" xmlns:dc="http://purl.org/dc/elements/1.1/" xmlns:rdf="http://www.w3.org/1999/02/22-rdf-syntax-ns#">
   <cc:Work>
    <dc:type rdf:resource="http://purl.org/dc/dcmitype/StillImage"/>
    <dc:date>2021-02-16T20:57:54.231822</dc:date>
    <dc:format>image/svg+xml</dc:format>
    <dc:creator>
     <cc:Agent>
      <dc:title>Matplotlib v3.3.2, https://matplotlib.org/</dc:title>
     </cc:Agent>
    </dc:creator>
   </cc:Work>
  </rdf:RDF>
 </metadata>
 <defs>
  <style type="text/css">*{stroke-linecap:butt;stroke-linejoin:round;}</style>
 </defs>
 <g id="figure_1">
  <g id="patch_1">
   <path d="M 0 275.389204 
L 280.001563 275.389204 
L 280.001563 0 
L 0 0 
z
" style="fill:#ffffff;"/>
  </g>
  <g id="axes_1">
   <g id="patch_2">
    <path d="M 41.56875 102.625561 
L 187.34375 102.625561 
L 187.34375 10.802544 
L 41.56875 10.802544 
z
" style="fill:#ffffff;"/>
   </g>
   <g id="patch_3">
    <path clip-path="url(#p2357a4968d)" d="M 48.194886 102.625561 
L 53.495795 102.625561 
L 53.495795 101.709849 
L 48.194886 101.709849 
z
" style="fill:#b2b2b2;"/>
   </g>
   <g id="patch_4">
    <path clip-path="url(#p2357a4968d)" d="M 53.495795 102.625561 
L 58.796705 102.625561 
L 58.796705 101.251994 
L 53.495795 101.251994 
z
" style="fill:#b2b2b2;"/>
   </g>
   <g id="patch_5">
    <path clip-path="url(#p2357a4968d)" d="M 58.796705 102.625561 
L 64.097614 102.625561 
L 64.097614 99.42057 
L 58.796705 99.42057 
z
" style="fill:#b2b2b2;"/>
   </g>
   <g id="patch_6">
    <path clip-path="url(#p2357a4968d)" d="M 64.097614 102.625561 
L 69.398523 102.625561 
L 69.398523 102.167705 
L 64.097614 102.167705 
z
" style="fill:#b2b2b2;"/>
   </g>
   <g id="patch_7">
    <path clip-path="url(#p2357a4968d)" d="M 69.398523 102.625561 
L 74.699432 102.625561 
L 74.699432 98.047002 
L 69.398523 98.047002 
z
" style="fill:#b2b2b2;"/>
   </g>
   <g id="patch_8">
    <path clip-path="url(#p2357a4968d)" d="M 74.699432 102.625561 
L 80.000341 102.625561 
L 80.000341 96.215578 
L 74.699432 96.215578 
z
" style="fill:#b2b2b2;"/>
   </g>
   <g id="patch_9">
    <path clip-path="url(#p2357a4968d)" d="M 80.000341 102.625561 
L 85.30125 102.625561 
L 85.30125 92.094874 
L 80.000341 92.094874 
z
" style="fill:#b2b2b2;"/>
   </g>
   <g id="patch_10">
    <path clip-path="url(#p2357a4968d)" d="M 85.30125 102.625561 
L 90.602159 102.625561 
L 90.602159 83.853466 
L 85.30125 83.853466 
z
" style="fill:#b2b2b2;"/>
   </g>
   <g id="patch_11">
    <path clip-path="url(#p2357a4968d)" d="M 90.602159 102.625561 
L 95.903068 102.625561 
L 95.903068 84.311322 
L 90.602159 84.311322 
z
" style="fill:#b2b2b2;"/>
   </g>
   <g id="patch_12">
    <path clip-path="url(#p2357a4968d)" d="M 95.903068 102.625561 
L 101.203977 102.625561 
L 101.203977 77.443482 
L 95.903068 77.443482 
z
" style="fill:#b2b2b2;"/>
   </g>
   <g id="patch_13">
    <path clip-path="url(#p2357a4968d)" d="M 101.203977 102.625561 
L 106.504886 102.625561 
L 106.504886 60.502811 
L 101.203977 60.502811 
z
" style="fill:#b2b2b2;"/>
   </g>
   <g id="patch_14">
    <path clip-path="url(#p2357a4968d)" d="M 106.504886 102.625561 
L 111.805795 102.625561 
L 111.805795 34.40502 
L 106.504886 34.40502 
z
" style="fill:#b2b2b2;"/>
   </g>
   <g id="patch_15">
    <path clip-path="url(#p2357a4968d)" d="M 111.805795 102.625561 
L 117.106705 102.625561 
L 117.106705 15.175068 
L 111.805795 15.175068 
z
" style="fill:#b2b2b2;"/>
   </g>
   <g id="patch_16">
    <path clip-path="url(#p2357a4968d)" d="M 117.106705 102.625561 
L 122.407614 102.625561 
L 122.407614 61.876379 
L 117.106705 61.876379 
z
" style="fill:#b2b2b2;"/>
   </g>
   <g id="patch_17">
    <path clip-path="url(#p2357a4968d)" d="M 122.407614 102.625561 
L 127.708523 102.625561 
L 127.708523 69.659931 
L 122.407614 69.659931 
z
" style="fill:#b2b2b2;"/>
   </g>
   <g id="patch_18">
    <path clip-path="url(#p2357a4968d)" d="M 127.708523 102.625561 
L 133.009432 102.625561 
L 133.009432 78.359194 
L 127.708523 78.359194 
z
" style="fill:#b2b2b2;"/>
   </g>
   <g id="patch_19">
    <path clip-path="url(#p2357a4968d)" d="M 133.009432 102.625561 
L 138.310341 102.625561 
L 138.310341 81.10633 
L 133.009432 81.10633 
z
" style="fill:#b2b2b2;"/>
   </g>
   <g id="patch_20">
    <path clip-path="url(#p2357a4968d)" d="M 138.310341 102.625561 
L 143.61125 102.625561 
L 143.61125 82.022042 
L 138.310341 82.022042 
z
" style="fill:#b2b2b2;"/>
   </g>
   <g id="patch_21">
    <path clip-path="url(#p2357a4968d)" d="M 143.61125 102.625561 
L 148.912159 102.625561 
L 148.912159 91.637018 
L 143.61125 91.637018 
z
" style="fill:#b2b2b2;"/>
   </g>
   <g id="patch_22">
    <path clip-path="url(#p2357a4968d)" d="M 148.912159 102.625561 
L 154.213068 102.625561 
L 154.213068 96.673434 
L 148.912159 96.673434 
z
" style="fill:#b2b2b2;"/>
   </g>
   <g id="patch_23">
    <path clip-path="url(#p2357a4968d)" d="M 154.213068 102.625561 
L 159.513977 102.625561 
L 159.513977 97.13129 
L 154.213068 97.13129 
z
" style="fill:#b2b2b2;"/>
   </g>
   <g id="patch_24">
    <path clip-path="url(#p2357a4968d)" d="M 159.513977 102.625561 
L 164.814886 102.625561 
L 164.814886 99.42057 
L 159.513977 99.42057 
z
" style="fill:#b2b2b2;"/>
   </g>
   <g id="patch_25">
    <path clip-path="url(#p2357a4968d)" d="M 164.814886 102.625561 
L 170.115795 102.625561 
L 170.115795 99.878426 
L 164.814886 99.878426 
z
" style="fill:#b2b2b2;"/>
   </g>
   <g id="patch_26">
    <path clip-path="url(#p2357a4968d)" d="M 170.115795 102.625561 
L 175.416705 102.625561 
L 175.416705 102.625561 
L 170.115795 102.625561 
z
" style="fill:#b2b2b2;"/>
   </g>
   <g id="patch_27">
    <path clip-path="url(#p2357a4968d)" d="M 175.416705 102.625561 
L 180.717614 102.625561 
L 180.717614 100.794138 
L 175.416705 100.794138 
z
" style="fill:#b2b2b2;"/>
   </g>
   <g id="matplotlib.axis_1">
    <g id="xtick_1">
     <g id="line2d_1">
      <defs>
       <path d="M 0 0 
L 0 3.5 
" id="mdb747862a0" style="stroke:#000000;stroke-width:0.8;"/>
      </defs>
      <g>
       <use style="stroke:#000000;stroke-width:0.8;" x="60.74496" xlink:href="#mdb747862a0" y="102.625561"/>
      </g>
     </g>
     <g id="text_1">
      <!-- −1 -->
      <g transform="translate(55.04496 116.916186)scale(0.1 -0.1)">
       <defs>
        <path d="M 54.40625 26.703125 
L 4 26.703125 
L 4 19.703125 
L 54.40625 19.703125 
z
" id="NimbusSans-Regular-8722"/>
        <path d="M 25.90625 51.5 
L 25.90625 0 
L 34.703125 0 
L 34.703125 72.296875 
L 28.90625 72.296875 
C 25.796875 61.203125 23.796875 59.703125 10.203125 57.90625 
L 10.203125 51.5 
z
" id="NimbusSans-Regular-49"/>
       </defs>
       <use xlink:href="#NimbusSans-Regular-8722"/>
       <use x="58.399994" xlink:href="#NimbusSans-Regular-49"/>
      </g>
     </g>
    </g>
    <g id="xtick_2">
     <g id="line2d_2">
      <g>
       <use style="stroke:#000000;stroke-width:0.8;" x="113.633309" xlink:href="#mdb747862a0" y="102.625561"/>
      </g>
     </g>
     <g id="text_2">
      <!-- 0 -->
      <g transform="translate(110.853622 116.916186)scale(0.1 -0.1)">
       <defs>
        <path d="M 27.5 72.296875 
C 20.90625 72.296875 14.90625 69.296875 11.203125 64.40625 
C 6.59375 58 4.296875 48.40625 4.296875 35 
C 4.296875 10.59375 12.296875 -2.296875 27.5 -2.296875 
C 42.5 -2.296875 50.703125 10.59375 50.703125 34.40625 
C 50.703125 48.40625 48.5 57.796875 43.796875 64.40625 
C 40.09375 69.40625 34.203125 72.296875 27.5 72.296875 
z
M 27.5 64.5 
C 37 64.5 41.703125 54.796875 41.703125 35.203125 
C 41.703125 14.59375 37.09375 5 27.296875 5 
C 18 5 13.296875 15 13.296875 34.90625 
C 13.296875 54.796875 18 64.5 27.5 64.5 
z
" id="NimbusSans-Regular-48"/>
       </defs>
       <use xlink:href="#NimbusSans-Regular-48"/>
      </g>
     </g>
    </g>
    <g id="xtick_3">
     <g id="line2d_3">
      <g>
       <use style="stroke:#000000;stroke-width:0.8;" x="166.521659" xlink:href="#mdb747862a0" y="102.625561"/>
      </g>
     </g>
     <g id="text_3">
      <!-- 1 -->
      <g transform="translate(163.741971 116.916186)scale(0.1 -0.1)">
       <use xlink:href="#NimbusSans-Regular-49"/>
      </g>
     </g>
    </g>
    <g id="text_4">
     <!-- Observation $x$ -->
     <g transform="translate(83.10625 130.386499)scale(0.1 -0.1)">
      <defs>
       <path d="M 38.90625 74.09375 
C 18 74.09375 3.796875 58.703125 3.796875 35.90625 
C 3.796875 13 17.90625 -2.296875 39 -2.296875 
C 47.90625 -2.296875 55.703125 0.40625 61.59375 5.40625 
C 69.5 12.09375 74.203125 23.40625 74.203125 35.296875 
C 74.203125 58.796875 60.296875 74.09375 38.90625 74.09375 
z
M 38.90625 65.90625 
C 54.703125 65.90625 64.90625 54 64.90625 35.5 
C 64.90625 17.90625 54.40625 5.90625 39 5.90625 
C 23.40625 5.90625 13.09375 17.90625 13.09375 35.90625 
C 13.09375 53.90625 23.40625 65.90625 38.90625 65.90625 
z
" id="NimbusSans-Regular-79"/>
       <path d="M 5.40625 72.90625 
L 5.40625 0 
L 12.90625 0 
L 12.90625 6.703125 
C 16.90625 0.59375 22.203125 -2.296875 29.5 -2.296875 
C 43.296875 -2.296875 52.296875 9 52.296875 26.40625 
C 52.296875 43.40625 43.796875 53.90625 29.90625 53.90625 
C 22.703125 53.90625 17.59375 51.203125 13.703125 45.296875 
L 13.703125 72.90625 
z
M 28.296875 46.09375 
C 37.59375 46.09375 43.59375 38 43.59375 25.5 
C 43.59375 13.59375 37.40625 5.5 28.296875 5.5 
C 19.40625 5.5 13.703125 13.5 13.703125 25.796875 
C 13.703125 38.09375 19.40625 46.09375 28.296875 46.09375 
z
" id="NimbusSans-Regular-98"/>
       <path d="M 43.796875 37.796875 
C 43.703125 48.09375 36.90625 53.90625 24.796875 53.90625 
C 12.59375 53.90625 4.703125 47.59375 4.703125 37.90625 
C 4.703125 29.703125 8.90625 25.796875 21.296875 22.796875 
L 29.09375 20.90625 
C 34.90625 19.5 37.203125 17.40625 37.203125 13.703125 
C 37.203125 8.703125 32.296875 5.40625 25 5.40625 
C 20.5 5.40625 16.703125 6.703125 14.59375 8.90625 
C 13.296875 10.40625 12.703125 11.90625 12.203125 15.59375 
L 3.40625 15.59375 
C 3.796875 3.5 10.59375 -2.296875 24.296875 -2.296875 
C 37.5 -2.296875 45.90625 4.203125 45.90625 14.296875 
C 45.90625 22.09375 41.5 26.40625 31.09375 28.90625 
L 23.09375 30.796875 
C 16.296875 32.40625 13.40625 34.59375 13.40625 38.296875 
C 13.40625 43.203125 17.703125 46.203125 24.5 46.203125 
C 31.203125 46.203125 34.796875 43.296875 35 37.796875 
z
" id="NimbusSans-Regular-115"/>
       <path d="M 51.296875 23.40625 
C 51.296875 31.40625 50.703125 36.203125 49.203125 40.09375 
C 45.796875 48.703125 37.796875 53.90625 28 53.90625 
C 13.40625 53.90625 4 42.796875 4 25.5 
C 4 8.203125 13 -2.296875 27.796875 -2.296875 
C 39.796875 -2.296875 48.09375 4.5 50.203125 15.90625 
L 41.796875 15.90625 
C 39.5 9 34.796875 5.40625 28.09375 5.40625 
C 22.796875 5.40625 18.296875 7.796875 15.5 12.203125 
C 13.5 15.203125 12.796875 18.203125 12.703125 23.40625 
z
M 12.90625 30.203125 
C 13.59375 39.90625 19.5 46.203125 27.90625 46.203125 
C 36.40625 46.203125 42.296875 39.59375 42.296875 30.203125 
z
" id="NimbusSans-Regular-101"/>
       <path d="M 6.90625 52.40625 
L 6.90625 0 
L 15.296875 0 
L 15.296875 27.203125 
C 15.40625 39.796875 20.59375 45.40625 32.09375 45.09375 
L 32.09375 53.59375 
C 30.703125 53.796875 29.90625 53.90625 28.90625 53.90625 
C 23.5 53.90625 19.40625 50.703125 14.59375 42.90625 
L 14.59375 52.40625 
z
" id="NimbusSans-Regular-114"/>
       <path d="M 28.5 0 
L 48.59375 52.40625 
L 39.203125 52.40625 
L 24.40625 9.90625 
L 10.40625 52.40625 
L 1 52.40625 
L 19.40625 0 
z
" id="NimbusSans-Regular-118"/>
       <path d="M 53.5 4.90625 
C 52.59375 4.703125 52.203125 4.703125 51.703125 4.703125 
C 48.796875 4.703125 47.203125 6.203125 47.203125 8.796875 
L 47.203125 39.59375 
C 47.203125 48.90625 40.40625 53.90625 27.5 53.90625 
C 19.796875 53.90625 13.703125 51.703125 10.09375 47.796875 
C 7.703125 45.09375 6.703125 42.09375 6.5 36.90625 
L 14.90625 36.90625 
C 15.59375 43.296875 19.40625 46.203125 27.203125 46.203125 
C 34.796875 46.203125 38.90625 43.40625 38.90625 38.40625 
L 38.90625 36.203125 
C 38.796875 32.59375 37 31.296875 30.203125 30.40625 
C 18.40625 28.90625 16.59375 28.5 13.40625 27.203125 
C 7.296875 24.59375 4.203125 20 4.203125 13.203125 
C 4.203125 3.703125 10.796875 -2.296875 21.40625 -2.296875 
C 28 -2.296875 33.296875 0 39.203125 5.40625 
C 39.796875 0 42.40625 -2.296875 47.796875 -2.296875 
C 49.59375 -2.296875 50.703125 -2.09375 53.5 -1.40625 
z
M 38.90625 16.5 
C 38.90625 13.703125 38.09375 12 35.59375 9.703125 
C 32.203125 6.59375 28.09375 5 23.203125 5 
C 16.703125 5 12.90625 8.09375 12.90625 13.40625 
C 12.90625 18.90625 16.5 21.703125 25.5 23 
C 34.40625 24.203125 36.09375 24.59375 38.90625 25.90625 
z
" id="NimbusSans-Regular-97"/>
       <path d="M 25.40625 52.40625 
L 16.796875 52.40625 
L 16.796875 66.796875 
L 8.5 66.796875 
L 8.5 52.40625 
L 1.40625 52.40625 
L 1.40625 45.59375 
L 8.5 45.59375 
L 8.5 6 
C 8.5 0.59375 12.09375 -2.296875 18.59375 -2.296875 
C 20.796875 -2.296875 22.59375 -2.09375 25.40625 -1.59375 
L 25.40625 5.40625 
C 24.203125 5.09375 23.09375 5 21.40625 5 
C 17.796875 5 16.796875 6 16.796875 9.703125 
L 16.796875 45.59375 
L 25.40625 45.59375 
z
" id="NimbusSans-Regular-116"/>
       <path d="M 15 52.40625 
L 6.703125 52.40625 
L 6.703125 0 
L 15 0 
z
M 15 72.90625 
L 6.59375 72.90625 
L 6.59375 62.40625 
L 15 62.40625 
z
" id="NimbusSans-Regular-105"/>
       <path d="M 27.203125 53.90625 
C 12.40625 53.90625 3.59375 43.40625 3.59375 25.796875 
C 3.59375 8.09375 12.40625 -2.296875 27.296875 -2.296875 
C 42.09375 -2.296875 51 8.203125 51 25.40625 
C 51 43.59375 42.40625 53.90625 27.203125 53.90625 
z
M 27.296875 46.203125 
C 36.703125 46.203125 42.296875 38.5 42.296875 25.5 
C 42.296875 13.09375 36.5 5.40625 27.296875 5.40625 
C 18 5.40625 12.296875 13.09375 12.296875 25.796875 
C 12.296875 38.5 18 46.203125 27.296875 46.203125 
z
" id="NimbusSans-Regular-111"/>
       <path d="M 7 52.40625 
L 7 0 
L 15.40625 0 
L 15.40625 28.90625 
C 15.40625 39.59375 21 46.59375 29.59375 46.59375 
C 36.203125 46.59375 40.40625 42.59375 40.40625 36.296875 
L 40.40625 0 
L 48.703125 0 
L 48.703125 39.59375 
C 48.703125 48.296875 42.203125 53.90625 32.09375 53.90625 
C 24.296875 53.90625 19.296875 50.90625 14.703125 43.59375 
L 14.703125 52.40625 
z
" id="NimbusSans-Regular-110"/>
       <path id="NimbusSans-Regular-32"/>
       <path d="M 60.015625 54.6875 
L 34.90625 27.875 
L 50.296875 0 
L 39.984375 0 
L 28.421875 21.6875 
L 8.296875 0 
L -2.59375 0 
L 24.3125 28.8125 
L 10.015625 54.6875 
L 20.3125 54.6875 
L 30.8125 34.90625 
L 49.125 54.6875 
z
" id="DejaVuSans-Oblique-120"/>
      </defs>
      <use transform="translate(0 0.90625)" xlink:href="#NimbusSans-Regular-79"/>
      <use transform="translate(77.799988 0.90625)" xlink:href="#NimbusSans-Regular-98"/>
      <use transform="translate(133.399979 0.90625)" xlink:href="#NimbusSans-Regular-115"/>
      <use transform="translate(183.399963 0.90625)" xlink:href="#NimbusSans-Regular-101"/>
      <use transform="translate(238.999954 0.90625)" xlink:href="#NimbusSans-Regular-114"/>
      <use transform="translate(272.299942 0.90625)" xlink:href="#NimbusSans-Regular-118"/>
      <use transform="translate(322.299927 0.90625)" xlink:href="#NimbusSans-Regular-97"/>
      <use transform="translate(377.899918 0.90625)" xlink:href="#NimbusSans-Regular-116"/>
      <use transform="translate(405.699905 0.90625)" xlink:href="#NimbusSans-Regular-105"/>
      <use transform="translate(427.899902 0.90625)" xlink:href="#NimbusSans-Regular-111"/>
      <use transform="translate(483.499893 0.90625)" xlink:href="#NimbusSans-Regular-110"/>
      <use transform="translate(539.099884 0.90625)" xlink:href="#NimbusSans-Regular-32"/>
      <use transform="translate(566.899872 0.90625)" xlink:href="#DejaVuSans-Oblique-120"/>
     </g>
    </g>
   </g>
   <g id="matplotlib.axis_2">
    <g id="ytick_1">
     <g id="line2d_4">
      <defs>
       <path d="M 0 0 
L -3.5 0 
" id="ma7faf95069" style="stroke:#000000;stroke-width:0.8;"/>
      </defs>
      <g>
       <use style="stroke:#000000;stroke-width:0.8;" x="41.56875" xlink:href="#ma7faf95069" y="102.625561"/>
      </g>
     </g>
     <g id="text_5">
      <!-- 0 -->
      <g transform="translate(29.009375 106.270874)scale(0.1 -0.1)">
       <use xlink:href="#NimbusSans-Regular-48"/>
      </g>
     </g>
    </g>
    <g id="ytick_2">
     <g id="line2d_5">
      <g>
       <use style="stroke:#000000;stroke-width:0.8;" x="41.56875" xlink:href="#ma7faf95069" y="56.735437"/>
      </g>
     </g>
     <g id="text_6">
      <!-- 1 -->
      <g transform="translate(29.009375 60.380749)scale(0.1 -0.1)">
       <use xlink:href="#NimbusSans-Regular-49"/>
      </g>
     </g>
    </g>
    <g id="ytick_3">
     <g id="line2d_6">
      <g>
       <use style="stroke:#000000;stroke-width:0.8;" x="41.56875" xlink:href="#ma7faf95069" y="10.845312"/>
      </g>
     </g>
     <g id="text_7">
      <!-- 2 -->
      <g transform="translate(29.009375 14.490625)scale(0.1 -0.1)">
       <defs>
        <path d="M 50.59375 8.703125 
L 13.296875 8.703125 
C 14.203125 14.703125 17.40625 18.5 26.09375 23.796875 
L 36.09375 29.40625 
C 46 34.90625 51.09375 42.296875 51.09375 51.203125 
C 51.09375 57.203125 48.703125 62.796875 44.5 66.703125 
C 40.296875 70.5 35.09375 72.296875 28.40625 72.296875 
C 19.40625 72.296875 12.703125 69.09375 8.796875 62.90625 
C 6.296875 59.09375 5.203125 54.59375 5 47.296875 
L 13.796875 47.296875 
C 14.09375 52.203125 14.703125 55.09375 15.90625 57.5 
C 18.203125 61.90625 22.796875 64.59375 28.09375 64.59375 
C 36.09375 64.59375 42.09375 58.796875 42.09375 51 
C 42.09375 45.203125 38.796875 40.203125 32.5 36.59375 
L 23.296875 31.203125 
C 8.5 22.703125 4.203125 15.90625 3.40625 0.09375 
L 50.59375 0.09375 
z
" id="NimbusSans-Regular-50"/>
       </defs>
       <use xlink:href="#NimbusSans-Regular-50"/>
      </g>
     </g>
    </g>
    <g id="text_8">
     <!-- Density -->
     <g transform="translate(22.829687 73.383584)rotate(-90)scale(0.1 -0.1)">
      <defs>
       <path d="M 8.90625 0 
L 37 0 
C 55.40625 0 66.703125 13.796875 66.703125 36.5 
C 66.703125 59.09375 55.5 72.90625 37 72.90625 
L 8.90625 72.90625 
z
M 18.203125 8.203125 
L 18.203125 64.703125 
L 35.40625 64.703125 
C 49.796875 64.703125 57.40625 55 57.40625 36.40625 
C 57.40625 17.90625 49.796875 8.203125 35.40625 8.203125 
z
" id="NimbusSans-Regular-68"/>
       <path d="M 38.796875 52.40625 
L 24.296875 11.59375 
L 10.90625 52.40625 
L 2 52.40625 
L 19.703125 -0.203125 
L 16.5 -8.5 
C 15.09375 -12.203125 13.296875 -13.59375 9.796875 -13.59375 
C 8.40625 -13.59375 7.203125 -13.40625 5.40625 -13 
L 5.40625 -20.5 
C 7.09375 -21.40625 8.796875 -21.796875 11 -21.796875 
C 13.703125 -21.796875 16.59375 -20.90625 18.796875 -19.296875 
C 21.40625 -17.40625 22.90625 -15.203125 24.5 -11 
L 47.796875 52.40625 
z
" id="NimbusSans-Regular-121"/>
      </defs>
      <use xlink:href="#NimbusSans-Regular-68"/>
      <use x="72.199982" xlink:href="#NimbusSans-Regular-101"/>
      <use x="127.799973" xlink:href="#NimbusSans-Regular-110"/>
      <use x="183.399963" xlink:href="#NimbusSans-Regular-115"/>
      <use x="233.399948" xlink:href="#NimbusSans-Regular-105"/>
      <use x="255.599945" xlink:href="#NimbusSans-Regular-116"/>
      <use x="283.399933" xlink:href="#NimbusSans-Regular-121"/>
     </g>
    </g>
   </g>
   <g id="patch_28">
    <path d="M 41.56875 102.625561 
L 41.56875 10.802544 
" style="fill:none;stroke:#000000;stroke-linecap:square;stroke-linejoin:miter;stroke-width:0.8;"/>
   </g>
   <g id="patch_29">
    <path d="M 187.34375 102.625561 
L 187.34375 10.802544 
" style="fill:none;stroke:#000000;stroke-linecap:square;stroke-linejoin:miter;stroke-width:0.8;"/>
   </g>
   <g id="patch_30">
    <path d="M 41.56875 102.625561 
L 187.34375 102.625561 
" style="fill:none;stroke:#000000;stroke-linecap:square;stroke-linejoin:miter;stroke-width:0.8;"/>
   </g>
   <g id="patch_31">
    <path d="M 41.56875 10.802544 
L 187.34375 10.802544 
" style="fill:none;stroke:#000000;stroke-linecap:square;stroke-linejoin:miter;stroke-width:0.8;"/>
   </g>
  </g>
  <g id="axes_2">
   <g id="patch_32">
    <path d="M 41.56875 238.248579 
L 187.34375 238.248579 
L 187.34375 146.425561 
L 41.56875 146.425561 
z
" style="fill:#ffffff;"/>
   </g>
   <g id="patch_33">
    <path clip-path="url(#p3aade5f6e1)" d="M 48.194886 238.248579 
L 53.495795 238.248579 
L 53.495795 236.354449 
L 48.194886 236.354449 
z
" style="fill:#b2b2b2;"/>
   </g>
   <g id="patch_34">
    <path clip-path="url(#p3aade5f6e1)" d="M 53.495795 238.248579 
L 58.796705 238.248579 
L 58.796705 235.407384 
L 53.495795 235.407384 
z
" style="fill:#b2b2b2;"/>
   </g>
   <g id="patch_35">
    <path clip-path="url(#p3aade5f6e1)" d="M 58.796705 238.248579 
L 64.097614 238.248579 
L 64.097614 237.301514 
L 58.796705 237.301514 
z
" style="fill:#b2b2b2;"/>
   </g>
   <g id="patch_36">
    <path clip-path="url(#p3aade5f6e1)" d="M 64.097614 238.248579 
L 69.398523 238.248579 
L 69.398523 236.354449 
L 64.097614 236.354449 
z
" style="fill:#b2b2b2;"/>
   </g>
   <g id="patch_37">
    <path clip-path="url(#p3aade5f6e1)" d="M 69.398523 238.248579 
L 74.699432 238.248579 
L 74.699432 231.619125 
L 69.398523 231.619125 
z
" style="fill:#b2b2b2;"/>
   </g>
   <g id="patch_38">
    <path clip-path="url(#p3aade5f6e1)" d="M 74.699432 238.248579 
L 80.000341 238.248579 
L 80.000341 230.198528 
L 74.699432 230.198528 
z
" style="fill:#b2b2b2;"/>
   </g>
   <g id="patch_39">
    <path clip-path="url(#p3aade5f6e1)" d="M 80.000341 238.248579 
L 85.30125 238.248579 
L 85.30125 221.201411 
L 80.000341 221.201411 
z
" style="fill:#b2b2b2;"/>
   </g>
   <g id="patch_40">
    <path clip-path="url(#p3aade5f6e1)" d="M 85.30125 238.248579 
L 90.602159 238.248579 
L 90.602159 218.833749 
L 85.30125 218.833749 
z
" style="fill:#b2b2b2;"/>
   </g>
   <g id="patch_41">
    <path clip-path="url(#p3aade5f6e1)" d="M 90.602159 238.248579 
L 95.903068 238.248579 
L 95.903068 218.360217 
L 90.602159 218.360217 
z
" style="fill:#b2b2b2;"/>
   </g>
   <g id="patch_42">
    <path clip-path="url(#p3aade5f6e1)" d="M 95.903068 238.248579 
L 101.203977 238.248579 
L 101.203977 208.416035 
L 95.903068 208.416035 
z
" style="fill:#b2b2b2;"/>
   </g>
   <g id="patch_43">
    <path clip-path="url(#p3aade5f6e1)" d="M 101.203977 238.248579 
L 106.504886 238.248579 
L 106.504886 183.792348 
L 101.203977 183.792348 
z
" style="fill:#b2b2b2;"/>
   </g>
   <g id="patch_44">
    <path clip-path="url(#p3aade5f6e1)" d="M 106.504886 238.248579 
L 111.805795 238.248579 
L 111.805795 156.327467 
L 106.504886 156.327467 
z
" style="fill:#b2b2b2;"/>
   </g>
   <g id="patch_45">
    <path clip-path="url(#p3aade5f6e1)" d="M 111.805795 238.248579 
L 117.106705 238.248579 
L 117.106705 163.903986 
L 111.805795 163.903986 
z
" style="fill:#b2b2b2;"/>
   </g>
   <g id="patch_46">
    <path clip-path="url(#p3aade5f6e1)" d="M 117.106705 238.248579 
L 122.407614 238.248579 
L 122.407614 202.260114 
L 117.106705 202.260114 
z
" style="fill:#b2b2b2;"/>
   </g>
   <g id="patch_47">
    <path clip-path="url(#p3aade5f6e1)" d="M 122.407614 238.248579 
L 127.708523 238.248579 
L 127.708523 204.627776 
L 122.407614 204.627776 
z
" style="fill:#b2b2b2;"/>
   </g>
   <g id="patch_48">
    <path clip-path="url(#p3aade5f6e1)" d="M 127.708523 238.248579 
L 133.009432 238.248579 
L 133.009432 215.992554 
L 127.708523 215.992554 
z
" style="fill:#b2b2b2;"/>
   </g>
   <g id="patch_49">
    <path clip-path="url(#p3aade5f6e1)" d="M 133.009432 238.248579 
L 138.310341 238.248579 
L 138.310341 224.989671 
L 133.009432 224.989671 
z
" style="fill:#b2b2b2;"/>
   </g>
   <g id="patch_50">
    <path clip-path="url(#p3aade5f6e1)" d="M 138.310341 238.248579 
L 143.61125 238.248579 
L 143.61125 216.466087 
L 138.310341 216.466087 
z
" style="fill:#b2b2b2;"/>
   </g>
   <g id="patch_51">
    <path clip-path="url(#p3aade5f6e1)" d="M 143.61125 238.248579 
L 148.912159 238.248579 
L 148.912159 227.830865 
L 143.61125 227.830865 
z
" style="fill:#b2b2b2;"/>
   </g>
   <g id="patch_52">
    <path clip-path="url(#p3aade5f6e1)" d="M 148.912159 238.248579 
L 154.213068 238.248579 
L 154.213068 235.407384 
L 148.912159 235.407384 
z
" style="fill:#b2b2b2;"/>
   </g>
   <g id="patch_53">
    <path clip-path="url(#p3aade5f6e1)" d="M 154.213068 238.248579 
L 159.513977 238.248579 
L 159.513977 231.145593 
L 154.213068 231.145593 
z
" style="fill:#b2b2b2;"/>
   </g>
   <g id="patch_54">
    <path clip-path="url(#p3aade5f6e1)" d="M 159.513977 238.248579 
L 164.814886 238.248579 
L 164.814886 236.827982 
L 159.513977 236.827982 
z
" style="fill:#b2b2b2;"/>
   </g>
   <g id="patch_55">
    <path clip-path="url(#p3aade5f6e1)" d="M 164.814886 238.248579 
L 170.115795 238.248579 
L 170.115795 234.46032 
L 164.814886 234.46032 
z
" style="fill:#b2b2b2;"/>
   </g>
   <g id="patch_56">
    <path clip-path="url(#p3aade5f6e1)" d="M 170.115795 238.248579 
L 175.416705 238.248579 
L 175.416705 237.301514 
L 170.115795 237.301514 
z
" style="fill:#b2b2b2;"/>
   </g>
   <g id="patch_57">
    <path clip-path="url(#p3aade5f6e1)" d="M 175.416705 238.248579 
L 180.717614 238.248579 
L 180.717614 237.301514 
L 175.416705 237.301514 
z
" style="fill:#b2b2b2;"/>
   </g>
   <g id="matplotlib.axis_3">
    <g id="xtick_4">
     <g id="line2d_7">
      <g>
       <use style="stroke:#000000;stroke-width:0.8;" x="57.009922" xlink:href="#mdb747862a0" y="238.248579"/>
      </g>
     </g>
     <g id="text_9">
      <!-- −1 -->
      <g transform="translate(51.309922 252.539204)scale(0.1 -0.1)">
       <use xlink:href="#NimbusSans-Regular-8722"/>
       <use x="58.399994" xlink:href="#NimbusSans-Regular-49"/>
      </g>
     </g>
    </g>
    <g id="xtick_5">
     <g id="line2d_8">
      <g>
       <use style="stroke:#000000;stroke-width:0.8;" x="111.400449" xlink:href="#mdb747862a0" y="238.248579"/>
      </g>
     </g>
     <g id="text_10">
      <!-- 0 -->
      <g transform="translate(108.620762 252.539204)scale(0.1 -0.1)">
       <use xlink:href="#NimbusSans-Regular-48"/>
      </g>
     </g>
    </g>
    <g id="xtick_6">
     <g id="line2d_9">
      <g>
       <use style="stroke:#000000;stroke-width:0.8;" x="165.790977" xlink:href="#mdb747862a0" y="238.248579"/>
      </g>
     </g>
     <g id="text_11">
      <!-- 1 -->
      <g transform="translate(163.01129 252.539204)scale(0.1 -0.1)">
       <use xlink:href="#NimbusSans-Regular-49"/>
      </g>
     </g>
    </g>
    <g id="text_12">
     <!-- Latent variable $\mu$ -->
     <g transform="translate(77.05625 266.009517)scale(0.1 -0.1)">
      <defs>
       <path d="M 17.296875 72.90625 
L 8 72.90625 
L 8 0 
L 53.296875 0 
L 53.296875 8.203125 
L 17.296875 8.203125 
z
" id="NimbusSans-Regular-76"/>
       <path d="M 15.203125 72.90625 
L 6.796875 72.90625 
L 6.796875 0 
L 15.203125 0 
z
" id="NimbusSans-Regular-108"/>
       <path d="M -1.3125 -20.796875 
L 13.375 54.6875 
L 22.40625 54.6875 
L 15.765625 20.65625 
Q 15.578125 19.625 15.421875 18.359375 
Q 15.28125 17.09375 15.28125 15.828125 
Q 15.28125 11.28125 18.140625 8.828125 
Q 21 6.390625 26.3125 6.390625 
Q 33.546875 6.390625 37.984375 10.484375 
Q 42.4375 14.59375 44 22.796875 
L 50.203125 54.6875 
L 59.1875 54.6875 
L 51.03125 12.640625 
Q 50.828125 11.71875 50.75 11.03125 
Q 50.6875 10.359375 50.6875 9.8125 
Q 50.6875 8.296875 51.296875 7.59375 
Q 51.90625 6.890625 53.21875 6.890625 
Q 53.71875 6.890625 54.5625 7.125 
Q 55.421875 7.375 56.984375 8.015625 
L 55.609375 0.78125 
Q 53.46875 -0.296875 51.515625 -0.859375 
Q 49.5625 -1.421875 47.703125 -1.421875 
Q 44.484375 -1.421875 42.65625 0.625 
Q 40.828125 2.6875 40.828125 6.296875 
Q 38.09375 2.390625 34.296875 0.484375 
Q 30.515625 -1.421875 25.390625 -1.421875 
Q 20.84375 -1.421875 17.453125 0.671875 
Q 14.0625 2.78125 12.984375 6.203125 
L 7.71875 -20.796875 
z
" id="DejaVuSans-Oblique-956"/>
      </defs>
      <use transform="translate(0 0.09375)" xlink:href="#NimbusSans-Regular-76"/>
      <use transform="translate(55.599991 0.09375)" xlink:href="#NimbusSans-Regular-97"/>
      <use transform="translate(111.199982 0.09375)" xlink:href="#NimbusSans-Regular-116"/>
      <use transform="translate(138.999969 0.09375)" xlink:href="#NimbusSans-Regular-101"/>
      <use transform="translate(194.59996 0.09375)" xlink:href="#NimbusSans-Regular-110"/>
      <use transform="translate(250.199951 0.09375)" xlink:href="#NimbusSans-Regular-116"/>
      <use transform="translate(277.999939 0.09375)" xlink:href="#NimbusSans-Regular-32"/>
      <use transform="translate(305.799927 0.09375)" xlink:href="#NimbusSans-Regular-118"/>
      <use transform="translate(355.799911 0.09375)" xlink:href="#NimbusSans-Regular-97"/>
      <use transform="translate(411.399902 0.09375)" xlink:href="#NimbusSans-Regular-114"/>
      <use transform="translate(444.69989 0.09375)" xlink:href="#NimbusSans-Regular-105"/>
      <use transform="translate(466.899887 0.09375)" xlink:href="#NimbusSans-Regular-97"/>
      <use transform="translate(522.499878 0.09375)" xlink:href="#NimbusSans-Regular-98"/>
      <use transform="translate(578.099869 0.09375)" xlink:href="#NimbusSans-Regular-108"/>
      <use transform="translate(600.299866 0.09375)" xlink:href="#NimbusSans-Regular-101"/>
      <use transform="translate(655.899857 0.09375)" xlink:href="#NimbusSans-Regular-32"/>
      <use transform="translate(683.699844 0.09375)" xlink:href="#DejaVuSans-Oblique-956"/>
     </g>
    </g>
   </g>
   <g id="matplotlib.axis_4">
    <g id="ytick_4">
     <g id="line2d_10">
      <g>
       <use style="stroke:#000000;stroke-width:0.8;" x="41.56875" xlink:href="#ma7faf95069" y="238.248579"/>
      </g>
     </g>
     <g id="text_13">
      <!-- 0.0 -->
      <g transform="translate(20.670313 241.893892)scale(0.1 -0.1)">
       <defs>
        <path d="M 19.09375 10.40625 
L 8.703125 10.40625 
L 8.703125 0 
L 19.09375 0 
z
" id="NimbusSans-Regular-46"/>
       </defs>
       <use xlink:href="#NimbusSans-Regular-48"/>
       <use x="55.599991" xlink:href="#NimbusSans-Regular-46"/>
       <use x="83.399979" xlink:href="#NimbusSans-Regular-48"/>
      </g>
     </g>
    </g>
    <g id="ytick_5">
     <g id="line2d_11">
      <g>
       <use style="stroke:#000000;stroke-width:0.8;" x="41.56875" xlink:href="#ma7faf95069" y="215.173307"/>
      </g>
     </g>
     <g id="text_14">
      <!-- 0.5 -->
      <g transform="translate(20.670313 218.81862)scale(0.1 -0.1)">
       <defs>
        <path d="M 47.59375 70.90625 
L 11 70.90625 
L 5.703125 32.296875 
L 13.796875 32.296875 
C 17.90625 37.203125 21.296875 38.90625 26.90625 38.90625 
C 36.40625 38.90625 42.296875 32.40625 42.296875 21.90625 
C 42.296875 11.703125 36.40625 5.5 26.796875 5.5 
C 19.09375 5.5 14.40625 9.40625 12.296875 17.40625 
L 3.5 17.40625 
C 4.703125 11.59375 5.703125 8.796875 7.796875 6.203125 
C 11.796875 0.796875 19 -2.296875 27 -2.296875 
C 41.296875 -2.296875 51.296875 8.09375 51.296875 23.09375 
C 51.296875 37.09375 42 46.703125 28.40625 46.703125 
C 23.40625 46.703125 19.40625 45.40625 15.296875 42.40625 
L 18.09375 62.203125 
L 47.59375 62.203125 
z
" id="NimbusSans-Regular-53"/>
       </defs>
       <use xlink:href="#NimbusSans-Regular-48"/>
       <use x="55.599991" xlink:href="#NimbusSans-Regular-46"/>
       <use x="83.399979" xlink:href="#NimbusSans-Regular-53"/>
      </g>
     </g>
    </g>
    <g id="ytick_6">
     <g id="line2d_12">
      <g>
       <use style="stroke:#000000;stroke-width:0.8;" x="41.56875" xlink:href="#ma7faf95069" y="192.098036"/>
      </g>
     </g>
     <g id="text_15">
      <!-- 1.0 -->
      <g transform="translate(20.670313 195.743348)scale(0.1 -0.1)">
       <use xlink:href="#NimbusSans-Regular-49"/>
       <use x="55.599991" xlink:href="#NimbusSans-Regular-46"/>
       <use x="83.399979" xlink:href="#NimbusSans-Regular-48"/>
      </g>
     </g>
    </g>
    <g id="ytick_7">
     <g id="line2d_13">
      <g>
       <use style="stroke:#000000;stroke-width:0.8;" x="41.56875" xlink:href="#ma7faf95069" y="169.022764"/>
      </g>
     </g>
     <g id="text_16">
      <!-- 1.5 -->
      <g transform="translate(20.670313 172.668076)scale(0.1 -0.1)">
       <use xlink:href="#NimbusSans-Regular-49"/>
       <use x="55.599991" xlink:href="#NimbusSans-Regular-46"/>
       <use x="83.399979" xlink:href="#NimbusSans-Regular-53"/>
      </g>
     </g>
    </g>
    <g id="text_17">
     <!-- Density -->
     <g transform="translate(14.490625 209.006602)rotate(-90)scale(0.1 -0.1)">
      <use xlink:href="#NimbusSans-Regular-68"/>
      <use x="72.199982" xlink:href="#NimbusSans-Regular-101"/>
      <use x="127.799973" xlink:href="#NimbusSans-Regular-110"/>
      <use x="183.399963" xlink:href="#NimbusSans-Regular-115"/>
      <use x="233.399948" xlink:href="#NimbusSans-Regular-105"/>
      <use x="255.599945" xlink:href="#NimbusSans-Regular-116"/>
      <use x="283.399933" xlink:href="#NimbusSans-Regular-121"/>
     </g>
    </g>
   </g>
   <g id="line2d_14">
    <path clip-path="url(#p3aade5f6e1)" d="M 48.194886 237.774997 
L 53.235791 237.344777 
L 57.348108 236.777015 
L 60.929803 236.063204 
L 64.246188 235.172088 
L 67.297261 234.120098 
L 70.21568 232.878521 
L 73.134098 231.388124 
L 76.052517 229.640382 
L 79.103591 227.543352 
L 82.419975 224.97994 
L 86.399637 221.598472 
L 91.705852 216.781478 
L 94.35896 214.132721 
L 95.950824 212.231641 
L 97.144723 210.473122 
L 98.205966 208.528171 
L 99.267209 206.081045 
L 100.328452 202.985791 
L 101.389695 199.111802 
L 102.450938 194.376435 
L 103.644836 188.027397 
L 105.236701 178.233053 
L 108.022464 160.868612 
L 109.083707 155.766597 
L 109.879639 152.990525 
L 110.542916 151.501674 
L 111.073538 150.89773 
L 111.471504 150.799299 
L 111.86947 151.006879 
L 112.267436 151.517257 
L 112.798058 152.654542 
L 113.461335 154.764644 
L 114.257267 158.187844 
L 115.31851 163.935344 
L 117.04303 174.846027 
L 119.298171 188.835778 
L 120.624725 195.686802 
L 121.818624 200.697899 
L 122.879867 204.259732 
L 123.94111 207.089246 
L 125.002353 209.326358 
L 126.196251 211.315106 
L 127.522805 213.082028 
L 129.247325 214.980271 
L 132.033088 217.656412 
L 137.471959 222.533775 
L 141.45162 225.836929 
L 144.768005 228.3096 
L 147.819079 230.311498 
L 150.737497 231.964603 
L 153.655916 233.362128 
L 156.574334 234.516612 
L 159.625408 235.486693 
L 162.941792 236.301345 
L 166.523488 236.947952 
L 170.635805 237.457159 
L 175.544054 237.831141 
L 180.717614 238.047285 
L 180.717614 238.047285 
" style="fill:none;stroke:#000000;stroke-linecap:square;stroke-width:2;"/>
   </g>
   <g id="line2d_15">
    <path clip-path="url(#p3aade5f6e1)" d="M 48.194886 228.873511 
L 67.429917 224.898121 
L 78.572969 222.454549 
L 83.083252 221.241511 
L 86.266981 220.158692 
L 88.787433 219.069471 
L 90.90992 217.915525 
L 92.767095 216.6646 
L 94.491615 215.245169 
L 96.216135 213.521432 
L 97.807999 211.612719 
L 99.399864 209.361308 
L 101.124384 206.512846 
L 102.981559 202.989883 
L 105.634667 197.390065 
L 108.287775 191.916132 
L 109.614329 189.660745 
L 110.675572 188.279949 
L 111.471504 187.560453 
L 112.134781 187.198747 
L 112.798058 187.071793 
L 113.461335 187.191446 
L 114.124612 187.56349 
L 114.787888 188.187127 
L 115.583821 189.256528 
L 116.512408 190.913662 
L 117.573651 193.272589 
L 119.032861 197.120276 
L 121.951279 205.68956 
L 124.206421 211.969084 
L 125.930941 216.148069 
L 127.522805 219.436338 
L 128.982014 221.977146 
L 130.441224 224.103829 
L 131.900433 225.868029 
L 133.492297 227.443855 
L 135.216817 228.816494 
L 137.073993 229.989376 
L 139.063823 230.979426 
L 141.318965 231.857531 
L 144.104728 232.693349 
L 147.553768 233.480661 
L 152.064051 234.263645 
L 158.033543 235.05958 
L 165.727555 235.854383 
L 175.013432 236.583941 
L 180.717614 236.934089 
L 180.717614 236.934089 
" style="fill:none;stroke:#1b9e77;stroke-linecap:square;stroke-width:1.5;"/>
   </g>
   <g id="line2d_16">
    <path clip-path="url(#p3aade5f6e1)" d="M 48.194886 237.584794 
L 54.827655 237.148622 
L 59.735905 236.615237 
L 63.715566 235.966287 
L 67.031951 235.204893 
L 69.950369 234.303613 
L 72.470821 233.294987 
L 74.725963 232.163359 
L 76.848449 230.856296 
L 78.83828 229.377118 
L 80.82811 227.61162 
L 82.685286 225.669645 
L 84.542461 223.41153 
L 86.399637 220.810821 
L 88.389467 217.624522 
L 90.511953 213.766819 
L 92.767095 209.181918 
L 95.552858 202.965651 
L 102.450938 187.272462 
L 104.308113 183.762893 
L 105.767322 181.451187 
L 107.093876 179.762617 
L 108.155119 178.729256 
L 109.216362 177.999197 
L 110.14495 177.619792 
L 111.073538 177.487754 
L 112.002125 177.604151 
L 112.930713 177.966171 
L 113.859301 178.567196 
L 114.920544 179.533603 
L 116.114442 180.952629 
L 117.440996 182.898959 
L 119.032861 185.669287 
L 121.022691 189.640461 
L 123.94111 196.056492 
L 129.11467 207.471825 
L 131.635122 212.467986 
L 133.890264 216.459172 
L 136.01275 219.770093 
L 138.00258 222.484154 
L 139.992411 224.840005 
L 141.982242 226.866238 
L 144.104728 228.702077 
L 146.227214 230.243634 
L 148.482356 231.605349 
L 150.870153 232.786757 
L 153.52326 233.842262 
L 156.441679 234.754364 
L 159.758063 235.547164 
L 163.605069 236.226549 
L 168.115352 236.791356 
L 173.819534 237.268937 
L 180.717614 237.629546 
L 180.717614 237.629546 
" style="fill:none;stroke:#d95f02;stroke-linecap:square;stroke-width:1.5;"/>
   </g>
   <g id="line2d_17">
    <path clip-path="url(#p3aade5f6e1)" d="M 48.194886 237.346668 
L 55.888899 236.859884 
L 61.59308 236.285231 
L 65.970708 235.625257 
L 69.419748 234.889796 
L 72.338166 234.047282 
L 74.858618 233.093122 
L 77.11376 232.002247 
L 79.103591 230.801463 
L 80.960766 229.430742 
L 82.685286 227.897416 
L 84.409806 226.068211 
L 86.134326 223.897128 
L 87.858846 221.339509 
L 89.583366 218.357226 
L 91.307886 214.925946 
L 93.165061 210.727615 
L 95.287547 205.346592 
L 98.07331 197.613074 
L 102.185627 186.203936 
L 103.910147 182.064343 
L 105.369356 179.12757 
L 106.563255 177.20641 
L 107.624498 175.911097 
L 108.553085 175.118535 
L 109.349018 174.701097 
L 110.14495 174.527864 
L 110.940882 174.597079 
L 111.736815 174.903099 
L 112.532747 175.436768 
L 113.461335 176.33046 
L 114.522578 177.679182 
L 115.716476 179.56281 
L 117.175685 182.297103 
L 119.032861 186.274686 
L 122.21659 193.720576 
L 126.063596 202.567761 
L 128.584048 207.793543 
L 130.83919 211.956284 
L 132.961676 215.414556 
L 135.084162 218.445499 
L 137.206648 221.084611 
L 139.329134 223.37491 
L 141.584276 225.475627 
L 143.972073 227.380545 
L 146.492525 229.091555 
L 149.145633 230.615833 
L 151.931396 231.963323 
L 154.982469 233.193544 
L 158.298854 234.29053 
L 161.880549 235.243814 
L 165.860211 236.071987 
L 170.237838 236.75575 
L 175.278743 237.311889 
L 180.717614 237.704574 
L 180.717614 237.704574 
" style="fill:none;stroke:#7570b3;stroke-linecap:square;stroke-width:1.5;"/>
   </g>
   <g id="line2d_18">
    <path clip-path="url(#p3aade5f6e1)" d="M 48.194886 237.524192 
L 53.633757 237.043447 
L 58.011385 236.445352 
L 61.858391 235.697365 
L 65.174775 234.831716 
L 68.225849 233.809198 
L 71.011612 232.649179 
L 73.66472 231.312411 
L 76.317827 229.722217 
L 78.83828 227.956374 
L 81.358732 225.928237 
L 84.01184 223.503589 
L 86.797603 220.639997 
L 89.583366 217.455264 
L 92.236473 214.101961 
L 94.491615 210.92316 
L 96.34879 207.932835 
L 97.807999 205.183688 
L 99.134553 202.19726 
L 100.328452 198.92383 
L 101.389695 195.374894 
L 102.450938 191.059812 
L 103.512181 185.851219 
L 104.838735 178.073347 
L 108.022464 158.316322 
L 108.685741 155.64747 
L 109.216362 154.275279 
L 109.614329 153.746682 
L 109.879639 153.643071 
L 110.14495 153.739899 
L 110.542916 154.254412 
L 110.940882 155.191401 
L 111.471504 157.033845 
L 112.267436 160.823714 
L 113.461335 167.887635 
L 115.716476 181.410514 
L 116.910375 187.294958 
L 118.104273 192.095307 
L 119.298171 195.95718 
L 120.49207 199.09039 
L 121.818624 201.957499 
L 123.410488 204.831991 
L 125.267664 207.713589 
L 127.788116 211.1801 
L 130.83919 214.993417 
L 134.155574 218.783044 
L 137.206648 221.937137 
L 140.125067 224.631567 
L 142.91083 226.897823 
L 145.563937 228.780654 
L 148.3497 230.481269 
L 151.135463 231.919856 
L 154.053882 233.174562 
L 157.104956 234.245138 
L 160.42134 235.172012 
L 164.135691 235.970825 
L 168.248008 236.624269 
L 173.156257 237.168943 
L 179.125749 237.594208 
L 180.717614 237.676184 
L 180.717614 237.676184 
" style="fill:none;stroke:#e7298a;stroke-linecap:square;stroke-width:1.5;"/>
   </g>
   <g id="patch_58">
    <path d="M 41.56875 238.248579 
L 41.56875 146.425561 
" style="fill:none;stroke:#000000;stroke-linecap:square;stroke-linejoin:miter;stroke-width:0.8;"/>
   </g>
   <g id="patch_59">
    <path d="M 187.34375 238.248579 
L 187.34375 146.425561 
" style="fill:none;stroke:#000000;stroke-linecap:square;stroke-linejoin:miter;stroke-width:0.8;"/>
   </g>
   <g id="patch_60">
    <path d="M 41.56875 238.248579 
L 187.34375 238.248579 
" style="fill:none;stroke:#000000;stroke-linecap:square;stroke-linejoin:miter;stroke-width:0.8;"/>
   </g>
   <g id="patch_61">
    <path d="M 41.56875 146.425561 
L 187.34375 146.425561 
" style="fill:none;stroke:#000000;stroke-linecap:square;stroke-linejoin:miter;stroke-width:0.8;"/>
   </g>
   <g id="legend_1">
    <g id="line2d_19">
     <path d="M 196.34375 162.451914 
L 216.34375 162.451914 
" style="fill:none;stroke:#000000;stroke-linecap:square;stroke-width:2;"/>
    </g>
    <g id="line2d_20"/>
    <g id="text_18">
     <!-- Simulated -->
     <g transform="translate(224.34375 165.951914)scale(0.1 -0.1)">
      <defs>
       <path d="M 59.59375 51.5 
C 59.59375 56.5 59.296875 57.90625 57.703125 61.296875 
C 53.703125 69.703125 45.203125 74.09375 32.90625 74.09375 
C 16.90625 74.09375 7 65.90625 7 52.703125 
C 7 43.796875 11.703125 38.203125 21.296875 35.703125 
L 39.40625 30.90625 
C 48.703125 28.5 52.796875 24.796875 52.796875 19.09375 
C 52.796875 15.203125 50.703125 11.203125 47.59375 9 
C 44.703125 6.90625 40.09375 5.90625 34.203125 5.90625 
C 26.203125 5.90625 20.90625 7.796875 17.40625 12 
C 14.703125 15.203125 13.5 18.703125 13.59375 23.203125 
L 4.796875 23.203125 
C 4.90625 16.5 6.203125 12.09375 9.09375 8.09375 
C 14.09375 1.203125 22.5 -2.296875 33.59375 -2.296875 
C 42.296875 -2.296875 49.40625 -0.296875 54.09375 3.296875 
C 59 7.203125 62.09375 13.703125 62.09375 20 
C 62.09375 29 56.5 35.59375 46.59375 38.296875 
L 28.296875 43.203125 
C 19.5 45.59375 16.296875 48.40625 16.296875 54 
C 16.296875 61.40625 22.796875 66.296875 32.59375 66.296875 
C 44.203125 66.296875 50.703125 61.09375 50.796875 51.5 
z
" id="NimbusSans-Regular-83"/>
       <path d="M 7 52.40625 
L 7 0 
L 15.40625 0 
L 15.40625 32.90625 
C 15.40625 40.5 20.90625 46.59375 27.703125 46.59375 
C 33.90625 46.59375 37.40625 42.796875 37.40625 36.09375 
L 37.40625 0 
L 45.796875 0 
L 45.796875 32.90625 
C 45.796875 40.5 51.296875 46.59375 58.09375 46.59375 
C 64.203125 46.59375 67.796875 42.703125 67.796875 36.09375 
L 67.796875 0 
L 76.203125 0 
L 76.203125 39.296875 
C 76.203125 48.703125 70.796875 53.90625 61 53.90625 
C 54 53.90625 49.796875 51.796875 44.90625 45.90625 
C 41.796875 51.5 37.59375 53.90625 30.796875 53.90625 
C 23.796875 53.90625 19.09375 51.296875 14.703125 45 
L 14.703125 52.40625 
z
" id="NimbusSans-Regular-109"/>
       <path d="M 48.203125 0 
L 48.203125 52.40625 
L 39.90625 52.40625 
L 39.90625 22.703125 
C 39.90625 12 34.296875 5 25.59375 5 
C 19 5 14.796875 9 14.796875 15.296875 
L 14.796875 52.40625 
L 6.5 52.40625 
L 6.5 12 
C 6.5 3.296875 13 -2.296875 23.203125 -2.296875 
C 30.90625 -2.296875 35.796875 0.40625 40.703125 7.296875 
L 40.703125 0 
z
" id="NimbusSans-Regular-117"/>
       <path d="M 49.5 72.90625 
L 41.203125 72.90625 
L 41.203125 45.796875 
C 37.703125 51.09375 32.09375 53.90625 25.09375 53.90625 
C 11.5 53.90625 2.59375 43 2.59375 26.296875 
C 2.59375 8.59375 11.203125 -2.296875 25.40625 -2.296875 
C 32.59375 -2.296875 37.59375 0.40625 42.09375 6.90625 
L 42.09375 0 
L 49.5 0 
z
M 26.5 46.09375 
C 35.5 46.09375 41.203125 38.203125 41.203125 25.59375 
C 41.203125 13.5 35.40625 5.5 26.59375 5.5 
C 17.40625 5.5 11.296875 13.59375 11.296875 25.796875 
C 11.296875 38 17.40625 46.09375 26.5 46.09375 
z
" id="NimbusSans-Regular-100"/>
      </defs>
      <use xlink:href="#NimbusSans-Regular-83"/>
      <use x="66.699997" xlink:href="#NimbusSans-Regular-105"/>
      <use x="88.899994" xlink:href="#NimbusSans-Regular-109"/>
      <use x="172.199982" xlink:href="#NimbusSans-Regular-117"/>
      <use x="227.799973" xlink:href="#NimbusSans-Regular-108"/>
      <use x="249.999969" xlink:href="#NimbusSans-Regular-97"/>
      <use x="305.59996" xlink:href="#NimbusSans-Regular-116"/>
      <use x="333.399948" xlink:href="#NimbusSans-Regular-101"/>
      <use x="388.999939" xlink:href="#NimbusSans-Regular-100"/>
     </g>
    </g>
    <g id="line2d_21">
     <path d="M 196.34375 176.922227 
L 216.34375 176.922227 
" style="fill:none;stroke:#1b9e77;stroke-linecap:square;stroke-width:1.5;"/>
    </g>
    <g id="line2d_22"/>
    <g id="text_19">
     <!-- K = 1 -->
     <g transform="translate(224.34375 180.422227)scale(0.1 -0.1)">
      <defs>
       <path d="M 17.203125 25.5 
L 29.09375 37.40625 
L 54.796875 0 
L 65.796875 0 
L 35.796875 43.203125 
L 65.5 72.90625 
L 53.5 72.90625 
L 17.203125 36 
L 17.203125 72.90625 
L 7.90625 72.90625 
L 7.90625 0 
L 17.203125 0 
z
" id="NimbusSans-Regular-75"/>
       <path d="M 53.40625 35.296875 
L 5 35.296875 
L 5 28.296875 
L 53.40625 28.296875 
z
M 53.40625 18.09375 
L 5 18.09375 
L 5 11.09375 
L 53.40625 11.09375 
z
" id="NimbusSans-Regular-61"/>
      </defs>
      <use xlink:href="#NimbusSans-Regular-75"/>
      <use x="66.699997" xlink:href="#NimbusSans-Regular-32"/>
      <use x="94.499985" xlink:href="#NimbusSans-Regular-61"/>
      <use x="152.899979" xlink:href="#NimbusSans-Regular-32"/>
      <use x="180.699966" xlink:href="#NimbusSans-Regular-49"/>
     </g>
    </g>
    <g id="line2d_23">
     <path d="M 196.34375 191.392539 
L 216.34375 191.392539 
" style="fill:none;stroke:#d95f02;stroke-linecap:square;stroke-width:1.5;"/>
    </g>
    <g id="line2d_24"/>
    <g id="text_20">
     <!-- K = 2 -->
     <g transform="translate(224.34375 194.892539)scale(0.1 -0.1)">
      <use xlink:href="#NimbusSans-Regular-75"/>
      <use x="66.699997" xlink:href="#NimbusSans-Regular-32"/>
      <use x="94.499985" xlink:href="#NimbusSans-Regular-61"/>
      <use x="152.899979" xlink:href="#NimbusSans-Regular-32"/>
      <use x="180.699966" xlink:href="#NimbusSans-Regular-50"/>
     </g>
    </g>
    <g id="line2d_25">
     <path d="M 196.34375 205.862852 
L 216.34375 205.862852 
" style="fill:none;stroke:#7570b3;stroke-linecap:square;stroke-width:1.5;"/>
    </g>
    <g id="line2d_26"/>
    <g id="text_21">
     <!-- K = 3 -->
     <g transform="translate(224.34375 209.362852)scale(0.1 -0.1)">
      <defs>
       <path d="M 22.09375 33.296875 
L 23.203125 33.296875 
L 26.90625 33.296875 
C 36.5 33.296875 41.59375 28.796875 41.59375 20.09375 
C 41.59375 11 36.09375 5.5 27 5.5 
C 17.296875 5.5 12.59375 10.40625 12 21 
L 3.203125 21 
C 3.59375 15.203125 4.59375 11.40625 6.296875 8.203125 
C 10 1.203125 16.90625 -2.296875 26.59375 -2.296875 
C 41.203125 -2.296875 50.59375 6.5 50.59375 20.203125 
C 50.59375 29.40625 47.09375 34.40625 38.59375 37.40625 
C 45.203125 40.09375 48.5 45.09375 48.5 52.40625 
C 48.5 64.796875 40.40625 72.296875 26.90625 72.296875 
C 12.59375 72.296875 5 64.296875 4.703125 49 
L 13.5 49 
C 13.59375 53.40625 14 55.90625 15.09375 58.09375 
C 17.09375 62.203125 21.5 64.59375 27 64.59375 
C 34.796875 64.59375 39.5 59.90625 39.5 52.09375 
C 39.5 47 37.703125 43.90625 33.796875 42.203125 
C 31.40625 41.203125 28.203125 40.796875 22.09375 40.703125 
z
" id="NimbusSans-Regular-51"/>
      </defs>
      <use xlink:href="#NimbusSans-Regular-75"/>
      <use x="66.699997" xlink:href="#NimbusSans-Regular-32"/>
      <use x="94.499985" xlink:href="#NimbusSans-Regular-61"/>
      <use x="152.899979" xlink:href="#NimbusSans-Regular-32"/>
      <use x="180.699966" xlink:href="#NimbusSans-Regular-51"/>
     </g>
    </g>
    <g id="line2d_27">
     <path d="M 196.34375 220.333164 
L 216.34375 220.333164 
" style="fill:none;stroke:#e7298a;stroke-linecap:square;stroke-width:1.5;"/>
    </g>
    <g id="line2d_28"/>
    <g id="text_22">
     <!-- K = 4 -->
     <g transform="translate(224.34375 223.833164)scale(0.1 -0.1)">
      <defs>
       <path d="M 32.703125 17.5 
L 32.703125 0 
L 41.5 0 
L 41.5 17.5 
L 52 17.5 
L 52 25.40625 
L 41.5 25.40625 
L 41.5 72.296875 
L 35 72.296875 
L 2.796875 26.796875 
L 2.796875 17.5 
z
M 32.703125 25.40625 
L 10.5 25.40625 
L 32.703125 57.296875 
z
" id="NimbusSans-Regular-52"/>
      </defs>
      <use xlink:href="#NimbusSans-Regular-75"/>
      <use x="66.699997" xlink:href="#NimbusSans-Regular-32"/>
      <use x="94.499985" xlink:href="#NimbusSans-Regular-61"/>
      <use x="152.899979" xlink:href="#NimbusSans-Regular-32"/>
      <use x="180.699966" xlink:href="#NimbusSans-Regular-52"/>
     </g>
    </g>
   </g>
  </g>
 </g>
 <defs>
  <clipPath id="p2357a4968d">
   <rect height="91.823018" width="145.775" x="41.56875" y="10.802544"/>
  </clipPath>
  <clipPath id="p3aade5f6e1">
   <rect height="91.823018" width="145.775" x="41.56875" y="146.425561"/>
  </clipPath>
 </defs>
</svg>
