<?xml version="1.0" encoding="utf-8" standalone="no"?>
<!DOCTYPE svg PUBLIC "-//W3C//DTD SVG 1.1//EN"
  "http://www.w3.org/Graphics/SVG/1.1/DTD/svg11.dtd">
<!-- Created with matplotlib (https://matplotlib.org/) -->
<svg height="275.740625pt" version="1.1" viewBox="0 0 280.001563 275.740625" width="280.001563pt" xmlns="http://www.w3.org/2000/svg" xmlns:xlink="http://www.w3.org/1999/xlink">
 <metadata>
  <rdf:RDF xmlns:cc="http://creativecommons.org/ns#" xmlns:dc="http://purl.org/dc/elements/1.1/" xmlns:rdf="http://www.w3.org/1999/02/22-rdf-syntax-ns#">
   <cc:Work>
    <dc:type rdf:resource="http://purl.org/dc/dcmitype/StillImage"/>
    <dc:date>2021-02-27T12:01:01.454430</dc:date>
    <dc:format>image/svg+xml</dc:format>
    <dc:creator>
     <cc:Agent>
      <dc:title>Matplotlib v3.3.4, https://matplotlib.org/</dc:title>
     </cc:Agent>
    </dc:creator>
   </cc:Work>
  </rdf:RDF>
 </metadata>
 <defs>
  <style type="text/css">*{stroke-linecap:butt;stroke-linejoin:round;}</style>
 </defs>
 <g id="figure_1">
  <g id="patch_1">
   <path d="M 0 275.740625 
L 280.001563 275.740625 
L 280.001563 0 
L 0 0 
z
" style="fill:#ffffff;"/>
  </g>
  <g id="axes_1">
   <g id="patch_2">
    <path d="M 41.56875 101 
L 187.34375 101 
L 187.34375 7.2 
L 41.56875 7.2 
z
" style="fill:#ffffff;"/>
   </g>
   <g id="patch_3">
    <path clip-path="url(#p70d7645791)" d="M 48.194886 101 
L 53.495795 101 
L 53.495795 100.27957 
L 48.194886 100.27957 
z
" style="fill:#b2b2b2;"/>
   </g>
   <g id="patch_4">
    <path clip-path="url(#p70d7645791)" d="M 53.495795 101 
L 58.796705 101 
L 58.796705 100.27957 
L 53.495795 100.27957 
z
" style="fill:#b2b2b2;"/>
   </g>
   <g id="patch_5">
    <path clip-path="url(#p70d7645791)" d="M 58.796705 101 
L 64.097614 101 
L 64.097614 99.55914 
L 58.796705 99.55914 
z
" style="fill:#b2b2b2;"/>
   </g>
   <g id="patch_6">
    <path clip-path="url(#p70d7645791)" d="M 64.097614 101 
L 69.398523 101 
L 69.398523 97.397849 
L 64.097614 97.397849 
z
" style="fill:#b2b2b2;"/>
   </g>
   <g id="patch_7">
    <path clip-path="url(#p70d7645791)" d="M 69.398523 101 
L 74.699432 101 
L 74.699432 93.075269 
L 69.398523 93.075269 
z
" style="fill:#b2b2b2;"/>
   </g>
   <g id="patch_8">
    <path clip-path="url(#p70d7645791)" d="M 74.699432 101 
L 80.000341 101 
L 80.000341 90.913978 
L 74.699432 90.913978 
z
" style="fill:#b2b2b2;"/>
   </g>
   <g id="patch_9">
    <path clip-path="url(#p70d7645791)" d="M 80.000341 101 
L 85.30125 101 
L 85.30125 79.387097 
L 80.000341 79.387097 
z
" style="fill:#b2b2b2;"/>
   </g>
   <g id="patch_10">
    <path clip-path="url(#p70d7645791)" d="M 85.30125 101 
L 90.602159 101 
L 90.602159 67.139785 
L 85.30125 67.139785 
z
" style="fill:#b2b2b2;"/>
   </g>
   <g id="patch_11">
    <path clip-path="url(#p70d7645791)" d="M 90.602159 101 
L 95.903068 101 
L 95.903068 49.849462 
L 90.602159 49.849462 
z
" style="fill:#b2b2b2;"/>
   </g>
   <g id="patch_12">
    <path clip-path="url(#p70d7645791)" d="M 95.903068 101 
L 101.203977 101 
L 101.203977 39.763441 
L 95.903068 39.763441 
z
" style="fill:#b2b2b2;"/>
   </g>
   <g id="patch_13">
    <path clip-path="url(#p70d7645791)" d="M 101.203977 101 
L 106.504886 101 
L 106.504886 23.913978 
L 101.203977 23.913978 
z
" style="fill:#b2b2b2;"/>
   </g>
   <g id="patch_14">
    <path clip-path="url(#p70d7645791)" d="M 106.504886 101 
L 111.805795 101 
L 111.805795 16.709677 
L 106.504886 16.709677 
z
" style="fill:#b2b2b2;"/>
   </g>
   <g id="patch_15">
    <path clip-path="url(#p70d7645791)" d="M 111.805795 101 
L 117.106705 101 
L 117.106705 11.666667 
L 111.805795 11.666667 
z
" style="fill:#b2b2b2;"/>
   </g>
   <g id="patch_16">
    <path clip-path="url(#p70d7645791)" d="M 117.106705 101 
L 122.407614 101 
L 122.407614 29.677419 
L 117.106705 29.677419 
z
" style="fill:#b2b2b2;"/>
   </g>
   <g id="patch_17">
    <path clip-path="url(#p70d7645791)" d="M 122.407614 101 
L 127.708523 101 
L 127.708523 37.602151 
L 122.407614 37.602151 
z
" style="fill:#b2b2b2;"/>
   </g>
   <g id="patch_18">
    <path clip-path="url(#p70d7645791)" d="M 127.708523 101 
L 133.009432 101 
L 133.009432 34.72043 
L 127.708523 34.72043 
z
" style="fill:#b2b2b2;"/>
   </g>
   <g id="patch_19">
    <path clip-path="url(#p70d7645791)" d="M 133.009432 101 
L 138.310341 101 
L 138.310341 71.462366 
L 133.009432 71.462366 
z
" style="fill:#b2b2b2;"/>
   </g>
   <g id="patch_20">
    <path clip-path="url(#p70d7645791)" d="M 138.310341 101 
L 143.61125 101 
L 143.61125 86.591398 
L 138.310341 86.591398 
z
" style="fill:#b2b2b2;"/>
   </g>
   <g id="patch_21">
    <path clip-path="url(#p70d7645791)" d="M 143.61125 101 
L 148.912159 101 
L 148.912159 81.548387 
L 143.61125 81.548387 
z
" style="fill:#b2b2b2;"/>
   </g>
   <g id="patch_22">
    <path clip-path="url(#p70d7645791)" d="M 148.912159 101 
L 154.213068 101 
L 154.213068 93.795699 
L 148.912159 93.795699 
z
" style="fill:#b2b2b2;"/>
   </g>
   <g id="patch_23">
    <path clip-path="url(#p70d7645791)" d="M 154.213068 101 
L 159.513977 101 
L 159.513977 98.11828 
L 154.213068 98.11828 
z
" style="fill:#b2b2b2;"/>
   </g>
   <g id="patch_24">
    <path clip-path="url(#p70d7645791)" d="M 159.513977 101 
L 164.814886 101 
L 164.814886 99.55914 
L 159.513977 99.55914 
z
" style="fill:#b2b2b2;"/>
   </g>
   <g id="patch_25">
    <path clip-path="url(#p70d7645791)" d="M 164.814886 101 
L 170.115795 101 
L 170.115795 100.27957 
L 164.814886 100.27957 
z
" style="fill:#b2b2b2;"/>
   </g>
   <g id="patch_26">
    <path clip-path="url(#p70d7645791)" d="M 170.115795 101 
L 175.416705 101 
L 175.416705 101 
L 170.115795 101 
z
" style="fill:#b2b2b2;"/>
   </g>
   <g id="patch_27">
    <path clip-path="url(#p70d7645791)" d="M 175.416705 101 
L 180.717614 101 
L 180.717614 100.27957 
L 175.416705 100.27957 
z
" style="fill:#b2b2b2;"/>
   </g>
   <g id="matplotlib.axis_1">
    <g id="xtick_1">
     <g id="line2d_1">
      <defs>
       <path d="M 0 0 
L 0 3.5 
" id="m7d8ed99c78" style="stroke:#000000;stroke-width:0.8;"/>
      </defs>
      <g>
       <use style="stroke:#000000;stroke-width:0.8;" x="68.272725" xlink:href="#m7d8ed99c78" y="101"/>
      </g>
     </g>
     <g id="text_1">
      <!-- −2.5 -->
      <g transform="translate(58.403194 115.290625)scale(0.1 -0.1)">
       <defs>
        <path d="M 54.40625 26.703125 
L 4 26.703125 
L 4 19.703125 
L 54.40625 19.703125 
z
" id="NimbusSans-Regular-8722"/>
        <path d="M 50.59375 8.703125 
L 13.296875 8.703125 
C 14.203125 14.703125 17.40625 18.5 26.09375 23.796875 
L 36.09375 29.40625 
C 46 34.90625 51.09375 42.296875 51.09375 51.203125 
C 51.09375 57.203125 48.703125 62.796875 44.5 66.703125 
C 40.296875 70.5 35.09375 72.296875 28.40625 72.296875 
C 19.40625 72.296875 12.703125 69.09375 8.796875 62.90625 
C 6.296875 59.09375 5.203125 54.59375 5 47.296875 
L 13.796875 47.296875 
C 14.09375 52.203125 14.703125 55.09375 15.90625 57.5 
C 18.203125 61.90625 22.796875 64.59375 28.09375 64.59375 
C 36.09375 64.59375 42.09375 58.796875 42.09375 51 
C 42.09375 45.203125 38.796875 40.203125 32.5 36.59375 
L 23.296875 31.203125 
C 8.5 22.703125 4.203125 15.90625 3.40625 0.09375 
L 50.59375 0.09375 
z
" id="NimbusSans-Regular-50"/>
        <path d="M 19.09375 10.40625 
L 8.703125 10.40625 
L 8.703125 0 
L 19.09375 0 
z
" id="NimbusSans-Regular-46"/>
        <path d="M 47.59375 70.90625 
L 11 70.90625 
L 5.703125 32.296875 
L 13.796875 32.296875 
C 17.90625 37.203125 21.296875 38.90625 26.90625 38.90625 
C 36.40625 38.90625 42.296875 32.40625 42.296875 21.90625 
C 42.296875 11.703125 36.40625 5.5 26.796875 5.5 
C 19.09375 5.5 14.40625 9.40625 12.296875 17.40625 
L 3.5 17.40625 
C 4.703125 11.59375 5.703125 8.796875 7.796875 6.203125 
C 11.796875 0.796875 19 -2.296875 27 -2.296875 
C 41.296875 -2.296875 51.296875 8.09375 51.296875 23.09375 
C 51.296875 37.09375 42 46.703125 28.40625 46.703125 
C 23.40625 46.703125 19.40625 45.40625 15.296875 42.40625 
L 18.09375 62.203125 
L 47.59375 62.203125 
z
" id="NimbusSans-Regular-53"/>
       </defs>
       <use xlink:href="#NimbusSans-Regular-8722"/>
       <use x="58.399994" xlink:href="#NimbusSans-Regular-50"/>
       <use x="113.999985" xlink:href="#NimbusSans-Regular-46"/>
       <use x="141.799973" xlink:href="#NimbusSans-Regular-53"/>
      </g>
     </g>
    </g>
    <g id="xtick_2">
     <g id="line2d_2">
      <g>
       <use style="stroke:#000000;stroke-width:0.8;" x="113.032147" xlink:href="#m7d8ed99c78" y="101"/>
      </g>
     </g>
     <g id="text_2">
      <!-- 0.0 -->
      <g transform="translate(106.082928 115.290625)scale(0.1 -0.1)">
       <defs>
        <path d="M 27.5 72.296875 
C 20.90625 72.296875 14.90625 69.296875 11.203125 64.40625 
C 6.59375 58 4.296875 48.40625 4.296875 35 
C 4.296875 10.59375 12.296875 -2.296875 27.5 -2.296875 
C 42.5 -2.296875 50.703125 10.59375 50.703125 34.40625 
C 50.703125 48.40625 48.5 57.796875 43.796875 64.40625 
C 40.09375 69.40625 34.203125 72.296875 27.5 72.296875 
z
M 27.5 64.5 
C 37 64.5 41.703125 54.796875 41.703125 35.203125 
C 41.703125 14.59375 37.09375 5 27.296875 5 
C 18 5 13.296875 15 13.296875 34.90625 
C 13.296875 54.796875 18 64.5 27.5 64.5 
z
" id="NimbusSans-Regular-48"/>
       </defs>
       <use xlink:href="#NimbusSans-Regular-48"/>
       <use x="55.599991" xlink:href="#NimbusSans-Regular-46"/>
       <use x="83.399979" xlink:href="#NimbusSans-Regular-48"/>
      </g>
     </g>
    </g>
    <g id="xtick_3">
     <g id="line2d_3">
      <g>
       <use style="stroke:#000000;stroke-width:0.8;" x="157.791569" xlink:href="#m7d8ed99c78" y="101"/>
      </g>
     </g>
     <g id="text_3">
      <!-- 2.5 -->
      <g transform="translate(150.84235 115.290625)scale(0.1 -0.1)">
       <use xlink:href="#NimbusSans-Regular-50"/>
       <use x="55.599991" xlink:href="#NimbusSans-Regular-46"/>
       <use x="83.399979" xlink:href="#NimbusSans-Regular-53"/>
      </g>
     </g>
    </g>
    <g id="text_4">
     <!-- Observation $x$ -->
     <g transform="translate(83.10625 128.760937)scale(0.1 -0.1)">
      <defs>
       <path d="M 38.90625 74.09375 
C 18 74.09375 3.796875 58.703125 3.796875 35.90625 
C 3.796875 13 17.90625 -2.296875 39 -2.296875 
C 47.90625 -2.296875 55.703125 0.40625 61.59375 5.40625 
C 69.5 12.09375 74.203125 23.40625 74.203125 35.296875 
C 74.203125 58.796875 60.296875 74.09375 38.90625 74.09375 
z
M 38.90625 65.90625 
C 54.703125 65.90625 64.90625 54 64.90625 35.5 
C 64.90625 17.90625 54.40625 5.90625 39 5.90625 
C 23.40625 5.90625 13.09375 17.90625 13.09375 35.90625 
C 13.09375 53.90625 23.40625 65.90625 38.90625 65.90625 
z
" id="NimbusSans-Regular-79"/>
       <path d="M 5.40625 72.90625 
L 5.40625 0 
L 12.90625 0 
L 12.90625 6.703125 
C 16.90625 0.59375 22.203125 -2.296875 29.5 -2.296875 
C 43.296875 -2.296875 52.296875 9 52.296875 26.40625 
C 52.296875 43.40625 43.796875 53.90625 29.90625 53.90625 
C 22.703125 53.90625 17.59375 51.203125 13.703125 45.296875 
L 13.703125 72.90625 
z
M 28.296875 46.09375 
C 37.59375 46.09375 43.59375 38 43.59375 25.5 
C 43.59375 13.59375 37.40625 5.5 28.296875 5.5 
C 19.40625 5.5 13.703125 13.5 13.703125 25.796875 
C 13.703125 38.09375 19.40625 46.09375 28.296875 46.09375 
z
" id="NimbusSans-Regular-98"/>
       <path d="M 43.796875 37.796875 
C 43.703125 48.09375 36.90625 53.90625 24.796875 53.90625 
C 12.59375 53.90625 4.703125 47.59375 4.703125 37.90625 
C 4.703125 29.703125 8.90625 25.796875 21.296875 22.796875 
L 29.09375 20.90625 
C 34.90625 19.5 37.203125 17.40625 37.203125 13.703125 
C 37.203125 8.703125 32.296875 5.40625 25 5.40625 
C 20.5 5.40625 16.703125 6.703125 14.59375 8.90625 
C 13.296875 10.40625 12.703125 11.90625 12.203125 15.59375 
L 3.40625 15.59375 
C 3.796875 3.5 10.59375 -2.296875 24.296875 -2.296875 
C 37.5 -2.296875 45.90625 4.203125 45.90625 14.296875 
C 45.90625 22.09375 41.5 26.40625 31.09375 28.90625 
L 23.09375 30.796875 
C 16.296875 32.40625 13.40625 34.59375 13.40625 38.296875 
C 13.40625 43.203125 17.703125 46.203125 24.5 46.203125 
C 31.203125 46.203125 34.796875 43.296875 35 37.796875 
z
" id="NimbusSans-Regular-115"/>
       <path d="M 51.296875 23.40625 
C 51.296875 31.40625 50.703125 36.203125 49.203125 40.09375 
C 45.796875 48.703125 37.796875 53.90625 28 53.90625 
C 13.40625 53.90625 4 42.796875 4 25.5 
C 4 8.203125 13 -2.296875 27.796875 -2.296875 
C 39.796875 -2.296875 48.09375 4.5 50.203125 15.90625 
L 41.796875 15.90625 
C 39.5 9 34.796875 5.40625 28.09375 5.40625 
C 22.796875 5.40625 18.296875 7.796875 15.5 12.203125 
C 13.5 15.203125 12.796875 18.203125 12.703125 23.40625 
z
M 12.90625 30.203125 
C 13.59375 39.90625 19.5 46.203125 27.90625 46.203125 
C 36.40625 46.203125 42.296875 39.59375 42.296875 30.203125 
z
" id="NimbusSans-Regular-101"/>
       <path d="M 6.90625 52.40625 
L 6.90625 0 
L 15.296875 0 
L 15.296875 27.203125 
C 15.40625 39.796875 20.59375 45.40625 32.09375 45.09375 
L 32.09375 53.59375 
C 30.703125 53.796875 29.90625 53.90625 28.90625 53.90625 
C 23.5 53.90625 19.40625 50.703125 14.59375 42.90625 
L 14.59375 52.40625 
z
" id="NimbusSans-Regular-114"/>
       <path d="M 28.5 0 
L 48.59375 52.40625 
L 39.203125 52.40625 
L 24.40625 9.90625 
L 10.40625 52.40625 
L 1 52.40625 
L 19.40625 0 
z
" id="NimbusSans-Regular-118"/>
       <path d="M 53.5 4.90625 
C 52.59375 4.703125 52.203125 4.703125 51.703125 4.703125 
C 48.796875 4.703125 47.203125 6.203125 47.203125 8.796875 
L 47.203125 39.59375 
C 47.203125 48.90625 40.40625 53.90625 27.5 53.90625 
C 19.796875 53.90625 13.703125 51.703125 10.09375 47.796875 
C 7.703125 45.09375 6.703125 42.09375 6.5 36.90625 
L 14.90625 36.90625 
C 15.59375 43.296875 19.40625 46.203125 27.203125 46.203125 
C 34.796875 46.203125 38.90625 43.40625 38.90625 38.40625 
L 38.90625 36.203125 
C 38.796875 32.59375 37 31.296875 30.203125 30.40625 
C 18.40625 28.90625 16.59375 28.5 13.40625 27.203125 
C 7.296875 24.59375 4.203125 20 4.203125 13.203125 
C 4.203125 3.703125 10.796875 -2.296875 21.40625 -2.296875 
C 28 -2.296875 33.296875 0 39.203125 5.40625 
C 39.796875 0 42.40625 -2.296875 47.796875 -2.296875 
C 49.59375 -2.296875 50.703125 -2.09375 53.5 -1.40625 
z
M 38.90625 16.5 
C 38.90625 13.703125 38.09375 12 35.59375 9.703125 
C 32.203125 6.59375 28.09375 5 23.203125 5 
C 16.703125 5 12.90625 8.09375 12.90625 13.40625 
C 12.90625 18.90625 16.5 21.703125 25.5 23 
C 34.40625 24.203125 36.09375 24.59375 38.90625 25.90625 
z
" id="NimbusSans-Regular-97"/>
       <path d="M 25.40625 52.40625 
L 16.796875 52.40625 
L 16.796875 66.796875 
L 8.5 66.796875 
L 8.5 52.40625 
L 1.40625 52.40625 
L 1.40625 45.59375 
L 8.5 45.59375 
L 8.5 6 
C 8.5 0.59375 12.09375 -2.296875 18.59375 -2.296875 
C 20.796875 -2.296875 22.59375 -2.09375 25.40625 -1.59375 
L 25.40625 5.40625 
C 24.203125 5.09375 23.09375 5 21.40625 5 
C 17.796875 5 16.796875 6 16.796875 9.703125 
L 16.796875 45.59375 
L 25.40625 45.59375 
z
" id="NimbusSans-Regular-116"/>
       <path d="M 15 52.40625 
L 6.703125 52.40625 
L 6.703125 0 
L 15 0 
z
M 15 72.90625 
L 6.59375 72.90625 
L 6.59375 62.40625 
L 15 62.40625 
z
" id="NimbusSans-Regular-105"/>
       <path d="M 27.203125 53.90625 
C 12.40625 53.90625 3.59375 43.40625 3.59375 25.796875 
C 3.59375 8.09375 12.40625 -2.296875 27.296875 -2.296875 
C 42.09375 -2.296875 51 8.203125 51 25.40625 
C 51 43.59375 42.40625 53.90625 27.203125 53.90625 
z
M 27.296875 46.203125 
C 36.703125 46.203125 42.296875 38.5 42.296875 25.5 
C 42.296875 13.09375 36.5 5.40625 27.296875 5.40625 
C 18 5.40625 12.296875 13.09375 12.296875 25.796875 
C 12.296875 38.5 18 46.203125 27.296875 46.203125 
z
" id="NimbusSans-Regular-111"/>
       <path d="M 7 52.40625 
L 7 0 
L 15.40625 0 
L 15.40625 28.90625 
C 15.40625 39.59375 21 46.59375 29.59375 46.59375 
C 36.203125 46.59375 40.40625 42.59375 40.40625 36.296875 
L 40.40625 0 
L 48.703125 0 
L 48.703125 39.59375 
C 48.703125 48.296875 42.203125 53.90625 32.09375 53.90625 
C 24.296875 53.90625 19.296875 50.90625 14.703125 43.59375 
L 14.703125 52.40625 
z
" id="NimbusSans-Regular-110"/>
       <path id="NimbusSans-Regular-32"/>
       <path d="M 60.015625 54.6875 
L 34.90625 27.875 
L 50.296875 0 
L 39.984375 0 
L 28.421875 21.6875 
L 8.296875 0 
L -2.59375 0 
L 24.3125 28.8125 
L 10.015625 54.6875 
L 20.3125 54.6875 
L 30.8125 34.90625 
L 49.125 54.6875 
z
" id="DejaVuSans-Oblique-120"/>
      </defs>
      <use transform="translate(0 0.90625)" xlink:href="#NimbusSans-Regular-79"/>
      <use transform="translate(77.799988 0.90625)" xlink:href="#NimbusSans-Regular-98"/>
      <use transform="translate(133.399979 0.90625)" xlink:href="#NimbusSans-Regular-115"/>
      <use transform="translate(183.399963 0.90625)" xlink:href="#NimbusSans-Regular-101"/>
      <use transform="translate(238.999954 0.90625)" xlink:href="#NimbusSans-Regular-114"/>
      <use transform="translate(272.299942 0.90625)" xlink:href="#NimbusSans-Regular-118"/>
      <use transform="translate(322.299927 0.90625)" xlink:href="#NimbusSans-Regular-97"/>
      <use transform="translate(377.899918 0.90625)" xlink:href="#NimbusSans-Regular-116"/>
      <use transform="translate(405.699905 0.90625)" xlink:href="#NimbusSans-Regular-105"/>
      <use transform="translate(427.899902 0.90625)" xlink:href="#NimbusSans-Regular-111"/>
      <use transform="translate(483.499893 0.90625)" xlink:href="#NimbusSans-Regular-110"/>
      <use transform="translate(539.099884 0.90625)" xlink:href="#NimbusSans-Regular-32"/>
      <use transform="translate(566.899872 0.90625)" xlink:href="#DejaVuSans-Oblique-120"/>
     </g>
    </g>
   </g>
   <g id="matplotlib.axis_2">
    <g id="ytick_1">
     <g id="line2d_4">
      <defs>
       <path d="M 0 0 
L -3.5 0 
" id="m9c7bce1ab6" style="stroke:#000000;stroke-width:0.8;"/>
      </defs>
      <g>
       <use style="stroke:#000000;stroke-width:0.8;" x="41.56875" xlink:href="#m9c7bce1ab6" y="101"/>
      </g>
     </g>
     <g id="text_5">
      <!-- 0.0 -->
      <g transform="translate(20.670313 104.645312)scale(0.1 -0.1)">
       <use xlink:href="#NimbusSans-Regular-48"/>
       <use x="55.599991" xlink:href="#NimbusSans-Regular-46"/>
       <use x="83.399979" xlink:href="#NimbusSans-Regular-48"/>
      </g>
     </g>
    </g>
    <g id="ytick_2">
     <g id="line2d_5">
      <g>
       <use style="stroke:#000000;stroke-width:0.8;" x="41.56875" xlink:href="#m9c7bce1ab6" y="58.339323"/>
      </g>
     </g>
     <g id="text_6">
      <!-- 0.2 -->
      <g transform="translate(20.670313 61.984635)scale(0.1 -0.1)">
       <use xlink:href="#NimbusSans-Regular-48"/>
       <use x="55.599991" xlink:href="#NimbusSans-Regular-46"/>
       <use x="83.399979" xlink:href="#NimbusSans-Regular-50"/>
      </g>
     </g>
    </g>
    <g id="ytick_3">
     <g id="line2d_6">
      <g>
       <use style="stroke:#000000;stroke-width:0.8;" x="41.56875" xlink:href="#m9c7bce1ab6" y="15.678646"/>
      </g>
     </g>
     <g id="text_7">
      <!-- 0.4 -->
      <g transform="translate(20.670313 19.323958)scale(0.1 -0.1)">
       <defs>
        <path d="M 32.703125 17.5 
L 32.703125 0 
L 41.5 0 
L 41.5 17.5 
L 52 17.5 
L 52 25.40625 
L 41.5 25.40625 
L 41.5 72.296875 
L 35 72.296875 
L 2.796875 26.796875 
L 2.796875 17.5 
z
M 32.703125 25.40625 
L 10.5 25.40625 
L 32.703125 57.296875 
z
" id="NimbusSans-Regular-52"/>
       </defs>
       <use xlink:href="#NimbusSans-Regular-48"/>
       <use x="55.599991" xlink:href="#NimbusSans-Regular-46"/>
       <use x="83.399979" xlink:href="#NimbusSans-Regular-52"/>
      </g>
     </g>
    </g>
    <g id="text_8">
     <!-- Density -->
     <g transform="translate(14.490625 70.769531)rotate(-90)scale(0.1 -0.1)">
      <defs>
       <path d="M 8.90625 0 
L 37 0 
C 55.40625 0 66.703125 13.796875 66.703125 36.5 
C 66.703125 59.09375 55.5 72.90625 37 72.90625 
L 8.90625 72.90625 
z
M 18.203125 8.203125 
L 18.203125 64.703125 
L 35.40625 64.703125 
C 49.796875 64.703125 57.40625 55 57.40625 36.40625 
C 57.40625 17.90625 49.796875 8.203125 35.40625 8.203125 
z
" id="NimbusSans-Regular-68"/>
       <path d="M 38.796875 52.40625 
L 24.296875 11.59375 
L 10.90625 52.40625 
L 2 52.40625 
L 19.703125 -0.203125 
L 16.5 -8.5 
C 15.09375 -12.203125 13.296875 -13.59375 9.796875 -13.59375 
C 8.40625 -13.59375 7.203125 -13.40625 5.40625 -13 
L 5.40625 -20.5 
C 7.09375 -21.40625 8.796875 -21.796875 11 -21.796875 
C 13.703125 -21.796875 16.59375 -20.90625 18.796875 -19.296875 
C 21.40625 -17.40625 22.90625 -15.203125 24.5 -11 
L 47.796875 52.40625 
z
" id="NimbusSans-Regular-121"/>
      </defs>
      <use xlink:href="#NimbusSans-Regular-68"/>
      <use x="72.199982" xlink:href="#NimbusSans-Regular-101"/>
      <use x="127.799973" xlink:href="#NimbusSans-Regular-110"/>
      <use x="183.399963" xlink:href="#NimbusSans-Regular-115"/>
      <use x="233.399948" xlink:href="#NimbusSans-Regular-105"/>
      <use x="255.599945" xlink:href="#NimbusSans-Regular-116"/>
      <use x="283.399933" xlink:href="#NimbusSans-Regular-121"/>
     </g>
    </g>
   </g>
   <g id="line2d_7">
    <path clip-path="url(#p70d7645791)" d="M 48.194886 100.87736 
L 54.037572 100.621958 
L 58.021221 100.233639 
L 61.20814 99.698314 
L 63.863906 99.024176 
L 66.254096 98.176966 
L 68.378709 97.180704 
L 70.237745 96.081441 
L 72.096781 94.733549 
L 73.955817 93.101681 
L 75.814854 91.151344 
L 77.67389 88.850777 
L 79.532926 86.173137 
L 81.391962 83.098918 
L 83.250999 79.618481 
L 85.375611 75.147575 
L 87.765801 69.523983 
L 90.421567 62.63808 
L 93.874063 52.988364 
L 99.982325 35.793906 
L 102.372514 29.783184 
L 104.231551 25.659403 
L 105.82501 22.609096 
L 107.152893 20.46064 
L 108.480776 18.7061 
L 109.543083 17.605112 
L 110.605389 16.785655 
L 111.667696 16.25627 
L 112.730002 16.022503 
L 113.526732 16.042773 
L 114.589038 16.330365 
L 115.651345 16.912798 
L 116.713651 17.783974 
L 117.775958 18.934825 
L 119.103841 20.74833 
L 120.431724 22.951202 
L 122.025183 26.059743 
L 123.88422 30.240432 
L 126.008832 35.600496 
L 128.930175 43.644691 
L 136.897473 65.965646 
L 139.553239 72.550805 
L 141.943429 77.850677 
L 144.068042 82.012285 
L 145.927078 85.21804 
L 147.786114 88.022877 
L 149.645151 90.443374 
L 151.504187 92.504262 
L 153.363223 94.235957 
L 155.222259 95.672287 
L 157.081296 96.848505 
L 159.205908 97.919137 
L 161.330521 98.745555 
L 163.720711 99.43987 
L 166.376477 99.98501 
L 169.563396 100.411372 
L 173.547045 100.715054 
L 179.124154 100.905023 
L 180.717614 100.931833 
L 180.717614 100.931833 
" style="fill:none;stroke:#000000;stroke-linecap:square;stroke-width:2;"/>
   </g>
   <g id="line2d_8">
    <path clip-path="url(#p70d7645791)" d="M 48.194886 100.879229 
L 54.037572 100.626672 
L 58.021221 100.241857 
L 61.20814 99.710565 
L 63.863906 99.040729 
L 66.254096 98.198119 
L 68.378709 97.206455 
L 70.237745 96.111514 
L 72.096781 94.768091 
L 73.955817 93.140672 
L 75.814854 91.194555 
L 77.67389 88.897732 
L 79.532926 86.223085 
L 81.391962 83.150816 
L 83.250999 79.670998 
L 85.375611 75.198828 
L 87.765801 69.570925 
L 90.421567 62.676341 
L 93.874063 53.009337 
L 99.982325 35.772493 
L 102.372514 29.744091 
L 104.231551 25.607433 
L 105.82501 22.547243 
L 107.152893 20.39164 
L 108.480776 18.631159 
L 109.543083 17.526391 
L 110.605389 16.704105 
L 111.667696 16.172878 
L 112.730002 15.938291 
L 113.526732 15.958635 
L 114.589038 16.247229 
L 115.651345 16.831688 
L 116.713651 17.705871 
L 117.775958 18.860661 
L 119.103841 20.680297 
L 120.431724 22.890467 
L 122.025183 26.00905 
L 123.88422 30.202728 
L 126.008832 35.578535 
L 128.930175 43.644255 
L 136.631897 65.313688 
L 139.287663 71.972668 
L 141.677852 77.345618 
L 143.802465 81.573466 
L 145.927078 85.26875 
L 147.786114 88.070902 
L 149.645151 90.487867 
L 151.504187 92.544661 
L 153.363223 94.271957 
L 155.222259 95.703804 
L 157.081296 96.875636 
L 159.205908 97.941553 
L 161.330521 98.763705 
L 163.720711 99.453854 
L 166.376477 99.995188 
L 169.563396 100.418068 
L 173.547045 100.718806 
L 179.389731 100.911521 
L 180.717614 100.932971 
L 180.717614 100.932971 
" style="fill:none;stroke:#1b9e77;stroke-linecap:square;"/>
   </g>
   <g id="line2d_9">
    <path clip-path="url(#p70d7645791)" d="M 48.194886 100.879234 
L 54.037572 100.626687 
L 58.021221 100.241886 
L 61.20814 99.710616 
L 63.863906 99.040806 
L 66.254096 98.198229 
L 68.378709 97.206604 
L 70.237745 96.111706 
L 72.096781 94.768335 
L 73.955817 93.14098 
L 75.814854 91.194939 
L 77.67389 88.898207 
L 79.532926 86.223664 
L 81.391962 83.151516 
L 83.250999 79.671834 
L 85.375611 75.199839 
L 87.765801 69.572157 
L 90.421567 62.677843 
L 93.874063 53.011218 
L 99.982325 35.775049 
L 102.372514 29.746884 
L 104.231551 25.610388 
L 105.82501 22.550318 
L 107.152893 20.394799 
L 108.480776 18.634387 
L 109.543083 17.529663 
L 110.605389 16.707409 
L 111.667696 16.176203 
L 112.730002 15.941625 
L 113.526732 15.961968 
L 114.589038 16.25055 
L 115.651345 16.834986 
L 116.713651 17.709136 
L 117.775958 18.86388 
L 119.103841 20.683446 
L 120.431724 22.893529 
L 122.025183 26.011989 
L 123.88422 30.205503 
L 126.008832 35.581099 
L 128.930175 43.646502 
L 136.631897 65.315087 
L 139.287663 71.973806 
L 141.677852 77.346545 
L 143.802465 81.574227 
L 145.927078 85.269366 
L 147.786114 88.071408 
L 149.645151 90.488279 
L 151.504187 92.544992 
L 153.363223 94.272221 
L 155.222259 95.704011 
L 157.081296 96.875798 
L 159.205908 97.941673 
L 161.330521 98.763792 
L 163.720711 99.453915 
L 166.376477 99.995227 
L 169.563396 100.418091 
L 173.547045 100.718817 
L 179.389731 100.911524 
L 180.717614 100.932973 
L 180.717614 100.932973 
" style="fill:none;stroke:#d95f02;stroke-linecap:square;"/>
   </g>
   <g id="line2d_10">
    <path clip-path="url(#p70d7645791)" d="M 48.194886 100.879268 
L 54.037572 100.626792 
L 58.021221 100.242099 
L 61.20814 99.710978 
L 63.863906 99.041356 
L 66.254096 98.199015 
L 68.378709 97.207668 
L 70.237745 96.113078 
L 72.096781 94.770084 
L 73.955817 93.143186 
L 75.814854 91.197691 
L 77.67389 88.901603 
L 79.532926 86.227811 
L 81.391962 83.156525 
L 83.250999 79.67782 
L 85.375611 75.20708 
L 87.765801 69.580977 
L 90.421567 62.688598 
L 93.874063 53.024686 
L 99.982325 35.793354 
L 102.372514 29.766881 
L 104.231551 25.631547 
L 105.82501 22.572335 
L 107.152893 20.417421 
L 108.480776 18.657503 
L 109.543083 17.553089 
L 110.605389 16.731066 
L 111.667696 16.200009 
L 112.730002 15.965497 
L 113.526732 15.985834 
L 114.589038 16.274336 
L 115.651345 16.858608 
L 116.713651 17.732512 
L 117.775958 18.886932 
L 119.103841 20.705987 
L 120.431724 22.915449 
L 122.025183 26.033035 
L 123.88422 30.225371 
L 126.008832 35.599459 
L 128.930175 43.662599 
L 136.631897 65.325102 
L 139.287663 71.981952 
L 141.677852 77.353183 
L 143.802465 81.579679 
L 145.927078 85.273781 
L 147.786114 88.075037 
L 149.645151 90.491229 
L 151.504187 92.547365 
L 153.363223 94.274109 
L 155.222259 95.705498 
L 157.081296 96.876955 
L 159.205908 97.942531 
L 161.330521 98.76442 
L 163.720711 99.454349 
L 166.376477 99.995509 
L 169.563396 100.418254 
L 173.547045 100.718896 
L 179.389731 100.911549 
L 180.717614 100.932992 
L 180.717614 100.932992 
" style="fill:none;stroke:#7570b3;stroke-linecap:square;"/>
   </g>
   <g id="line2d_11">
    <path clip-path="url(#p70d7645791)" d="M 48.194886 100.879264 
L 54.037572 100.626779 
L 58.021221 100.242074 
L 61.20814 99.710935 
L 63.863906 99.041291 
L 66.254096 98.198922 
L 68.378709 97.207543 
L 70.237745 96.112916 
L 72.096781 94.769878 
L 73.955817 93.142926 
L 75.814854 91.197367 
L 77.67389 88.901203 
L 79.532926 86.227323 
L 81.391962 83.155935 
L 83.250999 79.677114 
L 85.375611 75.206227 
L 87.765801 69.579938 
L 90.421567 62.68733 
L 93.874063 53.023099 
L 99.982325 35.791197 
L 102.372514 29.764525 
L 104.231551 25.629053 
L 105.82501 22.56974 
L 107.152893 20.414755 
L 108.480776 18.654779 
L 109.543083 17.550329 
L 110.605389 16.728278 
L 111.667696 16.197203 
L 112.730002 15.962684 
L 113.526732 15.983022 
L 114.589038 16.271533 
L 115.651345 16.855824 
L 116.713651 17.729757 
L 117.775958 18.884216 
L 119.103841 20.703331 
L 120.431724 22.912866 
L 122.025183 26.030555 
L 123.88422 30.22303 
L 126.008832 35.597296 
L 128.930175 43.660702 
L 136.631897 65.323922 
L 139.287663 71.980992 
L 141.677852 77.352401 
L 143.802465 81.579037 
L 145.927078 85.273261 
L 147.786114 88.074609 
L 149.645151 90.490882 
L 151.504187 92.547086 
L 153.363223 94.273887 
L 155.222259 95.705323 
L 157.081296 96.876819 
L 159.205908 97.94243 
L 161.330521 98.764346 
L 163.720711 99.454297 
L 166.376477 99.995476 
L 169.563396 100.418235 
L 173.547045 100.718887 
L 179.389731 100.911546 
L 180.717614 100.93299 
L 180.717614 100.93299 
" style="fill:none;stroke:#e7298a;stroke-linecap:square;"/>
   </g>
   <g id="patch_28">
    <path d="M 41.56875 101 
L 41.56875 7.2 
" style="fill:none;stroke:#000000;stroke-linecap:square;stroke-linejoin:miter;stroke-width:0.8;"/>
   </g>
   <g id="patch_29">
    <path d="M 187.34375 101 
L 187.34375 7.2 
" style="fill:none;stroke:#000000;stroke-linecap:square;stroke-linejoin:miter;stroke-width:0.8;"/>
   </g>
   <g id="patch_30">
    <path d="M 41.56875 101 
L 187.34375 101 
" style="fill:none;stroke:#000000;stroke-linecap:square;stroke-linejoin:miter;stroke-width:0.8;"/>
   </g>
   <g id="patch_31">
    <path d="M 41.56875 7.2 
L 187.34375 7.2 
" style="fill:none;stroke:#000000;stroke-linecap:square;stroke-linejoin:miter;stroke-width:0.8;"/>
   </g>
   <g id="legend_1">
    <g id="line2d_12">
     <path d="M 196.34375 24.214844 
L 216.34375 24.214844 
" style="fill:none;stroke:#000000;stroke-linecap:square;stroke-width:2;"/>
    </g>
    <g id="line2d_13"/>
    <g id="text_9">
     <!-- Simulated -->
     <g transform="translate(224.34375 27.714844)scale(0.1 -0.1)">
      <defs>
       <path d="M 59.59375 51.5 
C 59.59375 56.5 59.296875 57.90625 57.703125 61.296875 
C 53.703125 69.703125 45.203125 74.09375 32.90625 74.09375 
C 16.90625 74.09375 7 65.90625 7 52.703125 
C 7 43.796875 11.703125 38.203125 21.296875 35.703125 
L 39.40625 30.90625 
C 48.703125 28.5 52.796875 24.796875 52.796875 19.09375 
C 52.796875 15.203125 50.703125 11.203125 47.59375 9 
C 44.703125 6.90625 40.09375 5.90625 34.203125 5.90625 
C 26.203125 5.90625 20.90625 7.796875 17.40625 12 
C 14.703125 15.203125 13.5 18.703125 13.59375 23.203125 
L 4.796875 23.203125 
C 4.90625 16.5 6.203125 12.09375 9.09375 8.09375 
C 14.09375 1.203125 22.5 -2.296875 33.59375 -2.296875 
C 42.296875 -2.296875 49.40625 -0.296875 54.09375 3.296875 
C 59 7.203125 62.09375 13.703125 62.09375 20 
C 62.09375 29 56.5 35.59375 46.59375 38.296875 
L 28.296875 43.203125 
C 19.5 45.59375 16.296875 48.40625 16.296875 54 
C 16.296875 61.40625 22.796875 66.296875 32.59375 66.296875 
C 44.203125 66.296875 50.703125 61.09375 50.796875 51.5 
z
" id="NimbusSans-Regular-83"/>
       <path d="M 7 52.40625 
L 7 0 
L 15.40625 0 
L 15.40625 32.90625 
C 15.40625 40.5 20.90625 46.59375 27.703125 46.59375 
C 33.90625 46.59375 37.40625 42.796875 37.40625 36.09375 
L 37.40625 0 
L 45.796875 0 
L 45.796875 32.90625 
C 45.796875 40.5 51.296875 46.59375 58.09375 46.59375 
C 64.203125 46.59375 67.796875 42.703125 67.796875 36.09375 
L 67.796875 0 
L 76.203125 0 
L 76.203125 39.296875 
C 76.203125 48.703125 70.796875 53.90625 61 53.90625 
C 54 53.90625 49.796875 51.796875 44.90625 45.90625 
C 41.796875 51.5 37.59375 53.90625 30.796875 53.90625 
C 23.796875 53.90625 19.09375 51.296875 14.703125 45 
L 14.703125 52.40625 
z
" id="NimbusSans-Regular-109"/>
       <path d="M 48.203125 0 
L 48.203125 52.40625 
L 39.90625 52.40625 
L 39.90625 22.703125 
C 39.90625 12 34.296875 5 25.59375 5 
C 19 5 14.796875 9 14.796875 15.296875 
L 14.796875 52.40625 
L 6.5 52.40625 
L 6.5 12 
C 6.5 3.296875 13 -2.296875 23.203125 -2.296875 
C 30.90625 -2.296875 35.796875 0.40625 40.703125 7.296875 
L 40.703125 0 
z
" id="NimbusSans-Regular-117"/>
       <path d="M 15.203125 72.90625 
L 6.796875 72.90625 
L 6.796875 0 
L 15.203125 0 
z
" id="NimbusSans-Regular-108"/>
       <path d="M 49.5 72.90625 
L 41.203125 72.90625 
L 41.203125 45.796875 
C 37.703125 51.09375 32.09375 53.90625 25.09375 53.90625 
C 11.5 53.90625 2.59375 43 2.59375 26.296875 
C 2.59375 8.59375 11.203125 -2.296875 25.40625 -2.296875 
C 32.59375 -2.296875 37.59375 0.40625 42.09375 6.90625 
L 42.09375 0 
L 49.5 0 
z
M 26.5 46.09375 
C 35.5 46.09375 41.203125 38.203125 41.203125 25.59375 
C 41.203125 13.5 35.40625 5.5 26.59375 5.5 
C 17.40625 5.5 11.296875 13.59375 11.296875 25.796875 
C 11.296875 38 17.40625 46.09375 26.5 46.09375 
z
" id="NimbusSans-Regular-100"/>
      </defs>
      <use xlink:href="#NimbusSans-Regular-83"/>
      <use x="66.699997" xlink:href="#NimbusSans-Regular-105"/>
      <use x="88.899994" xlink:href="#NimbusSans-Regular-109"/>
      <use x="172.199982" xlink:href="#NimbusSans-Regular-117"/>
      <use x="227.799973" xlink:href="#NimbusSans-Regular-108"/>
      <use x="249.999969" xlink:href="#NimbusSans-Regular-97"/>
      <use x="305.59996" xlink:href="#NimbusSans-Regular-116"/>
      <use x="333.399948" xlink:href="#NimbusSans-Regular-101"/>
      <use x="388.999939" xlink:href="#NimbusSans-Regular-100"/>
     </g>
    </g>
    <g id="line2d_14">
     <path d="M 196.34375 38.685156 
L 216.34375 38.685156 
" style="fill:none;stroke:#1b9e77;stroke-linecap:square;"/>
    </g>
    <g id="line2d_15"/>
    <g id="text_10">
     <!-- K = 1 -->
     <g transform="translate(224.34375 42.185156)scale(0.1 -0.1)">
      <defs>
       <path d="M 17.203125 25.5 
L 29.09375 37.40625 
L 54.796875 0 
L 65.796875 0 
L 35.796875 43.203125 
L 65.5 72.90625 
L 53.5 72.90625 
L 17.203125 36 
L 17.203125 72.90625 
L 7.90625 72.90625 
L 7.90625 0 
L 17.203125 0 
z
" id="NimbusSans-Regular-75"/>
       <path d="M 53.40625 35.296875 
L 5 35.296875 
L 5 28.296875 
L 53.40625 28.296875 
z
M 53.40625 18.09375 
L 5 18.09375 
L 5 11.09375 
L 53.40625 11.09375 
z
" id="NimbusSans-Regular-61"/>
       <path d="M 25.90625 51.5 
L 25.90625 0 
L 34.703125 0 
L 34.703125 72.296875 
L 28.90625 72.296875 
C 25.796875 61.203125 23.796875 59.703125 10.203125 57.90625 
L 10.203125 51.5 
z
" id="NimbusSans-Regular-49"/>
      </defs>
      <use xlink:href="#NimbusSans-Regular-75"/>
      <use x="66.699997" xlink:href="#NimbusSans-Regular-32"/>
      <use x="94.499985" xlink:href="#NimbusSans-Regular-61"/>
      <use x="152.899979" xlink:href="#NimbusSans-Regular-32"/>
      <use x="180.699966" xlink:href="#NimbusSans-Regular-49"/>
     </g>
    </g>
    <g id="line2d_16">
     <path d="M 196.34375 53.155469 
L 216.34375 53.155469 
" style="fill:none;stroke:#d95f02;stroke-linecap:square;"/>
    </g>
    <g id="line2d_17"/>
    <g id="text_11">
     <!-- K = 2 -->
     <g transform="translate(224.34375 56.655469)scale(0.1 -0.1)">
      <use xlink:href="#NimbusSans-Regular-75"/>
      <use x="66.699997" xlink:href="#NimbusSans-Regular-32"/>
      <use x="94.499985" xlink:href="#NimbusSans-Regular-61"/>
      <use x="152.899979" xlink:href="#NimbusSans-Regular-32"/>
      <use x="180.699966" xlink:href="#NimbusSans-Regular-50"/>
     </g>
    </g>
    <g id="line2d_18">
     <path d="M 196.34375 67.625781 
L 216.34375 67.625781 
" style="fill:none;stroke:#7570b3;stroke-linecap:square;"/>
    </g>
    <g id="line2d_19"/>
    <g id="text_12">
     <!-- K = 3 -->
     <g transform="translate(224.34375 71.125781)scale(0.1 -0.1)">
      <defs>
       <path d="M 22.09375 33.296875 
L 23.203125 33.296875 
L 26.90625 33.296875 
C 36.5 33.296875 41.59375 28.796875 41.59375 20.09375 
C 41.59375 11 36.09375 5.5 27 5.5 
C 17.296875 5.5 12.59375 10.40625 12 21 
L 3.203125 21 
C 3.59375 15.203125 4.59375 11.40625 6.296875 8.203125 
C 10 1.203125 16.90625 -2.296875 26.59375 -2.296875 
C 41.203125 -2.296875 50.59375 6.5 50.59375 20.203125 
C 50.59375 29.40625 47.09375 34.40625 38.59375 37.40625 
C 45.203125 40.09375 48.5 45.09375 48.5 52.40625 
C 48.5 64.796875 40.40625 72.296875 26.90625 72.296875 
C 12.59375 72.296875 5 64.296875 4.703125 49 
L 13.5 49 
C 13.59375 53.40625 14 55.90625 15.09375 58.09375 
C 17.09375 62.203125 21.5 64.59375 27 64.59375 
C 34.796875 64.59375 39.5 59.90625 39.5 52.09375 
C 39.5 47 37.703125 43.90625 33.796875 42.203125 
C 31.40625 41.203125 28.203125 40.796875 22.09375 40.703125 
z
" id="NimbusSans-Regular-51"/>
      </defs>
      <use xlink:href="#NimbusSans-Regular-75"/>
      <use x="66.699997" xlink:href="#NimbusSans-Regular-32"/>
      <use x="94.499985" xlink:href="#NimbusSans-Regular-61"/>
      <use x="152.899979" xlink:href="#NimbusSans-Regular-32"/>
      <use x="180.699966" xlink:href="#NimbusSans-Regular-51"/>
     </g>
    </g>
    <g id="line2d_20">
     <path d="M 196.34375 82.096094 
L 216.34375 82.096094 
" style="fill:none;stroke:#e7298a;stroke-linecap:square;"/>
    </g>
    <g id="line2d_21"/>
    <g id="text_13">
     <!-- K = 4 -->
     <g transform="translate(224.34375 85.596094)scale(0.1 -0.1)">
      <use xlink:href="#NimbusSans-Regular-75"/>
      <use x="66.699997" xlink:href="#NimbusSans-Regular-32"/>
      <use x="94.499985" xlink:href="#NimbusSans-Regular-61"/>
      <use x="152.899979" xlink:href="#NimbusSans-Regular-32"/>
      <use x="180.699966" xlink:href="#NimbusSans-Regular-52"/>
     </g>
    </g>
   </g>
  </g>
  <g id="axes_2">
   <g id="patch_32">
    <path d="M 41.56875 238.6 
L 187.34375 238.6 
L 187.34375 144.8 
L 41.56875 144.8 
z
" style="fill:#ffffff;"/>
   </g>
   <g id="patch_33">
    <path clip-path="url(#pdeda3a891c)" d="M 48.194886 238.6 
L 53.495795 238.6 
L 53.495795 237.902083 
L 48.194886 237.902083 
z
" style="fill:#b2b2b2;"/>
   </g>
   <g id="patch_34">
    <path clip-path="url(#pdeda3a891c)" d="M 53.495795 238.6 
L 58.796705 238.6 
L 58.796705 237.902083 
L 53.495795 237.902083 
z
" style="fill:#b2b2b2;"/>
   </g>
   <g id="patch_35">
    <path clip-path="url(#pdeda3a891c)" d="M 58.796705 238.6 
L 64.097614 238.6 
L 64.097614 235.808333 
L 58.796705 235.808333 
z
" style="fill:#b2b2b2;"/>
   </g>
   <g id="patch_36">
    <path clip-path="url(#pdeda3a891c)" d="M 64.097614 238.6 
L 69.398523 238.6 
L 69.398523 235.808333 
L 64.097614 235.808333 
z
" style="fill:#b2b2b2;"/>
   </g>
   <g id="patch_37">
    <path clip-path="url(#pdeda3a891c)" d="M 69.398523 238.6 
L 74.699432 238.6 
L 74.699432 228.829167 
L 69.398523 228.829167 
z
" style="fill:#b2b2b2;"/>
   </g>
   <g id="patch_38">
    <path clip-path="url(#pdeda3a891c)" d="M 74.699432 238.6 
L 80.000341 238.6 
L 80.000341 230.225 
L 74.699432 230.225 
z
" style="fill:#b2b2b2;"/>
   </g>
   <g id="patch_39">
    <path clip-path="url(#pdeda3a891c)" d="M 80.000341 238.6 
L 85.30125 238.6 
L 85.30125 216.964583 
L 80.000341 216.964583 
z
" style="fill:#b2b2b2;"/>
   </g>
   <g id="patch_40">
    <path clip-path="url(#pdeda3a891c)" d="M 85.30125 238.6 
L 90.602159 238.6 
L 90.602159 202.308333 
L 85.30125 202.308333 
z
" style="fill:#b2b2b2;"/>
   </g>
   <g id="patch_41">
    <path clip-path="url(#pdeda3a891c)" d="M 90.602159 238.6 
L 95.903068 238.6 
L 95.903068 190.44375 
L 90.602159 190.44375 
z
" style="fill:#b2b2b2;"/>
   </g>
   <g id="patch_42">
    <path clip-path="url(#pdeda3a891c)" d="M 95.903068 238.6 
L 101.203977 238.6 
L 101.203977 175.089583 
L 95.903068 175.089583 
z
" style="fill:#b2b2b2;"/>
   </g>
   <g id="patch_43">
    <path clip-path="url(#pdeda3a891c)" d="M 101.203977 238.6 
L 106.504886 238.6 
L 106.504886 165.31875 
L 101.203977 165.31875 
z
" style="fill:#b2b2b2;"/>
   </g>
   <g id="patch_44">
    <path clip-path="url(#pdeda3a891c)" d="M 106.504886 238.6 
L 111.805795 238.6 
L 111.805795 161.829167 
L 106.504886 161.829167 
z
" style="fill:#b2b2b2;"/>
   </g>
   <g id="patch_45">
    <path clip-path="url(#pdeda3a891c)" d="M 111.805795 238.6 
L 117.106705 238.6 
L 117.106705 149.266667 
L 111.805795 149.266667 
z
" style="fill:#b2b2b2;"/>
   </g>
   <g id="patch_46">
    <path clip-path="url(#pdeda3a891c)" d="M 117.106705 238.6 
L 122.407614 238.6 
L 122.407614 172.297917 
L 117.106705 172.297917 
z
" style="fill:#b2b2b2;"/>
   </g>
   <g id="patch_47">
    <path clip-path="url(#pdeda3a891c)" d="M 122.407614 238.6 
L 127.708523 238.6 
L 127.708523 172.297917 
L 122.407614 172.297917 
z
" style="fill:#b2b2b2;"/>
   </g>
   <g id="patch_48">
    <path clip-path="url(#pdeda3a891c)" d="M 127.708523 238.6 
L 133.009432 238.6 
L 133.009432 179.277083 
L 127.708523 179.277083 
z
" style="fill:#b2b2b2;"/>
   </g>
   <g id="patch_49">
    <path clip-path="url(#pdeda3a891c)" d="M 133.009432 238.6 
L 138.310341 238.6 
L 138.310341 212.777083 
L 133.009432 212.777083 
z
" style="fill:#b2b2b2;"/>
   </g>
   <g id="patch_50">
    <path clip-path="url(#pdeda3a891c)" d="M 138.310341 238.6 
L 143.61125 238.6 
L 143.61125 223.245833 
L 138.310341 223.245833 
z
" style="fill:#b2b2b2;"/>
   </g>
   <g id="patch_51">
    <path clip-path="url(#pdeda3a891c)" d="M 143.61125 238.6 
L 148.912159 238.6 
L 148.912159 221.152083 
L 143.61125 221.152083 
z
" style="fill:#b2b2b2;"/>
   </g>
   <g id="patch_52">
    <path clip-path="url(#pdeda3a891c)" d="M 148.912159 238.6 
L 154.213068 238.6 
L 154.213068 230.225 
L 148.912159 230.225 
z
" style="fill:#b2b2b2;"/>
   </g>
   <g id="patch_53">
    <path clip-path="url(#pdeda3a891c)" d="M 154.213068 238.6 
L 159.513977 238.6 
L 159.513977 236.50625 
L 154.213068 236.50625 
z
" style="fill:#b2b2b2;"/>
   </g>
   <g id="patch_54">
    <path clip-path="url(#pdeda3a891c)" d="M 159.513977 238.6 
L 164.814886 238.6 
L 164.814886 237.204167 
L 159.513977 237.204167 
z
" style="fill:#b2b2b2;"/>
   </g>
   <g id="patch_55">
    <path clip-path="url(#pdeda3a891c)" d="M 164.814886 238.6 
L 170.115795 238.6 
L 170.115795 237.902083 
L 164.814886 237.902083 
z
" style="fill:#b2b2b2;"/>
   </g>
   <g id="patch_56">
    <path clip-path="url(#pdeda3a891c)" d="M 170.115795 238.6 
L 175.416705 238.6 
L 175.416705 238.6 
L 170.115795 238.6 
z
" style="fill:#b2b2b2;"/>
   </g>
   <g id="patch_57">
    <path clip-path="url(#pdeda3a891c)" d="M 175.416705 238.6 
L 180.717614 238.6 
L 180.717614 237.902083 
L 175.416705 237.902083 
z
" style="fill:#b2b2b2;"/>
   </g>
   <g id="matplotlib.axis_3">
    <g id="xtick_4">
     <g id="line2d_22">
      <g>
       <use style="stroke:#000000;stroke-width:0.8;" x="67.233533" xlink:href="#m7d8ed99c78" y="238.6"/>
      </g>
     </g>
     <g id="text_14">
      <!-- −2.5 -->
      <g transform="translate(57.364002 252.890625)scale(0.1 -0.1)">
       <use xlink:href="#NimbusSans-Regular-8722"/>
       <use x="58.399994" xlink:href="#NimbusSans-Regular-50"/>
       <use x="113.999985" xlink:href="#NimbusSans-Regular-46"/>
       <use x="141.799973" xlink:href="#NimbusSans-Regular-53"/>
      </g>
     </g>
    </g>
    <g id="xtick_5">
     <g id="line2d_23">
      <g>
       <use style="stroke:#000000;stroke-width:0.8;" x="112.615294" xlink:href="#m7d8ed99c78" y="238.6"/>
      </g>
     </g>
     <g id="text_15">
      <!-- 0.0 -->
      <g transform="translate(105.666075 252.890625)scale(0.1 -0.1)">
       <use xlink:href="#NimbusSans-Regular-48"/>
       <use x="55.599991" xlink:href="#NimbusSans-Regular-46"/>
       <use x="83.399979" xlink:href="#NimbusSans-Regular-48"/>
      </g>
     </g>
    </g>
    <g id="xtick_6">
     <g id="line2d_24">
      <g>
       <use style="stroke:#000000;stroke-width:0.8;" x="157.997054" xlink:href="#m7d8ed99c78" y="238.6"/>
      </g>
     </g>
     <g id="text_16">
      <!-- 2.5 -->
      <g transform="translate(151.047835 252.890625)scale(0.1 -0.1)">
       <use xlink:href="#NimbusSans-Regular-50"/>
       <use x="55.599991" xlink:href="#NimbusSans-Regular-46"/>
       <use x="83.399979" xlink:href="#NimbusSans-Regular-53"/>
      </g>
     </g>
    </g>
    <g id="text_17">
     <!-- Latent variable $\mu$ -->
     <g transform="translate(77.05625 266.360937)scale(0.1 -0.1)">
      <defs>
       <path d="M 17.296875 72.90625 
L 8 72.90625 
L 8 0 
L 53.296875 0 
L 53.296875 8.203125 
L 17.296875 8.203125 
z
" id="NimbusSans-Regular-76"/>
       <path d="M -1.3125 -20.796875 
L 13.375 54.6875 
L 22.40625 54.6875 
L 15.765625 20.65625 
Q 15.578125 19.625 15.421875 18.359375 
Q 15.28125 17.09375 15.28125 15.828125 
Q 15.28125 11.28125 18.140625 8.828125 
Q 21 6.390625 26.3125 6.390625 
Q 33.546875 6.390625 37.984375 10.484375 
Q 42.4375 14.59375 44 22.796875 
L 50.203125 54.6875 
L 59.1875 54.6875 
L 51.03125 12.640625 
Q 50.828125 11.71875 50.75 11.03125 
Q 50.6875 10.359375 50.6875 9.8125 
Q 50.6875 8.296875 51.296875 7.59375 
Q 51.90625 6.890625 53.21875 6.890625 
Q 53.71875 6.890625 54.5625 7.125 
Q 55.421875 7.375 56.984375 8.015625 
L 55.609375 0.78125 
Q 53.46875 -0.296875 51.515625 -0.859375 
Q 49.5625 -1.421875 47.703125 -1.421875 
Q 44.484375 -1.421875 42.65625 0.625 
Q 40.828125 2.6875 40.828125 6.296875 
Q 38.09375 2.390625 34.296875 0.484375 
Q 30.515625 -1.421875 25.390625 -1.421875 
Q 20.84375 -1.421875 17.453125 0.671875 
Q 14.0625 2.78125 12.984375 6.203125 
L 7.71875 -20.796875 
z
" id="DejaVuSans-Oblique-956"/>
      </defs>
      <use transform="translate(0 0.09375)" xlink:href="#NimbusSans-Regular-76"/>
      <use transform="translate(55.599991 0.09375)" xlink:href="#NimbusSans-Regular-97"/>
      <use transform="translate(111.199982 0.09375)" xlink:href="#NimbusSans-Regular-116"/>
      <use transform="translate(138.999969 0.09375)" xlink:href="#NimbusSans-Regular-101"/>
      <use transform="translate(194.59996 0.09375)" xlink:href="#NimbusSans-Regular-110"/>
      <use transform="translate(250.199951 0.09375)" xlink:href="#NimbusSans-Regular-116"/>
      <use transform="translate(277.999939 0.09375)" xlink:href="#NimbusSans-Regular-32"/>
      <use transform="translate(305.799927 0.09375)" xlink:href="#NimbusSans-Regular-118"/>
      <use transform="translate(355.799911 0.09375)" xlink:href="#NimbusSans-Regular-97"/>
      <use transform="translate(411.399902 0.09375)" xlink:href="#NimbusSans-Regular-114"/>
      <use transform="translate(444.69989 0.09375)" xlink:href="#NimbusSans-Regular-105"/>
      <use transform="translate(466.899887 0.09375)" xlink:href="#NimbusSans-Regular-97"/>
      <use transform="translate(522.499878 0.09375)" xlink:href="#NimbusSans-Regular-98"/>
      <use transform="translate(578.099869 0.09375)" xlink:href="#NimbusSans-Regular-108"/>
      <use transform="translate(600.299866 0.09375)" xlink:href="#NimbusSans-Regular-101"/>
      <use transform="translate(655.899857 0.09375)" xlink:href="#NimbusSans-Regular-32"/>
      <use transform="translate(683.699844 0.09375)" xlink:href="#DejaVuSans-Oblique-956"/>
     </g>
    </g>
   </g>
   <g id="matplotlib.axis_4">
    <g id="ytick_4">
     <g id="line2d_25">
      <g>
       <use style="stroke:#000000;stroke-width:0.8;" x="41.56875" xlink:href="#m9c7bce1ab6" y="238.6"/>
      </g>
     </g>
     <g id="text_18">
      <!-- 0.0 -->
      <g transform="translate(20.670313 242.245312)scale(0.1 -0.1)">
       <use xlink:href="#NimbusSans-Regular-48"/>
       <use x="55.599991" xlink:href="#NimbusSans-Regular-46"/>
       <use x="83.399979" xlink:href="#NimbusSans-Regular-48"/>
      </g>
     </g>
    </g>
    <g id="ytick_5">
     <g id="line2d_26">
      <g>
       <use style="stroke:#000000;stroke-width:0.8;" x="41.56875" xlink:href="#m9c7bce1ab6" y="197.83921"/>
      </g>
     </g>
     <g id="text_19">
      <!-- 0.2 -->
      <g transform="translate(20.670313 201.484523)scale(0.1 -0.1)">
       <use xlink:href="#NimbusSans-Regular-48"/>
       <use x="55.599991" xlink:href="#NimbusSans-Regular-46"/>
       <use x="83.399979" xlink:href="#NimbusSans-Regular-50"/>
      </g>
     </g>
    </g>
    <g id="ytick_6">
     <g id="line2d_27">
      <g>
       <use style="stroke:#000000;stroke-width:0.8;" x="41.56875" xlink:href="#m9c7bce1ab6" y="157.078421"/>
      </g>
     </g>
     <g id="text_20">
      <!-- 0.4 -->
      <g transform="translate(20.670313 160.723733)scale(0.1 -0.1)">
       <use xlink:href="#NimbusSans-Regular-48"/>
       <use x="55.599991" xlink:href="#NimbusSans-Regular-46"/>
       <use x="83.399979" xlink:href="#NimbusSans-Regular-52"/>
      </g>
     </g>
    </g>
    <g id="text_21">
     <!-- Density -->
     <g transform="translate(14.490625 208.369531)rotate(-90)scale(0.1 -0.1)">
      <use xlink:href="#NimbusSans-Regular-68"/>
      <use x="72.199982" xlink:href="#NimbusSans-Regular-101"/>
      <use x="127.799973" xlink:href="#NimbusSans-Regular-110"/>
      <use x="183.399963" xlink:href="#NimbusSans-Regular-115"/>
      <use x="233.399948" xlink:href="#NimbusSans-Regular-105"/>
      <use x="255.599945" xlink:href="#NimbusSans-Regular-116"/>
      <use x="283.399933" xlink:href="#NimbusSans-Regular-121"/>
     </g>
    </g>
   </g>
   <g id="line2d_28">
    <path clip-path="url(#pdeda3a891c)" d="M 48.194886 238.45025 
L 53.766412 238.175427 
L 57.613419 237.77477 
L 60.664492 237.246017 
L 63.3176 236.564691 
L 65.705397 235.715877 
L 67.827883 234.725029 
L 69.817714 233.552052 
L 71.674889 232.208589 
L 73.532064 230.591838 
L 75.38924 228.670596 
L 77.246415 226.416621 
L 79.103591 223.806649 
L 80.960766 220.824592 
L 82.950597 217.209308 
L 85.073083 212.881914 
L 87.46088 207.47157 
L 90.113987 200.888332 
L 93.828338 191.007756 
L 99.267209 176.554334 
L 101.655006 170.841954 
L 103.644836 166.63933 
L 105.369356 163.520067 
L 106.828565 161.321988 
L 108.155119 159.711539 
L 109.349018 158.599573 
L 110.410261 157.891627 
L 111.471504 157.455228 
L 112.400092 157.299701 
L 113.328679 157.356749 
L 114.257267 157.625924 
L 115.31851 158.190521 
L 116.379753 159.023623 
L 117.573651 160.271204 
L 118.900205 162.023959 
L 120.359415 164.366019 
L 121.951279 167.36628 
L 123.808454 171.37029 
L 126.063596 176.806644 
L 129.11467 184.80658 
L 136.410716 204.165474 
L 139.063823 210.471248 
L 141.45162 215.577139 
L 143.574106 219.609982 
L 145.563937 222.942361 
L 147.553768 225.844167 
L 149.410943 228.178799 
L 151.268119 230.174787 
L 153.125294 231.859404 
L 155.115125 233.353725 
L 157.104956 234.565539 
L 159.227442 235.591405 
L 161.482583 236.429936 
L 164.003035 237.12104 
L 166.788798 237.653389 
L 170.237838 238.072678 
L 174.615466 238.361772 
L 180.717614 238.528579 
L 180.717614 238.528579 
" style="fill:none;stroke:#000000;stroke-linecap:square;stroke-width:2;"/>
   </g>
   <g id="line2d_29">
    <path clip-path="url(#pdeda3a891c)" d="M 48.194886 238.448193 
L 53.633757 238.178334 
L 57.480763 237.777017 
L 60.531837 237.245001 
L 63.184945 236.556733 
L 65.440086 235.750986 
L 67.562572 234.758724 
L 69.552403 233.579229 
L 71.409578 232.223025 
L 73.266754 230.584749 
L 75.123929 228.630539 
L 76.981104 226.329297 
L 78.83828 223.654794 
L 80.695455 220.588141 
L 82.685286 216.85729 
L 84.807772 212.376162 
L 87.062913 207.082199 
L 89.716021 200.251089 
L 93.297716 190.330473 
L 98.869243 174.867656 
L 101.257039 168.930772 
L 103.114215 164.862738 
L 104.706079 161.861324 
L 106.165289 159.566291 
L 107.491842 157.898247 
L 108.685741 156.761633 
L 109.746984 156.054487 
L 110.675572 155.676245 
L 111.604159 155.525796 
L 112.532747 155.604374 
L 113.461335 155.911248 
L 114.389922 156.443777 
L 115.451165 157.322824 
L 116.645064 158.64486 
L 117.838962 160.302038 
L 119.165516 162.509202 
L 120.757381 165.616568 
L 122.614556 169.784121 
L 124.869698 175.458166 
L 127.920771 183.810844 
L 134.818851 202.88503 
L 137.471959 209.470739 
L 139.7271 214.517971 
L 141.849587 218.75124 
L 143.839417 222.247279 
L 145.829248 225.289221 
L 147.686423 227.734357 
L 149.543599 229.822787 
L 151.400774 231.583608 
L 153.257949 233.049494 
L 155.24778 234.331751 
L 157.237611 235.356851 
L 159.492752 236.258484 
L 161.880549 236.969076 
L 164.666312 237.553489 
L 167.850042 237.987552 
L 171.829703 238.29971 
L 177.401229 238.497832 
L 180.717614 238.548563 
L 180.717614 238.548563 
" style="fill:none;stroke:#1b9e77;stroke-linecap:square;"/>
   </g>
   <g id="line2d_30">
    <path clip-path="url(#pdeda3a891c)" d="M 48.194886 238.434484 
L 53.633757 238.147665 
L 57.480763 237.727749 
L 60.531837 237.177986 
L 63.184945 236.47437 
L 65.572741 235.603053 
L 67.695228 234.591363 
L 69.685058 233.39945 
L 71.542234 232.040222 
L 73.399409 230.41108 
L 75.256584 228.482395 
L 77.11376 226.227456 
L 78.970935 223.624188 
L 80.960766 220.430973 
L 82.950597 216.811963 
L 85.073083 212.488749 
L 87.46088 207.087629 
L 90.113987 200.506499 
L 93.563027 191.296865 
L 100.593763 172.349762 
L 102.848904 166.967388 
L 104.706079 163.05663 
L 106.297944 160.180282 
L 107.757153 157.996594 
L 108.951052 156.570441 
L 110.012295 155.597771 
L 111.073538 154.919227 
L 112.002125 154.57704 
L 112.930713 154.47673 
L 113.859301 154.622946 
L 114.787888 155.018079 
L 115.716476 155.662039 
L 116.777719 156.699206 
L 117.838962 158.049734 
L 119.032861 159.927757 
L 120.359415 162.430558 
L 121.951279 165.95239 
L 123.808454 170.66038 
L 126.063596 177.016219 
L 130.175913 189.430443 
L 133.890264 200.352919 
L 136.410716 207.106421 
L 138.665857 212.531506 
L 140.788343 217.051625 
L 142.778174 220.76485 
L 144.63535 223.785361 
L 146.492525 226.399793 
L 148.3497 228.63857 
L 150.206876 230.53615 
L 152.064051 232.128655 
L 154.053882 233.537337 
L 156.043712 234.679907 
L 158.166199 235.650272 
L 160.553995 236.489004 
L 163.207103 237.171153 
L 166.258177 237.710172 
L 169.839872 238.10703 
L 174.482811 238.383425 
L 180.717614 238.535272 
L 180.717614 238.535272 
" style="fill:none;stroke:#d95f02;stroke-linecap:square;"/>
   </g>
   <g id="line2d_31">
    <path clip-path="url(#pdeda3a891c)" d="M 48.194886 238.352392 
L 53.501102 238.030789 
L 57.348108 237.591347 
L 60.531837 237.008838 
L 63.184945 236.302262 
L 65.572741 235.434728 
L 67.695228 234.429813 
L 69.685058 233.244519 
L 71.542234 231.888506 
L 73.399409 230.255855 
L 75.256584 228.312485 
L 77.11376 226.02677 
L 78.970935 223.371708 
L 80.82811 220.327356 
L 82.817941 216.62208 
L 84.940427 212.167984 
L 87.195569 206.899513 
L 89.848677 200.089446 
L 93.297716 190.548083 
L 99.399864 173.592158 
L 101.655006 168.015433 
L 103.512181 163.971033 
L 105.104046 161.000821 
L 106.563255 158.74486 
L 107.757153 157.265281 
L 108.951052 156.138354 
L 110.012295 155.446308 
L 110.940882 155.086986 
L 111.86947 154.961355 
L 112.798058 155.071097 
L 113.726645 155.415866 
L 114.655233 155.993317 
L 115.716476 156.932508 
L 116.910375 158.333486 
L 118.104273 160.081261 
L 119.430827 162.401853 
L 121.022691 165.660894 
L 122.879867 170.021857 
L 125.135008 175.943471 
L 128.318737 185.011106 
L 134.28823 202.086169 
L 136.941337 208.942352 
L 139.196479 214.185776 
L 141.318965 218.566243 
L 143.308796 222.164494 
L 145.165971 225.08231 
L 147.023146 227.591921 
L 148.880322 229.720022 
L 150.737497 231.500053 
L 152.594673 232.969419 
L 154.451848 234.167074 
L 156.441679 235.192519 
L 158.564165 236.041835 
L 160.951962 236.755789 
L 163.737725 237.343262 
L 167.054109 237.800269 
L 171.299081 238.145166 
L 177.401229 238.39739 
L 180.717614 238.473301 
L 180.717614 238.473301 
" style="fill:none;stroke:#7570b3;stroke-linecap:square;"/>
   </g>
   <g id="line2d_32">
    <path clip-path="url(#pdeda3a891c)" d="M 48.194886 238.388606 
L 53.368446 238.079372 
L 57.215452 237.631018 
L 60.266526 237.059406 
L 62.919634 236.340943 
L 65.307431 235.462268 
L 67.429917 234.450225 
L 69.419748 233.263419 
L 71.409578 231.806356 
L 73.266754 230.166604 
L 75.123929 228.222694 
L 76.981104 225.943045 
L 78.83828 223.299938 
L 80.695455 220.272089 
L 82.685286 216.587925 
L 84.807772 212.159235 
L 87.062913 206.922135 
L 89.716021 200.161381 
L 93.297716 190.354009 
L 98.736587 175.4639 
L 101.124384 169.579366 
L 103.114215 165.24426 
L 104.838735 162.016632 
L 106.297944 159.731202 
L 107.624498 158.04575 
L 108.818396 156.871654 
L 109.879639 156.114806 
L 110.940882 155.637895 
L 111.86947 155.456026 
L 112.798058 155.497456 
L 113.726645 155.764006 
L 114.655233 156.25592 
L 115.716476 157.092055 
L 116.777719 158.215501 
L 117.971618 159.812506 
L 119.298171 161.981143 
L 120.757381 164.811342 
L 122.481901 168.690424 
L 124.471731 173.762614 
L 126.992184 180.843656 
L 136.01275 206.822588 
L 138.267891 212.374592 
L 140.390377 217.020933 
L 142.380208 220.838219 
L 144.237383 223.93257 
L 146.094559 226.593635 
L 147.951734 228.851611 
L 149.808909 230.743928 
L 151.666085 232.311706 
L 153.52326 233.596911 
L 155.513091 234.706528 
L 157.635577 235.636389 
L 160.023374 236.430634 
L 162.676482 237.071728 
L 165.860211 237.597266 
L 169.707217 237.994864 
L 174.880777 238.290022 
L 180.717614 238.455795 
L 180.717614 238.455795 
" style="fill:none;stroke:#e7298a;stroke-linecap:square;"/>
   </g>
   <g id="patch_58">
    <path d="M 41.56875 238.6 
L 41.56875 144.8 
" style="fill:none;stroke:#000000;stroke-linecap:square;stroke-linejoin:miter;stroke-width:0.8;"/>
   </g>
   <g id="patch_59">
    <path d="M 187.34375 238.6 
L 187.34375 144.8 
" style="fill:none;stroke:#000000;stroke-linecap:square;stroke-linejoin:miter;stroke-width:0.8;"/>
   </g>
   <g id="patch_60">
    <path d="M 41.56875 238.6 
L 187.34375 238.6 
" style="fill:none;stroke:#000000;stroke-linecap:square;stroke-linejoin:miter;stroke-width:0.8;"/>
   </g>
   <g id="patch_61">
    <path d="M 41.56875 144.8 
L 187.34375 144.8 
" style="fill:none;stroke:#000000;stroke-linecap:square;stroke-linejoin:miter;stroke-width:0.8;"/>
   </g>
   <g id="legend_2">
    <g id="line2d_33">
     <path d="M 196.34375 161.814844 
L 216.34375 161.814844 
" style="fill:none;stroke:#000000;stroke-linecap:square;stroke-width:2;"/>
    </g>
    <g id="line2d_34"/>
    <g id="text_22">
     <!-- Simulated -->
     <g transform="translate(224.34375 165.314844)scale(0.1 -0.1)">
      <use xlink:href="#NimbusSans-Regular-83"/>
      <use x="66.699997" xlink:href="#NimbusSans-Regular-105"/>
      <use x="88.899994" xlink:href="#NimbusSans-Regular-109"/>
      <use x="172.199982" xlink:href="#NimbusSans-Regular-117"/>
      <use x="227.799973" xlink:href="#NimbusSans-Regular-108"/>
      <use x="249.999969" xlink:href="#NimbusSans-Regular-97"/>
      <use x="305.59996" xlink:href="#NimbusSans-Regular-116"/>
      <use x="333.399948" xlink:href="#NimbusSans-Regular-101"/>
      <use x="388.999939" xlink:href="#NimbusSans-Regular-100"/>
     </g>
    </g>
    <g id="line2d_35">
     <path d="M 196.34375 176.285156 
L 216.34375 176.285156 
" style="fill:none;stroke:#1b9e77;stroke-linecap:square;"/>
    </g>
    <g id="line2d_36"/>
    <g id="text_23">
     <!-- K = 1 -->
     <g transform="translate(224.34375 179.785156)scale(0.1 -0.1)">
      <use xlink:href="#NimbusSans-Regular-75"/>
      <use x="66.699997" xlink:href="#NimbusSans-Regular-32"/>
      <use x="94.499985" xlink:href="#NimbusSans-Regular-61"/>
      <use x="152.899979" xlink:href="#NimbusSans-Regular-32"/>
      <use x="180.699966" xlink:href="#NimbusSans-Regular-49"/>
     </g>
    </g>
    <g id="line2d_37">
     <path d="M 196.34375 190.755469 
L 216.34375 190.755469 
" style="fill:none;stroke:#d95f02;stroke-linecap:square;"/>
    </g>
    <g id="line2d_38"/>
    <g id="text_24">
     <!-- K = 2 -->
     <g transform="translate(224.34375 194.255469)scale(0.1 -0.1)">
      <use xlink:href="#NimbusSans-Regular-75"/>
      <use x="66.699997" xlink:href="#NimbusSans-Regular-32"/>
      <use x="94.499985" xlink:href="#NimbusSans-Regular-61"/>
      <use x="152.899979" xlink:href="#NimbusSans-Regular-32"/>
      <use x="180.699966" xlink:href="#NimbusSans-Regular-50"/>
     </g>
    </g>
    <g id="line2d_39">
     <path d="M 196.34375 205.225781 
L 216.34375 205.225781 
" style="fill:none;stroke:#7570b3;stroke-linecap:square;"/>
    </g>
    <g id="line2d_40"/>
    <g id="text_25">
     <!-- K = 3 -->
     <g transform="translate(224.34375 208.725781)scale(0.1 -0.1)">
      <use xlink:href="#NimbusSans-Regular-75"/>
      <use x="66.699997" xlink:href="#NimbusSans-Regular-32"/>
      <use x="94.499985" xlink:href="#NimbusSans-Regular-61"/>
      <use x="152.899979" xlink:href="#NimbusSans-Regular-32"/>
      <use x="180.699966" xlink:href="#NimbusSans-Regular-51"/>
     </g>
    </g>
    <g id="line2d_41">
     <path d="M 196.34375 219.696094 
L 216.34375 219.696094 
" style="fill:none;stroke:#e7298a;stroke-linecap:square;"/>
    </g>
    <g id="line2d_42"/>
    <g id="text_26">
     <!-- K = 4 -->
     <g transform="translate(224.34375 223.196094)scale(0.1 -0.1)">
      <use xlink:href="#NimbusSans-Regular-75"/>
      <use x="66.699997" xlink:href="#NimbusSans-Regular-32"/>
      <use x="94.499985" xlink:href="#NimbusSans-Regular-61"/>
      <use x="152.899979" xlink:href="#NimbusSans-Regular-32"/>
      <use x="180.699966" xlink:href="#NimbusSans-Regular-52"/>
     </g>
    </g>
   </g>
  </g>
 </g>
 <defs>
  <clipPath id="p70d7645791">
   <rect height="93.8" width="145.775" x="41.56875" y="7.2"/>
  </clipPath>
  <clipPath id="pdeda3a891c">
   <rect height="93.8" width="145.775" x="41.56875" y="144.8"/>
  </clipPath>
 </defs>
</svg>
