<?xml version="1.0" encoding="utf-8" standalone="no"?>
<!DOCTYPE svg PUBLIC "-//W3C//DTD SVG 1.1//EN"
  "http://www.w3.org/Graphics/SVG/1.1/DTD/svg11.dtd">
<!-- Created with matplotlib (https://matplotlib.org/) -->
<svg height="275.740625pt" version="1.1" viewBox="0 0 280.001563 275.740625" width="280.001563pt" xmlns="http://www.w3.org/2000/svg" xmlns:xlink="http://www.w3.org/1999/xlink">
 <metadata>
  <rdf:RDF xmlns:cc="http://creativecommons.org/ns#" xmlns:dc="http://purl.org/dc/elements/1.1/" xmlns:rdf="http://www.w3.org/1999/02/22-rdf-syntax-ns#">
   <cc:Work>
    <dc:type rdf:resource="http://purl.org/dc/dcmitype/StillImage"/>
    <dc:date>2021-02-16T21:36:45.663622</dc:date>
    <dc:format>image/svg+xml</dc:format>
    <dc:creator>
     <cc:Agent>
      <dc:title>Matplotlib v3.3.2, https://matplotlib.org/</dc:title>
     </cc:Agent>
    </dc:creator>
   </cc:Work>
  </rdf:RDF>
 </metadata>
 <defs>
  <style type="text/css">*{stroke-linecap:butt;stroke-linejoin:round;}</style>
 </defs>
 <g id="figure_1">
  <g id="patch_1">
   <path d="M 0 275.740625 
L 280.001563 275.740625 
L 280.001563 0 
L 0 0 
z
" style="fill:#ffffff;"/>
  </g>
  <g id="axes_1">
   <g id="patch_2">
    <path d="M 41.56875 101 
L 187.34375 101 
L 187.34375 7.2 
L 41.56875 7.2 
z
" style="fill:#ffffff;"/>
   </g>
   <g id="patch_3">
    <path clip-path="url(#p59979d7335)" d="M 48.194886 101 
L 53.495795 101 
L 53.495795 98.325349 
L 48.194886 98.325349 
z
" style="fill:#b2b2b2;"/>
   </g>
   <g id="patch_4">
    <path clip-path="url(#p59979d7335)" d="M 53.495795 101 
L 58.796705 101 
L 58.796705 63.55489 
L 53.495795 63.55489 
z
" style="fill:#b2b2b2;"/>
   </g>
   <g id="patch_5">
    <path clip-path="url(#p59979d7335)" d="M 58.796705 101 
L 64.097614 101 
L 64.097614 11.666667 
L 58.796705 11.666667 
z
" style="fill:#b2b2b2;"/>
   </g>
   <g id="patch_6">
    <path clip-path="url(#p59979d7335)" d="M 64.097614 101 
L 69.398523 101 
L 69.398523 72.113772 
L 64.097614 72.113772 
z
" style="fill:#b2b2b2;"/>
   </g>
   <g id="patch_7">
    <path clip-path="url(#p59979d7335)" d="M 69.398523 101 
L 74.699432 101 
L 74.699432 97.255489 
L 69.398523 97.255489 
z
" style="fill:#b2b2b2;"/>
   </g>
   <g id="patch_8">
    <path clip-path="url(#p59979d7335)" d="M 74.699432 101 
L 80.000341 101 
L 80.000341 101 
L 74.699432 101 
z
" style="fill:#b2b2b2;"/>
   </g>
   <g id="patch_9">
    <path clip-path="url(#p59979d7335)" d="M 80.000341 101 
L 85.30125 101 
L 85.30125 101 
L 80.000341 101 
z
" style="fill:#b2b2b2;"/>
   </g>
   <g id="patch_10">
    <path clip-path="url(#p59979d7335)" d="M 85.30125 101 
L 90.602159 101 
L 90.602159 100.46507 
L 85.30125 100.46507 
z
" style="fill:#b2b2b2;"/>
   </g>
   <g id="patch_11">
    <path clip-path="url(#p59979d7335)" d="M 90.602159 101 
L 95.903068 101 
L 95.903068 99.39521 
L 90.602159 99.39521 
z
" style="fill:#b2b2b2;"/>
   </g>
   <g id="patch_12">
    <path clip-path="url(#p59979d7335)" d="M 95.903068 101 
L 101.203977 101 
L 101.203977 96.720559 
L 95.903068 96.720559 
z
" style="fill:#b2b2b2;"/>
   </g>
   <g id="patch_13">
    <path clip-path="url(#p59979d7335)" d="M 101.203977 101 
L 106.504886 101 
L 106.504886 97.790419 
L 101.203977 97.790419 
z
" style="fill:#b2b2b2;"/>
   </g>
   <g id="patch_14">
    <path clip-path="url(#p59979d7335)" d="M 106.504886 101 
L 111.805795 101 
L 111.805795 90.301397 
L 106.504886 90.301397 
z
" style="fill:#b2b2b2;"/>
   </g>
   <g id="patch_15">
    <path clip-path="url(#p59979d7335)" d="M 111.805795 101 
L 117.106705 101 
L 117.106705 77.463074 
L 111.805795 77.463074 
z
" style="fill:#b2b2b2;"/>
   </g>
   <g id="patch_16">
    <path clip-path="url(#p59979d7335)" d="M 117.106705 101 
L 122.407614 101 
L 122.407614 68.369261 
L 117.106705 68.369261 
z
" style="fill:#b2b2b2;"/>
   </g>
   <g id="patch_17">
    <path clip-path="url(#p59979d7335)" d="M 122.407614 101 
L 127.708523 101 
L 127.708523 62.48503 
L 122.407614 62.48503 
z
" style="fill:#b2b2b2;"/>
   </g>
   <g id="patch_18">
    <path clip-path="url(#p59979d7335)" d="M 127.708523 101 
L 133.009432 101 
L 133.009432 46.972056 
L 127.708523 46.972056 
z
" style="fill:#b2b2b2;"/>
   </g>
   <g id="patch_19">
    <path clip-path="url(#p59979d7335)" d="M 133.009432 101 
L 138.310341 101 
L 138.310341 52.856287 
L 133.009432 52.856287 
z
" style="fill:#b2b2b2;"/>
   </g>
   <g id="patch_20">
    <path clip-path="url(#p59979d7335)" d="M 138.310341 101 
L 143.61125 101 
L 143.61125 59.810379 
L 138.310341 59.810379 
z
" style="fill:#b2b2b2;"/>
   </g>
   <g id="patch_21">
    <path clip-path="url(#p59979d7335)" d="M 143.61125 101 
L 148.912159 101 
L 148.912159 60.88024 
L 143.61125 60.88024 
z
" style="fill:#b2b2b2;"/>
   </g>
   <g id="patch_22">
    <path clip-path="url(#p59979d7335)" d="M 148.912159 101 
L 154.213068 101 
L 154.213068 65.694611 
L 148.912159 65.694611 
z
" style="fill:#b2b2b2;"/>
   </g>
   <g id="patch_23">
    <path clip-path="url(#p59979d7335)" d="M 154.213068 101 
L 159.513977 101 
L 159.513977 81.207585 
L 154.213068 81.207585 
z
" style="fill:#b2b2b2;"/>
   </g>
   <g id="patch_24">
    <path clip-path="url(#p59979d7335)" d="M 159.513977 101 
L 164.814886 101 
L 164.814886 93.510978 
L 159.513977 93.510978 
z
" style="fill:#b2b2b2;"/>
   </g>
   <g id="patch_25">
    <path clip-path="url(#p59979d7335)" d="M 164.814886 101 
L 170.115795 101 
L 170.115795 94.045908 
L 164.814886 94.045908 
z
" style="fill:#b2b2b2;"/>
   </g>
   <g id="patch_26">
    <path clip-path="url(#p59979d7335)" d="M 170.115795 101 
L 175.416705 101 
L 175.416705 98.325349 
L 170.115795 98.325349 
z
" style="fill:#b2b2b2;"/>
   </g>
   <g id="patch_27">
    <path clip-path="url(#p59979d7335)" d="M 175.416705 101 
L 180.717614 101 
L 180.717614 98.860279 
L 175.416705 98.860279 
z
" style="fill:#b2b2b2;"/>
   </g>
   <g id="matplotlib.axis_1">
    <g id="xtick_1">
     <g id="line2d_1">
      <defs>
       <path d="M 0 0 
L 0 3.5 
" id="mc90d2c2863" style="stroke:#000000;stroke-width:0.8;"/>
      </defs>
      <g>
       <use style="stroke:#000000;stroke-width:0.8;" x="61.468799" xlink:href="#mc90d2c2863" y="101"/>
      </g>
     </g>
     <g id="text_1">
      <!-- −1 -->
      <g transform="translate(55.768799 115.290625)scale(0.1 -0.1)">
       <defs>
        <path d="M 54.40625 26.703125 
L 4 26.703125 
L 4 19.703125 
L 54.40625 19.703125 
z
" id="NimbusSans-Regular-8722"/>
        <path d="M 25.90625 51.5 
L 25.90625 0 
L 34.703125 0 
L 34.703125 72.296875 
L 28.90625 72.296875 
C 25.796875 61.203125 23.796875 59.703125 10.203125 57.90625 
L 10.203125 51.5 
z
" id="NimbusSans-Regular-49"/>
       </defs>
       <use xlink:href="#NimbusSans-Regular-8722"/>
       <use x="58.399994" xlink:href="#NimbusSans-Regular-49"/>
      </g>
     </g>
    </g>
    <g id="xtick_2">
     <g id="line2d_2">
      <g>
       <use style="stroke:#000000;stroke-width:0.8;" x="97.954026" xlink:href="#mc90d2c2863" y="101"/>
      </g>
     </g>
     <g id="text_2">
      <!-- 0 -->
      <g transform="translate(95.174338 115.290625)scale(0.1 -0.1)">
       <defs>
        <path d="M 27.5 72.296875 
C 20.90625 72.296875 14.90625 69.296875 11.203125 64.40625 
C 6.59375 58 4.296875 48.40625 4.296875 35 
C 4.296875 10.59375 12.296875 -2.296875 27.5 -2.296875 
C 42.5 -2.296875 50.703125 10.59375 50.703125 34.40625 
C 50.703125 48.40625 48.5 57.796875 43.796875 64.40625 
C 40.09375 69.40625 34.203125 72.296875 27.5 72.296875 
z
M 27.5 64.5 
C 37 64.5 41.703125 54.796875 41.703125 35.203125 
C 41.703125 14.59375 37.09375 5 27.296875 5 
C 18 5 13.296875 15 13.296875 34.90625 
C 13.296875 54.796875 18 64.5 27.5 64.5 
z
" id="NimbusSans-Regular-48"/>
       </defs>
       <use xlink:href="#NimbusSans-Regular-48"/>
      </g>
     </g>
    </g>
    <g id="xtick_3">
     <g id="line2d_3">
      <g>
       <use style="stroke:#000000;stroke-width:0.8;" x="134.439253" xlink:href="#mc90d2c2863" y="101"/>
      </g>
     </g>
     <g id="text_3">
      <!-- 1 -->
      <g transform="translate(131.659566 115.290625)scale(0.1 -0.1)">
       <use xlink:href="#NimbusSans-Regular-49"/>
      </g>
     </g>
    </g>
    <g id="xtick_4">
     <g id="line2d_4">
      <g>
       <use style="stroke:#000000;stroke-width:0.8;" x="170.924481" xlink:href="#mc90d2c2863" y="101"/>
      </g>
     </g>
     <g id="text_4">
      <!-- 2 -->
      <g transform="translate(168.144793 115.290625)scale(0.1 -0.1)">
       <defs>
        <path d="M 50.59375 8.703125 
L 13.296875 8.703125 
C 14.203125 14.703125 17.40625 18.5 26.09375 23.796875 
L 36.09375 29.40625 
C 46 34.90625 51.09375 42.296875 51.09375 51.203125 
C 51.09375 57.203125 48.703125 62.796875 44.5 66.703125 
C 40.296875 70.5 35.09375 72.296875 28.40625 72.296875 
C 19.40625 72.296875 12.703125 69.09375 8.796875 62.90625 
C 6.296875 59.09375 5.203125 54.59375 5 47.296875 
L 13.796875 47.296875 
C 14.09375 52.203125 14.703125 55.09375 15.90625 57.5 
C 18.203125 61.90625 22.796875 64.59375 28.09375 64.59375 
C 36.09375 64.59375 42.09375 58.796875 42.09375 51 
C 42.09375 45.203125 38.796875 40.203125 32.5 36.59375 
L 23.296875 31.203125 
C 8.5 22.703125 4.203125 15.90625 3.40625 0.09375 
L 50.59375 0.09375 
z
" id="NimbusSans-Regular-50"/>
       </defs>
       <use xlink:href="#NimbusSans-Regular-50"/>
      </g>
     </g>
    </g>
    <g id="text_5">
     <!-- Observation $x$ -->
     <g transform="translate(83.10625 128.760937)scale(0.1 -0.1)">
      <defs>
       <path d="M 38.90625 74.09375 
C 18 74.09375 3.796875 58.703125 3.796875 35.90625 
C 3.796875 13 17.90625 -2.296875 39 -2.296875 
C 47.90625 -2.296875 55.703125 0.40625 61.59375 5.40625 
C 69.5 12.09375 74.203125 23.40625 74.203125 35.296875 
C 74.203125 58.796875 60.296875 74.09375 38.90625 74.09375 
z
M 38.90625 65.90625 
C 54.703125 65.90625 64.90625 54 64.90625 35.5 
C 64.90625 17.90625 54.40625 5.90625 39 5.90625 
C 23.40625 5.90625 13.09375 17.90625 13.09375 35.90625 
C 13.09375 53.90625 23.40625 65.90625 38.90625 65.90625 
z
" id="NimbusSans-Regular-79"/>
       <path d="M 5.40625 72.90625 
L 5.40625 0 
L 12.90625 0 
L 12.90625 6.703125 
C 16.90625 0.59375 22.203125 -2.296875 29.5 -2.296875 
C 43.296875 -2.296875 52.296875 9 52.296875 26.40625 
C 52.296875 43.40625 43.796875 53.90625 29.90625 53.90625 
C 22.703125 53.90625 17.59375 51.203125 13.703125 45.296875 
L 13.703125 72.90625 
z
M 28.296875 46.09375 
C 37.59375 46.09375 43.59375 38 43.59375 25.5 
C 43.59375 13.59375 37.40625 5.5 28.296875 5.5 
C 19.40625 5.5 13.703125 13.5 13.703125 25.796875 
C 13.703125 38.09375 19.40625 46.09375 28.296875 46.09375 
z
" id="NimbusSans-Regular-98"/>
       <path d="M 43.796875 37.796875 
C 43.703125 48.09375 36.90625 53.90625 24.796875 53.90625 
C 12.59375 53.90625 4.703125 47.59375 4.703125 37.90625 
C 4.703125 29.703125 8.90625 25.796875 21.296875 22.796875 
L 29.09375 20.90625 
C 34.90625 19.5 37.203125 17.40625 37.203125 13.703125 
C 37.203125 8.703125 32.296875 5.40625 25 5.40625 
C 20.5 5.40625 16.703125 6.703125 14.59375 8.90625 
C 13.296875 10.40625 12.703125 11.90625 12.203125 15.59375 
L 3.40625 15.59375 
C 3.796875 3.5 10.59375 -2.296875 24.296875 -2.296875 
C 37.5 -2.296875 45.90625 4.203125 45.90625 14.296875 
C 45.90625 22.09375 41.5 26.40625 31.09375 28.90625 
L 23.09375 30.796875 
C 16.296875 32.40625 13.40625 34.59375 13.40625 38.296875 
C 13.40625 43.203125 17.703125 46.203125 24.5 46.203125 
C 31.203125 46.203125 34.796875 43.296875 35 37.796875 
z
" id="NimbusSans-Regular-115"/>
       <path d="M 51.296875 23.40625 
C 51.296875 31.40625 50.703125 36.203125 49.203125 40.09375 
C 45.796875 48.703125 37.796875 53.90625 28 53.90625 
C 13.40625 53.90625 4 42.796875 4 25.5 
C 4 8.203125 13 -2.296875 27.796875 -2.296875 
C 39.796875 -2.296875 48.09375 4.5 50.203125 15.90625 
L 41.796875 15.90625 
C 39.5 9 34.796875 5.40625 28.09375 5.40625 
C 22.796875 5.40625 18.296875 7.796875 15.5 12.203125 
C 13.5 15.203125 12.796875 18.203125 12.703125 23.40625 
z
M 12.90625 30.203125 
C 13.59375 39.90625 19.5 46.203125 27.90625 46.203125 
C 36.40625 46.203125 42.296875 39.59375 42.296875 30.203125 
z
" id="NimbusSans-Regular-101"/>
       <path d="M 6.90625 52.40625 
L 6.90625 0 
L 15.296875 0 
L 15.296875 27.203125 
C 15.40625 39.796875 20.59375 45.40625 32.09375 45.09375 
L 32.09375 53.59375 
C 30.703125 53.796875 29.90625 53.90625 28.90625 53.90625 
C 23.5 53.90625 19.40625 50.703125 14.59375 42.90625 
L 14.59375 52.40625 
z
" id="NimbusSans-Regular-114"/>
       <path d="M 28.5 0 
L 48.59375 52.40625 
L 39.203125 52.40625 
L 24.40625 9.90625 
L 10.40625 52.40625 
L 1 52.40625 
L 19.40625 0 
z
" id="NimbusSans-Regular-118"/>
       <path d="M 53.5 4.90625 
C 52.59375 4.703125 52.203125 4.703125 51.703125 4.703125 
C 48.796875 4.703125 47.203125 6.203125 47.203125 8.796875 
L 47.203125 39.59375 
C 47.203125 48.90625 40.40625 53.90625 27.5 53.90625 
C 19.796875 53.90625 13.703125 51.703125 10.09375 47.796875 
C 7.703125 45.09375 6.703125 42.09375 6.5 36.90625 
L 14.90625 36.90625 
C 15.59375 43.296875 19.40625 46.203125 27.203125 46.203125 
C 34.796875 46.203125 38.90625 43.40625 38.90625 38.40625 
L 38.90625 36.203125 
C 38.796875 32.59375 37 31.296875 30.203125 30.40625 
C 18.40625 28.90625 16.59375 28.5 13.40625 27.203125 
C 7.296875 24.59375 4.203125 20 4.203125 13.203125 
C 4.203125 3.703125 10.796875 -2.296875 21.40625 -2.296875 
C 28 -2.296875 33.296875 0 39.203125 5.40625 
C 39.796875 0 42.40625 -2.296875 47.796875 -2.296875 
C 49.59375 -2.296875 50.703125 -2.09375 53.5 -1.40625 
z
M 38.90625 16.5 
C 38.90625 13.703125 38.09375 12 35.59375 9.703125 
C 32.203125 6.59375 28.09375 5 23.203125 5 
C 16.703125 5 12.90625 8.09375 12.90625 13.40625 
C 12.90625 18.90625 16.5 21.703125 25.5 23 
C 34.40625 24.203125 36.09375 24.59375 38.90625 25.90625 
z
" id="NimbusSans-Regular-97"/>
       <path d="M 25.40625 52.40625 
L 16.796875 52.40625 
L 16.796875 66.796875 
L 8.5 66.796875 
L 8.5 52.40625 
L 1.40625 52.40625 
L 1.40625 45.59375 
L 8.5 45.59375 
L 8.5 6 
C 8.5 0.59375 12.09375 -2.296875 18.59375 -2.296875 
C 20.796875 -2.296875 22.59375 -2.09375 25.40625 -1.59375 
L 25.40625 5.40625 
C 24.203125 5.09375 23.09375 5 21.40625 5 
C 17.796875 5 16.796875 6 16.796875 9.703125 
L 16.796875 45.59375 
L 25.40625 45.59375 
z
" id="NimbusSans-Regular-116"/>
       <path d="M 15 52.40625 
L 6.703125 52.40625 
L 6.703125 0 
L 15 0 
z
M 15 72.90625 
L 6.59375 72.90625 
L 6.59375 62.40625 
L 15 62.40625 
z
" id="NimbusSans-Regular-105"/>
       <path d="M 27.203125 53.90625 
C 12.40625 53.90625 3.59375 43.40625 3.59375 25.796875 
C 3.59375 8.09375 12.40625 -2.296875 27.296875 -2.296875 
C 42.09375 -2.296875 51 8.203125 51 25.40625 
C 51 43.59375 42.40625 53.90625 27.203125 53.90625 
z
M 27.296875 46.203125 
C 36.703125 46.203125 42.296875 38.5 42.296875 25.5 
C 42.296875 13.09375 36.5 5.40625 27.296875 5.40625 
C 18 5.40625 12.296875 13.09375 12.296875 25.796875 
C 12.296875 38.5 18 46.203125 27.296875 46.203125 
z
" id="NimbusSans-Regular-111"/>
       <path d="M 7 52.40625 
L 7 0 
L 15.40625 0 
L 15.40625 28.90625 
C 15.40625 39.59375 21 46.59375 29.59375 46.59375 
C 36.203125 46.59375 40.40625 42.59375 40.40625 36.296875 
L 40.40625 0 
L 48.703125 0 
L 48.703125 39.59375 
C 48.703125 48.296875 42.203125 53.90625 32.09375 53.90625 
C 24.296875 53.90625 19.296875 50.90625 14.703125 43.59375 
L 14.703125 52.40625 
z
" id="NimbusSans-Regular-110"/>
       <path id="NimbusSans-Regular-32"/>
       <path d="M 60.015625 54.6875 
L 34.90625 27.875 
L 50.296875 0 
L 39.984375 0 
L 28.421875 21.6875 
L 8.296875 0 
L -2.59375 0 
L 24.3125 28.8125 
L 10.015625 54.6875 
L 20.3125 54.6875 
L 30.8125 34.90625 
L 49.125 54.6875 
z
" id="DejaVuSans-Oblique-120"/>
      </defs>
      <use transform="translate(0 0.90625)" xlink:href="#NimbusSans-Regular-79"/>
      <use transform="translate(77.799988 0.90625)" xlink:href="#NimbusSans-Regular-98"/>
      <use transform="translate(133.399979 0.90625)" xlink:href="#NimbusSans-Regular-115"/>
      <use transform="translate(183.399963 0.90625)" xlink:href="#NimbusSans-Regular-101"/>
      <use transform="translate(238.999954 0.90625)" xlink:href="#NimbusSans-Regular-114"/>
      <use transform="translate(272.299942 0.90625)" xlink:href="#NimbusSans-Regular-118"/>
      <use transform="translate(322.299927 0.90625)" xlink:href="#NimbusSans-Regular-97"/>
      <use transform="translate(377.899918 0.90625)" xlink:href="#NimbusSans-Regular-116"/>
      <use transform="translate(405.699905 0.90625)" xlink:href="#NimbusSans-Regular-105"/>
      <use transform="translate(427.899902 0.90625)" xlink:href="#NimbusSans-Regular-111"/>
      <use transform="translate(483.499893 0.90625)" xlink:href="#NimbusSans-Regular-110"/>
      <use transform="translate(539.099884 0.90625)" xlink:href="#NimbusSans-Regular-32"/>
      <use transform="translate(566.899872 0.90625)" xlink:href="#DejaVuSans-Oblique-120"/>
     </g>
    </g>
   </g>
   <g id="matplotlib.axis_2">
    <g id="ytick_1">
     <g id="line2d_5">
      <defs>
       <path d="M 0 0 
L -3.5 0 
" id="mc63b9b10df" style="stroke:#000000;stroke-width:0.8;"/>
      </defs>
      <g>
       <use style="stroke:#000000;stroke-width:0.8;" x="41.56875" xlink:href="#mc63b9b10df" y="101"/>
      </g>
     </g>
     <g id="text_6">
      <!-- 0.0 -->
      <g transform="translate(20.670313 104.645312)scale(0.1 -0.1)">
       <defs>
        <path d="M 19.09375 10.40625 
L 8.703125 10.40625 
L 8.703125 0 
L 19.09375 0 
z
" id="NimbusSans-Regular-46"/>
       </defs>
       <use xlink:href="#NimbusSans-Regular-48"/>
       <use x="55.599991" xlink:href="#NimbusSans-Regular-46"/>
       <use x="83.399979" xlink:href="#NimbusSans-Regular-48"/>
      </g>
     </g>
    </g>
    <g id="ytick_2">
     <g id="line2d_6">
      <g>
       <use style="stroke:#000000;stroke-width:0.8;" x="41.56875" xlink:href="#mc63b9b10df" y="62.140217"/>
      </g>
     </g>
     <g id="text_7">
      <!-- 0.5 -->
      <g transform="translate(20.670313 65.785529)scale(0.1 -0.1)">
       <defs>
        <path d="M 47.59375 70.90625 
L 11 70.90625 
L 5.703125 32.296875 
L 13.796875 32.296875 
C 17.90625 37.203125 21.296875 38.90625 26.90625 38.90625 
C 36.40625 38.90625 42.296875 32.40625 42.296875 21.90625 
C 42.296875 11.703125 36.40625 5.5 26.796875 5.5 
C 19.09375 5.5 14.40625 9.40625 12.296875 17.40625 
L 3.5 17.40625 
C 4.703125 11.59375 5.703125 8.796875 7.796875 6.203125 
C 11.796875 0.796875 19 -2.296875 27 -2.296875 
C 41.296875 -2.296875 51.296875 8.09375 51.296875 23.09375 
C 51.296875 37.09375 42 46.703125 28.40625 46.703125 
C 23.40625 46.703125 19.40625 45.40625 15.296875 42.40625 
L 18.09375 62.203125 
L 47.59375 62.203125 
z
" id="NimbusSans-Regular-53"/>
       </defs>
       <use xlink:href="#NimbusSans-Regular-48"/>
       <use x="55.599991" xlink:href="#NimbusSans-Regular-46"/>
       <use x="83.399979" xlink:href="#NimbusSans-Regular-53"/>
      </g>
     </g>
    </g>
    <g id="ytick_3">
     <g id="line2d_7">
      <g>
       <use style="stroke:#000000;stroke-width:0.8;" x="41.56875" xlink:href="#mc63b9b10df" y="23.280434"/>
      </g>
     </g>
     <g id="text_8">
      <!-- 1.0 -->
      <g transform="translate(20.670313 26.925746)scale(0.1 -0.1)">
       <use xlink:href="#NimbusSans-Regular-49"/>
       <use x="55.599991" xlink:href="#NimbusSans-Regular-46"/>
       <use x="83.399979" xlink:href="#NimbusSans-Regular-48"/>
      </g>
     </g>
    </g>
    <g id="text_9">
     <!-- Density -->
     <g transform="translate(14.490625 70.769531)rotate(-90)scale(0.1 -0.1)">
      <defs>
       <path d="M 8.90625 0 
L 37 0 
C 55.40625 0 66.703125 13.796875 66.703125 36.5 
C 66.703125 59.09375 55.5 72.90625 37 72.90625 
L 8.90625 72.90625 
z
M 18.203125 8.203125 
L 18.203125 64.703125 
L 35.40625 64.703125 
C 49.796875 64.703125 57.40625 55 57.40625 36.40625 
C 57.40625 17.90625 49.796875 8.203125 35.40625 8.203125 
z
" id="NimbusSans-Regular-68"/>
       <path d="M 38.796875 52.40625 
L 24.296875 11.59375 
L 10.90625 52.40625 
L 2 52.40625 
L 19.703125 -0.203125 
L 16.5 -8.5 
C 15.09375 -12.203125 13.296875 -13.59375 9.796875 -13.59375 
C 8.40625 -13.59375 7.203125 -13.40625 5.40625 -13 
L 5.40625 -20.5 
C 7.09375 -21.40625 8.796875 -21.796875 11 -21.796875 
C 13.703125 -21.796875 16.59375 -20.90625 18.796875 -19.296875 
C 21.40625 -17.40625 22.90625 -15.203125 24.5 -11 
L 47.796875 52.40625 
z
" id="NimbusSans-Regular-121"/>
      </defs>
      <use xlink:href="#NimbusSans-Regular-68"/>
      <use x="72.199982" xlink:href="#NimbusSans-Regular-101"/>
      <use x="127.799973" xlink:href="#NimbusSans-Regular-110"/>
      <use x="183.399963" xlink:href="#NimbusSans-Regular-115"/>
      <use x="233.399948" xlink:href="#NimbusSans-Regular-105"/>
      <use x="255.599945" xlink:href="#NimbusSans-Regular-116"/>
      <use x="283.399933" xlink:href="#NimbusSans-Regular-121"/>
     </g>
    </g>
   </g>
   <g id="patch_28">
    <path d="M 41.56875 101 
L 41.56875 7.2 
" style="fill:none;stroke:#000000;stroke-linecap:square;stroke-linejoin:miter;stroke-width:0.8;"/>
   </g>
   <g id="patch_29">
    <path d="M 187.34375 101 
L 187.34375 7.2 
" style="fill:none;stroke:#000000;stroke-linecap:square;stroke-linejoin:miter;stroke-width:0.8;"/>
   </g>
   <g id="patch_30">
    <path d="M 41.56875 101 
L 187.34375 101 
" style="fill:none;stroke:#000000;stroke-linecap:square;stroke-linejoin:miter;stroke-width:0.8;"/>
   </g>
   <g id="patch_31">
    <path d="M 41.56875 7.2 
L 187.34375 7.2 
" style="fill:none;stroke:#000000;stroke-linecap:square;stroke-linejoin:miter;stroke-width:0.8;"/>
   </g>
  </g>
  <g id="axes_2">
   <g id="patch_32">
    <path d="M 41.56875 238.6 
L 187.34375 238.6 
L 187.34375 144.8 
L 41.56875 144.8 
z
" style="fill:#ffffff;"/>
   </g>
   <g id="patch_33">
    <path clip-path="url(#pd9a3cf4d6e)" d="M 48.194886 238.6 
L 53.495795 238.6 
L 53.495795 218.361841 
L 48.194886 218.361841 
z
" style="fill:#b2b2b2;"/>
   </g>
   <g id="patch_34">
    <path clip-path="url(#pd9a3cf4d6e)" d="M 53.495795 238.6 
L 58.796705 238.6 
L 58.796705 160.760928 
L 53.495795 160.760928 
z
" style="fill:#b2b2b2;"/>
   </g>
   <g id="patch_35">
    <path clip-path="url(#pd9a3cf4d6e)" d="M 58.796705 238.6 
L 64.097614 238.6 
L 64.097614 186.188358 
L 58.796705 186.188358 
z
" style="fill:#b2b2b2;"/>
   </g>
   <g id="patch_36">
    <path clip-path="url(#pd9a3cf4d6e)" d="M 64.097614 238.6 
L 69.398523 238.6 
L 69.398523 231.853947 
L 64.097614 231.853947 
z
" style="fill:#b2b2b2;"/>
   </g>
   <g id="patch_37">
    <path clip-path="url(#pd9a3cf4d6e)" d="M 69.398523 238.6 
L 74.699432 238.6 
L 74.699432 238.6 
L 69.398523 238.6 
z
" style="fill:#b2b2b2;"/>
   </g>
   <g id="patch_38">
    <path clip-path="url(#pd9a3cf4d6e)" d="M 74.699432 238.6 
L 80.000341 238.6 
L 80.000341 238.6 
L 74.699432 238.6 
z
" style="fill:#b2b2b2;"/>
   </g>
   <g id="patch_39">
    <path clip-path="url(#pd9a3cf4d6e)" d="M 80.000341 238.6 
L 85.30125 238.6 
L 85.30125 238.6 
L 80.000341 238.6 
z
" style="fill:#b2b2b2;"/>
   </g>
   <g id="patch_40">
    <path clip-path="url(#pd9a3cf4d6e)" d="M 85.30125 238.6 
L 90.602159 238.6 
L 90.602159 237.562146 
L 85.30125 237.562146 
z
" style="fill:#b2b2b2;"/>
   </g>
   <g id="patch_41">
    <path clip-path="url(#pd9a3cf4d6e)" d="M 90.602159 238.6 
L 95.903068 238.6 
L 95.903068 236.005364 
L 90.602159 236.005364 
z
" style="fill:#b2b2b2;"/>
   </g>
   <g id="patch_42">
    <path clip-path="url(#pd9a3cf4d6e)" d="M 95.903068 238.6 
L 101.203977 238.6 
L 101.203977 236.005364 
L 95.903068 236.005364 
z
" style="fill:#b2b2b2;"/>
   </g>
   <g id="patch_43">
    <path clip-path="url(#pd9a3cf4d6e)" d="M 101.203977 238.6 
L 106.504886 238.6 
L 106.504886 231.33502 
L 101.203977 231.33502 
z
" style="fill:#b2b2b2;"/>
   </g>
   <g id="patch_44">
    <path clip-path="url(#pd9a3cf4d6e)" d="M 106.504886 238.6 
L 111.805795 238.6 
L 111.805795 225.626821 
L 106.504886 225.626821 
z
" style="fill:#b2b2b2;"/>
   </g>
   <g id="patch_45">
    <path clip-path="url(#pd9a3cf4d6e)" d="M 111.805795 238.6 
L 117.106705 238.6 
L 117.106705 212.134716 
L 111.805795 212.134716 
z
" style="fill:#b2b2b2;"/>
   </g>
   <g id="patch_46">
    <path clip-path="url(#pd9a3cf4d6e)" d="M 117.106705 238.6 
L 122.407614 238.6 
L 122.407614 204.350808 
L 117.106705 204.350808 
z
" style="fill:#b2b2b2;"/>
   </g>
   <g id="patch_47">
    <path clip-path="url(#pd9a3cf4d6e)" d="M 122.407614 238.6 
L 127.708523 238.6 
L 127.708523 193.453338 
L 122.407614 193.453338 
z
" style="fill:#b2b2b2;"/>
   </g>
   <g id="patch_48">
    <path clip-path="url(#pd9a3cf4d6e)" d="M 127.708523 238.6 
L 133.009432 238.6 
L 133.009432 192.415484 
L 127.708523 192.415484 
z
" style="fill:#b2b2b2;"/>
   </g>
   <g id="patch_49">
    <path clip-path="url(#pd9a3cf4d6e)" d="M 133.009432 238.6 
L 138.310341 238.6 
L 138.310341 196.047974 
L 133.009432 196.047974 
z
" style="fill:#b2b2b2;"/>
   </g>
   <g id="patch_50">
    <path clip-path="url(#pd9a3cf4d6e)" d="M 138.310341 238.6 
L 143.61125 238.6 
L 143.61125 195.529047 
L 138.310341 195.529047 
z
" style="fill:#b2b2b2;"/>
   </g>
   <g id="patch_51">
    <path clip-path="url(#pd9a3cf4d6e)" d="M 143.61125 238.6 
L 148.912159 238.6 
L 148.912159 206.426517 
L 143.61125 206.426517 
z
" style="fill:#b2b2b2;"/>
   </g>
   <g id="patch_52">
    <path clip-path="url(#pd9a3cf4d6e)" d="M 148.912159 238.6 
L 154.213068 238.6 
L 154.213068 206.945444 
L 148.912159 206.945444 
z
" style="fill:#b2b2b2;"/>
   </g>
   <g id="patch_53">
    <path clip-path="url(#pd9a3cf4d6e)" d="M 154.213068 238.6 
L 159.513977 238.6 
L 159.513977 223.032186 
L 154.213068 223.032186 
z
" style="fill:#b2b2b2;"/>
   </g>
   <g id="patch_54">
    <path clip-path="url(#pd9a3cf4d6e)" d="M 159.513977 238.6 
L 164.814886 238.6 
L 164.814886 229.778239 
L 159.513977 229.778239 
z
" style="fill:#b2b2b2;"/>
   </g>
   <g id="patch_55">
    <path clip-path="url(#pd9a3cf4d6e)" d="M 164.814886 238.6 
L 170.115795 238.6 
L 170.115795 235.486437 
L 164.814886 235.486437 
z
" style="fill:#b2b2b2;"/>
   </g>
   <g id="patch_56">
    <path clip-path="url(#pd9a3cf4d6e)" d="M 170.115795 238.6 
L 175.416705 238.6 
L 175.416705 233.929656 
L 170.115795 233.929656 
z
" style="fill:#b2b2b2;"/>
   </g>
   <g id="patch_57">
    <path clip-path="url(#pd9a3cf4d6e)" d="M 175.416705 238.6 
L 180.717614 238.6 
L 180.717614 237.043219 
L 175.416705 237.043219 
z
" style="fill:#b2b2b2;"/>
   </g>
   <g id="matplotlib.axis_3">
    <g id="xtick_5">
     <g id="line2d_8">
      <g>
       <use style="stroke:#000000;stroke-width:0.8;" x="57.838845" xlink:href="#mc90d2c2863" y="238.6"/>
      </g>
     </g>
     <g id="text_10">
      <!-- −1 -->
      <g transform="translate(52.138845 252.890625)scale(0.1 -0.1)">
       <use xlink:href="#NimbusSans-Regular-8722"/>
       <use x="58.399994" xlink:href="#NimbusSans-Regular-49"/>
      </g>
     </g>
    </g>
    <g id="xtick_6">
     <g id="line2d_9">
      <g>
       <use style="stroke:#000000;stroke-width:0.8;" x="95.365559" xlink:href="#mc90d2c2863" y="238.6"/>
      </g>
     </g>
     <g id="text_11">
      <!-- 0 -->
      <g transform="translate(92.585872 252.890625)scale(0.1 -0.1)">
       <use xlink:href="#NimbusSans-Regular-48"/>
      </g>
     </g>
    </g>
    <g id="xtick_7">
     <g id="line2d_10">
      <g>
       <use style="stroke:#000000;stroke-width:0.8;" x="132.892274" xlink:href="#mc90d2c2863" y="238.6"/>
      </g>
     </g>
     <g id="text_12">
      <!-- 1 -->
      <g transform="translate(130.112587 252.890625)scale(0.1 -0.1)">
       <use xlink:href="#NimbusSans-Regular-49"/>
      </g>
     </g>
    </g>
    <g id="xtick_8">
     <g id="line2d_11">
      <g>
       <use style="stroke:#000000;stroke-width:0.8;" x="170.418989" xlink:href="#mc90d2c2863" y="238.6"/>
      </g>
     </g>
     <g id="text_13">
      <!-- 2 -->
      <g transform="translate(167.639302 252.890625)scale(0.1 -0.1)">
       <use xlink:href="#NimbusSans-Regular-50"/>
      </g>
     </g>
    </g>
    <g id="text_14">
     <!-- Latent variable $\mu$ -->
     <g transform="translate(77.05625 266.360937)scale(0.1 -0.1)">
      <defs>
       <path d="M 17.296875 72.90625 
L 8 72.90625 
L 8 0 
L 53.296875 0 
L 53.296875 8.203125 
L 17.296875 8.203125 
z
" id="NimbusSans-Regular-76"/>
       <path d="M 15.203125 72.90625 
L 6.796875 72.90625 
L 6.796875 0 
L 15.203125 0 
z
" id="NimbusSans-Regular-108"/>
       <path d="M -1.3125 -20.796875 
L 13.375 54.6875 
L 22.40625 54.6875 
L 15.765625 20.65625 
Q 15.578125 19.625 15.421875 18.359375 
Q 15.28125 17.09375 15.28125 15.828125 
Q 15.28125 11.28125 18.140625 8.828125 
Q 21 6.390625 26.3125 6.390625 
Q 33.546875 6.390625 37.984375 10.484375 
Q 42.4375 14.59375 44 22.796875 
L 50.203125 54.6875 
L 59.1875 54.6875 
L 51.03125 12.640625 
Q 50.828125 11.71875 50.75 11.03125 
Q 50.6875 10.359375 50.6875 9.8125 
Q 50.6875 8.296875 51.296875 7.59375 
Q 51.90625 6.890625 53.21875 6.890625 
Q 53.71875 6.890625 54.5625 7.125 
Q 55.421875 7.375 56.984375 8.015625 
L 55.609375 0.78125 
Q 53.46875 -0.296875 51.515625 -0.859375 
Q 49.5625 -1.421875 47.703125 -1.421875 
Q 44.484375 -1.421875 42.65625 0.625 
Q 40.828125 2.6875 40.828125 6.296875 
Q 38.09375 2.390625 34.296875 0.484375 
Q 30.515625 -1.421875 25.390625 -1.421875 
Q 20.84375 -1.421875 17.453125 0.671875 
Q 14.0625 2.78125 12.984375 6.203125 
L 7.71875 -20.796875 
z
" id="DejaVuSans-Oblique-956"/>
      </defs>
      <use transform="translate(0 0.09375)" xlink:href="#NimbusSans-Regular-76"/>
      <use transform="translate(55.599991 0.09375)" xlink:href="#NimbusSans-Regular-97"/>
      <use transform="translate(111.199982 0.09375)" xlink:href="#NimbusSans-Regular-116"/>
      <use transform="translate(138.999969 0.09375)" xlink:href="#NimbusSans-Regular-101"/>
      <use transform="translate(194.59996 0.09375)" xlink:href="#NimbusSans-Regular-110"/>
      <use transform="translate(250.199951 0.09375)" xlink:href="#NimbusSans-Regular-116"/>
      <use transform="translate(277.999939 0.09375)" xlink:href="#NimbusSans-Regular-32"/>
      <use transform="translate(305.799927 0.09375)" xlink:href="#NimbusSans-Regular-118"/>
      <use transform="translate(355.799911 0.09375)" xlink:href="#NimbusSans-Regular-97"/>
      <use transform="translate(411.399902 0.09375)" xlink:href="#NimbusSans-Regular-114"/>
      <use transform="translate(444.69989 0.09375)" xlink:href="#NimbusSans-Regular-105"/>
      <use transform="translate(466.899887 0.09375)" xlink:href="#NimbusSans-Regular-97"/>
      <use transform="translate(522.499878 0.09375)" xlink:href="#NimbusSans-Regular-98"/>
      <use transform="translate(578.099869 0.09375)" xlink:href="#NimbusSans-Regular-108"/>
      <use transform="translate(600.299866 0.09375)" xlink:href="#NimbusSans-Regular-101"/>
      <use transform="translate(655.899857 0.09375)" xlink:href="#NimbusSans-Regular-32"/>
      <use transform="translate(683.699844 0.09375)" xlink:href="#DejaVuSans-Oblique-956"/>
     </g>
    </g>
   </g>
   <g id="matplotlib.axis_4">
    <g id="ytick_4">
     <g id="line2d_12">
      <g>
       <use style="stroke:#000000;stroke-width:0.8;" x="41.56875" xlink:href="#mc63b9b10df" y="238.6"/>
      </g>
     </g>
     <g id="text_15">
      <!-- 0.0 -->
      <g transform="translate(20.670313 242.245312)scale(0.1 -0.1)">
       <use xlink:href="#NimbusSans-Regular-48"/>
       <use x="55.599991" xlink:href="#NimbusSans-Regular-46"/>
       <use x="83.399979" xlink:href="#NimbusSans-Regular-48"/>
      </g>
     </g>
    </g>
    <g id="ytick_5">
     <g id="line2d_13">
      <g>
       <use style="stroke:#000000;stroke-width:0.8;" x="41.56875" xlink:href="#mc63b9b10df" y="201.948968"/>
      </g>
     </g>
     <g id="text_16">
      <!-- 0.5 -->
      <g transform="translate(20.670313 205.594281)scale(0.1 -0.1)">
       <use xlink:href="#NimbusSans-Regular-48"/>
       <use x="55.599991" xlink:href="#NimbusSans-Regular-46"/>
       <use x="83.399979" xlink:href="#NimbusSans-Regular-53"/>
      </g>
     </g>
    </g>
    <g id="ytick_6">
     <g id="line2d_14">
      <g>
       <use style="stroke:#000000;stroke-width:0.8;" x="41.56875" xlink:href="#mc63b9b10df" y="165.297937"/>
      </g>
     </g>
     <g id="text_17">
      <!-- 1.0 -->
      <g transform="translate(20.670313 168.943249)scale(0.1 -0.1)">
       <use xlink:href="#NimbusSans-Regular-49"/>
       <use x="55.599991" xlink:href="#NimbusSans-Regular-46"/>
       <use x="83.399979" xlink:href="#NimbusSans-Regular-48"/>
      </g>
     </g>
    </g>
    <g id="text_18">
     <!-- Density -->
     <g transform="translate(14.490625 208.369531)rotate(-90)scale(0.1 -0.1)">
      <use xlink:href="#NimbusSans-Regular-68"/>
      <use x="72.199982" xlink:href="#NimbusSans-Regular-101"/>
      <use x="127.799973" xlink:href="#NimbusSans-Regular-110"/>
      <use x="183.399963" xlink:href="#NimbusSans-Regular-115"/>
      <use x="233.399948" xlink:href="#NimbusSans-Regular-105"/>
      <use x="255.599945" xlink:href="#NimbusSans-Regular-116"/>
      <use x="283.399933" xlink:href="#NimbusSans-Regular-121"/>
     </g>
    </g>
   </g>
   <g id="line2d_15">
    <path clip-path="url(#pd9a3cf4d6e)" d="M 48.194886 235.371255 
L 48.858163 233.593705 
L 49.52144 231.076291 
L 50.184717 227.640765 
L 50.980649 222.084591 
L 51.776582 214.806322 
L 52.705169 204.183231 
L 54.164379 184.280336 
L 55.623588 164.898138 
L 56.41952 156.925661 
L 56.950142 153.295892 
L 57.348108 151.616889 
L 57.613419 151.02809 
L 57.878729 150.874885 
L 58.14404 151.159562 
L 58.409351 151.877868 
L 58.807317 153.743283 
L 59.337939 157.597767 
L 60.001215 164.289519 
L 60.929803 176.106926 
L 63.582911 211.410092 
L 64.511498 220.543288 
L 65.307431 226.490724 
L 66.103363 230.835786 
L 66.76664 233.419377 
L 67.429917 235.24872 
L 68.093194 236.49767 
L 68.756471 237.32031 
L 69.552403 237.920894 
L 70.480991 238.289869 
L 71.674889 238.489473 
L 73.797375 238.567564 
L 80.297489 238.489541 
L 85.603704 238.241926 
L 89.1854 237.861979 
L 91.971163 237.35471 
L 94.35896 236.702817 
L 96.481446 235.899731 
L 98.471276 234.908204 
L 100.328452 233.734499 
L 102.185627 232.285056 
L 103.910147 230.664577 
L 105.767322 228.600209 
L 107.624498 226.190229 
L 109.614329 223.2235 
L 111.736815 219.644042 
L 114.257267 214.919127 
L 117.838962 207.648475 
L 122.083935 199.110491 
L 124.206421 195.313051 
L 125.930941 192.641904 
L 127.39015 190.749211 
L 128.716704 189.366423 
L 129.910602 188.423953 
L 130.971845 187.841352 
L 132.033088 187.508001 
L 133.094331 187.428875 
L 134.022919 187.569206 
L 135.084162 187.966935 
L 136.145405 188.612048 
L 137.339304 189.621484 
L 138.665857 191.073127 
L 140.125067 193.033184 
L 141.849587 195.770666 
L 143.839417 199.374224 
L 146.62518 204.9246 
L 152.727328 217.224981 
L 155.115125 221.494976 
L 157.237611 224.863731 
L 159.227442 227.618003 
L 161.084617 229.828223 
L 162.941792 231.70005 
L 164.798968 233.254895 
L 166.656143 234.522268 
L 168.645974 235.60009 
L 170.76846 236.479204 
L 173.023601 237.164635 
L 175.544054 237.6966 
L 178.595128 238.103313 
L 180.717614 238.280279 
L 180.717614 238.280279 
" style="fill:none;stroke:#000000;stroke-linecap:square;stroke-width:2;"/>
   </g>
   <g id="line2d_16">
    <path clip-path="url(#pd9a3cf4d6e)" d="M 48.194886 226.194057 
L 56.286865 223.377941 
L 61.062458 221.947601 
L 65.307431 220.907455 
L 69.287092 220.157516 
L 73.66472 219.567312 
L 79.766867 219.001421 
L 86.664947 218.310233 
L 91.042575 217.639677 
L 95.552858 216.718285 
L 110.14495 213.520671 
L 113.59399 213.134583 
L 116.777719 213.004457 
L 119.828793 213.099177 
L 122.879867 213.410697 
L 126.063596 213.958131 
L 129.512636 214.78658 
L 133.226987 215.917144 
L 137.471959 217.453783 
L 142.645519 219.57643 
L 151.666085 223.568642 
L 160.023374 227.170019 
L 165.860211 229.446843 
L 171.166426 231.280846 
L 176.207331 232.79255 
L 180.717614 233.95123 
L 180.717614 233.95123 
" style="fill:none;stroke:#1b9e77;stroke-linecap:square;stroke-width:1.5;"/>
   </g>
   <g id="line2d_17">
    <path clip-path="url(#pd9a3cf4d6e)" d="M 48.194886 235.652073 
L 48.858163 234.454275 
L 49.52144 232.701887 
L 50.184717 230.154764 
L 50.847994 226.511657 
L 51.511271 221.443923 
L 52.174548 214.681139 
L 52.97048 204.254572 
L 55.756243 164.758461 
L 56.154209 162.178307 
L 56.552175 160.97037 
L 56.684831 160.87576 
L 56.817486 160.932105 
L 57.082797 161.481691 
L 57.480763 163.313175 
L 58.011385 167.314838 
L 58.807317 175.488282 
L 61.062458 199.819522 
L 61.991046 207.351438 
L 62.919634 213.205044 
L 63.848222 217.659495 
L 64.776809 221.022151 
L 65.705397 223.559327 
L 66.633985 225.480912 
L 67.562572 226.945641 
L 68.623815 228.209692 
L 69.817714 229.257296 
L 71.144268 230.098762 
L 72.603477 230.759004 
L 74.460652 231.336151 
L 76.715794 231.784614 
L 79.501557 232.094841 
L 82.685286 232.217437 
L 86.00167 232.125709 
L 89.318055 231.817027 
L 92.501784 231.30624 
L 95.552858 230.600895 
L 98.471276 229.703328 
L 101.257039 228.611552 
L 103.777492 227.391158 
L 106.165289 225.992224 
L 108.42043 224.409386 
L 110.542916 222.634456 
L 112.400092 220.798323 
L 114.124612 218.795129 
L 115.716476 216.625096 
L 117.308341 214.069885 
L 118.76755 211.317161 
L 120.359415 207.801418 
L 122.083935 203.393396 
L 126.063596 192.858454 
L 126.992184 191.167801 
L 127.655461 190.340106 
L 128.318737 189.873381 
L 128.849359 189.769832 
L 129.379981 189.900841 
L 129.910602 190.249748 
L 130.573879 190.951432 
L 131.502467 192.305976 
L 133.624953 196.008475 
L 135.084162 198.266763 
L 136.27806 199.706877 
L 137.471959 200.784329 
L 138.798513 201.650892 
L 140.523033 202.476566 
L 143.839417 204.00334 
L 145.431282 204.99997 
L 147.023146 206.268703 
L 148.615011 207.837543 
L 150.339531 209.87544 
L 152.196706 212.427463 
L 154.584503 216.129351 
L 162.14586 228.204558 
L 164.135691 230.766263 
L 165.860211 232.636071 
L 167.584731 234.170797 
L 169.176595 235.304232 
L 170.901115 236.257216 
L 172.758291 237.013263 
L 174.748121 237.577498 
L 177.135918 238.010826 
L 180.186992 238.316244 
L 180.717614 238.350579 
L 180.717614 238.350579 
" style="fill:none;stroke:#d95f02;stroke-linecap:square;stroke-width:1.5;"/>
   </g>
   <g id="line2d_18">
    <path clip-path="url(#pd9a3cf4d6e)" d="M 48.194886 233.738613 
L 48.858163 231.625857 
L 49.52144 228.572968 
L 50.184717 224.253236 
L 50.847994 218.339061 
L 51.643926 208.840139 
L 52.572514 194.687509 
L 54.695 160.822955 
L 55.358277 153.984625 
L 55.888899 150.666348 
L 56.286865 149.469273 
L 56.552175 149.266667 
L 56.817486 149.516922 
L 57.082797 150.195616 
L 57.480763 151.957753 
L 58.011385 155.554782 
L 58.674662 161.775769 
L 59.603249 173.056482 
L 62.654323 213.088362 
L 63.450255 219.661581 
L 64.246188 224.40257 
L 65.04212 227.761599 
L 65.838052 230.143857 
L 66.633985 231.851366 
L 67.429917 233.092615 
L 68.358505 234.135953 
L 69.419748 234.967733 
L 70.613646 235.601776 
L 72.072855 236.10195 
L 73.930031 236.476393 
L 76.317827 236.719035 
L 79.766867 236.832208 
L 84.409806 236.757603 
L 89.052744 236.471875 
L 92.767095 236.02918 
L 95.685513 235.462028 
L 98.07331 234.771282 
L 100.063141 233.965846 
L 101.787661 233.034219 
L 103.379526 231.922798 
L 104.838735 230.641309 
L 106.297944 229.064024 
L 107.757153 227.158651 
L 109.349018 224.695329 
L 111.073538 221.611051 
L 113.328679 217.092402 
L 121.818624 199.56446 
L 123.543144 196.671694 
L 125.002353 194.648475 
L 126.196251 193.358179 
L 127.257494 192.525879 
L 128.186082 192.055296 
L 129.11467 191.826069 
L 130.043257 191.827183 
L 131.104501 192.081184 
L 132.298399 192.629791 
L 133.890264 193.652699 
L 138.267891 196.911232 
L 142.114897 199.859491 
L 143.972073 201.595824 
L 145.696593 203.533357 
L 147.421113 205.830625 
L 149.278288 208.697211 
L 151.533429 212.610694 
L 158.166199 224.420416 
L 160.156029 227.364153 
L 162.013205 229.709494 
L 163.737725 231.533573 
L 165.462245 233.036636 
L 167.186765 234.252106 
L 169.04394 235.285456 
L 171.033771 236.132133 
L 173.288912 236.837238 
L 175.809364 237.388816 
L 178.860438 237.826953 
L 180.717614 238.009349 
L 180.717614 238.009349 
" style="fill:none;stroke:#7570b3;stroke-linecap:square;stroke-width:1.5;"/>
   </g>
   <g id="line2d_19">
    <path clip-path="url(#pd9a3cf4d6e)" d="M 48.194886 235.503486 
L 48.858163 234.087024 
L 49.52144 231.99997 
L 50.184717 228.972383 
L 50.847994 224.694561 
L 51.511271 218.881217 
L 52.307203 209.696469 
L 53.368446 194.415128 
L 54.827655 173.311584 
L 55.623588 164.997855 
L 56.154209 161.268817 
L 56.684831 158.908868 
L 57.082797 157.899028 
L 57.480763 157.413686 
L 57.746074 157.332132 
L 58.011385 157.421 
L 58.409351 157.861663 
L 58.807317 158.705642 
L 59.205283 160.055393 
L 59.603249 162.067418 
L 60.133871 166.075771 
L 60.664492 171.83809 
L 61.460425 183.419488 
L 63.184945 209.785189 
L 63.980877 218.170193 
L 64.644154 223.141461 
L 65.307431 226.715752 
L 65.970708 229.285802 
L 66.76664 231.462046 
L 67.562572 232.977474 
L 68.358505 234.057431 
L 69.287092 234.953355 
L 70.348335 235.662832 
L 71.674889 236.252259 
L 73.266754 236.6952 
L 75.38924 237.030792 
L 78.307658 237.241541 
L 82.28732 237.293646 
L 87.062913 237.132864 
L 91.17523 236.783151 
L 94.491615 236.28184 
L 97.144723 235.654105 
L 99.267209 234.930293 
L 101.124384 234.064655 
L 102.716249 233.089137 
L 104.175458 231.951617 
L 105.634667 230.529587 
L 107.093876 228.777494 
L 108.553085 226.668709 
L 110.14495 223.974288 
L 112.267436 219.888062 
L 117.838962 208.876767 
L 120.094104 205.030918 
L 122.21659 201.824478 
L 124.339076 199.012851 
L 126.328907 196.747892 
L 128.053427 195.099279 
L 129.645291 193.861924 
L 131.104501 192.98945 
L 132.431054 192.430654 
L 133.757608 192.109662 
L 134.951507 192.034652 
L 136.145405 192.170345 
L 137.339304 192.522541 
L 138.533202 193.094602 
L 139.859756 193.988446 
L 141.18631 195.149869 
L 142.645519 196.724338 
L 144.237383 198.771129 
L 146.094559 201.539435 
L 148.3497 205.332175 
L 151.79874 211.637917 
L 156.043712 219.29286 
L 158.431509 223.151831 
L 160.553995 226.177022 
L 162.543826 228.629492 
L 164.401002 230.580455 
L 166.258177 232.220171 
L 168.115352 233.574979 
L 170.105183 234.747677 
L 172.227669 235.72813 
L 174.482811 236.519815 
L 177.003263 237.165961 
L 179.921681 237.680707 
L 180.717614 237.787703 
L 180.717614 237.787703 
" style="fill:none;stroke:#e7298a;stroke-linecap:square;stroke-width:1.5;"/>
   </g>
   <g id="patch_58">
    <path d="M 41.56875 238.6 
L 41.56875 144.8 
" style="fill:none;stroke:#000000;stroke-linecap:square;stroke-linejoin:miter;stroke-width:0.8;"/>
   </g>
   <g id="patch_59">
    <path d="M 187.34375 238.6 
L 187.34375 144.8 
" style="fill:none;stroke:#000000;stroke-linecap:square;stroke-linejoin:miter;stroke-width:0.8;"/>
   </g>
   <g id="patch_60">
    <path d="M 41.56875 238.6 
L 187.34375 238.6 
" style="fill:none;stroke:#000000;stroke-linecap:square;stroke-linejoin:miter;stroke-width:0.8;"/>
   </g>
   <g id="patch_61">
    <path d="M 41.56875 144.8 
L 187.34375 144.8 
" style="fill:none;stroke:#000000;stroke-linecap:square;stroke-linejoin:miter;stroke-width:0.8;"/>
   </g>
   <g id="legend_1">
    <g id="line2d_20">
     <path d="M 196.34375 161.814844 
L 216.34375 161.814844 
" style="fill:none;stroke:#000000;stroke-linecap:square;stroke-width:2;"/>
    </g>
    <g id="line2d_21"/>
    <g id="text_19">
     <!-- Simulated -->
     <g transform="translate(224.34375 165.314844)scale(0.1 -0.1)">
      <defs>
       <path d="M 59.59375 51.5 
C 59.59375 56.5 59.296875 57.90625 57.703125 61.296875 
C 53.703125 69.703125 45.203125 74.09375 32.90625 74.09375 
C 16.90625 74.09375 7 65.90625 7 52.703125 
C 7 43.796875 11.703125 38.203125 21.296875 35.703125 
L 39.40625 30.90625 
C 48.703125 28.5 52.796875 24.796875 52.796875 19.09375 
C 52.796875 15.203125 50.703125 11.203125 47.59375 9 
C 44.703125 6.90625 40.09375 5.90625 34.203125 5.90625 
C 26.203125 5.90625 20.90625 7.796875 17.40625 12 
C 14.703125 15.203125 13.5 18.703125 13.59375 23.203125 
L 4.796875 23.203125 
C 4.90625 16.5 6.203125 12.09375 9.09375 8.09375 
C 14.09375 1.203125 22.5 -2.296875 33.59375 -2.296875 
C 42.296875 -2.296875 49.40625 -0.296875 54.09375 3.296875 
C 59 7.203125 62.09375 13.703125 62.09375 20 
C 62.09375 29 56.5 35.59375 46.59375 38.296875 
L 28.296875 43.203125 
C 19.5 45.59375 16.296875 48.40625 16.296875 54 
C 16.296875 61.40625 22.796875 66.296875 32.59375 66.296875 
C 44.203125 66.296875 50.703125 61.09375 50.796875 51.5 
z
" id="NimbusSans-Regular-83"/>
       <path d="M 7 52.40625 
L 7 0 
L 15.40625 0 
L 15.40625 32.90625 
C 15.40625 40.5 20.90625 46.59375 27.703125 46.59375 
C 33.90625 46.59375 37.40625 42.796875 37.40625 36.09375 
L 37.40625 0 
L 45.796875 0 
L 45.796875 32.90625 
C 45.796875 40.5 51.296875 46.59375 58.09375 46.59375 
C 64.203125 46.59375 67.796875 42.703125 67.796875 36.09375 
L 67.796875 0 
L 76.203125 0 
L 76.203125 39.296875 
C 76.203125 48.703125 70.796875 53.90625 61 53.90625 
C 54 53.90625 49.796875 51.796875 44.90625 45.90625 
C 41.796875 51.5 37.59375 53.90625 30.796875 53.90625 
C 23.796875 53.90625 19.09375 51.296875 14.703125 45 
L 14.703125 52.40625 
z
" id="NimbusSans-Regular-109"/>
       <path d="M 48.203125 0 
L 48.203125 52.40625 
L 39.90625 52.40625 
L 39.90625 22.703125 
C 39.90625 12 34.296875 5 25.59375 5 
C 19 5 14.796875 9 14.796875 15.296875 
L 14.796875 52.40625 
L 6.5 52.40625 
L 6.5 12 
C 6.5 3.296875 13 -2.296875 23.203125 -2.296875 
C 30.90625 -2.296875 35.796875 0.40625 40.703125 7.296875 
L 40.703125 0 
z
" id="NimbusSans-Regular-117"/>
       <path d="M 49.5 72.90625 
L 41.203125 72.90625 
L 41.203125 45.796875 
C 37.703125 51.09375 32.09375 53.90625 25.09375 53.90625 
C 11.5 53.90625 2.59375 43 2.59375 26.296875 
C 2.59375 8.59375 11.203125 -2.296875 25.40625 -2.296875 
C 32.59375 -2.296875 37.59375 0.40625 42.09375 6.90625 
L 42.09375 0 
L 49.5 0 
z
M 26.5 46.09375 
C 35.5 46.09375 41.203125 38.203125 41.203125 25.59375 
C 41.203125 13.5 35.40625 5.5 26.59375 5.5 
C 17.40625 5.5 11.296875 13.59375 11.296875 25.796875 
C 11.296875 38 17.40625 46.09375 26.5 46.09375 
z
" id="NimbusSans-Regular-100"/>
      </defs>
      <use xlink:href="#NimbusSans-Regular-83"/>
      <use x="66.699997" xlink:href="#NimbusSans-Regular-105"/>
      <use x="88.899994" xlink:href="#NimbusSans-Regular-109"/>
      <use x="172.199982" xlink:href="#NimbusSans-Regular-117"/>
      <use x="227.799973" xlink:href="#NimbusSans-Regular-108"/>
      <use x="249.999969" xlink:href="#NimbusSans-Regular-97"/>
      <use x="305.59996" xlink:href="#NimbusSans-Regular-116"/>
      <use x="333.399948" xlink:href="#NimbusSans-Regular-101"/>
      <use x="388.999939" xlink:href="#NimbusSans-Regular-100"/>
     </g>
    </g>
    <g id="line2d_22">
     <path d="M 196.34375 176.285156 
L 216.34375 176.285156 
" style="fill:none;stroke:#1b9e77;stroke-linecap:square;stroke-width:1.5;"/>
    </g>
    <g id="line2d_23"/>
    <g id="text_20">
     <!-- K = 1 -->
     <g transform="translate(224.34375 179.785156)scale(0.1 -0.1)">
      <defs>
       <path d="M 17.203125 25.5 
L 29.09375 37.40625 
L 54.796875 0 
L 65.796875 0 
L 35.796875 43.203125 
L 65.5 72.90625 
L 53.5 72.90625 
L 17.203125 36 
L 17.203125 72.90625 
L 7.90625 72.90625 
L 7.90625 0 
L 17.203125 0 
z
" id="NimbusSans-Regular-75"/>
       <path d="M 53.40625 35.296875 
L 5 35.296875 
L 5 28.296875 
L 53.40625 28.296875 
z
M 53.40625 18.09375 
L 5 18.09375 
L 5 11.09375 
L 53.40625 11.09375 
z
" id="NimbusSans-Regular-61"/>
      </defs>
      <use xlink:href="#NimbusSans-Regular-75"/>
      <use x="66.699997" xlink:href="#NimbusSans-Regular-32"/>
      <use x="94.499985" xlink:href="#NimbusSans-Regular-61"/>
      <use x="152.899979" xlink:href="#NimbusSans-Regular-32"/>
      <use x="180.699966" xlink:href="#NimbusSans-Regular-49"/>
     </g>
    </g>
    <g id="line2d_24">
     <path d="M 196.34375 190.755469 
L 216.34375 190.755469 
" style="fill:none;stroke:#d95f02;stroke-linecap:square;stroke-width:1.5;"/>
    </g>
    <g id="line2d_25"/>
    <g id="text_21">
     <!-- K = 8 -->
     <g transform="translate(224.34375 194.255469)scale(0.1 -0.1)">
      <defs>
       <path d="M 39.09375 38.09375 
C 46.5 42.59375 48.796875 46.203125 48.796875 53 
C 48.796875 64.40625 40.09375 72.296875 27.5 72.296875 
C 15 72.296875 6.203125 64.40625 6.203125 53.09375 
C 6.203125 46.203125 8.5 42.703125 15.796875 38.09375 
C 7.703125 34 3.703125 28.09375 3.703125 20.09375 
C 3.703125 6.90625 13.40625 -2.296875 27.5 -2.296875 
C 41.5 -2.296875 51.296875 6.90625 51.296875 20.09375 
C 51.296875 28.09375 47.296875 34 39.09375 38.09375 
z
M 27.5 64.5 
C 35 64.5 39.796875 60 39.796875 52.796875 
C 39.796875 46 34.90625 41.5 27.5 41.5 
C 20 41.5 15.203125 46 15.203125 53 
C 15.203125 60 20 64.5 27.5 64.5 
z
M 27.5 34.09375 
C 36.296875 34.09375 42.296875 28.296875 42.296875 19.90625 
C 42.296875 11.203125 36.40625 5.5 27.296875 5.5 
C 18.703125 5.5 12.703125 11.40625 12.703125 19.796875 
C 12.703125 28.40625 18.59375 34.09375 27.5 34.09375 
z
" id="NimbusSans-Regular-56"/>
      </defs>
      <use xlink:href="#NimbusSans-Regular-75"/>
      <use x="66.699997" xlink:href="#NimbusSans-Regular-32"/>
      <use x="94.499985" xlink:href="#NimbusSans-Regular-61"/>
      <use x="152.899979" xlink:href="#NimbusSans-Regular-32"/>
      <use x="180.699966" xlink:href="#NimbusSans-Regular-56"/>
     </g>
    </g>
    <g id="line2d_26">
     <path d="M 196.34375 205.225781 
L 216.34375 205.225781 
" style="fill:none;stroke:#7570b3;stroke-linecap:square;stroke-width:1.5;"/>
    </g>
    <g id="line2d_27"/>
    <g id="text_22">
     <!-- K = 16 -->
     <g transform="translate(224.34375 208.725781)scale(0.1 -0.1)">
      <defs>
       <path d="M 49.796875 53.5 
C 48.09375 65.296875 40.5 72.296875 29.703125 72.296875 
C 21.90625 72.296875 14.90625 68.5 10.703125 62 
C 6.203125 54.90625 4.296875 46.09375 4.296875 33 
C 4.296875 20.796875 6 13.09375 10.296875 6.703125 
C 14.09375 0.796875 20.296875 -2.296875 28.09375 -2.296875 
C 41.59375 -2.296875 51.296875 7.796875 51.296875 21.90625 
C 51.296875 35.203125 42.296875 44.59375 29.59375 44.59375 
C 22.59375 44.59375 17.09375 42 13.296875 36.703125 
C 13.40625 54.59375 19 64.5 29.09375 64.5 
C 35.296875 64.5 39.59375 60.5 41 53.5 
z
M 28.5 36.796875 
C 37 36.796875 42.296875 30.796875 42.296875 21.203125 
C 42.296875 12.09375 36.296875 5.5 28.203125 5.5 
C 20 5.5 13.796875 12.40625 13.796875 21.59375 
C 13.796875 30.59375 19.796875 36.796875 28.5 36.796875 
z
" id="NimbusSans-Regular-54"/>
      </defs>
      <use xlink:href="#NimbusSans-Regular-75"/>
      <use x="66.699997" xlink:href="#NimbusSans-Regular-32"/>
      <use x="94.499985" xlink:href="#NimbusSans-Regular-61"/>
      <use x="152.899979" xlink:href="#NimbusSans-Regular-32"/>
      <use x="180.699966" xlink:href="#NimbusSans-Regular-49"/>
      <use x="236.299957" xlink:href="#NimbusSans-Regular-54"/>
     </g>
    </g>
    <g id="line2d_28">
     <path d="M 196.34375 219.696094 
L 216.34375 219.696094 
" style="fill:none;stroke:#e7298a;stroke-linecap:square;stroke-width:1.5;"/>
    </g>
    <g id="line2d_29"/>
    <g id="text_23">
     <!-- K = 24 -->
     <g transform="translate(224.34375 223.196094)scale(0.1 -0.1)">
      <defs>
       <path d="M 32.703125 17.5 
L 32.703125 0 
L 41.5 0 
L 41.5 17.5 
L 52 17.5 
L 52 25.40625 
L 41.5 25.40625 
L 41.5 72.296875 
L 35 72.296875 
L 2.796875 26.796875 
L 2.796875 17.5 
z
M 32.703125 25.40625 
L 10.5 25.40625 
L 32.703125 57.296875 
z
" id="NimbusSans-Regular-52"/>
      </defs>
      <use xlink:href="#NimbusSans-Regular-75"/>
      <use x="66.699997" xlink:href="#NimbusSans-Regular-32"/>
      <use x="94.499985" xlink:href="#NimbusSans-Regular-61"/>
      <use x="152.899979" xlink:href="#NimbusSans-Regular-32"/>
      <use x="180.699966" xlink:href="#NimbusSans-Regular-50"/>
      <use x="236.299957" xlink:href="#NimbusSans-Regular-52"/>
     </g>
    </g>
   </g>
  </g>
 </g>
 <defs>
  <clipPath id="p59979d7335">
   <rect height="93.8" width="145.775" x="41.56875" y="7.2"/>
  </clipPath>
  <clipPath id="pd9a3cf4d6e">
   <rect height="93.8" width="145.775" x="41.56875" y="144.8"/>
  </clipPath>
 </defs>
</svg>
