<?xml version="1.0" encoding="utf-8" standalone="no"?>
<!DOCTYPE svg PUBLIC "-//W3C//DTD SVG 1.1//EN"
  "http://www.w3.org/Graphics/SVG/1.1/DTD/svg11.dtd">
<!-- Created with matplotlib (https://matplotlib.org/) -->
<svg height="277.740625pt" version="1.1" viewBox="0 0 280.507812 277.740625" width="280.507812pt" xmlns="http://www.w3.org/2000/svg" xmlns:xlink="http://www.w3.org/1999/xlink">
 <metadata>
  <rdf:RDF xmlns:cc="http://creativecommons.org/ns#" xmlns:dc="http://purl.org/dc/elements/1.1/" xmlns:rdf="http://www.w3.org/1999/02/22-rdf-syntax-ns#">
   <cc:Work>
    <dc:type rdf:resource="http://purl.org/dc/dcmitype/StillImage"/>
    <dc:date>2021-02-16T21:51:43.313453</dc:date>
    <dc:format>image/svg+xml</dc:format>
    <dc:creator>
     <cc:Agent>
      <dc:title>Matplotlib v3.3.2, https://matplotlib.org/</dc:title>
     </cc:Agent>
    </dc:creator>
   </cc:Work>
  </rdf:RDF>
 </metadata>
 <defs>
  <style type="text/css">*{stroke-linecap:butt;stroke-linejoin:round;}</style>
 </defs>
 <g id="figure_1">
  <g id="patch_1">
   <path d="M 0 277.740625 
L 280.507812 277.740625 
L 280.507812 0 
L 0 0 
z
" style="fill:#ffffff;"/>
  </g>
  <g id="axes_1">
   <g id="patch_2">
    <path d="M 49.907813 102 
L 273.307813 102 
L 273.307813 7.2 
L 49.907813 7.2 
z
" style="fill:#ffffff;"/>
   </g>
   <g id="patch_3">
    <path clip-path="url(#p40c9698cdd)" d="M 60.062358 102 
L 71.040245 102 
L 71.040245 47.534161 
L 60.062358 47.534161 
z
" style="fill:#b2b2b2;"/>
   </g>
   <g id="patch_4">
    <path clip-path="url(#p40c9698cdd)" d="M 71.040245 102 
L 82.018132 102 
L 82.018132 14.167702 
L 71.040245 14.167702 
z
" style="fill:#b2b2b2;"/>
   </g>
   <g id="patch_5">
    <path clip-path="url(#p40c9698cdd)" d="M 82.018132 102 
L 92.996019 102 
L 92.996019 11.714286 
L 82.018132 11.714286 
z
" style="fill:#b2b2b2;"/>
   </g>
   <g id="patch_6">
    <path clip-path="url(#p40c9698cdd)" d="M 92.996019 102 
L 103.973906 102 
L 103.973906 30.850932 
L 92.996019 30.850932 
z
" style="fill:#b2b2b2;"/>
   </g>
   <g id="patch_7">
    <path clip-path="url(#p40c9698cdd)" d="M 103.973906 102 
L 114.951793 102 
L 114.951793 40.173913 
L 103.973906 40.173913 
z
" style="fill:#b2b2b2;"/>
   </g>
   <g id="patch_8">
    <path clip-path="url(#p40c9698cdd)" d="M 114.951793 102 
L 125.92968 102 
L 125.92968 65.689441 
L 114.951793 65.689441 
z
" style="fill:#b2b2b2;"/>
   </g>
   <g id="patch_9">
    <path clip-path="url(#p40c9698cdd)" d="M 125.92968 102 
L 136.907567 102 
L 136.907567 76.484472 
L 125.92968 76.484472 
z
" style="fill:#b2b2b2;"/>
   </g>
   <g id="patch_10">
    <path clip-path="url(#p40c9698cdd)" d="M 136.907567 102 
L 147.885454 102 
L 147.885454 82.863354 
L 136.907567 82.863354 
z
" style="fill:#b2b2b2;"/>
   </g>
   <g id="patch_11">
    <path clip-path="url(#p40c9698cdd)" d="M 147.885454 102 
L 158.863341 102 
L 158.863341 85.31677 
L 147.885454 85.31677 
z
" style="fill:#b2b2b2;"/>
   </g>
   <g id="patch_12">
    <path clip-path="url(#p40c9698cdd)" d="M 158.863341 102 
L 169.841228 102 
L 169.841228 94.149068 
L 158.863341 94.149068 
z
" style="fill:#b2b2b2;"/>
   </g>
   <g id="patch_13">
    <path clip-path="url(#p40c9698cdd)" d="M 169.841228 102 
L 180.819115 102 
L 180.819115 93.167702 
L 169.841228 93.167702 
z
" style="fill:#b2b2b2;"/>
   </g>
   <g id="patch_14">
    <path clip-path="url(#p40c9698cdd)" d="M 180.819115 102 
L 191.797002 102 
L 191.797002 98.074534 
L 180.819115 98.074534 
z
" style="fill:#b2b2b2;"/>
   </g>
   <g id="patch_15">
    <path clip-path="url(#p40c9698cdd)" d="M 191.797002 102 
L 202.774889 102 
L 202.774889 100.037267 
L 191.797002 100.037267 
z
" style="fill:#b2b2b2;"/>
   </g>
   <g id="patch_16">
    <path clip-path="url(#p40c9698cdd)" d="M 202.774889 102 
L 213.752776 102 
L 213.752776 101.018634 
L 202.774889 101.018634 
z
" style="fill:#b2b2b2;"/>
   </g>
   <g id="patch_17">
    <path clip-path="url(#p40c9698cdd)" d="M 213.752776 102 
L 224.730663 102 
L 224.730663 102 
L 213.752776 102 
z
" style="fill:#b2b2b2;"/>
   </g>
   <g id="patch_18">
    <path clip-path="url(#p40c9698cdd)" d="M 224.730663 102 
L 235.70855 102 
L 235.70855 99.546584 
L 224.730663 99.546584 
z
" style="fill:#b2b2b2;"/>
   </g>
   <g id="patch_19">
    <path clip-path="url(#p40c9698cdd)" d="M 235.70855 102 
L 246.686437 102 
L 246.686437 101.509317 
L 235.70855 101.509317 
z
" style="fill:#b2b2b2;"/>
   </g>
   <g id="patch_20">
    <path clip-path="url(#p40c9698cdd)" d="M 246.686437 102 
L 257.664324 102 
L 257.664324 101.018634 
L 246.686437 101.018634 
z
" style="fill:#b2b2b2;"/>
   </g>
   <g id="matplotlib.axis_1">
    <g id="xtick_1">
     <g id="line2d_1">
      <defs>
       <path d="M 0 0 
L 0 3.5 
" id="m51facf2bf3" style="stroke:#000000;stroke-width:0.8;"/>
      </defs>
      <g>
       <use style="stroke:#000000;stroke-width:0.8;" x="60.062358" xlink:href="#m51facf2bf3" y="102"/>
      </g>
     </g>
     <g id="text_1">
      <!-- 0 -->
      <g transform="translate(57.28267 116.290625)scale(0.1 -0.1)">
       <defs>
        <path d="M 27.5 72.296875 
C 20.90625 72.296875 14.90625 69.296875 11.203125 64.40625 
C 6.59375 58 4.296875 48.40625 4.296875 35 
C 4.296875 10.59375 12.296875 -2.296875 27.5 -2.296875 
C 42.5 -2.296875 50.703125 10.59375 50.703125 34.40625 
C 50.703125 48.40625 48.5 57.796875 43.796875 64.40625 
C 40.09375 69.40625 34.203125 72.296875 27.5 72.296875 
z
M 27.5 64.5 
C 37 64.5 41.703125 54.796875 41.703125 35.203125 
C 41.703125 14.59375 37.09375 5 27.296875 5 
C 18 5 13.296875 15 13.296875 34.90625 
C 13.296875 54.796875 18 64.5 27.5 64.5 
z
" id="NimbusSans-Regular-48"/>
       </defs>
       <use xlink:href="#NimbusSans-Regular-48"/>
      </g>
     </g>
    </g>
    <g id="xtick_2">
     <g id="line2d_2">
      <g>
       <use style="stroke:#000000;stroke-width:0.8;" x="92.996019" xlink:href="#m51facf2bf3" y="102"/>
      </g>
     </g>
     <g id="text_2">
      <!-- 3 -->
      <g transform="translate(90.216331 116.290625)scale(0.1 -0.1)">
       <defs>
        <path d="M 22.09375 33.296875 
L 23.203125 33.296875 
L 26.90625 33.296875 
C 36.5 33.296875 41.59375 28.796875 41.59375 20.09375 
C 41.59375 11 36.09375 5.5 27 5.5 
C 17.296875 5.5 12.59375 10.40625 12 21 
L 3.203125 21 
C 3.59375 15.203125 4.59375 11.40625 6.296875 8.203125 
C 10 1.203125 16.90625 -2.296875 26.59375 -2.296875 
C 41.203125 -2.296875 50.59375 6.5 50.59375 20.203125 
C 50.59375 29.40625 47.09375 34.40625 38.59375 37.40625 
C 45.203125 40.09375 48.5 45.09375 48.5 52.40625 
C 48.5 64.796875 40.40625 72.296875 26.90625 72.296875 
C 12.59375 72.296875 5 64.296875 4.703125 49 
L 13.5 49 
C 13.59375 53.40625 14 55.90625 15.09375 58.09375 
C 17.09375 62.203125 21.5 64.59375 27 64.59375 
C 34.796875 64.59375 39.5 59.90625 39.5 52.09375 
C 39.5 47 37.703125 43.90625 33.796875 42.203125 
C 31.40625 41.203125 28.203125 40.796875 22.09375 40.703125 
z
" id="NimbusSans-Regular-51"/>
       </defs>
       <use xlink:href="#NimbusSans-Regular-51"/>
      </g>
     </g>
    </g>
    <g id="xtick_3">
     <g id="line2d_3">
      <g>
       <use style="stroke:#000000;stroke-width:0.8;" x="125.92968" xlink:href="#m51facf2bf3" y="102"/>
      </g>
     </g>
     <g id="text_3">
      <!-- 6 -->
      <g transform="translate(123.149992 116.290625)scale(0.1 -0.1)">
       <defs>
        <path d="M 49.796875 53.5 
C 48.09375 65.296875 40.5 72.296875 29.703125 72.296875 
C 21.90625 72.296875 14.90625 68.5 10.703125 62 
C 6.203125 54.90625 4.296875 46.09375 4.296875 33 
C 4.296875 20.796875 6 13.09375 10.296875 6.703125 
C 14.09375 0.796875 20.296875 -2.296875 28.09375 -2.296875 
C 41.59375 -2.296875 51.296875 7.796875 51.296875 21.90625 
C 51.296875 35.203125 42.296875 44.59375 29.59375 44.59375 
C 22.59375 44.59375 17.09375 42 13.296875 36.703125 
C 13.40625 54.59375 19 64.5 29.09375 64.5 
C 35.296875 64.5 39.59375 60.5 41 53.5 
z
M 28.5 36.796875 
C 37 36.796875 42.296875 30.796875 42.296875 21.203125 
C 42.296875 12.09375 36.296875 5.5 28.203125 5.5 
C 20 5.5 13.796875 12.40625 13.796875 21.59375 
C 13.796875 30.59375 19.796875 36.796875 28.5 36.796875 
z
" id="NimbusSans-Regular-54"/>
       </defs>
       <use xlink:href="#NimbusSans-Regular-54"/>
      </g>
     </g>
    </g>
    <g id="xtick_4">
     <g id="line2d_4">
      <g>
       <use style="stroke:#000000;stroke-width:0.8;" x="158.863341" xlink:href="#m51facf2bf3" y="102"/>
      </g>
     </g>
     <g id="text_4">
      <!-- 9 -->
      <g transform="translate(156.083653 116.290625)scale(0.1 -0.1)">
       <defs>
        <path d="M 5.296875 16.5 
C 7 4.703125 14.59375 -2.296875 25.40625 -2.296875 
C 33.296875 -2.296875 40.296875 1.5 44.5 8 
C 48.90625 15.09375 50.90625 23.90625 50.90625 37 
C 50.90625 49.203125 49.09375 56.90625 44.90625 63.296875 
C 41 69.203125 34.796875 72.296875 27 72.296875 
C 13.5 72.296875 3.796875 62.203125 3.796875 48.203125 
C 3.796875 34.90625 12.796875 25.5 25.59375 25.5 
C 32.296875 25.5 37.296875 27.90625 41.796875 33.40625 
C 41.703125 15.40625 36.09375 5.5 26 5.5 
C 19.796875 5.5 15.5 9.5 14.09375 16.5 
z
M 26.90625 64.59375 
C 35.09375 64.59375 41.296875 57.703125 41.296875 48.40625 
C 41.296875 39.5 35.296875 33.296875 26.59375 33.296875 
C 18.09375 33.296875 12.796875 39.296875 12.796875 48.90625 
C 12.796875 58 18.703125 64.59375 26.90625 64.59375 
z
" id="NimbusSans-Regular-57"/>
       </defs>
       <use xlink:href="#NimbusSans-Regular-57"/>
      </g>
     </g>
    </g>
    <g id="xtick_5">
     <g id="line2d_5">
      <g>
       <use style="stroke:#000000;stroke-width:0.8;" x="191.797002" xlink:href="#m51facf2bf3" y="102"/>
      </g>
     </g>
     <g id="text_5">
      <!-- 12 -->
      <g transform="translate(186.237627 116.290625)scale(0.1 -0.1)">
       <defs>
        <path d="M 25.90625 51.5 
L 25.90625 0 
L 34.703125 0 
L 34.703125 72.296875 
L 28.90625 72.296875 
C 25.796875 61.203125 23.796875 59.703125 10.203125 57.90625 
L 10.203125 51.5 
z
" id="NimbusSans-Regular-49"/>
        <path d="M 50.59375 8.703125 
L 13.296875 8.703125 
C 14.203125 14.703125 17.40625 18.5 26.09375 23.796875 
L 36.09375 29.40625 
C 46 34.90625 51.09375 42.296875 51.09375 51.203125 
C 51.09375 57.203125 48.703125 62.796875 44.5 66.703125 
C 40.296875 70.5 35.09375 72.296875 28.40625 72.296875 
C 19.40625 72.296875 12.703125 69.09375 8.796875 62.90625 
C 6.296875 59.09375 5.203125 54.59375 5 47.296875 
L 13.796875 47.296875 
C 14.09375 52.203125 14.703125 55.09375 15.90625 57.5 
C 18.203125 61.90625 22.796875 64.59375 28.09375 64.59375 
C 36.09375 64.59375 42.09375 58.796875 42.09375 51 
C 42.09375 45.203125 38.796875 40.203125 32.5 36.59375 
L 23.296875 31.203125 
C 8.5 22.703125 4.203125 15.90625 3.40625 0.09375 
L 50.59375 0.09375 
z
" id="NimbusSans-Regular-50"/>
       </defs>
       <use xlink:href="#NimbusSans-Regular-49"/>
       <use x="55.599991" xlink:href="#NimbusSans-Regular-50"/>
      </g>
     </g>
    </g>
    <g id="xtick_6">
     <g id="line2d_6">
      <g>
       <use style="stroke:#000000;stroke-width:0.8;" x="224.730663" xlink:href="#m51facf2bf3" y="102"/>
      </g>
     </g>
     <g id="text_6">
      <!-- 15 -->
      <g transform="translate(219.171288 116.290625)scale(0.1 -0.1)">
       <defs>
        <path d="M 47.59375 70.90625 
L 11 70.90625 
L 5.703125 32.296875 
L 13.796875 32.296875 
C 17.90625 37.203125 21.296875 38.90625 26.90625 38.90625 
C 36.40625 38.90625 42.296875 32.40625 42.296875 21.90625 
C 42.296875 11.703125 36.40625 5.5 26.796875 5.5 
C 19.09375 5.5 14.40625 9.40625 12.296875 17.40625 
L 3.5 17.40625 
C 4.703125 11.59375 5.703125 8.796875 7.796875 6.203125 
C 11.796875 0.796875 19 -2.296875 27 -2.296875 
C 41.296875 -2.296875 51.296875 8.09375 51.296875 23.09375 
C 51.296875 37.09375 42 46.703125 28.40625 46.703125 
C 23.40625 46.703125 19.40625 45.40625 15.296875 42.40625 
L 18.09375 62.203125 
L 47.59375 62.203125 
z
" id="NimbusSans-Regular-53"/>
       </defs>
       <use xlink:href="#NimbusSans-Regular-49"/>
       <use x="55.599991" xlink:href="#NimbusSans-Regular-53"/>
      </g>
     </g>
    </g>
    <g id="xtick_7">
     <g id="line2d_7">
      <g>
       <use style="stroke:#000000;stroke-width:0.8;" x="257.664324" xlink:href="#m51facf2bf3" y="102"/>
      </g>
     </g>
     <g id="text_7">
      <!-- 18 -->
      <g transform="translate(252.104949 116.290625)scale(0.1 -0.1)">
       <defs>
        <path d="M 39.09375 38.09375 
C 46.5 42.59375 48.796875 46.203125 48.796875 53 
C 48.796875 64.40625 40.09375 72.296875 27.5 72.296875 
C 15 72.296875 6.203125 64.40625 6.203125 53.09375 
C 6.203125 46.203125 8.5 42.703125 15.796875 38.09375 
C 7.703125 34 3.703125 28.09375 3.703125 20.09375 
C 3.703125 6.90625 13.40625 -2.296875 27.5 -2.296875 
C 41.5 -2.296875 51.296875 6.90625 51.296875 20.09375 
C 51.296875 28.09375 47.296875 34 39.09375 38.09375 
z
M 27.5 64.5 
C 35 64.5 39.796875 60 39.796875 52.796875 
C 39.796875 46 34.90625 41.5 27.5 41.5 
C 20 41.5 15.203125 46 15.203125 53 
C 15.203125 60 20 64.5 27.5 64.5 
z
M 27.5 34.09375 
C 36.296875 34.09375 42.296875 28.296875 42.296875 19.90625 
C 42.296875 11.203125 36.40625 5.5 27.296875 5.5 
C 18.703125 5.5 12.703125 11.40625 12.703125 19.796875 
C 12.703125 28.40625 18.59375 34.09375 27.5 34.09375 
z
" id="NimbusSans-Regular-56"/>
       </defs>
       <use xlink:href="#NimbusSans-Regular-49"/>
       <use x="55.599991" xlink:href="#NimbusSans-Regular-56"/>
      </g>
     </g>
    </g>
    <g id="text_8">
     <!-- Observation $x$ -->
     <g transform="translate(130.257813 129.760938)scale(0.1 -0.1)">
      <defs>
       <path d="M 38.90625 74.09375 
C 18 74.09375 3.796875 58.703125 3.796875 35.90625 
C 3.796875 13 17.90625 -2.296875 39 -2.296875 
C 47.90625 -2.296875 55.703125 0.40625 61.59375 5.40625 
C 69.5 12.09375 74.203125 23.40625 74.203125 35.296875 
C 74.203125 58.796875 60.296875 74.09375 38.90625 74.09375 
z
M 38.90625 65.90625 
C 54.703125 65.90625 64.90625 54 64.90625 35.5 
C 64.90625 17.90625 54.40625 5.90625 39 5.90625 
C 23.40625 5.90625 13.09375 17.90625 13.09375 35.90625 
C 13.09375 53.90625 23.40625 65.90625 38.90625 65.90625 
z
" id="NimbusSans-Regular-79"/>
       <path d="M 5.40625 72.90625 
L 5.40625 0 
L 12.90625 0 
L 12.90625 6.703125 
C 16.90625 0.59375 22.203125 -2.296875 29.5 -2.296875 
C 43.296875 -2.296875 52.296875 9 52.296875 26.40625 
C 52.296875 43.40625 43.796875 53.90625 29.90625 53.90625 
C 22.703125 53.90625 17.59375 51.203125 13.703125 45.296875 
L 13.703125 72.90625 
z
M 28.296875 46.09375 
C 37.59375 46.09375 43.59375 38 43.59375 25.5 
C 43.59375 13.59375 37.40625 5.5 28.296875 5.5 
C 19.40625 5.5 13.703125 13.5 13.703125 25.796875 
C 13.703125 38.09375 19.40625 46.09375 28.296875 46.09375 
z
" id="NimbusSans-Regular-98"/>
       <path d="M 43.796875 37.796875 
C 43.703125 48.09375 36.90625 53.90625 24.796875 53.90625 
C 12.59375 53.90625 4.703125 47.59375 4.703125 37.90625 
C 4.703125 29.703125 8.90625 25.796875 21.296875 22.796875 
L 29.09375 20.90625 
C 34.90625 19.5 37.203125 17.40625 37.203125 13.703125 
C 37.203125 8.703125 32.296875 5.40625 25 5.40625 
C 20.5 5.40625 16.703125 6.703125 14.59375 8.90625 
C 13.296875 10.40625 12.703125 11.90625 12.203125 15.59375 
L 3.40625 15.59375 
C 3.796875 3.5 10.59375 -2.296875 24.296875 -2.296875 
C 37.5 -2.296875 45.90625 4.203125 45.90625 14.296875 
C 45.90625 22.09375 41.5 26.40625 31.09375 28.90625 
L 23.09375 30.796875 
C 16.296875 32.40625 13.40625 34.59375 13.40625 38.296875 
C 13.40625 43.203125 17.703125 46.203125 24.5 46.203125 
C 31.203125 46.203125 34.796875 43.296875 35 37.796875 
z
" id="NimbusSans-Regular-115"/>
       <path d="M 51.296875 23.40625 
C 51.296875 31.40625 50.703125 36.203125 49.203125 40.09375 
C 45.796875 48.703125 37.796875 53.90625 28 53.90625 
C 13.40625 53.90625 4 42.796875 4 25.5 
C 4 8.203125 13 -2.296875 27.796875 -2.296875 
C 39.796875 -2.296875 48.09375 4.5 50.203125 15.90625 
L 41.796875 15.90625 
C 39.5 9 34.796875 5.40625 28.09375 5.40625 
C 22.796875 5.40625 18.296875 7.796875 15.5 12.203125 
C 13.5 15.203125 12.796875 18.203125 12.703125 23.40625 
z
M 12.90625 30.203125 
C 13.59375 39.90625 19.5 46.203125 27.90625 46.203125 
C 36.40625 46.203125 42.296875 39.59375 42.296875 30.203125 
z
" id="NimbusSans-Regular-101"/>
       <path d="M 6.90625 52.40625 
L 6.90625 0 
L 15.296875 0 
L 15.296875 27.203125 
C 15.40625 39.796875 20.59375 45.40625 32.09375 45.09375 
L 32.09375 53.59375 
C 30.703125 53.796875 29.90625 53.90625 28.90625 53.90625 
C 23.5 53.90625 19.40625 50.703125 14.59375 42.90625 
L 14.59375 52.40625 
z
" id="NimbusSans-Regular-114"/>
       <path d="M 28.5 0 
L 48.59375 52.40625 
L 39.203125 52.40625 
L 24.40625 9.90625 
L 10.40625 52.40625 
L 1 52.40625 
L 19.40625 0 
z
" id="NimbusSans-Regular-118"/>
       <path d="M 53.5 4.90625 
C 52.59375 4.703125 52.203125 4.703125 51.703125 4.703125 
C 48.796875 4.703125 47.203125 6.203125 47.203125 8.796875 
L 47.203125 39.59375 
C 47.203125 48.90625 40.40625 53.90625 27.5 53.90625 
C 19.796875 53.90625 13.703125 51.703125 10.09375 47.796875 
C 7.703125 45.09375 6.703125 42.09375 6.5 36.90625 
L 14.90625 36.90625 
C 15.59375 43.296875 19.40625 46.203125 27.203125 46.203125 
C 34.796875 46.203125 38.90625 43.40625 38.90625 38.40625 
L 38.90625 36.203125 
C 38.796875 32.59375 37 31.296875 30.203125 30.40625 
C 18.40625 28.90625 16.59375 28.5 13.40625 27.203125 
C 7.296875 24.59375 4.203125 20 4.203125 13.203125 
C 4.203125 3.703125 10.796875 -2.296875 21.40625 -2.296875 
C 28 -2.296875 33.296875 0 39.203125 5.40625 
C 39.796875 0 42.40625 -2.296875 47.796875 -2.296875 
C 49.59375 -2.296875 50.703125 -2.09375 53.5 -1.40625 
z
M 38.90625 16.5 
C 38.90625 13.703125 38.09375 12 35.59375 9.703125 
C 32.203125 6.59375 28.09375 5 23.203125 5 
C 16.703125 5 12.90625 8.09375 12.90625 13.40625 
C 12.90625 18.90625 16.5 21.703125 25.5 23 
C 34.40625 24.203125 36.09375 24.59375 38.90625 25.90625 
z
" id="NimbusSans-Regular-97"/>
       <path d="M 25.40625 52.40625 
L 16.796875 52.40625 
L 16.796875 66.796875 
L 8.5 66.796875 
L 8.5 52.40625 
L 1.40625 52.40625 
L 1.40625 45.59375 
L 8.5 45.59375 
L 8.5 6 
C 8.5 0.59375 12.09375 -2.296875 18.59375 -2.296875 
C 20.796875 -2.296875 22.59375 -2.09375 25.40625 -1.59375 
L 25.40625 5.40625 
C 24.203125 5.09375 23.09375 5 21.40625 5 
C 17.796875 5 16.796875 6 16.796875 9.703125 
L 16.796875 45.59375 
L 25.40625 45.59375 
z
" id="NimbusSans-Regular-116"/>
       <path d="M 15 52.40625 
L 6.703125 52.40625 
L 6.703125 0 
L 15 0 
z
M 15 72.90625 
L 6.59375 72.90625 
L 6.59375 62.40625 
L 15 62.40625 
z
" id="NimbusSans-Regular-105"/>
       <path d="M 27.203125 53.90625 
C 12.40625 53.90625 3.59375 43.40625 3.59375 25.796875 
C 3.59375 8.09375 12.40625 -2.296875 27.296875 -2.296875 
C 42.09375 -2.296875 51 8.203125 51 25.40625 
C 51 43.59375 42.40625 53.90625 27.203125 53.90625 
z
M 27.296875 46.203125 
C 36.703125 46.203125 42.296875 38.5 42.296875 25.5 
C 42.296875 13.09375 36.5 5.40625 27.296875 5.40625 
C 18 5.40625 12.296875 13.09375 12.296875 25.796875 
C 12.296875 38.5 18 46.203125 27.296875 46.203125 
z
" id="NimbusSans-Regular-111"/>
       <path d="M 7 52.40625 
L 7 0 
L 15.40625 0 
L 15.40625 28.90625 
C 15.40625 39.59375 21 46.59375 29.59375 46.59375 
C 36.203125 46.59375 40.40625 42.59375 40.40625 36.296875 
L 40.40625 0 
L 48.703125 0 
L 48.703125 39.59375 
C 48.703125 48.296875 42.203125 53.90625 32.09375 53.90625 
C 24.296875 53.90625 19.296875 50.90625 14.703125 43.59375 
L 14.703125 52.40625 
z
" id="NimbusSans-Regular-110"/>
       <path id="NimbusSans-Regular-32"/>
       <path d="M 60.015625 54.6875 
L 34.90625 27.875 
L 50.296875 0 
L 39.984375 0 
L 28.421875 21.6875 
L 8.296875 0 
L -2.59375 0 
L 24.3125 28.8125 
L 10.015625 54.6875 
L 20.3125 54.6875 
L 30.8125 34.90625 
L 49.125 54.6875 
z
" id="DejaVuSans-Oblique-120"/>
      </defs>
      <use transform="translate(0 0.90625)" xlink:href="#NimbusSans-Regular-79"/>
      <use transform="translate(77.799988 0.90625)" xlink:href="#NimbusSans-Regular-98"/>
      <use transform="translate(133.399979 0.90625)" xlink:href="#NimbusSans-Regular-115"/>
      <use transform="translate(183.399963 0.90625)" xlink:href="#NimbusSans-Regular-101"/>
      <use transform="translate(238.999954 0.90625)" xlink:href="#NimbusSans-Regular-114"/>
      <use transform="translate(272.299942 0.90625)" xlink:href="#NimbusSans-Regular-118"/>
      <use transform="translate(322.299927 0.90625)" xlink:href="#NimbusSans-Regular-97"/>
      <use transform="translate(377.899918 0.90625)" xlink:href="#NimbusSans-Regular-116"/>
      <use transform="translate(405.699905 0.90625)" xlink:href="#NimbusSans-Regular-105"/>
      <use transform="translate(427.899902 0.90625)" xlink:href="#NimbusSans-Regular-111"/>
      <use transform="translate(483.499893 0.90625)" xlink:href="#NimbusSans-Regular-110"/>
      <use transform="translate(539.099884 0.90625)" xlink:href="#NimbusSans-Regular-32"/>
      <use transform="translate(566.899872 0.90625)" xlink:href="#DejaVuSans-Oblique-120"/>
     </g>
    </g>
   </g>
   <g id="matplotlib.axis_2">
    <g id="ytick_1">
     <g id="line2d_8">
      <defs>
       <path d="M 0 0 
L -3.5 0 
" id="m04bba9f7ec" style="stroke:#000000;stroke-width:0.8;"/>
      </defs>
      <g>
       <use style="stroke:#000000;stroke-width:0.8;" x="49.907813" xlink:href="#m04bba9f7ec" y="102"/>
      </g>
     </g>
     <g id="text_9">
      <!-- 0.00 -->
      <g transform="translate(23.45 105.645312)scale(0.1 -0.1)">
       <defs>
        <path d="M 19.09375 10.40625 
L 8.703125 10.40625 
L 8.703125 0 
L 19.09375 0 
z
" id="NimbusSans-Regular-46"/>
       </defs>
       <use xlink:href="#NimbusSans-Regular-48"/>
       <use x="55.599991" xlink:href="#NimbusSans-Regular-46"/>
       <use x="83.399979" xlink:href="#NimbusSans-Regular-48"/>
       <use x="138.999969" xlink:href="#NimbusSans-Regular-48"/>
      </g>
     </g>
    </g>
    <g id="ytick_2">
     <g id="line2d_9">
      <g>
       <use style="stroke:#000000;stroke-width:0.8;" x="49.907813" xlink:href="#m04bba9f7ec" y="77.465839"/>
      </g>
     </g>
     <g id="text_10">
      <!-- 0.05 -->
      <g transform="translate(23.45 81.111151)scale(0.1 -0.1)">
       <use xlink:href="#NimbusSans-Regular-48"/>
       <use x="55.599991" xlink:href="#NimbusSans-Regular-46"/>
       <use x="83.399979" xlink:href="#NimbusSans-Regular-48"/>
       <use x="138.999969" xlink:href="#NimbusSans-Regular-53"/>
      </g>
     </g>
    </g>
    <g id="ytick_3">
     <g id="line2d_10">
      <g>
       <use style="stroke:#000000;stroke-width:0.8;" x="49.907813" xlink:href="#m04bba9f7ec" y="52.931677"/>
      </g>
     </g>
     <g id="text_11">
      <!-- 0.10 -->
      <g transform="translate(23.45 56.57699)scale(0.1 -0.1)">
       <use xlink:href="#NimbusSans-Regular-48"/>
       <use x="55.599991" xlink:href="#NimbusSans-Regular-46"/>
       <use x="83.399979" xlink:href="#NimbusSans-Regular-49"/>
       <use x="138.999969" xlink:href="#NimbusSans-Regular-48"/>
      </g>
     </g>
    </g>
    <g id="ytick_4">
     <g id="line2d_11">
      <g>
       <use style="stroke:#000000;stroke-width:0.8;" x="49.907813" xlink:href="#m04bba9f7ec" y="28.397516"/>
      </g>
     </g>
     <g id="text_12">
      <!-- 0.15 -->
      <g transform="translate(23.45 32.042828)scale(0.1 -0.1)">
       <use xlink:href="#NimbusSans-Regular-48"/>
       <use x="55.599991" xlink:href="#NimbusSans-Regular-46"/>
       <use x="83.399979" xlink:href="#NimbusSans-Regular-49"/>
       <use x="138.999969" xlink:href="#NimbusSans-Regular-53"/>
      </g>
     </g>
    </g>
    <g id="text_13">
     <!-- Density -->
     <g transform="translate(17.270313 71.269531)rotate(-90)scale(0.1 -0.1)">
      <defs>
       <path d="M 8.90625 0 
L 37 0 
C 55.40625 0 66.703125 13.796875 66.703125 36.5 
C 66.703125 59.09375 55.5 72.90625 37 72.90625 
L 8.90625 72.90625 
z
M 18.203125 8.203125 
L 18.203125 64.703125 
L 35.40625 64.703125 
C 49.796875 64.703125 57.40625 55 57.40625 36.40625 
C 57.40625 17.90625 49.796875 8.203125 35.40625 8.203125 
z
" id="NimbusSans-Regular-68"/>
       <path d="M 38.796875 52.40625 
L 24.296875 11.59375 
L 10.90625 52.40625 
L 2 52.40625 
L 19.703125 -0.203125 
L 16.5 -8.5 
C 15.09375 -12.203125 13.296875 -13.59375 9.796875 -13.59375 
C 8.40625 -13.59375 7.203125 -13.40625 5.40625 -13 
L 5.40625 -20.5 
C 7.09375 -21.40625 8.796875 -21.796875 11 -21.796875 
C 13.703125 -21.796875 16.59375 -20.90625 18.796875 -19.296875 
C 21.40625 -17.40625 22.90625 -15.203125 24.5 -11 
L 47.796875 52.40625 
z
" id="NimbusSans-Regular-121"/>
      </defs>
      <use xlink:href="#NimbusSans-Regular-68"/>
      <use x="72.199982" xlink:href="#NimbusSans-Regular-101"/>
      <use x="127.799973" xlink:href="#NimbusSans-Regular-110"/>
      <use x="183.399963" xlink:href="#NimbusSans-Regular-115"/>
      <use x="233.399948" xlink:href="#NimbusSans-Regular-105"/>
      <use x="255.599945" xlink:href="#NimbusSans-Regular-116"/>
      <use x="283.399933" xlink:href="#NimbusSans-Regular-121"/>
     </g>
    </g>
   </g>
   <g id="line2d_12">
    <path clip-path="url(#p40c9698cdd)" d="M 65.551301 46.812214 
L 76.529188 19.132375 
L 87.507075 16.897046 
L 98.484962 28.064214 
L 109.462849 43.614139 
L 120.440736 58.664547 
L 131.418623 71.206422 
L 142.39651 80.814415 
L 153.374397 87.783673 
L 164.352284 92.64772 
L 175.330171 95.946189 
L 186.308058 98.133553 
L 197.285945 99.558381 
L 208.263832 100.473 
L 219.241719 101.05297 
L 230.219606 101.416942 
L 241.197493 101.643335 
L 252.17538 101.783067 
L 263.153267 101.868729 
" style="fill:none;stroke:#000000;stroke-linecap:square;stroke-width:2;"/>
   </g>
   <g id="line2d_13">
    <path clip-path="url(#p40c9698cdd)" d="M 65.551301 43.44975 
L 76.529188 17.669757 
L 87.507075 17.511415 
L 98.484962 29.559252 
L 109.462849 45.113121 
L 120.440736 59.788333 
L 131.418623 71.895827 
L 142.39651 81.152568 
L 153.374397 87.888397 
L 164.352284 92.622385 
L 175.330171 95.864782 
L 186.308058 98.041685 
L 197.285945 99.47981 
L 208.263832 100.416792 
L 219.241719 101.019464 
L 230.219606 101.402113 
L 241.197493 101.641685 
L 252.17538 101.789335 
L 263.153267 101.878719 
" style="fill:none;stroke:#1b9e77;stroke-linecap:square;"/>
   </g>
   <g id="line2d_14">
    <path clip-path="url(#p40c9698cdd)" d="M 65.551301 42.946734 
L 76.529188 17.35254 
L 87.507075 17.519929 
L 98.484962 29.779296 
L 109.462849 45.399702 
L 120.440736 60.044818 
L 131.418623 72.080401 
L 142.39651 81.260773 
L 153.374397 87.934339 
L 164.352284 92.625676 
L 175.330171 95.843497 
L 186.308058 98.009573 
L 197.285945 99.445926 
L 208.263832 100.38624 
L 219.241719 100.994482 
L 230.219606 101.383104 
L 241.197493 101.628047 
L 252.17538 101.780038 
L 263.153267 101.872667 
" style="fill:none;stroke:#d95f02;stroke-linecap:square;"/>
   </g>
   <g id="line2d_15">
    <path clip-path="url(#p40c9698cdd)" d="M 65.551301 45.694878 
L 76.529188 20.384558 
L 87.507075 19.49 
L 98.484962 30.457161 
L 109.462849 45.071016 
L 120.440736 59.11557 
L 131.418623 70.896972 
L 142.39651 80.059118 
L 153.374397 86.84829 
L 164.352284 91.71419 
L 175.330171 95.118223 
L 186.308058 97.4562 
L 197.285945 99.0385 
L 208.263832 100.095788 
L 219.241719 100.793663 
L 230.219606 101.248374 
L 241.197493 101.54034 
L 252.17538 101.724659 
L 263.153267 101.838768 
" style="fill:none;stroke:#7570b3;stroke-linecap:square;"/>
   </g>
   <g id="patch_21">
    <path d="M 49.907813 102 
L 49.907813 7.2 
" style="fill:none;stroke:#000000;stroke-linecap:square;stroke-linejoin:miter;stroke-width:0.8;"/>
   </g>
   <g id="patch_22">
    <path d="M 273.307813 102 
L 273.307813 7.2 
" style="fill:none;stroke:#000000;stroke-linecap:square;stroke-linejoin:miter;stroke-width:0.8;"/>
   </g>
   <g id="patch_23">
    <path d="M 49.907813 102 
L 273.307813 102 
" style="fill:none;stroke:#000000;stroke-linecap:square;stroke-linejoin:miter;stroke-width:0.8;"/>
   </g>
   <g id="patch_24">
    <path d="M 49.907813 7.2 
L 273.307813 7.2 
" style="fill:none;stroke:#000000;stroke-linecap:square;stroke-linejoin:miter;stroke-width:0.8;"/>
   </g>
   <g id="legend_1">
    <g id="line2d_16">
     <path d="M 191.85 19.990625 
L 211.85 19.990625 
" style="fill:none;stroke:#000000;stroke-linecap:square;stroke-width:2;"/>
    </g>
    <g id="line2d_17"/>
    <g id="text_14">
     <!-- Simulated -->
     <g transform="translate(219.85 23.490625)scale(0.1 -0.1)">
      <defs>
       <path d="M 59.59375 51.5 
C 59.59375 56.5 59.296875 57.90625 57.703125 61.296875 
C 53.703125 69.703125 45.203125 74.09375 32.90625 74.09375 
C 16.90625 74.09375 7 65.90625 7 52.703125 
C 7 43.796875 11.703125 38.203125 21.296875 35.703125 
L 39.40625 30.90625 
C 48.703125 28.5 52.796875 24.796875 52.796875 19.09375 
C 52.796875 15.203125 50.703125 11.203125 47.59375 9 
C 44.703125 6.90625 40.09375 5.90625 34.203125 5.90625 
C 26.203125 5.90625 20.90625 7.796875 17.40625 12 
C 14.703125 15.203125 13.5 18.703125 13.59375 23.203125 
L 4.796875 23.203125 
C 4.90625 16.5 6.203125 12.09375 9.09375 8.09375 
C 14.09375 1.203125 22.5 -2.296875 33.59375 -2.296875 
C 42.296875 -2.296875 49.40625 -0.296875 54.09375 3.296875 
C 59 7.203125 62.09375 13.703125 62.09375 20 
C 62.09375 29 56.5 35.59375 46.59375 38.296875 
L 28.296875 43.203125 
C 19.5 45.59375 16.296875 48.40625 16.296875 54 
C 16.296875 61.40625 22.796875 66.296875 32.59375 66.296875 
C 44.203125 66.296875 50.703125 61.09375 50.796875 51.5 
z
" id="NimbusSans-Regular-83"/>
       <path d="M 7 52.40625 
L 7 0 
L 15.40625 0 
L 15.40625 32.90625 
C 15.40625 40.5 20.90625 46.59375 27.703125 46.59375 
C 33.90625 46.59375 37.40625 42.796875 37.40625 36.09375 
L 37.40625 0 
L 45.796875 0 
L 45.796875 32.90625 
C 45.796875 40.5 51.296875 46.59375 58.09375 46.59375 
C 64.203125 46.59375 67.796875 42.703125 67.796875 36.09375 
L 67.796875 0 
L 76.203125 0 
L 76.203125 39.296875 
C 76.203125 48.703125 70.796875 53.90625 61 53.90625 
C 54 53.90625 49.796875 51.796875 44.90625 45.90625 
C 41.796875 51.5 37.59375 53.90625 30.796875 53.90625 
C 23.796875 53.90625 19.09375 51.296875 14.703125 45 
L 14.703125 52.40625 
z
" id="NimbusSans-Regular-109"/>
       <path d="M 48.203125 0 
L 48.203125 52.40625 
L 39.90625 52.40625 
L 39.90625 22.703125 
C 39.90625 12 34.296875 5 25.59375 5 
C 19 5 14.796875 9 14.796875 15.296875 
L 14.796875 52.40625 
L 6.5 52.40625 
L 6.5 12 
C 6.5 3.296875 13 -2.296875 23.203125 -2.296875 
C 30.90625 -2.296875 35.796875 0.40625 40.703125 7.296875 
L 40.703125 0 
z
" id="NimbusSans-Regular-117"/>
       <path d="M 15.203125 72.90625 
L 6.796875 72.90625 
L 6.796875 0 
L 15.203125 0 
z
" id="NimbusSans-Regular-108"/>
       <path d="M 49.5 72.90625 
L 41.203125 72.90625 
L 41.203125 45.796875 
C 37.703125 51.09375 32.09375 53.90625 25.09375 53.90625 
C 11.5 53.90625 2.59375 43 2.59375 26.296875 
C 2.59375 8.59375 11.203125 -2.296875 25.40625 -2.296875 
C 32.59375 -2.296875 37.59375 0.40625 42.09375 6.90625 
L 42.09375 0 
L 49.5 0 
z
M 26.5 46.09375 
C 35.5 46.09375 41.203125 38.203125 41.203125 25.59375 
C 41.203125 13.5 35.40625 5.5 26.59375 5.5 
C 17.40625 5.5 11.296875 13.59375 11.296875 25.796875 
C 11.296875 38 17.40625 46.09375 26.5 46.09375 
z
" id="NimbusSans-Regular-100"/>
      </defs>
      <use xlink:href="#NimbusSans-Regular-83"/>
      <use x="66.699997" xlink:href="#NimbusSans-Regular-105"/>
      <use x="88.899994" xlink:href="#NimbusSans-Regular-109"/>
      <use x="172.199982" xlink:href="#NimbusSans-Regular-117"/>
      <use x="227.799973" xlink:href="#NimbusSans-Regular-108"/>
      <use x="249.999969" xlink:href="#NimbusSans-Regular-97"/>
      <use x="305.59996" xlink:href="#NimbusSans-Regular-116"/>
      <use x="333.399948" xlink:href="#NimbusSans-Regular-101"/>
      <use x="388.999939" xlink:href="#NimbusSans-Regular-100"/>
     </g>
    </g>
    <g id="line2d_18">
     <path d="M 191.85 34.460937 
L 211.85 34.460937 
" style="fill:none;stroke:#1b9e77;stroke-linecap:square;"/>
    </g>
    <g id="line2d_19"/>
    <g id="text_15">
     <!-- K = 1 -->
     <g transform="translate(219.85 37.960937)scale(0.1 -0.1)">
      <defs>
       <path d="M 17.203125 25.5 
L 29.09375 37.40625 
L 54.796875 0 
L 65.796875 0 
L 35.796875 43.203125 
L 65.5 72.90625 
L 53.5 72.90625 
L 17.203125 36 
L 17.203125 72.90625 
L 7.90625 72.90625 
L 7.90625 0 
L 17.203125 0 
z
" id="NimbusSans-Regular-75"/>
       <path d="M 53.40625 35.296875 
L 5 35.296875 
L 5 28.296875 
L 53.40625 28.296875 
z
M 53.40625 18.09375 
L 5 18.09375 
L 5 11.09375 
L 53.40625 11.09375 
z
" id="NimbusSans-Regular-61"/>
      </defs>
      <use xlink:href="#NimbusSans-Regular-75"/>
      <use x="66.699997" xlink:href="#NimbusSans-Regular-32"/>
      <use x="94.499985" xlink:href="#NimbusSans-Regular-61"/>
      <use x="152.899979" xlink:href="#NimbusSans-Regular-32"/>
      <use x="180.699966" xlink:href="#NimbusSans-Regular-49"/>
     </g>
    </g>
    <g id="line2d_20">
     <path d="M 191.85 48.93125 
L 211.85 48.93125 
" style="fill:none;stroke:#d95f02;stroke-linecap:square;"/>
    </g>
    <g id="line2d_21"/>
    <g id="text_16">
     <!-- K = 4 -->
     <g transform="translate(219.85 52.43125)scale(0.1 -0.1)">
      <defs>
       <path d="M 32.703125 17.5 
L 32.703125 0 
L 41.5 0 
L 41.5 17.5 
L 52 17.5 
L 52 25.40625 
L 41.5 25.40625 
L 41.5 72.296875 
L 35 72.296875 
L 2.796875 26.796875 
L 2.796875 17.5 
z
M 32.703125 25.40625 
L 10.5 25.40625 
L 32.703125 57.296875 
z
" id="NimbusSans-Regular-52"/>
      </defs>
      <use xlink:href="#NimbusSans-Regular-75"/>
      <use x="66.699997" xlink:href="#NimbusSans-Regular-32"/>
      <use x="94.499985" xlink:href="#NimbusSans-Regular-61"/>
      <use x="152.899979" xlink:href="#NimbusSans-Regular-32"/>
      <use x="180.699966" xlink:href="#NimbusSans-Regular-52"/>
     </g>
    </g>
    <g id="line2d_22">
     <path d="M 191.85 63.401562 
L 211.85 63.401562 
" style="fill:none;stroke:#7570b3;stroke-linecap:square;"/>
    </g>
    <g id="line2d_23"/>
    <g id="text_17">
     <!-- K = 8 -->
     <g transform="translate(219.85 66.901562)scale(0.1 -0.1)">
      <use xlink:href="#NimbusSans-Regular-75"/>
      <use x="66.699997" xlink:href="#NimbusSans-Regular-32"/>
      <use x="94.499985" xlink:href="#NimbusSans-Regular-61"/>
      <use x="152.899979" xlink:href="#NimbusSans-Regular-32"/>
      <use x="180.699966" xlink:href="#NimbusSans-Regular-56"/>
     </g>
    </g>
   </g>
  </g>
  <g id="axes_2">
   <g id="patch_25">
    <path d="M 49.907813 240.6 
L 273.307813 240.6 
L 273.307813 145.8 
L 49.907813 145.8 
z
" style="fill:#ffffff;"/>
   </g>
   <g id="patch_26">
    <path clip-path="url(#p3e03d26476)" d="M 60.062358 240.6 
L 66.832055 240.6 
L 66.832055 228.253236 
L 60.062358 228.253236 
z
" style="fill:#b2b2b2;"/>
   </g>
   <g id="patch_27">
    <path clip-path="url(#p3e03d26476)" d="M 66.832055 240.6 
L 73.601752 240.6 
L 73.601752 202.788034 
L 66.832055 202.788034 
z
" style="fill:#b2b2b2;"/>
   </g>
   <g id="patch_28">
    <path clip-path="url(#p3e03d26476)" d="M 73.601752 240.6 
L 80.371449 240.6 
L 80.371449 168.062759 
L 73.601752 168.062759 
z
" style="fill:#b2b2b2;"/>
   </g>
   <g id="patch_29">
    <path clip-path="url(#p3e03d26476)" d="M 80.371449 240.6 
L 87.141146 240.6 
L 87.141146 168.062759 
L 80.371449 168.062759 
z
" style="fill:#b2b2b2;"/>
   </g>
   <g id="patch_30">
    <path clip-path="url(#p3e03d26476)" d="M 87.141146 240.6 
L 93.910843 240.6 
L 93.910843 150.314286 
L 87.141146 150.314286 
z
" style="fill:#b2b2b2;"/>
   </g>
   <g id="patch_31">
    <path clip-path="url(#p3e03d26476)" d="M 93.910843 240.6 
L 100.68054 240.6 
L 100.68054 160.346032 
L 93.910843 160.346032 
z
" style="fill:#b2b2b2;"/>
   </g>
   <g id="patch_32">
    <path clip-path="url(#p3e03d26476)" d="M 100.68054 240.6 
L 107.450237 240.6 
L 107.450237 162.66105 
L 100.68054 162.66105 
z
" style="fill:#b2b2b2;"/>
   </g>
   <g id="patch_33">
    <path clip-path="url(#p3e03d26476)" d="M 107.450237 240.6 
L 114.219934 240.6 
L 114.219934 175.779487 
L 107.450237 175.779487 
z
" style="fill:#b2b2b2;"/>
   </g>
   <g id="patch_34">
    <path clip-path="url(#p3e03d26476)" d="M 114.219934 240.6 
L 120.989631 240.6 
L 120.989631 196.614652 
L 114.219934 196.614652 
z
" style="fill:#b2b2b2;"/>
   </g>
   <g id="patch_35">
    <path clip-path="url(#p3e03d26476)" d="M 120.989631 240.6 
L 127.759328 240.6 
L 127.759328 185.03956 
L 120.989631 185.03956 
z
" style="fill:#b2b2b2;"/>
   </g>
   <g id="patch_36">
    <path clip-path="url(#p3e03d26476)" d="M 127.759328 240.6 
L 134.529025 240.6 
L 134.529025 202.016361 
L 127.759328 202.016361 
z
" style="fill:#b2b2b2;"/>
   </g>
   <g id="patch_37">
    <path clip-path="url(#p3e03d26476)" d="M 134.529025 240.6 
L 141.298722 240.6 
L 141.298722 215.906471 
L 134.529025 215.906471 
z
" style="fill:#b2b2b2;"/>
   </g>
   <g id="patch_38">
    <path clip-path="url(#p3e03d26476)" d="M 141.298722 240.6 
L 148.068419 240.6 
L 148.068419 220.536508 
L 141.298722 220.536508 
z
" style="fill:#b2b2b2;"/>
   </g>
   <g id="patch_39">
    <path clip-path="url(#p3e03d26476)" d="M 148.068419 240.6 
L 154.838116 240.6 
L 154.838116 217.449817 
L 148.068419 217.449817 
z
" style="fill:#b2b2b2;"/>
   </g>
   <g id="patch_40">
    <path clip-path="url(#p3e03d26476)" d="M 154.838116 240.6 
L 161.607812 240.6 
L 161.607812 225.938217 
L 154.838116 225.938217 
z
" style="fill:#b2b2b2;"/>
   </g>
   <g id="patch_41">
    <path clip-path="url(#p3e03d26476)" d="M 161.607812 240.6 
L 168.377509 240.6 
L 168.377509 232.883272 
L 161.607812 232.883272 
z
" style="fill:#b2b2b2;"/>
   </g>
   <g id="patch_42">
    <path clip-path="url(#p3e03d26476)" d="M 168.377509 240.6 
L 175.147206 240.6 
L 175.147206 233.654945 
L 168.377509 233.654945 
z
" style="fill:#b2b2b2;"/>
   </g>
   <g id="patch_43">
    <path clip-path="url(#p3e03d26476)" d="M 175.147206 240.6 
L 181.916903 240.6 
L 181.916903 233.654945 
L 175.147206 233.654945 
z
" style="fill:#b2b2b2;"/>
   </g>
   <g id="patch_44">
    <path clip-path="url(#p3e03d26476)" d="M 181.916903 240.6 
L 188.6866 240.6 
L 188.6866 237.513309 
L 181.916903 237.513309 
z
" style="fill:#b2b2b2;"/>
   </g>
   <g id="patch_45">
    <path clip-path="url(#p3e03d26476)" d="M 188.6866 240.6 
L 195.456297 240.6 
L 195.456297 231.339927 
L 188.6866 231.339927 
z
" style="fill:#b2b2b2;"/>
   </g>
   <g id="patch_46">
    <path clip-path="url(#p3e03d26476)" d="M 195.456297 240.6 
L 202.225994 240.6 
L 202.225994 237.513309 
L 195.456297 237.513309 
z
" style="fill:#b2b2b2;"/>
   </g>
   <g id="patch_47">
    <path clip-path="url(#p3e03d26476)" d="M 202.225994 240.6 
L 208.995691 240.6 
L 208.995691 239.828327 
L 202.225994 239.828327 
z
" style="fill:#b2b2b2;"/>
   </g>
   <g id="patch_48">
    <path clip-path="url(#p3e03d26476)" d="M 208.995691 240.6 
L 215.765388 240.6 
L 215.765388 239.828327 
L 208.995691 239.828327 
z
" style="fill:#b2b2b2;"/>
   </g>
   <g id="patch_49">
    <path clip-path="url(#p3e03d26476)" d="M 215.765388 240.6 
L 222.535085 240.6 
L 222.535085 239.056654 
L 215.765388 239.056654 
z
" style="fill:#b2b2b2;"/>
   </g>
   <g id="patch_50">
    <path clip-path="url(#p3e03d26476)" d="M 222.535085 240.6 
L 229.304782 240.6 
L 229.304782 239.056654 
L 222.535085 239.056654 
z
" style="fill:#b2b2b2;"/>
   </g>
   <g id="patch_51">
    <path clip-path="url(#p3e03d26476)" d="M 229.304782 240.6 
L 236.074479 240.6 
L 236.074479 240.6 
L 229.304782 240.6 
z
" style="fill:#b2b2b2;"/>
   </g>
   <g id="patch_52">
    <path clip-path="url(#p3e03d26476)" d="M 236.074479 240.6 
L 242.844176 240.6 
L 242.844176 240.6 
L 236.074479 240.6 
z
" style="fill:#b2b2b2;"/>
   </g>
   <g id="patch_53">
    <path clip-path="url(#p3e03d26476)" d="M 242.844176 240.6 
L 249.613873 240.6 
L 249.613873 240.6 
L 242.844176 240.6 
z
" style="fill:#b2b2b2;"/>
   </g>
   <g id="patch_54">
    <path clip-path="url(#p3e03d26476)" d="M 249.613873 240.6 
L 256.38357 240.6 
L 256.38357 240.6 
L 249.613873 240.6 
z
" style="fill:#b2b2b2;"/>
   </g>
   <g id="patch_55">
    <path clip-path="url(#p3e03d26476)" d="M 256.38357 240.6 
L 263.153267 240.6 
L 263.153267 239.828327 
L 256.38357 239.828327 
z
" style="fill:#b2b2b2;"/>
   </g>
   <g id="matplotlib.axis_3">
    <g id="xtick_8">
     <g id="line2d_24">
      <g>
       <use style="stroke:#000000;stroke-width:0.8;" x="58.404588" xlink:href="#m51facf2bf3" y="240.6"/>
      </g>
     </g>
     <g id="text_18">
      <!-- 0.00000 -->
      <g transform="translate(40.33662 254.890625)scale(0.1 -0.1)">
       <use xlink:href="#NimbusSans-Regular-48"/>
       <use x="55.599991" xlink:href="#NimbusSans-Regular-46"/>
       <use x="83.399979" xlink:href="#NimbusSans-Regular-48"/>
       <use x="138.999969" xlink:href="#NimbusSans-Regular-48"/>
       <use x="194.59996" xlink:href="#NimbusSans-Regular-48"/>
       <use x="250.199951" xlink:href="#NimbusSans-Regular-48"/>
       <use x="305.799942" xlink:href="#NimbusSans-Regular-48"/>
      </g>
     </g>
    </g>
    <g id="xtick_9">
     <g id="line2d_25">
      <g>
       <use style="stroke:#000000;stroke-width:0.8;" x="95.804135" xlink:href="#m51facf2bf3" y="240.6"/>
      </g>
     </g>
     <g id="text_19">
      <!-- 0.00025 -->
      <g transform="translate(77.736166 254.890625)scale(0.1 -0.1)">
       <use xlink:href="#NimbusSans-Regular-48"/>
       <use x="55.599991" xlink:href="#NimbusSans-Regular-46"/>
       <use x="83.399979" xlink:href="#NimbusSans-Regular-48"/>
       <use x="138.999969" xlink:href="#NimbusSans-Regular-48"/>
       <use x="194.59996" xlink:href="#NimbusSans-Regular-48"/>
       <use x="250.199951" xlink:href="#NimbusSans-Regular-50"/>
       <use x="305.799942" xlink:href="#NimbusSans-Regular-53"/>
      </g>
     </g>
    </g>
    <g id="xtick_10">
     <g id="line2d_26">
      <g>
       <use style="stroke:#000000;stroke-width:0.8;" x="133.203682" xlink:href="#m51facf2bf3" y="240.6"/>
      </g>
     </g>
     <g id="text_20">
      <!-- 0.00050 -->
      <g transform="translate(115.135713 254.890625)scale(0.1 -0.1)">
       <use xlink:href="#NimbusSans-Regular-48"/>
       <use x="55.599991" xlink:href="#NimbusSans-Regular-46"/>
       <use x="83.399979" xlink:href="#NimbusSans-Regular-48"/>
       <use x="138.999969" xlink:href="#NimbusSans-Regular-48"/>
       <use x="194.59996" xlink:href="#NimbusSans-Regular-48"/>
       <use x="250.199951" xlink:href="#NimbusSans-Regular-53"/>
       <use x="305.799942" xlink:href="#NimbusSans-Regular-48"/>
      </g>
     </g>
    </g>
    <g id="xtick_11">
     <g id="line2d_27">
      <g>
       <use style="stroke:#000000;stroke-width:0.8;" x="170.603228" xlink:href="#m51facf2bf3" y="240.6"/>
      </g>
     </g>
     <g id="text_21">
      <!-- 0.00075 -->
      <g transform="translate(152.535259 254.890625)scale(0.1 -0.1)">
       <defs>
        <path d="M 52 70.90625 
L 4.59375 70.90625 
L 4.59375 62.203125 
L 42.90625 62.203125 
C 26 38.09375 19.09375 23.296875 13.796875 0 
L 23.203125 0 
C 27.09375 22.703125 36 42.203125 52 63.5 
z
" id="NimbusSans-Regular-55"/>
       </defs>
       <use xlink:href="#NimbusSans-Regular-48"/>
       <use x="55.599991" xlink:href="#NimbusSans-Regular-46"/>
       <use x="83.399979" xlink:href="#NimbusSans-Regular-48"/>
       <use x="138.999969" xlink:href="#NimbusSans-Regular-48"/>
       <use x="194.59996" xlink:href="#NimbusSans-Regular-48"/>
       <use x="250.199951" xlink:href="#NimbusSans-Regular-55"/>
       <use x="305.799942" xlink:href="#NimbusSans-Regular-53"/>
      </g>
     </g>
    </g>
    <g id="xtick_12">
     <g id="line2d_28">
      <g>
       <use style="stroke:#000000;stroke-width:0.8;" x="208.002775" xlink:href="#m51facf2bf3" y="240.6"/>
      </g>
     </g>
     <g id="text_22">
      <!-- 0.00100 -->
      <g transform="translate(189.934806 254.890625)scale(0.1 -0.1)">
       <use xlink:href="#NimbusSans-Regular-48"/>
       <use x="55.599991" xlink:href="#NimbusSans-Regular-46"/>
       <use x="83.399979" xlink:href="#NimbusSans-Regular-48"/>
       <use x="138.999969" xlink:href="#NimbusSans-Regular-48"/>
       <use x="194.59996" xlink:href="#NimbusSans-Regular-49"/>
       <use x="250.199951" xlink:href="#NimbusSans-Regular-48"/>
       <use x="305.799942" xlink:href="#NimbusSans-Regular-48"/>
      </g>
     </g>
    </g>
    <g id="xtick_13">
     <g id="line2d_29">
      <g>
       <use style="stroke:#000000;stroke-width:0.8;" x="245.402321" xlink:href="#m51facf2bf3" y="240.6"/>
      </g>
     </g>
     <g id="text_23">
      <!-- 0.00125 -->
      <g transform="translate(227.334352 254.890625)scale(0.1 -0.1)">
       <use xlink:href="#NimbusSans-Regular-48"/>
       <use x="55.599991" xlink:href="#NimbusSans-Regular-46"/>
       <use x="83.399979" xlink:href="#NimbusSans-Regular-48"/>
       <use x="138.999969" xlink:href="#NimbusSans-Regular-48"/>
       <use x="194.59996" xlink:href="#NimbusSans-Regular-49"/>
       <use x="250.199951" xlink:href="#NimbusSans-Regular-50"/>
       <use x="305.799942" xlink:href="#NimbusSans-Regular-53"/>
      </g>
     </g>
    </g>
    <g id="text_24">
     <!-- Latent variable $\lambda$ -->
     <g transform="translate(124.457813 268.360938)scale(0.1 -0.1)">
      <defs>
       <path d="M 17.296875 72.90625 
L 8 72.90625 
L 8 0 
L 53.296875 0 
L 53.296875 8.203125 
L 17.296875 8.203125 
z
" id="NimbusSans-Regular-76"/>
       <path d="M 36.71875 67.4375 
L 48.828125 0 
L 39.3125 0 
L 31.84375 40.4375 
L 5.125 0 
L -4.390625 0 
L 29.734375 52.4375 
L 28.03125 62.109375 
Q 26.953125 68.265625 21.734375 68.265625 
L 17.046875 68.265625 
L 18.5 75.984375 
L 24.21875 75.875 
Q 35.203125 75.734375 36.71875 67.4375 
z
" id="DejaVuSans-Oblique-955"/>
      </defs>
      <use transform="translate(0 0.015625)" xlink:href="#NimbusSans-Regular-76"/>
      <use transform="translate(55.599991 0.015625)" xlink:href="#NimbusSans-Regular-97"/>
      <use transform="translate(111.199982 0.015625)" xlink:href="#NimbusSans-Regular-116"/>
      <use transform="translate(138.999969 0.015625)" xlink:href="#NimbusSans-Regular-101"/>
      <use transform="translate(194.59996 0.015625)" xlink:href="#NimbusSans-Regular-110"/>
      <use transform="translate(250.199951 0.015625)" xlink:href="#NimbusSans-Regular-116"/>
      <use transform="translate(277.999939 0.015625)" xlink:href="#NimbusSans-Regular-32"/>
      <use transform="translate(305.799927 0.015625)" xlink:href="#NimbusSans-Regular-118"/>
      <use transform="translate(355.799911 0.015625)" xlink:href="#NimbusSans-Regular-97"/>
      <use transform="translate(411.399902 0.015625)" xlink:href="#NimbusSans-Regular-114"/>
      <use transform="translate(444.69989 0.015625)" xlink:href="#NimbusSans-Regular-105"/>
      <use transform="translate(466.899887 0.015625)" xlink:href="#NimbusSans-Regular-97"/>
      <use transform="translate(522.499878 0.015625)" xlink:href="#NimbusSans-Regular-98"/>
      <use transform="translate(578.099869 0.015625)" xlink:href="#NimbusSans-Regular-108"/>
      <use transform="translate(600.299866 0.015625)" xlink:href="#NimbusSans-Regular-101"/>
      <use transform="translate(655.899857 0.015625)" xlink:href="#NimbusSans-Regular-32"/>
      <use transform="translate(683.699844 0.015625)" xlink:href="#DejaVuSans-Oblique-955"/>
     </g>
    </g>
   </g>
   <g id="matplotlib.axis_4">
    <g id="ytick_5">
     <g id="line2d_30">
      <g>
       <use style="stroke:#000000;stroke-width:0.8;" x="49.907813" xlink:href="#m04bba9f7ec" y="240.6"/>
      </g>
     </g>
     <g id="text_25">
      <!-- 0 -->
      <g transform="translate(37.348438 244.245313)scale(0.1 -0.1)">
       <use xlink:href="#NimbusSans-Regular-48"/>
      </g>
     </g>
    </g>
    <g id="ytick_6">
     <g id="line2d_31">
      <g>
       <use style="stroke:#000000;stroke-width:0.8;" x="49.907813" xlink:href="#m04bba9f7ec" y="205.679852"/>
      </g>
     </g>
     <g id="text_26">
      <!-- 1000 -->
      <g transform="translate(20.670313 209.325164)scale(0.1 -0.1)">
       <use xlink:href="#NimbusSans-Regular-49"/>
       <use x="55.599991" xlink:href="#NimbusSans-Regular-48"/>
       <use x="111.199982" xlink:href="#NimbusSans-Regular-48"/>
       <use x="166.799973" xlink:href="#NimbusSans-Regular-48"/>
      </g>
     </g>
    </g>
    <g id="ytick_7">
     <g id="line2d_32">
      <g>
       <use style="stroke:#000000;stroke-width:0.8;" x="49.907813" xlink:href="#m04bba9f7ec" y="170.759704"/>
      </g>
     </g>
     <g id="text_27">
      <!-- 2000 -->
      <g transform="translate(20.670313 174.405016)scale(0.1 -0.1)">
       <use xlink:href="#NimbusSans-Regular-50"/>
       <use x="55.599991" xlink:href="#NimbusSans-Regular-48"/>
       <use x="111.199982" xlink:href="#NimbusSans-Regular-48"/>
       <use x="166.799973" xlink:href="#NimbusSans-Regular-48"/>
      </g>
     </g>
    </g>
    <g id="text_28">
     <!-- Density -->
     <g transform="translate(14.490625 209.869531)rotate(-90)scale(0.1 -0.1)">
      <use xlink:href="#NimbusSans-Regular-68"/>
      <use x="72.199982" xlink:href="#NimbusSans-Regular-101"/>
      <use x="127.799973" xlink:href="#NimbusSans-Regular-110"/>
      <use x="183.399963" xlink:href="#NimbusSans-Regular-115"/>
      <use x="233.399948" xlink:href="#NimbusSans-Regular-105"/>
      <use x="255.599945" xlink:href="#NimbusSans-Regular-116"/>
      <use x="283.399933" xlink:href="#NimbusSans-Regular-121"/>
     </g>
    </g>
   </g>
   <g id="line2d_33">
    <path clip-path="url(#p3e03d26476)" d="M 60.062358 237.97629 
L 61.078829 234.952568 
L 62.298594 230.517357 
L 64.128242 222.900434 
L 71.040245 193.140309 
L 73.073187 185.667273 
L 74.902835 179.715372 
L 76.732483 174.538344 
L 78.358836 170.594022 
L 79.98519 167.258963 
L 81.408249 164.825159 
L 82.831309 162.824695 
L 84.254368 161.236403 
L 85.474133 160.185413 
L 86.693899 159.404569 
L 87.913664 158.877865 
L 89.133429 158.589078 
L 90.353194 158.521966 
L 91.572959 158.660434 
L 92.996019 159.060731 
L 94.419078 159.694892 
L 96.045432 160.675842 
L 97.87508 162.066134 
L 99.908022 163.914606 
L 102.144258 166.251887 
L 104.787083 169.334396 
L 108.243084 173.733203 
L 113.528733 180.883706 
L 122.270384 192.703996 
L 126.946151 198.620825 
L 131.012035 203.412893 
L 134.874625 207.623225 
L 138.53392 211.290462 
L 142.193216 214.643157 
L 145.852512 217.687627 
L 149.511807 220.435826 
L 153.171103 222.903557 
L 156.830399 225.10905 
L 160.692989 227.174197 
L 164.555578 228.992529 
L 168.621463 230.665599 
L 172.890641 232.184623 
L 177.363113 233.545583 
L 182.242174 234.796596 
L 187.527823 235.916893 
L 193.220061 236.8947 
L 199.522181 237.751171 
L 206.637479 238.491393 
L 214.972541 239.125155 
L 224.730663 239.63547 
L 236.725021 240.032293 
L 252.581968 240.321593 
L 263.153267 240.427987 
L 263.153267 240.427987 
" style="fill:none;stroke:#000000;stroke-linecap:square;stroke-width:2;"/>
   </g>
   <g id="line2d_34">
    <path clip-path="url(#p3e03d26476)" d="M 60.062358 236.485254 
L 61.282123 231.595396 
L 63.315065 222.223355 
L 67.787538 201.294368 
L 70.023774 192.005084 
L 71.853422 185.265769 
L 73.68307 179.360406 
L 75.309423 174.820573 
L 76.935777 170.937838 
L 78.358836 168.0615 
L 79.781896 165.650424 
L 81.204955 163.680803 
L 82.628015 162.126891 
L 83.84778 161.105348 
L 85.067545 160.351871 
L 86.28731 159.849024 
L 87.507075 159.579348 
L 88.726841 159.525783 
L 89.946606 159.671866 
L 91.369665 160.07297 
L 92.792725 160.699027 
L 94.419078 161.659868 
L 96.248726 163.014277 
L 98.281668 164.807788 
L 100.721199 167.286573 
L 103.567317 170.523183 
L 107.226613 175.053863 
L 113.325439 183.035052 
L 120.847325 192.790771 
L 125.523091 198.490547 
L 129.79227 203.34134 
L 133.65486 207.403388 
L 137.517449 211.14094 
L 141.176745 214.380785 
L 144.836041 217.33356 
L 148.495336 220.009994 
L 152.357926 222.550894 
L 156.220516 224.818838 
L 160.083106 226.834488 
L 164.14899 228.706909 
L 168.418168 230.424089 
L 172.890641 231.978908 
L 177.566407 233.368913 
L 182.648763 234.642642 
L 188.137706 235.781249 
L 194.033238 236.774596 
L 200.538652 237.644666 
L 207.857244 238.397683 
L 216.3956 239.044482 
L 226.357016 239.568954 
L 238.554668 239.981341 
L 254.411616 240.284786 
L 263.153267 240.383594 
L 263.153267 240.383594 
" style="fill:none;stroke:#1b9e77;stroke-linecap:square;"/>
   </g>
   <g id="line2d_35">
    <path clip-path="url(#p3e03d26476)" d="M 60.062358 236.347236 
L 61.282123 231.359554 
L 63.315065 221.832686 
L 67.787538 200.657949 
L 70.023774 191.308386 
L 71.853422 184.550016 
L 73.68307 178.650348 
L 75.309423 174.133731 
L 76.935777 170.288013 
L 78.358836 167.454327 
L 79.781896 165.09287 
L 81.204955 163.178996 
L 82.42472 161.873762 
L 83.644486 160.85904 
L 84.864251 160.117192 
L 86.084016 159.629478 
L 87.303781 159.378208 
L 88.523546 159.345589 
L 89.743312 159.514188 
L 91.166371 159.94323 
L 92.58943 160.598307 
L 94.215784 161.592841 
L 96.045432 162.984753 
L 98.078374 164.818197 
L 100.517904 167.341647 
L 103.364023 170.623557 
L 107.023319 175.200692 
L 113.528733 183.766926 
L 120.440736 192.738105 
L 125.116503 198.440379 
L 129.182387 203.064605 
L 133.044977 207.136116 
L 136.907567 210.881008 
L 140.566862 214.126438 
L 144.226158 217.084008 
L 147.885454 219.764844 
L 151.748044 222.310338 
L 155.610634 224.583142 
L 159.473223 226.604145 
L 163.539107 228.482877 
L 167.808286 230.207473 
L 172.280758 231.770946 
L 176.956525 233.17089 
L 182.03888 234.456231 
L 187.527823 235.608115 
L 193.423355 236.616162 
L 199.92877 237.502574 
L 207.247361 238.273537 
L 215.785718 238.940063 
L 225.747134 239.485225 
L 237.944786 239.918996 
L 253.598439 240.240744 
L 263.153267 240.35763 
L 263.153267 240.35763 
" style="fill:none;stroke:#d95f02;stroke-linecap:square;"/>
   </g>
   <g id="line2d_36">
    <path clip-path="url(#p3e03d26476)" d="M 60.062358 236.603924 
L 61.282123 231.926894 
L 63.315065 222.991887 
L 67.787538 203.058662 
L 70.023774 194.197053 
L 72.056716 187.08535 
L 73.886364 181.510787 
L 75.512717 177.219347 
L 77.139071 173.540651 
L 78.765425 170.452643 
L 80.188484 168.212084 
L 81.611544 166.378649 
L 83.034603 164.928116 
L 84.254368 163.970233 
L 85.474133 163.25917 
L 86.693899 162.77848 
L 87.913664 162.51218 
L 89.336723 162.452136 
L 90.759783 162.638382 
L 92.182842 163.048233 
L 93.809196 163.761599 
L 95.638844 164.839801 
L 97.671786 166.33135 
L 99.908022 168.268702 
L 102.550846 170.87669 
L 105.803554 174.43351 
L 110.072732 179.462233 
L 124.709915 196.988196 
L 129.182387 201.87362 
L 133.451565 206.206527 
L 137.517449 210.010191 
L 141.380039 213.325887 
L 145.242629 216.354266 
L 149.105219 219.104191 
L 152.967809 221.588588 
L 157.033693 223.934331 
L 161.099577 226.023277 
L 165.368755 227.963386 
L 169.841228 229.743443 
L 174.516994 231.357245 
L 179.396055 232.802998 
L 184.681705 234.129925 
L 190.373942 235.320163 
L 196.472768 236.364071 
L 203.181477 237.28447 
L 210.703363 238.088177 
L 219.241719 238.773217 
L 229.203135 239.344972 
L 241.197493 239.805133 
L 256.444558 240.157963 
L 263.153267 240.259182 
L 263.153267 240.259182 
" style="fill:none;stroke:#7570b3;stroke-linecap:square;"/>
   </g>
   <g id="patch_56">
    <path d="M 49.907813 240.6 
L 49.907813 145.8 
" style="fill:none;stroke:#000000;stroke-linecap:square;stroke-linejoin:miter;stroke-width:0.8;"/>
   </g>
   <g id="patch_57">
    <path d="M 273.307813 240.6 
L 273.307813 145.8 
" style="fill:none;stroke:#000000;stroke-linecap:square;stroke-linejoin:miter;stroke-width:0.8;"/>
   </g>
   <g id="patch_58">
    <path d="M 49.907813 240.6 
L 273.307813 240.6 
" style="fill:none;stroke:#000000;stroke-linecap:square;stroke-linejoin:miter;stroke-width:0.8;"/>
   </g>
   <g id="patch_59">
    <path d="M 49.907813 145.8 
L 273.307813 145.8 
" style="fill:none;stroke:#000000;stroke-linecap:square;stroke-linejoin:miter;stroke-width:0.8;"/>
   </g>
   <g id="legend_2">
    <g id="line2d_37">
     <path d="M 191.85 158.590625 
L 211.85 158.590625 
" style="fill:none;stroke:#000000;stroke-linecap:square;stroke-width:2;"/>
    </g>
    <g id="line2d_38"/>
    <g id="text_29">
     <!-- Simulated -->
     <g transform="translate(219.85 162.090625)scale(0.1 -0.1)">
      <use xlink:href="#NimbusSans-Regular-83"/>
      <use x="66.699997" xlink:href="#NimbusSans-Regular-105"/>
      <use x="88.899994" xlink:href="#NimbusSans-Regular-109"/>
      <use x="172.199982" xlink:href="#NimbusSans-Regular-117"/>
      <use x="227.799973" xlink:href="#NimbusSans-Regular-108"/>
      <use x="249.999969" xlink:href="#NimbusSans-Regular-97"/>
      <use x="305.59996" xlink:href="#NimbusSans-Regular-116"/>
      <use x="333.399948" xlink:href="#NimbusSans-Regular-101"/>
      <use x="388.999939" xlink:href="#NimbusSans-Regular-100"/>
     </g>
    </g>
    <g id="line2d_39">
     <path d="M 191.85 173.060937 
L 211.85 173.060937 
" style="fill:none;stroke:#1b9e77;stroke-linecap:square;"/>
    </g>
    <g id="line2d_40"/>
    <g id="text_30">
     <!-- K = 1 -->
     <g transform="translate(219.85 176.560937)scale(0.1 -0.1)">
      <use xlink:href="#NimbusSans-Regular-75"/>
      <use x="66.699997" xlink:href="#NimbusSans-Regular-32"/>
      <use x="94.499985" xlink:href="#NimbusSans-Regular-61"/>
      <use x="152.899979" xlink:href="#NimbusSans-Regular-32"/>
      <use x="180.699966" xlink:href="#NimbusSans-Regular-49"/>
     </g>
    </g>
    <g id="line2d_41">
     <path d="M 191.85 187.53125 
L 211.85 187.53125 
" style="fill:none;stroke:#d95f02;stroke-linecap:square;"/>
    </g>
    <g id="line2d_42"/>
    <g id="text_31">
     <!-- K = 4 -->
     <g transform="translate(219.85 191.03125)scale(0.1 -0.1)">
      <use xlink:href="#NimbusSans-Regular-75"/>
      <use x="66.699997" xlink:href="#NimbusSans-Regular-32"/>
      <use x="94.499985" xlink:href="#NimbusSans-Regular-61"/>
      <use x="152.899979" xlink:href="#NimbusSans-Regular-32"/>
      <use x="180.699966" xlink:href="#NimbusSans-Regular-52"/>
     </g>
    </g>
    <g id="line2d_43">
     <path d="M 191.85 202.001562 
L 211.85 202.001562 
" style="fill:none;stroke:#7570b3;stroke-linecap:square;"/>
    </g>
    <g id="line2d_44"/>
    <g id="text_32">
     <!-- K = 8 -->
     <g transform="translate(219.85 205.501562)scale(0.1 -0.1)">
      <use xlink:href="#NimbusSans-Regular-75"/>
      <use x="66.699997" xlink:href="#NimbusSans-Regular-32"/>
      <use x="94.499985" xlink:href="#NimbusSans-Regular-61"/>
      <use x="152.899979" xlink:href="#NimbusSans-Regular-32"/>
      <use x="180.699966" xlink:href="#NimbusSans-Regular-56"/>
     </g>
    </g>
   </g>
  </g>
 </g>
 <defs>
  <clipPath id="p40c9698cdd">
   <rect height="94.8" width="223.4" x="49.907813" y="7.2"/>
  </clipPath>
  <clipPath id="p3e03d26476">
   <rect height="94.8" width="223.4" x="49.907813" y="145.8"/>
  </clipPath>
 </defs>
</svg>
