<?xml version="1.0" encoding="utf-8" standalone="no"?>
<!DOCTYPE svg PUBLIC "-//W3C//DTD SVG 1.1//EN"
  "http://www.w3.org/Graphics/SVG/1.1/DTD/svg11.dtd">
<!-- Created with matplotlib (https://matplotlib.org/) -->
<svg height="277.740625pt" version="1.1" viewBox="0 0 388.023437 277.740625" width="388.023437pt" xmlns="http://www.w3.org/2000/svg" xmlns:xlink="http://www.w3.org/1999/xlink">
 <metadata>
  <rdf:RDF xmlns:cc="http://creativecommons.org/ns#" xmlns:dc="http://purl.org/dc/elements/1.1/" xmlns:rdf="http://www.w3.org/1999/02/22-rdf-syntax-ns#">
   <cc:Work>
    <dc:type rdf:resource="http://purl.org/dc/dcmitype/StillImage"/>
    <dc:date>2021-02-18T17:16:16.744497</dc:date>
    <dc:format>image/svg+xml</dc:format>
    <dc:creator>
     <cc:Agent>
      <dc:title>Matplotlib v3.3.2, https://matplotlib.org/</dc:title>
     </cc:Agent>
    </dc:creator>
   </cc:Work>
  </rdf:RDF>
 </metadata>
 <defs>
  <style type="text/css">*{stroke-linecap:butt;stroke-linejoin:round;}</style>
 </defs>
 <g id="figure_1">
  <g id="patch_1">
   <path d="M 0 277.740625 
L 388.023437 277.740625 
L 388.023437 0 
L 0 0 
z
" style="fill:#ffffff;"/>
  </g>
  <g id="axes_1">
   <g id="patch_2">
    <path d="M 49.907813 102 
L 254.807812 102 
L 254.807812 7.2 
L 49.907813 7.2 
z
" style="fill:#ffffff;"/>
   </g>
   <g id="patch_3">
    <path clip-path="url(#p3b4700d785)" d="M 59.221449 102 
L 67.885297 102 
L 67.885297 11.965102 
L 59.221449 11.965102 
z
" style="fill:#b2b2b2;"/>
   </g>
   <g id="patch_4">
    <path clip-path="url(#p3b4700d785)" d="M 67.885297 102 
L 76.549144 102 
L 76.549144 81.669539 
L 67.885297 81.669539 
z
" style="fill:#b2b2b2;"/>
   </g>
   <g id="patch_5">
    <path clip-path="url(#p3b4700d785)" d="M 76.549144 102 
L 85.212992 102 
L 85.212992 81.088669 
L 76.549144 81.088669 
z
" style="fill:#b2b2b2;"/>
   </g>
   <g id="patch_6">
    <path clip-path="url(#p3b4700d785)" d="M 85.212992 102 
L 93.87684 102 
L 93.87684 81.669539 
L 85.212992 81.669539 
z
" style="fill:#b2b2b2;"/>
   </g>
   <g id="patch_7">
    <path clip-path="url(#p3b4700d785)" d="M 93.87684 102 
L 102.540688 102 
L 102.540688 77.603447 
L 93.87684 77.603447 
z
" style="fill:#b2b2b2;"/>
   </g>
   <g id="patch_8">
    <path clip-path="url(#p3b4700d785)" d="M 102.540688 102 
L 111.204536 102 
L 111.204536 78.765188 
L 102.540688 78.765188 
z
" style="fill:#b2b2b2;"/>
   </g>
   <g id="patch_9">
    <path clip-path="url(#p3b4700d785)" d="M 111.204536 102 
L 119.868383 102 
L 119.868383 72.375614 
L 111.204536 72.375614 
z
" style="fill:#b2b2b2;"/>
   </g>
   <g id="patch_10">
    <path clip-path="url(#p3b4700d785)" d="M 119.868383 102 
L 128.532231 102 
L 128.532231 60.177338 
L 119.868383 60.177338 
z
" style="fill:#b2b2b2;"/>
   </g>
   <g id="patch_11">
    <path clip-path="url(#p3b4700d785)" d="M 128.532231 102 
L 137.196079 102 
L 137.196079 53.787765 
L 128.532231 53.787765 
z
" style="fill:#b2b2b2;"/>
   </g>
   <g id="patch_12">
    <path clip-path="url(#p3b4700d785)" d="M 137.196079 102 
L 145.859927 102 
L 145.859927 59.015597 
L 137.196079 59.015597 
z
" style="fill:#b2b2b2;"/>
   </g>
   <g id="patch_13">
    <path clip-path="url(#p3b4700d785)" d="M 145.859927 102 
L 154.523774 102 
L 154.523774 50.883413 
L 145.859927 50.883413 
z
" style="fill:#b2b2b2;"/>
   </g>
   <g id="patch_14">
    <path clip-path="url(#p3b4700d785)" d="M 154.523774 102 
L 163.187622 102 
L 163.187622 58.434727 
L 154.523774 58.434727 
z
" style="fill:#b2b2b2;"/>
   </g>
   <g id="patch_15">
    <path clip-path="url(#p3b4700d785)" d="M 163.187622 102 
L 171.85147 102 
L 171.85147 60.177338 
L 163.187622 60.177338 
z
" style="fill:#b2b2b2;"/>
   </g>
   <g id="patch_16">
    <path clip-path="url(#p3b4700d785)" d="M 171.85147 102 
L 180.515318 102 
L 180.515318 71.794744 
L 171.85147 71.794744 
z
" style="fill:#b2b2b2;"/>
   </g>
   <g id="patch_17">
    <path clip-path="url(#p3b4700d785)" d="M 180.515318 102 
L 189.179166 102 
L 189.179166 79.926928 
L 180.515318 79.926928 
z
" style="fill:#b2b2b2;"/>
   </g>
   <g id="patch_18">
    <path clip-path="url(#p3b4700d785)" d="M 189.179166 102 
L 197.843013 102 
L 197.843013 90.382594 
L 189.179166 90.382594 
z
" style="fill:#b2b2b2;"/>
   </g>
   <g id="patch_19">
    <path clip-path="url(#p3b4700d785)" d="M 197.843013 102 
L 206.506861 102 
L 206.506861 94.448686 
L 197.843013 94.448686 
z
" style="fill:#b2b2b2;"/>
   </g>
   <g id="patch_20">
    <path clip-path="url(#p3b4700d785)" d="M 206.506861 102 
L 215.170709 102 
L 215.170709 96.772167 
L 206.506861 96.772167 
z
" style="fill:#b2b2b2;"/>
   </g>
   <g id="patch_21">
    <path clip-path="url(#p3b4700d785)" d="M 215.170709 102 
L 223.834557 102 
L 223.834557 100.257389 
L 215.170709 100.257389 
z
" style="fill:#b2b2b2;"/>
   </g>
   <g id="patch_22">
    <path clip-path="url(#p3b4700d785)" d="M 223.834557 102 
L 232.498404 102 
L 232.498404 99.095648 
L 223.834557 99.095648 
z
" style="fill:#b2b2b2;"/>
   </g>
   <g id="patch_23">
    <path clip-path="url(#p3b4700d785)" d="M 232.498404 102 
L 241.162252 102 
L 241.162252 100.838259 
L 232.498404 100.838259 
z
" style="fill:#b2b2b2;"/>
   </g>
   <g id="matplotlib.axis_1">
    <g id="xtick_1">
     <g id="line2d_1">
      <defs>
       <path d="M 0 0 
L 0 3.5 
" id="m26ba9e958a" style="stroke:#000000;stroke-width:0.8;"/>
      </defs>
      <g>
       <use style="stroke:#000000;stroke-width:0.8;" x="59.221449" xlink:href="#m26ba9e958a" y="102"/>
      </g>
     </g>
     <g id="text_1">
      <!-- 0 -->
      <g transform="translate(56.441761 116.290625)scale(0.1 -0.1)">
       <defs>
        <path d="M 27.5 72.296875 
C 20.90625 72.296875 14.90625 69.296875 11.203125 64.40625 
C 6.59375 58 4.296875 48.40625 4.296875 35 
C 4.296875 10.59375 12.296875 -2.296875 27.5 -2.296875 
C 42.5 -2.296875 50.703125 10.59375 50.703125 34.40625 
C 50.703125 48.40625 48.5 57.796875 43.796875 64.40625 
C 40.09375 69.40625 34.203125 72.296875 27.5 72.296875 
z
M 27.5 64.5 
C 37 64.5 41.703125 54.796875 41.703125 35.203125 
C 41.703125 14.59375 37.09375 5 27.296875 5 
C 18 5 13.296875 15 13.296875 34.90625 
C 13.296875 54.796875 18 64.5 27.5 64.5 
z
" id="NimbusSans-Regular-48"/>
       </defs>
       <use xlink:href="#NimbusSans-Regular-48"/>
      </g>
     </g>
    </g>
    <g id="xtick_2">
     <g id="line2d_2">
      <g>
       <use style="stroke:#000000;stroke-width:0.8;" x="85.212992" xlink:href="#m26ba9e958a" y="102"/>
      </g>
     </g>
     <g id="text_2">
      <!-- 3 -->
      <g transform="translate(82.433305 116.290625)scale(0.1 -0.1)">
       <defs>
        <path d="M 22.09375 33.296875 
L 23.203125 33.296875 
L 26.90625 33.296875 
C 36.5 33.296875 41.59375 28.796875 41.59375 20.09375 
C 41.59375 11 36.09375 5.5 27 5.5 
C 17.296875 5.5 12.59375 10.40625 12 21 
L 3.203125 21 
C 3.59375 15.203125 4.59375 11.40625 6.296875 8.203125 
C 10 1.203125 16.90625 -2.296875 26.59375 -2.296875 
C 41.203125 -2.296875 50.59375 6.5 50.59375 20.203125 
C 50.59375 29.40625 47.09375 34.40625 38.59375 37.40625 
C 45.203125 40.09375 48.5 45.09375 48.5 52.40625 
C 48.5 64.796875 40.40625 72.296875 26.90625 72.296875 
C 12.59375 72.296875 5 64.296875 4.703125 49 
L 13.5 49 
C 13.59375 53.40625 14 55.90625 15.09375 58.09375 
C 17.09375 62.203125 21.5 64.59375 27 64.59375 
C 34.796875 64.59375 39.5 59.90625 39.5 52.09375 
C 39.5 47 37.703125 43.90625 33.796875 42.203125 
C 31.40625 41.203125 28.203125 40.796875 22.09375 40.703125 
z
" id="NimbusSans-Regular-51"/>
       </defs>
       <use xlink:href="#NimbusSans-Regular-51"/>
      </g>
     </g>
    </g>
    <g id="xtick_3">
     <g id="line2d_3">
      <g>
       <use style="stroke:#000000;stroke-width:0.8;" x="111.204536" xlink:href="#m26ba9e958a" y="102"/>
      </g>
     </g>
     <g id="text_3">
      <!-- 6 -->
      <g transform="translate(108.424848 116.290625)scale(0.1 -0.1)">
       <defs>
        <path d="M 49.796875 53.5 
C 48.09375 65.296875 40.5 72.296875 29.703125 72.296875 
C 21.90625 72.296875 14.90625 68.5 10.703125 62 
C 6.203125 54.90625 4.296875 46.09375 4.296875 33 
C 4.296875 20.796875 6 13.09375 10.296875 6.703125 
C 14.09375 0.796875 20.296875 -2.296875 28.09375 -2.296875 
C 41.59375 -2.296875 51.296875 7.796875 51.296875 21.90625 
C 51.296875 35.203125 42.296875 44.59375 29.59375 44.59375 
C 22.59375 44.59375 17.09375 42 13.296875 36.703125 
C 13.40625 54.59375 19 64.5 29.09375 64.5 
C 35.296875 64.5 39.59375 60.5 41 53.5 
z
M 28.5 36.796875 
C 37 36.796875 42.296875 30.796875 42.296875 21.203125 
C 42.296875 12.09375 36.296875 5.5 28.203125 5.5 
C 20 5.5 13.796875 12.40625 13.796875 21.59375 
C 13.796875 30.59375 19.796875 36.796875 28.5 36.796875 
z
" id="NimbusSans-Regular-54"/>
       </defs>
       <use xlink:href="#NimbusSans-Regular-54"/>
      </g>
     </g>
    </g>
    <g id="xtick_4">
     <g id="line2d_4">
      <g>
       <use style="stroke:#000000;stroke-width:0.8;" x="137.196079" xlink:href="#m26ba9e958a" y="102"/>
      </g>
     </g>
     <g id="text_4">
      <!-- 9 -->
      <g transform="translate(134.416391 116.290625)scale(0.1 -0.1)">
       <defs>
        <path d="M 5.296875 16.5 
C 7 4.703125 14.59375 -2.296875 25.40625 -2.296875 
C 33.296875 -2.296875 40.296875 1.5 44.5 8 
C 48.90625 15.09375 50.90625 23.90625 50.90625 37 
C 50.90625 49.203125 49.09375 56.90625 44.90625 63.296875 
C 41 69.203125 34.796875 72.296875 27 72.296875 
C 13.5 72.296875 3.796875 62.203125 3.796875 48.203125 
C 3.796875 34.90625 12.796875 25.5 25.59375 25.5 
C 32.296875 25.5 37.296875 27.90625 41.796875 33.40625 
C 41.703125 15.40625 36.09375 5.5 26 5.5 
C 19.796875 5.5 15.5 9.5 14.09375 16.5 
z
M 26.90625 64.59375 
C 35.09375 64.59375 41.296875 57.703125 41.296875 48.40625 
C 41.296875 39.5 35.296875 33.296875 26.59375 33.296875 
C 18.09375 33.296875 12.796875 39.296875 12.796875 48.90625 
C 12.796875 58 18.703125 64.59375 26.90625 64.59375 
z
" id="NimbusSans-Regular-57"/>
       </defs>
       <use xlink:href="#NimbusSans-Regular-57"/>
      </g>
     </g>
    </g>
    <g id="xtick_5">
     <g id="line2d_5">
      <g>
       <use style="stroke:#000000;stroke-width:0.8;" x="163.187622" xlink:href="#m26ba9e958a" y="102"/>
      </g>
     </g>
     <g id="text_5">
      <!-- 12 -->
      <g transform="translate(157.628247 116.290625)scale(0.1 -0.1)">
       <defs>
        <path d="M 25.90625 51.5 
L 25.90625 0 
L 34.703125 0 
L 34.703125 72.296875 
L 28.90625 72.296875 
C 25.796875 61.203125 23.796875 59.703125 10.203125 57.90625 
L 10.203125 51.5 
z
" id="NimbusSans-Regular-49"/>
        <path d="M 50.59375 8.703125 
L 13.296875 8.703125 
C 14.203125 14.703125 17.40625 18.5 26.09375 23.796875 
L 36.09375 29.40625 
C 46 34.90625 51.09375 42.296875 51.09375 51.203125 
C 51.09375 57.203125 48.703125 62.796875 44.5 66.703125 
C 40.296875 70.5 35.09375 72.296875 28.40625 72.296875 
C 19.40625 72.296875 12.703125 69.09375 8.796875 62.90625 
C 6.296875 59.09375 5.203125 54.59375 5 47.296875 
L 13.796875 47.296875 
C 14.09375 52.203125 14.703125 55.09375 15.90625 57.5 
C 18.203125 61.90625 22.796875 64.59375 28.09375 64.59375 
C 36.09375 64.59375 42.09375 58.796875 42.09375 51 
C 42.09375 45.203125 38.796875 40.203125 32.5 36.59375 
L 23.296875 31.203125 
C 8.5 22.703125 4.203125 15.90625 3.40625 0.09375 
L 50.59375 0.09375 
z
" id="NimbusSans-Regular-50"/>
       </defs>
       <use xlink:href="#NimbusSans-Regular-49"/>
       <use x="55.599991" xlink:href="#NimbusSans-Regular-50"/>
      </g>
     </g>
    </g>
    <g id="xtick_6">
     <g id="line2d_6">
      <g>
       <use style="stroke:#000000;stroke-width:0.8;" x="189.179166" xlink:href="#m26ba9e958a" y="102"/>
      </g>
     </g>
     <g id="text_6">
      <!-- 15 -->
      <g transform="translate(183.619791 116.290625)scale(0.1 -0.1)">
       <defs>
        <path d="M 47.59375 70.90625 
L 11 70.90625 
L 5.703125 32.296875 
L 13.796875 32.296875 
C 17.90625 37.203125 21.296875 38.90625 26.90625 38.90625 
C 36.40625 38.90625 42.296875 32.40625 42.296875 21.90625 
C 42.296875 11.703125 36.40625 5.5 26.796875 5.5 
C 19.09375 5.5 14.40625 9.40625 12.296875 17.40625 
L 3.5 17.40625 
C 4.703125 11.59375 5.703125 8.796875 7.796875 6.203125 
C 11.796875 0.796875 19 -2.296875 27 -2.296875 
C 41.296875 -2.296875 51.296875 8.09375 51.296875 23.09375 
C 51.296875 37.09375 42 46.703125 28.40625 46.703125 
C 23.40625 46.703125 19.40625 45.40625 15.296875 42.40625 
L 18.09375 62.203125 
L 47.59375 62.203125 
z
" id="NimbusSans-Regular-53"/>
       </defs>
       <use xlink:href="#NimbusSans-Regular-49"/>
       <use x="55.599991" xlink:href="#NimbusSans-Regular-53"/>
      </g>
     </g>
    </g>
    <g id="xtick_7">
     <g id="line2d_7">
      <g>
       <use style="stroke:#000000;stroke-width:0.8;" x="215.170709" xlink:href="#m26ba9e958a" y="102"/>
      </g>
     </g>
     <g id="text_7">
      <!-- 18 -->
      <g transform="translate(209.611334 116.290625)scale(0.1 -0.1)">
       <defs>
        <path d="M 39.09375 38.09375 
C 46.5 42.59375 48.796875 46.203125 48.796875 53 
C 48.796875 64.40625 40.09375 72.296875 27.5 72.296875 
C 15 72.296875 6.203125 64.40625 6.203125 53.09375 
C 6.203125 46.203125 8.5 42.703125 15.796875 38.09375 
C 7.703125 34 3.703125 28.09375 3.703125 20.09375 
C 3.703125 6.90625 13.40625 -2.296875 27.5 -2.296875 
C 41.5 -2.296875 51.296875 6.90625 51.296875 20.09375 
C 51.296875 28.09375 47.296875 34 39.09375 38.09375 
z
M 27.5 64.5 
C 35 64.5 39.796875 60 39.796875 52.796875 
C 39.796875 46 34.90625 41.5 27.5 41.5 
C 20 41.5 15.203125 46 15.203125 53 
C 15.203125 60 20 64.5 27.5 64.5 
z
M 27.5 34.09375 
C 36.296875 34.09375 42.296875 28.296875 42.296875 19.90625 
C 42.296875 11.203125 36.40625 5.5 27.296875 5.5 
C 18.703125 5.5 12.703125 11.40625 12.703125 19.796875 
C 12.703125 28.40625 18.59375 34.09375 27.5 34.09375 
z
" id="NimbusSans-Regular-56"/>
       </defs>
       <use xlink:href="#NimbusSans-Regular-49"/>
       <use x="55.599991" xlink:href="#NimbusSans-Regular-56"/>
      </g>
     </g>
    </g>
    <g id="xtick_8">
     <g id="line2d_8">
      <g>
       <use style="stroke:#000000;stroke-width:0.8;" x="241.162252" xlink:href="#m26ba9e958a" y="102"/>
      </g>
     </g>
     <g id="text_8">
      <!-- 21 -->
      <g transform="translate(235.602877 116.290625)scale(0.1 -0.1)">
       <use xlink:href="#NimbusSans-Regular-50"/>
       <use x="55.599991" xlink:href="#NimbusSans-Regular-49"/>
      </g>
     </g>
    </g>
    <g id="text_9">
     <!-- Observation $x$ -->
     <g transform="translate(121.007812 129.760938)scale(0.1 -0.1)">
      <defs>
       <path d="M 38.90625 74.09375 
C 18 74.09375 3.796875 58.703125 3.796875 35.90625 
C 3.796875 13 17.90625 -2.296875 39 -2.296875 
C 47.90625 -2.296875 55.703125 0.40625 61.59375 5.40625 
C 69.5 12.09375 74.203125 23.40625 74.203125 35.296875 
C 74.203125 58.796875 60.296875 74.09375 38.90625 74.09375 
z
M 38.90625 65.90625 
C 54.703125 65.90625 64.90625 54 64.90625 35.5 
C 64.90625 17.90625 54.40625 5.90625 39 5.90625 
C 23.40625 5.90625 13.09375 17.90625 13.09375 35.90625 
C 13.09375 53.90625 23.40625 65.90625 38.90625 65.90625 
z
" id="NimbusSans-Regular-79"/>
       <path d="M 5.40625 72.90625 
L 5.40625 0 
L 12.90625 0 
L 12.90625 6.703125 
C 16.90625 0.59375 22.203125 -2.296875 29.5 -2.296875 
C 43.296875 -2.296875 52.296875 9 52.296875 26.40625 
C 52.296875 43.40625 43.796875 53.90625 29.90625 53.90625 
C 22.703125 53.90625 17.59375 51.203125 13.703125 45.296875 
L 13.703125 72.90625 
z
M 28.296875 46.09375 
C 37.59375 46.09375 43.59375 38 43.59375 25.5 
C 43.59375 13.59375 37.40625 5.5 28.296875 5.5 
C 19.40625 5.5 13.703125 13.5 13.703125 25.796875 
C 13.703125 38.09375 19.40625 46.09375 28.296875 46.09375 
z
" id="NimbusSans-Regular-98"/>
       <path d="M 43.796875 37.796875 
C 43.703125 48.09375 36.90625 53.90625 24.796875 53.90625 
C 12.59375 53.90625 4.703125 47.59375 4.703125 37.90625 
C 4.703125 29.703125 8.90625 25.796875 21.296875 22.796875 
L 29.09375 20.90625 
C 34.90625 19.5 37.203125 17.40625 37.203125 13.703125 
C 37.203125 8.703125 32.296875 5.40625 25 5.40625 
C 20.5 5.40625 16.703125 6.703125 14.59375 8.90625 
C 13.296875 10.40625 12.703125 11.90625 12.203125 15.59375 
L 3.40625 15.59375 
C 3.796875 3.5 10.59375 -2.296875 24.296875 -2.296875 
C 37.5 -2.296875 45.90625 4.203125 45.90625 14.296875 
C 45.90625 22.09375 41.5 26.40625 31.09375 28.90625 
L 23.09375 30.796875 
C 16.296875 32.40625 13.40625 34.59375 13.40625 38.296875 
C 13.40625 43.203125 17.703125 46.203125 24.5 46.203125 
C 31.203125 46.203125 34.796875 43.296875 35 37.796875 
z
" id="NimbusSans-Regular-115"/>
       <path d="M 51.296875 23.40625 
C 51.296875 31.40625 50.703125 36.203125 49.203125 40.09375 
C 45.796875 48.703125 37.796875 53.90625 28 53.90625 
C 13.40625 53.90625 4 42.796875 4 25.5 
C 4 8.203125 13 -2.296875 27.796875 -2.296875 
C 39.796875 -2.296875 48.09375 4.5 50.203125 15.90625 
L 41.796875 15.90625 
C 39.5 9 34.796875 5.40625 28.09375 5.40625 
C 22.796875 5.40625 18.296875 7.796875 15.5 12.203125 
C 13.5 15.203125 12.796875 18.203125 12.703125 23.40625 
z
M 12.90625 30.203125 
C 13.59375 39.90625 19.5 46.203125 27.90625 46.203125 
C 36.40625 46.203125 42.296875 39.59375 42.296875 30.203125 
z
" id="NimbusSans-Regular-101"/>
       <path d="M 6.90625 52.40625 
L 6.90625 0 
L 15.296875 0 
L 15.296875 27.203125 
C 15.40625 39.796875 20.59375 45.40625 32.09375 45.09375 
L 32.09375 53.59375 
C 30.703125 53.796875 29.90625 53.90625 28.90625 53.90625 
C 23.5 53.90625 19.40625 50.703125 14.59375 42.90625 
L 14.59375 52.40625 
z
" id="NimbusSans-Regular-114"/>
       <path d="M 28.5 0 
L 48.59375 52.40625 
L 39.203125 52.40625 
L 24.40625 9.90625 
L 10.40625 52.40625 
L 1 52.40625 
L 19.40625 0 
z
" id="NimbusSans-Regular-118"/>
       <path d="M 53.5 4.90625 
C 52.59375 4.703125 52.203125 4.703125 51.703125 4.703125 
C 48.796875 4.703125 47.203125 6.203125 47.203125 8.796875 
L 47.203125 39.59375 
C 47.203125 48.90625 40.40625 53.90625 27.5 53.90625 
C 19.796875 53.90625 13.703125 51.703125 10.09375 47.796875 
C 7.703125 45.09375 6.703125 42.09375 6.5 36.90625 
L 14.90625 36.90625 
C 15.59375 43.296875 19.40625 46.203125 27.203125 46.203125 
C 34.796875 46.203125 38.90625 43.40625 38.90625 38.40625 
L 38.90625 36.203125 
C 38.796875 32.59375 37 31.296875 30.203125 30.40625 
C 18.40625 28.90625 16.59375 28.5 13.40625 27.203125 
C 7.296875 24.59375 4.203125 20 4.203125 13.203125 
C 4.203125 3.703125 10.796875 -2.296875 21.40625 -2.296875 
C 28 -2.296875 33.296875 0 39.203125 5.40625 
C 39.796875 0 42.40625 -2.296875 47.796875 -2.296875 
C 49.59375 -2.296875 50.703125 -2.09375 53.5 -1.40625 
z
M 38.90625 16.5 
C 38.90625 13.703125 38.09375 12 35.59375 9.703125 
C 32.203125 6.59375 28.09375 5 23.203125 5 
C 16.703125 5 12.90625 8.09375 12.90625 13.40625 
C 12.90625 18.90625 16.5 21.703125 25.5 23 
C 34.40625 24.203125 36.09375 24.59375 38.90625 25.90625 
z
" id="NimbusSans-Regular-97"/>
       <path d="M 25.40625 52.40625 
L 16.796875 52.40625 
L 16.796875 66.796875 
L 8.5 66.796875 
L 8.5 52.40625 
L 1.40625 52.40625 
L 1.40625 45.59375 
L 8.5 45.59375 
L 8.5 6 
C 8.5 0.59375 12.09375 -2.296875 18.59375 -2.296875 
C 20.796875 -2.296875 22.59375 -2.09375 25.40625 -1.59375 
L 25.40625 5.40625 
C 24.203125 5.09375 23.09375 5 21.40625 5 
C 17.796875 5 16.796875 6 16.796875 9.703125 
L 16.796875 45.59375 
L 25.40625 45.59375 
z
" id="NimbusSans-Regular-116"/>
       <path d="M 15 52.40625 
L 6.703125 52.40625 
L 6.703125 0 
L 15 0 
z
M 15 72.90625 
L 6.59375 72.90625 
L 6.59375 62.40625 
L 15 62.40625 
z
" id="NimbusSans-Regular-105"/>
       <path d="M 27.203125 53.90625 
C 12.40625 53.90625 3.59375 43.40625 3.59375 25.796875 
C 3.59375 8.09375 12.40625 -2.296875 27.296875 -2.296875 
C 42.09375 -2.296875 51 8.203125 51 25.40625 
C 51 43.59375 42.40625 53.90625 27.203125 53.90625 
z
M 27.296875 46.203125 
C 36.703125 46.203125 42.296875 38.5 42.296875 25.5 
C 42.296875 13.09375 36.5 5.40625 27.296875 5.40625 
C 18 5.40625 12.296875 13.09375 12.296875 25.796875 
C 12.296875 38.5 18 46.203125 27.296875 46.203125 
z
" id="NimbusSans-Regular-111"/>
       <path d="M 7 52.40625 
L 7 0 
L 15.40625 0 
L 15.40625 28.90625 
C 15.40625 39.59375 21 46.59375 29.59375 46.59375 
C 36.203125 46.59375 40.40625 42.59375 40.40625 36.296875 
L 40.40625 0 
L 48.703125 0 
L 48.703125 39.59375 
C 48.703125 48.296875 42.203125 53.90625 32.09375 53.90625 
C 24.296875 53.90625 19.296875 50.90625 14.703125 43.59375 
L 14.703125 52.40625 
z
" id="NimbusSans-Regular-110"/>
       <path id="NimbusSans-Regular-32"/>
       <path d="M 60.015625 54.6875 
L 34.90625 27.875 
L 50.296875 0 
L 39.984375 0 
L 28.421875 21.6875 
L 8.296875 0 
L -2.59375 0 
L 24.3125 28.8125 
L 10.015625 54.6875 
L 20.3125 54.6875 
L 30.8125 34.90625 
L 49.125 54.6875 
z
" id="DejaVuSans-Oblique-120"/>
      </defs>
      <use transform="translate(0 0.90625)" xlink:href="#NimbusSans-Regular-79"/>
      <use transform="translate(77.799988 0.90625)" xlink:href="#NimbusSans-Regular-98"/>
      <use transform="translate(133.399979 0.90625)" xlink:href="#NimbusSans-Regular-115"/>
      <use transform="translate(183.399963 0.90625)" xlink:href="#NimbusSans-Regular-101"/>
      <use transform="translate(238.999954 0.90625)" xlink:href="#NimbusSans-Regular-114"/>
      <use transform="translate(272.299942 0.90625)" xlink:href="#NimbusSans-Regular-118"/>
      <use transform="translate(322.299927 0.90625)" xlink:href="#NimbusSans-Regular-97"/>
      <use transform="translate(377.899918 0.90625)" xlink:href="#NimbusSans-Regular-116"/>
      <use transform="translate(405.699905 0.90625)" xlink:href="#NimbusSans-Regular-105"/>
      <use transform="translate(427.899902 0.90625)" xlink:href="#NimbusSans-Regular-111"/>
      <use transform="translate(483.499893 0.90625)" xlink:href="#NimbusSans-Regular-110"/>
      <use transform="translate(539.099884 0.90625)" xlink:href="#NimbusSans-Regular-32"/>
      <use transform="translate(566.899872 0.90625)" xlink:href="#DejaVuSans-Oblique-120"/>
     </g>
    </g>
   </g>
   <g id="matplotlib.axis_2">
    <g id="ytick_1">
     <g id="line2d_9">
      <defs>
       <path d="M 0 0 
L -3.5 0 
" id="ma3a9d4720b" style="stroke:#000000;stroke-width:0.8;"/>
      </defs>
      <g>
       <use style="stroke:#000000;stroke-width:0.8;" x="49.907813" xlink:href="#ma3a9d4720b" y="102"/>
      </g>
     </g>
     <g id="text_10">
      <!-- 0.00 -->
      <g transform="translate(23.45 105.645312)scale(0.1 -0.1)">
       <defs>
        <path d="M 19.09375 10.40625 
L 8.703125 10.40625 
L 8.703125 0 
L 19.09375 0 
z
" id="NimbusSans-Regular-46"/>
       </defs>
       <use xlink:href="#NimbusSans-Regular-48"/>
       <use x="55.599991" xlink:href="#NimbusSans-Regular-46"/>
       <use x="83.399979" xlink:href="#NimbusSans-Regular-48"/>
       <use x="138.999969" xlink:href="#NimbusSans-Regular-48"/>
      </g>
     </g>
    </g>
    <g id="ytick_2">
     <g id="line2d_10">
      <g>
       <use style="stroke:#000000;stroke-width:0.8;" x="49.907813" xlink:href="#ma3a9d4720b" y="72.956485"/>
      </g>
     </g>
     <g id="text_11">
      <!-- 0.05 -->
      <g transform="translate(23.45 76.601797)scale(0.1 -0.1)">
       <use xlink:href="#NimbusSans-Regular-48"/>
       <use x="55.599991" xlink:href="#NimbusSans-Regular-46"/>
       <use x="83.399979" xlink:href="#NimbusSans-Regular-48"/>
       <use x="138.999969" xlink:href="#NimbusSans-Regular-53"/>
      </g>
     </g>
    </g>
    <g id="ytick_3">
     <g id="line2d_11">
      <g>
       <use style="stroke:#000000;stroke-width:0.8;" x="49.907813" xlink:href="#ma3a9d4720b" y="43.912969"/>
      </g>
     </g>
     <g id="text_12">
      <!-- 0.10 -->
      <g transform="translate(23.45 47.558282)scale(0.1 -0.1)">
       <use xlink:href="#NimbusSans-Regular-48"/>
       <use x="55.599991" xlink:href="#NimbusSans-Regular-46"/>
       <use x="83.399979" xlink:href="#NimbusSans-Regular-49"/>
       <use x="138.999969" xlink:href="#NimbusSans-Regular-48"/>
      </g>
     </g>
    </g>
    <g id="ytick_4">
     <g id="line2d_12">
      <g>
       <use style="stroke:#000000;stroke-width:0.8;" x="49.907813" xlink:href="#ma3a9d4720b" y="14.869454"/>
      </g>
     </g>
     <g id="text_13">
      <!-- 0.15 -->
      <g transform="translate(23.45 18.514766)scale(0.1 -0.1)">
       <use xlink:href="#NimbusSans-Regular-48"/>
       <use x="55.599991" xlink:href="#NimbusSans-Regular-46"/>
       <use x="83.399979" xlink:href="#NimbusSans-Regular-49"/>
       <use x="138.999969" xlink:href="#NimbusSans-Regular-53"/>
      </g>
     </g>
    </g>
    <g id="text_14">
     <!-- Density -->
     <g transform="translate(17.270313 71.269531)rotate(-90)scale(0.1 -0.1)">
      <defs>
       <path d="M 8.90625 0 
L 37 0 
C 55.40625 0 66.703125 13.796875 66.703125 36.5 
C 66.703125 59.09375 55.5 72.90625 37 72.90625 
L 8.90625 72.90625 
z
M 18.203125 8.203125 
L 18.203125 64.703125 
L 35.40625 64.703125 
C 49.796875 64.703125 57.40625 55 57.40625 36.40625 
C 57.40625 17.90625 49.796875 8.203125 35.40625 8.203125 
z
" id="NimbusSans-Regular-68"/>
       <path d="M 38.796875 52.40625 
L 24.296875 11.59375 
L 10.90625 52.40625 
L 2 52.40625 
L 19.703125 -0.203125 
L 16.5 -8.5 
C 15.09375 -12.203125 13.296875 -13.59375 9.796875 -13.59375 
C 8.40625 -13.59375 7.203125 -13.40625 5.40625 -13 
L 5.40625 -20.5 
C 7.09375 -21.40625 8.796875 -21.796875 11 -21.796875 
C 13.703125 -21.796875 16.59375 -20.90625 18.796875 -19.296875 
C 21.40625 -17.40625 22.90625 -15.203125 24.5 -11 
L 47.796875 52.40625 
z
" id="NimbusSans-Regular-121"/>
      </defs>
      <use xlink:href="#NimbusSans-Regular-68"/>
      <use x="72.199982" xlink:href="#NimbusSans-Regular-101"/>
      <use x="127.799973" xlink:href="#NimbusSans-Regular-110"/>
      <use x="183.399963" xlink:href="#NimbusSans-Regular-115"/>
      <use x="233.399948" xlink:href="#NimbusSans-Regular-105"/>
      <use x="255.599945" xlink:href="#NimbusSans-Regular-116"/>
      <use x="283.399933" xlink:href="#NimbusSans-Regular-121"/>
     </g>
    </g>
   </g>
   <g id="line2d_13">
    <path clip-path="url(#p3b4700d785)" d="M 63.553373 67.815521 
L 72.217221 55.054116 
L 80.881068 50.678404 
L 89.544916 50.686609 
L 98.208764 53.090313 
L 106.872612 56.75139 
L 115.536459 60.983371 
L 124.200307 65.366634 
L 132.864155 69.647945 
L 141.528003 73.680622 
L 150.191851 77.3869 
L 158.855698 80.733471 
L 167.519546 83.715273 
L 176.183394 86.344655 
L 184.847242 88.644114 
L 193.511089 90.641457 
L 202.174937 92.366615 
L 210.838785 93.849593 
L 219.502633 95.119201 
L 228.166481 96.202309 
L 236.830328 97.123473 
L 245.494176 97.904782 
" style="fill:none;stroke:#e6ab02;stroke-linecap:square;"/>
    <defs>
     <path d="M 0 1.5 
C 0.397805 1.5 0.77937 1.341951 1.06066 1.06066 
C 1.341951 0.77937 1.5 0.397805 1.5 0 
C 1.5 -0.397805 1.341951 -0.77937 1.06066 -1.06066 
C 0.77937 -1.341951 0.397805 -1.5 0 -1.5 
C -0.397805 -1.5 -0.77937 -1.341951 -1.06066 -1.06066 
C -1.341951 -0.77937 -1.5 -0.397805 -1.5 0 
C -1.5 0.397805 -1.341951 0.77937 -1.06066 1.06066 
C -0.77937 1.341951 -0.397805 1.5 0 1.5 
z
" id="m41f2ca854c" style="stroke:#e6ab02;"/>
    </defs>
    <g clip-path="url(#p3b4700d785)">
     <use style="fill:#e6ab02;stroke:#e6ab02;" x="63.553373" xlink:href="#m41f2ca854c" y="67.815521"/>
     <use style="fill:#e6ab02;stroke:#e6ab02;" x="72.217221" xlink:href="#m41f2ca854c" y="55.054116"/>
     <use style="fill:#e6ab02;stroke:#e6ab02;" x="80.881068" xlink:href="#m41f2ca854c" y="50.678404"/>
     <use style="fill:#e6ab02;stroke:#e6ab02;" x="89.544916" xlink:href="#m41f2ca854c" y="50.686609"/>
     <use style="fill:#e6ab02;stroke:#e6ab02;" x="98.208764" xlink:href="#m41f2ca854c" y="53.090313"/>
     <use style="fill:#e6ab02;stroke:#e6ab02;" x="106.872612" xlink:href="#m41f2ca854c" y="56.75139"/>
     <use style="fill:#e6ab02;stroke:#e6ab02;" x="115.536459" xlink:href="#m41f2ca854c" y="60.983371"/>
     <use style="fill:#e6ab02;stroke:#e6ab02;" x="124.200307" xlink:href="#m41f2ca854c" y="65.366634"/>
     <use style="fill:#e6ab02;stroke:#e6ab02;" x="132.864155" xlink:href="#m41f2ca854c" y="69.647945"/>
     <use style="fill:#e6ab02;stroke:#e6ab02;" x="141.528003" xlink:href="#m41f2ca854c" y="73.680622"/>
     <use style="fill:#e6ab02;stroke:#e6ab02;" x="150.191851" xlink:href="#m41f2ca854c" y="77.3869"/>
     <use style="fill:#e6ab02;stroke:#e6ab02;" x="158.855698" xlink:href="#m41f2ca854c" y="80.733471"/>
     <use style="fill:#e6ab02;stroke:#e6ab02;" x="167.519546" xlink:href="#m41f2ca854c" y="83.715273"/>
     <use style="fill:#e6ab02;stroke:#e6ab02;" x="176.183394" xlink:href="#m41f2ca854c" y="86.344655"/>
     <use style="fill:#e6ab02;stroke:#e6ab02;" x="184.847242" xlink:href="#m41f2ca854c" y="88.644114"/>
     <use style="fill:#e6ab02;stroke:#e6ab02;" x="193.511089" xlink:href="#m41f2ca854c" y="90.641457"/>
     <use style="fill:#e6ab02;stroke:#e6ab02;" x="202.174937" xlink:href="#m41f2ca854c" y="92.366615"/>
     <use style="fill:#e6ab02;stroke:#e6ab02;" x="210.838785" xlink:href="#m41f2ca854c" y="93.849593"/>
     <use style="fill:#e6ab02;stroke:#e6ab02;" x="219.502633" xlink:href="#m41f2ca854c" y="95.119201"/>
     <use style="fill:#e6ab02;stroke:#e6ab02;" x="228.166481" xlink:href="#m41f2ca854c" y="96.202309"/>
     <use style="fill:#e6ab02;stroke:#e6ab02;" x="236.830328" xlink:href="#m41f2ca854c" y="97.123473"/>
     <use style="fill:#e6ab02;stroke:#e6ab02;" x="245.494176" xlink:href="#m41f2ca854c" y="97.904782"/>
    </g>
   </g>
   <g id="line2d_14">
    <path clip-path="url(#p3b4700d785)" d="M 63.553373 11.714286 
L 72.217221 96.187586 
L 80.881068 88.438277 
L 89.544916 78.544954 
L 98.208764 68.514685 
L 106.872612 60.259928 
L 115.536459 55.010173 
L 124.200307 53.152887 
L 132.864155 54.381889 
L 141.528003 57.975679 
L 150.191851 63.070165 
L 158.855698 68.857107 
L 167.519546 74.693335 
L 176.183394 80.135917 
L 184.847242 84.928885 
L 193.511089 88.965623 
L 202.174937 92.244541 
L 210.838785 94.828536 
L 219.502633 96.812986 
L 228.166481 98.303249 
L 236.830328 99.400589 
L 245.494176 100.194615 
" style="fill:none;stroke:#a6761d;stroke-linecap:square;"/>
    <defs>
     <path d="M 0 1.5 
C 0.397805 1.5 0.77937 1.341951 1.06066 1.06066 
C 1.341951 0.77937 1.5 0.397805 1.5 0 
C 1.5 -0.397805 1.341951 -0.77937 1.06066 -1.06066 
C 0.77937 -1.341951 0.397805 -1.5 0 -1.5 
C -0.397805 -1.5 -0.77937 -1.341951 -1.06066 -1.06066 
C -1.341951 -0.77937 -1.5 -0.397805 -1.5 0 
C -1.5 0.397805 -1.341951 0.77937 -1.06066 1.06066 
C -0.77937 1.341951 -0.397805 1.5 0 1.5 
z
" id="m3119a41af9" style="stroke:#a6761d;"/>
    </defs>
    <g clip-path="url(#p3b4700d785)">
     <use style="fill:#a6761d;stroke:#a6761d;" x="63.553373" xlink:href="#m3119a41af9" y="11.714286"/>
     <use style="fill:#a6761d;stroke:#a6761d;" x="72.217221" xlink:href="#m3119a41af9" y="96.187586"/>
     <use style="fill:#a6761d;stroke:#a6761d;" x="80.881068" xlink:href="#m3119a41af9" y="88.438277"/>
     <use style="fill:#a6761d;stroke:#a6761d;" x="89.544916" xlink:href="#m3119a41af9" y="78.544954"/>
     <use style="fill:#a6761d;stroke:#a6761d;" x="98.208764" xlink:href="#m3119a41af9" y="68.514685"/>
     <use style="fill:#a6761d;stroke:#a6761d;" x="106.872612" xlink:href="#m3119a41af9" y="60.259928"/>
     <use style="fill:#a6761d;stroke:#a6761d;" x="115.536459" xlink:href="#m3119a41af9" y="55.010173"/>
     <use style="fill:#a6761d;stroke:#a6761d;" x="124.200307" xlink:href="#m3119a41af9" y="53.152887"/>
     <use style="fill:#a6761d;stroke:#a6761d;" x="132.864155" xlink:href="#m3119a41af9" y="54.381889"/>
     <use style="fill:#a6761d;stroke:#a6761d;" x="141.528003" xlink:href="#m3119a41af9" y="57.975679"/>
     <use style="fill:#a6761d;stroke:#a6761d;" x="150.191851" xlink:href="#m3119a41af9" y="63.070165"/>
     <use style="fill:#a6761d;stroke:#a6761d;" x="158.855698" xlink:href="#m3119a41af9" y="68.857107"/>
     <use style="fill:#a6761d;stroke:#a6761d;" x="167.519546" xlink:href="#m3119a41af9" y="74.693335"/>
     <use style="fill:#a6761d;stroke:#a6761d;" x="176.183394" xlink:href="#m3119a41af9" y="80.135917"/>
     <use style="fill:#a6761d;stroke:#a6761d;" x="184.847242" xlink:href="#m3119a41af9" y="84.928885"/>
     <use style="fill:#a6761d;stroke:#a6761d;" x="193.511089" xlink:href="#m3119a41af9" y="88.965623"/>
     <use style="fill:#a6761d;stroke:#a6761d;" x="202.174937" xlink:href="#m3119a41af9" y="92.244541"/>
     <use style="fill:#a6761d;stroke:#a6761d;" x="210.838785" xlink:href="#m3119a41af9" y="94.828536"/>
     <use style="fill:#a6761d;stroke:#a6761d;" x="219.502633" xlink:href="#m3119a41af9" y="96.812986"/>
     <use style="fill:#a6761d;stroke:#a6761d;" x="228.166481" xlink:href="#m3119a41af9" y="98.303249"/>
     <use style="fill:#a6761d;stroke:#a6761d;" x="236.830328" xlink:href="#m3119a41af9" y="99.400589"/>
     <use style="fill:#a6761d;stroke:#a6761d;" x="245.494176" xlink:href="#m3119a41af9" y="100.194615"/>
    </g>
   </g>
   <g id="line2d_15">
    <path clip-path="url(#p3b4700d785)" d="M 63.553373 39.167073 
L 72.217221 64.31042 
L 80.881068 71.206598 
L 89.544916 71.405943 
L 98.208764 68.993777 
L 106.872612 65.775237 
L 115.536459 62.874651 
L 124.200307 61.069691 
L 132.864155 60.823016 
L 141.528003 62.272187 
L 150.191851 65.258947 
L 158.855698 69.408156 
L 167.519546 74.23508 
L 176.183394 79.251295 
L 184.847242 84.045488 
L 193.511089 88.327942 
L 202.174937 91.939798 
L 210.838785 94.836372 
L 219.502633 97.056656 
L 228.166481 98.689883 
L 236.830328 99.846527 
L 245.494176 100.637255 
" style="fill:none;stroke:#1b9e77;stroke-linecap:square;"/>
   </g>
   <g id="line2d_16">
    <path clip-path="url(#p3b4700d785)" d="M 63.553373 46.173166 
L 72.217221 67.40287 
L 80.881068 73.379982 
L 89.544916 73.67511 
L 98.208764 71.695797 
L 106.872612 68.819577 
L 115.536459 65.892403 
L 124.200307 63.566297 
L 132.864155 62.336026 
L 141.528003 62.49982 
L 150.191851 64.127209 
L 158.855698 67.067049 
L 167.519546 70.998847 
L 176.183394 75.511584 
L 184.847242 80.186863 
L 193.511089 84.666105 
L 202.174937 88.690443 
L 210.838785 92.11201 
L 219.502633 94.882741 
L 228.166481 97.030128 
L 236.830328 98.62908 
L 245.494176 99.776501 
" style="fill:none;stroke:#d95f02;stroke-linecap:square;"/>
   </g>
   <g id="line2d_17">
    <path clip-path="url(#p3b4700d785)" d="M 63.553373 65.241316 
L 72.217221 60.523124 
L 80.881068 60.803231 
L 89.544916 60.60875 
L 98.208764 59.737412 
L 106.872612 58.753412 
L 115.536459 58.239741 
L 124.200307 58.647752 
L 132.864155 60.234525 
L 141.528003 63.037558 
L 150.191851 66.891026 
L 158.855698 71.48003 
L 167.519546 76.417024 
L 176.183394 81.319511 
L 184.847242 85.871006 
L 193.511089 89.855474 
L 202.174937 93.164537 
L 210.838785 95.783653 
L 219.502633 97.76653 
L 228.166481 99.206711 
L 236.830328 100.212715 
L 245.494176 100.890001 
" style="fill:none;stroke:#7570b3;stroke-linecap:square;"/>
   </g>
   <g id="patch_24">
    <path d="M 49.907813 102 
L 49.907813 7.2 
" style="fill:none;stroke:#000000;stroke-linecap:square;stroke-linejoin:miter;stroke-width:0.8;"/>
   </g>
   <g id="patch_25">
    <path d="M 254.807812 102 
L 254.807812 7.2 
" style="fill:none;stroke:#000000;stroke-linecap:square;stroke-linejoin:miter;stroke-width:0.8;"/>
   </g>
   <g id="patch_26">
    <path d="M 49.907813 102 
L 254.807812 102 
" style="fill:none;stroke:#000000;stroke-linecap:square;stroke-linejoin:miter;stroke-width:0.8;"/>
   </g>
   <g id="patch_27">
    <path d="M 49.907813 7.2 
L 254.807812 7.2 
" style="fill:none;stroke:#000000;stroke-linecap:square;stroke-linejoin:miter;stroke-width:0.8;"/>
   </g>
   <g id="legend_1">
    <g id="text_15">
     <!-- Initialization (K = 16) -->
     <g transform="translate(274.882812 20.979688)scale(0.1 -0.1)">
      <defs>
       <path d="M 19.40625 72.90625 
L 10 72.90625 
L 10 0 
L 19.40625 0 
z
" id="NimbusSans-Regular-73"/>
       <path d="M 15.203125 72.90625 
L 6.796875 72.90625 
L 6.796875 0 
L 15.203125 0 
z
" id="NimbusSans-Regular-108"/>
       <path d="M 44.296875 52.40625 
L 5.203125 52.40625 
L 5.203125 45.09375 
L 34.40625 45.09375 
L 3.09375 7.5 
L 3.09375 0 
L 45.703125 0 
L 45.703125 7.296875 
L 13.203125 7.296875 
L 44.296875 45 
z
" id="NimbusSans-Regular-122"/>
       <path d="M 23.59375 72.90625 
C 13.59375 59.796875 7.296875 41.59375 7.296875 25.90625 
C 7.296875 10.09375 13.59375 -8.09375 23.59375 -21.203125 
L 29.09375 -21.203125 
C 20.296875 -6.90625 15.40625 9.90625 15.40625 25.90625 
C 15.40625 41.796875 20.296875 58.703125 29.09375 72.90625 
z
" id="NimbusSans-Regular-40"/>
       <path d="M 17.203125 25.5 
L 29.09375 37.40625 
L 54.796875 0 
L 65.796875 0 
L 35.796875 43.203125 
L 65.5 72.90625 
L 53.5 72.90625 
L 17.203125 36 
L 17.203125 72.90625 
L 7.90625 72.90625 
L 7.90625 0 
L 17.203125 0 
z
" id="NimbusSans-Regular-75"/>
       <path d="M 53.40625 35.296875 
L 5 35.296875 
L 5 28.296875 
L 53.40625 28.296875 
z
M 53.40625 18.09375 
L 5 18.09375 
L 5 11.09375 
L 53.40625 11.09375 
z
" id="NimbusSans-Regular-61"/>
       <path d="M 9.296875 -21.203125 
C 19.296875 -8.09375 25.59375 10.09375 25.59375 25.796875 
C 25.59375 41.59375 19.296875 59.796875 9.296875 72.90625 
L 3.796875 72.90625 
C 12.59375 58.59375 17.5 41.796875 17.5 25.796875 
C 17.5 9.90625 12.59375 -7 3.796875 -21.203125 
z
" id="NimbusSans-Regular-41"/>
      </defs>
      <use xlink:href="#NimbusSans-Regular-73"/>
      <use x="27.799988" xlink:href="#NimbusSans-Regular-110"/>
      <use x="83.399979" xlink:href="#NimbusSans-Regular-105"/>
      <use x="105.599976" xlink:href="#NimbusSans-Regular-116"/>
      <use x="133.399963" xlink:href="#NimbusSans-Regular-105"/>
      <use x="155.59996" xlink:href="#NimbusSans-Regular-97"/>
      <use x="211.199951" xlink:href="#NimbusSans-Regular-108"/>
      <use x="233.399948" xlink:href="#NimbusSans-Regular-105"/>
      <use x="255.599945" xlink:href="#NimbusSans-Regular-122"/>
      <use x="305.59993" xlink:href="#NimbusSans-Regular-97"/>
      <use x="361.199921" xlink:href="#NimbusSans-Regular-116"/>
      <use x="388.999908" xlink:href="#NimbusSans-Regular-105"/>
      <use x="411.199905" xlink:href="#NimbusSans-Regular-111"/>
      <use x="466.799896" xlink:href="#NimbusSans-Regular-110"/>
      <use x="522.399887" xlink:href="#NimbusSans-Regular-32"/>
      <use x="550.199875" xlink:href="#NimbusSans-Regular-40"/>
      <use x="583.499863" xlink:href="#NimbusSans-Regular-75"/>
      <use x="650.19986" xlink:href="#NimbusSans-Regular-32"/>
      <use x="677.999847" xlink:href="#NimbusSans-Regular-61"/>
      <use x="736.399841" xlink:href="#NimbusSans-Regular-32"/>
      <use x="764.199829" xlink:href="#NimbusSans-Regular-49"/>
      <use x="819.79982" xlink:href="#NimbusSans-Regular-54"/>
      <use x="875.399811" xlink:href="#NimbusSans-Regular-41"/>
     </g>
    </g>
    <g id="line2d_18">
     <path d="M 263.807812 31.95 
L 283.807812 31.95 
" style="fill:none;stroke:#e6ab02;stroke-linecap:square;"/>
    </g>
    <g id="line2d_19">
     <g>
      <use style="fill:#e6ab02;stroke:#e6ab02;" x="273.807812" xlink:href="#m41f2ca854c" y="31.95"/>
     </g>
    </g>
    <g id="text_16">
     <!-- Gamma -->
     <g transform="translate(291.807812 35.45)scale(0.1 -0.1)">
      <defs>
       <path d="M 70.90625 38.5 
L 40.5 38.5 
L 40.5 30.296875 
L 62.703125 30.296875 
L 62.703125 28.296875 
C 62.703125 15.296875 53.09375 5.90625 39.796875 5.90625 
C 32.40625 5.90625 25.703125 8.59375 21.40625 13.296875 
C 16.59375 18.5 13.703125 27.203125 13.703125 36.203125 
C 13.703125 54.09375 23.90625 65.90625 39.296875 65.90625 
C 50.40625 65.90625 58.40625 60.203125 60.40625 50.796875 
L 69.90625 50.796875 
C 67.296875 65.59375 56.09375 74.09375 39.40625 74.09375 
C 30.5 74.09375 23.296875 71.796875 17.59375 67.09375 
C 9.09375 60.09375 4.40625 48.796875 4.40625 35.703125 
C 4.40625 13.296875 18.09375 -2.296875 37.796875 -2.296875 
C 47.703125 -2.296875 55.5 1.40625 62.703125 9.296875 
L 65 -0.40625 
L 70.90625 -0.40625 
z
" id="NimbusSans-Regular-71"/>
       <path d="M 7 52.40625 
L 7 0 
L 15.40625 0 
L 15.40625 32.90625 
C 15.40625 40.5 20.90625 46.59375 27.703125 46.59375 
C 33.90625 46.59375 37.40625 42.796875 37.40625 36.09375 
L 37.40625 0 
L 45.796875 0 
L 45.796875 32.90625 
C 45.796875 40.5 51.296875 46.59375 58.09375 46.59375 
C 64.203125 46.59375 67.796875 42.703125 67.796875 36.09375 
L 67.796875 0 
L 76.203125 0 
L 76.203125 39.296875 
C 76.203125 48.703125 70.796875 53.90625 61 53.90625 
C 54 53.90625 49.796875 51.796875 44.90625 45.90625 
C 41.796875 51.5 37.59375 53.90625 30.796875 53.90625 
C 23.796875 53.90625 19.09375 51.296875 14.703125 45 
L 14.703125 52.40625 
z
" id="NimbusSans-Regular-109"/>
      </defs>
      <use xlink:href="#NimbusSans-Regular-71"/>
      <use x="77.799988" xlink:href="#NimbusSans-Regular-97"/>
      <use x="133.399979" xlink:href="#NimbusSans-Regular-109"/>
      <use x="216.699966" xlink:href="#NimbusSans-Regular-109"/>
      <use x="299.999954" xlink:href="#NimbusSans-Regular-97"/>
     </g>
    </g>
    <g id="line2d_20">
     <path d="M 263.807812 46.420312 
L 283.807812 46.420312 
" style="fill:none;stroke:#a6761d;stroke-linecap:square;"/>
    </g>
    <g id="line2d_21">
     <g>
      <use style="fill:#a6761d;stroke:#a6761d;" x="273.807812" xlink:href="#m3119a41af9" y="46.420312"/>
     </g>
    </g>
    <g id="text_17">
     <!-- Point-Gamma -->
     <g transform="translate(291.807812 49.920312)scale(0.1 -0.1)">
      <defs>
       <path d="M 18.40625 30.90625 
L 41.296875 30.90625 
C 47 30.90625 51.5 32.59375 55.40625 36.09375 
C 59.796875 40.09375 61.703125 44.796875 61.703125 51.5 
C 61.703125 65.203125 53.59375 72.90625 39.203125 72.90625 
L 9.09375 72.90625 
L 9.09375 0 
L 18.40625 0 
z
M 18.40625 39.09375 
L 18.40625 64.703125 
L 37.796875 64.703125 
C 46.703125 64.703125 52 59.90625 52 51.90625 
C 52 43.90625 46.703125 39.09375 37.796875 39.09375 
z
" id="NimbusSans-Regular-80"/>
       <path d="M 28.40625 31.203125 
L 4.59375 31.203125 
L 4.59375 24 
L 28.40625 24 
z
" id="NimbusSans-Regular-45"/>
      </defs>
      <use xlink:href="#NimbusSans-Regular-80"/>
      <use x="66.699997" xlink:href="#NimbusSans-Regular-111"/>
      <use x="122.299988" xlink:href="#NimbusSans-Regular-105"/>
      <use x="144.499985" xlink:href="#NimbusSans-Regular-110"/>
      <use x="200.099976" xlink:href="#NimbusSans-Regular-116"/>
      <use x="227.899963" xlink:href="#NimbusSans-Regular-45"/>
      <use x="261.199951" xlink:href="#NimbusSans-Regular-71"/>
      <use x="338.999939" xlink:href="#NimbusSans-Regular-97"/>
      <use x="394.59993" xlink:href="#NimbusSans-Regular-109"/>
      <use x="477.899918" xlink:href="#NimbusSans-Regular-109"/>
      <use x="561.199905" xlink:href="#NimbusSans-Regular-97"/>
     </g>
    </g>
    <g id="line2d_22">
     <path d="M 263.807812 60.890625 
L 283.807812 60.890625 
" style="fill:none;stroke:#1b9e77;stroke-linecap:square;"/>
    </g>
    <g id="line2d_23"/>
    <g id="text_18">
     <!-- Exp(1) -->
     <g transform="translate(291.807812 64.390625)scale(0.1 -0.1)">
      <defs>
       <path d="M 18.296875 33.203125 
L 58 33.203125 
L 58 41.40625 
L 18.296875 41.40625 
L 18.296875 64.703125 
L 59.5 64.703125 
L 59.5 72.90625 
L 9 72.90625 
L 9 0 
L 61.296875 0 
L 61.296875 8.203125 
L 18.296875 8.203125 
z
" id="NimbusSans-Regular-69"/>
       <path d="M 29.203125 27.09375 
L 46.796875 52.40625 
L 37.40625 52.40625 
L 24.796875 33.40625 
L 12.203125 52.40625 
L 2.703125 52.40625 
L 20.203125 26.703125 
L 1.703125 0 
L 11.203125 0 
L 24.5 20.09375 
L 37.59375 0 
L 47.296875 0 
z
" id="NimbusSans-Regular-120"/>
       <path d="M 5.40625 -21.796875 
L 13.796875 -21.796875 
L 13.796875 5.5 
C 18.203125 0.09375 23.09375 -2.296875 29.90625 -2.296875 
C 43.5 -2.296875 52.296875 8.59375 52.296875 25.296875 
C 52.296875 42.90625 43.703125 53.90625 29.796875 53.90625 
C 22.703125 53.90625 17 50.703125 13.09375 44.5 
L 13.09375 52.40625 
L 5.40625 52.40625 
z
M 28.40625 46.09375 
C 37.59375 46.09375 43.59375 38 43.59375 25.5 
C 43.59375 13.59375 37.5 5.5 28.40625 5.5 
C 19.5 5.5 13.796875 13.5 13.796875 25.796875 
C 13.796875 38.09375 19.5 46.09375 28.40625 46.09375 
z
" id="NimbusSans-Regular-112"/>
      </defs>
      <use xlink:href="#NimbusSans-Regular-69"/>
      <use x="66.699997" xlink:href="#NimbusSans-Regular-120"/>
      <use x="116.699982" xlink:href="#NimbusSans-Regular-112"/>
      <use x="172.299973" xlink:href="#NimbusSans-Regular-40"/>
      <use x="205.59996" xlink:href="#NimbusSans-Regular-49"/>
      <use x="261.199951" xlink:href="#NimbusSans-Regular-41"/>
     </g>
    </g>
    <g id="line2d_24">
     <path d="M 263.807812 75.360937 
L 283.807812 75.360937 
" style="fill:none;stroke:#d95f02;stroke-linecap:square;"/>
    </g>
    <g id="line2d_25"/>
    <g id="text_19">
     <!-- Gamma MLE -->
     <g transform="translate(291.807812 78.860937)scale(0.1 -0.1)">
      <defs>
       <path d="M 46.796875 0 
L 67.296875 61.09375 
L 67.296875 0 
L 76.09375 0 
L 76.09375 72.90625 
L 63.203125 72.90625 
L 42 9.40625 
L 20.40625 72.90625 
L 7.5 72.90625 
L 7.5 0 
L 16.296875 0 
L 16.296875 61.09375 
L 37 0 
z
" id="NimbusSans-Regular-77"/>
       <path d="M 17.296875 72.90625 
L 8 72.90625 
L 8 0 
L 53.296875 0 
L 53.296875 8.203125 
L 17.296875 8.203125 
z
" id="NimbusSans-Regular-76"/>
      </defs>
      <use xlink:href="#NimbusSans-Regular-71"/>
      <use x="77.799988" xlink:href="#NimbusSans-Regular-97"/>
      <use x="133.399979" xlink:href="#NimbusSans-Regular-109"/>
      <use x="216.699966" xlink:href="#NimbusSans-Regular-109"/>
      <use x="299.999954" xlink:href="#NimbusSans-Regular-97"/>
      <use x="355.599945" xlink:href="#NimbusSans-Regular-32"/>
      <use x="383.399933" xlink:href="#NimbusSans-Regular-77"/>
      <use x="466.699921" xlink:href="#NimbusSans-Regular-76"/>
      <use x="522.299911" xlink:href="#NimbusSans-Regular-69"/>
     </g>
    </g>
    <g id="line2d_26">
     <path d="M 263.807812 89.83125 
L 283.807812 89.83125 
" style="fill:none;stroke:#7570b3;stroke-linecap:square;"/>
    </g>
    <g id="line2d_27"/>
    <g id="text_20">
     <!-- Point-Gamma MLE -->
     <g transform="translate(291.807812 93.33125)scale(0.1 -0.1)">
      <use xlink:href="#NimbusSans-Regular-80"/>
      <use x="66.699997" xlink:href="#NimbusSans-Regular-111"/>
      <use x="122.299988" xlink:href="#NimbusSans-Regular-105"/>
      <use x="144.499985" xlink:href="#NimbusSans-Regular-110"/>
      <use x="200.099976" xlink:href="#NimbusSans-Regular-116"/>
      <use x="227.899963" xlink:href="#NimbusSans-Regular-45"/>
      <use x="261.199951" xlink:href="#NimbusSans-Regular-71"/>
      <use x="338.999939" xlink:href="#NimbusSans-Regular-97"/>
      <use x="394.59993" xlink:href="#NimbusSans-Regular-109"/>
      <use x="477.899918" xlink:href="#NimbusSans-Regular-109"/>
      <use x="561.199905" xlink:href="#NimbusSans-Regular-97"/>
      <use x="616.799896" xlink:href="#NimbusSans-Regular-32"/>
      <use x="644.599884" xlink:href="#NimbusSans-Regular-77"/>
      <use x="727.899872" xlink:href="#NimbusSans-Regular-76"/>
      <use x="783.499863" xlink:href="#NimbusSans-Regular-69"/>
     </g>
    </g>
   </g>
  </g>
  <g id="axes_2">
   <g id="patch_28">
    <path d="M 49.907813 240.6 
L 254.807812 240.6 
L 254.807812 145.8 
L 49.907813 145.8 
z
" style="fill:#ffffff;"/>
   </g>
   <g id="patch_29">
    <path clip-path="url(#p51e3cda208)" d="M 59.221449 240.6 
L 62.325994 240.6 
L 62.325994 193.250159 
L 59.221449 193.250159 
z
" style="fill:#b2b2b2;"/>
   </g>
   <g id="patch_30">
    <path clip-path="url(#p51e3cda208)" d="M 62.325994 240.6 
L 65.43054 240.6 
L 65.43054 228.160635 
L 62.325994 228.160635 
z
" style="fill:#b2b2b2;"/>
   </g>
   <g id="patch_31">
    <path clip-path="url(#p51e3cda208)" d="M 65.43054 240.6 
L 68.535085 240.6 
L 68.535085 232.574603 
L 65.43054 232.574603 
z
" style="fill:#b2b2b2;"/>
   </g>
   <g id="patch_32">
    <path clip-path="url(#p51e3cda208)" d="M 68.535085 240.6 
L 71.639631 240.6 
L 71.639631 233.377143 
L 68.535085 233.377143 
z
" style="fill:#b2b2b2;"/>
   </g>
   <g id="patch_33">
    <path clip-path="url(#p51e3cda208)" d="M 71.639631 240.6 
L 74.744176 240.6 
L 74.744176 235.784762 
L 71.639631 235.784762 
z
" style="fill:#b2b2b2;"/>
   </g>
   <g id="patch_34">
    <path clip-path="url(#p51e3cda208)" d="M 74.744176 240.6 
L 77.848722 240.6 
L 77.848722 236.186032 
L 74.744176 236.186032 
z
" style="fill:#b2b2b2;"/>
   </g>
   <g id="patch_35">
    <path clip-path="url(#p51e3cda208)" d="M 77.848722 240.6 
L 80.953267 240.6 
L 80.953267 234.179683 
L 77.848722 234.179683 
z
" style="fill:#b2b2b2;"/>
   </g>
   <g id="patch_36">
    <path clip-path="url(#p51e3cda208)" d="M 80.953267 240.6 
L 84.057812 240.6 
L 84.057812 237.389841 
L 80.953267 237.389841 
z
" style="fill:#b2b2b2;"/>
   </g>
   <g id="patch_37">
    <path clip-path="url(#p51e3cda208)" d="M 84.057812 240.6 
L 87.162358 240.6 
L 87.162358 236.988571 
L 84.057812 236.988571 
z
" style="fill:#b2b2b2;"/>
   </g>
   <g id="patch_38">
    <path clip-path="url(#p51e3cda208)" d="M 87.162358 240.6 
L 90.266903 240.6 
L 90.266903 236.587302 
L 87.162358 236.587302 
z
" style="fill:#b2b2b2;"/>
   </g>
   <g id="patch_39">
    <path clip-path="url(#p51e3cda208)" d="M 90.266903 240.6 
L 93.371449 240.6 
L 93.371449 238.593651 
L 90.266903 238.593651 
z
" style="fill:#b2b2b2;"/>
   </g>
   <g id="patch_40">
    <path clip-path="url(#p51e3cda208)" d="M 93.371449 240.6 
L 96.475994 240.6 
L 96.475994 238.192381 
L 93.371449 238.192381 
z
" style="fill:#b2b2b2;"/>
   </g>
   <g id="patch_41">
    <path clip-path="url(#p51e3cda208)" d="M 96.475994 240.6 
L 99.58054 240.6 
L 99.58054 236.186032 
L 96.475994 236.186032 
z
" style="fill:#b2b2b2;"/>
   </g>
   <g id="patch_42">
    <path clip-path="url(#p51e3cda208)" d="M 99.58054 240.6 
L 102.685085 240.6 
L 102.685085 236.587302 
L 99.58054 236.587302 
z
" style="fill:#b2b2b2;"/>
   </g>
   <g id="patch_43">
    <path clip-path="url(#p51e3cda208)" d="M 102.685085 240.6 
L 105.789631 240.6 
L 105.789631 234.982222 
L 102.685085 234.982222 
z
" style="fill:#b2b2b2;"/>
   </g>
   <g id="patch_44">
    <path clip-path="url(#p51e3cda208)" d="M 105.789631 240.6 
L 108.894176 240.6 
L 108.894176 236.587302 
L 105.789631 236.587302 
z
" style="fill:#b2b2b2;"/>
   </g>
   <g id="patch_45">
    <path clip-path="url(#p51e3cda208)" d="M 108.894176 240.6 
L 111.998722 240.6 
L 111.998722 237.389841 
L 108.894176 237.389841 
z
" style="fill:#b2b2b2;"/>
   </g>
   <g id="patch_46">
    <path clip-path="url(#p51e3cda208)" d="M 111.998722 240.6 
L 115.103267 240.6 
L 115.103267 236.988571 
L 111.998722 236.988571 
z
" style="fill:#b2b2b2;"/>
   </g>
   <g id="patch_47">
    <path clip-path="url(#p51e3cda208)" d="M 115.103267 240.6 
L 118.207813 240.6 
L 118.207813 234.982222 
L 115.103267 234.982222 
z
" style="fill:#b2b2b2;"/>
   </g>
   <g id="patch_48">
    <path clip-path="url(#p51e3cda208)" d="M 118.207813 240.6 
L 121.312358 240.6 
L 121.312358 235.383492 
L 118.207813 235.383492 
z
" style="fill:#b2b2b2;"/>
   </g>
   <g id="patch_49">
    <path clip-path="url(#p51e3cda208)" d="M 121.312358 240.6 
L 124.416903 240.6 
L 124.416903 237.389841 
L 121.312358 237.389841 
z
" style="fill:#b2b2b2;"/>
   </g>
   <g id="patch_50">
    <path clip-path="url(#p51e3cda208)" d="M 124.416903 240.6 
L 127.521449 240.6 
L 127.521449 236.988571 
L 124.416903 236.988571 
z
" style="fill:#b2b2b2;"/>
   </g>
   <g id="patch_51">
    <path clip-path="url(#p51e3cda208)" d="M 127.521449 240.6 
L 130.625994 240.6 
L 130.625994 234.982222 
L 127.521449 234.982222 
z
" style="fill:#b2b2b2;"/>
   </g>
   <g id="patch_52">
    <path clip-path="url(#p51e3cda208)" d="M 130.625994 240.6 
L 133.73054 240.6 
L 133.73054 234.179683 
L 130.625994 234.179683 
z
" style="fill:#b2b2b2;"/>
   </g>
   <g id="patch_53">
    <path clip-path="url(#p51e3cda208)" d="M 133.73054 240.6 
L 136.835085 240.6 
L 136.835085 233.377143 
L 133.73054 233.377143 
z
" style="fill:#b2b2b2;"/>
   </g>
   <g id="patch_54">
    <path clip-path="url(#p51e3cda208)" d="M 136.835085 240.6 
L 139.939631 240.6 
L 139.939631 219.332698 
L 136.835085 219.332698 
z
" style="fill:#b2b2b2;"/>
   </g>
   <g id="patch_55">
    <path clip-path="url(#p51e3cda208)" d="M 139.939631 240.6 
L 143.044176 240.6 
L 143.044176 193.250159 
L 139.939631 193.250159 
z
" style="fill:#b2b2b2;"/>
   </g>
   <g id="patch_56">
    <path clip-path="url(#p51e3cda208)" d="M 143.044176 240.6 
L 146.148722 240.6 
L 146.148722 150.314286 
L 143.044176 150.314286 
z
" style="fill:#b2b2b2;"/>
   </g>
   <g id="patch_57">
    <path clip-path="url(#p51e3cda208)" d="M 146.148722 240.6 
L 149.253267 240.6 
L 149.253267 179.606984 
L 146.148722 179.606984 
z
" style="fill:#b2b2b2;"/>
   </g>
   <g id="patch_58">
    <path clip-path="url(#p51e3cda208)" d="M 149.253267 240.6 
L 152.357812 240.6 
L 152.357812 226.956825 
L 149.253267 226.956825 
z
" style="fill:#b2b2b2;"/>
   </g>
   <g id="matplotlib.axis_3">
    <g id="xtick_9">
     <g id="line2d_28">
      <g>
       <use style="stroke:#000000;stroke-width:0.8;" x="59.221449" xlink:href="#m26ba9e958a" y="240.6"/>
      </g>
     </g>
     <g id="text_21">
      <!-- 0.0000 -->
      <g transform="translate(43.933168 254.890625)scale(0.1 -0.1)">
       <use xlink:href="#NimbusSans-Regular-48"/>
       <use x="55.599991" xlink:href="#NimbusSans-Regular-46"/>
       <use x="83.399979" xlink:href="#NimbusSans-Regular-48"/>
       <use x="138.999969" xlink:href="#NimbusSans-Regular-48"/>
       <use x="194.59996" xlink:href="#NimbusSans-Regular-48"/>
       <use x="250.199951" xlink:href="#NimbusSans-Regular-48"/>
      </g>
     </g>
    </g>
    <g id="xtick_10">
     <g id="line2d_29">
      <g>
       <use style="stroke:#000000;stroke-width:0.8;" x="101.3646" xlink:href="#m26ba9e958a" y="240.6"/>
      </g>
     </g>
     <g id="text_22">
      <!-- 0.0005 -->
      <g transform="translate(86.076319 254.890625)scale(0.1 -0.1)">
       <use xlink:href="#NimbusSans-Regular-48"/>
       <use x="55.599991" xlink:href="#NimbusSans-Regular-46"/>
       <use x="83.399979" xlink:href="#NimbusSans-Regular-48"/>
       <use x="138.999969" xlink:href="#NimbusSans-Regular-48"/>
       <use x="194.59996" xlink:href="#NimbusSans-Regular-48"/>
       <use x="250.199951" xlink:href="#NimbusSans-Regular-53"/>
      </g>
     </g>
    </g>
    <g id="xtick_11">
     <g id="line2d_30">
      <g>
       <use style="stroke:#000000;stroke-width:0.8;" x="143.507751" xlink:href="#m26ba9e958a" y="240.6"/>
      </g>
     </g>
     <g id="text_23">
      <!-- 0.0010 -->
      <g transform="translate(128.21947 254.890625)scale(0.1 -0.1)">
       <use xlink:href="#NimbusSans-Regular-48"/>
       <use x="55.599991" xlink:href="#NimbusSans-Regular-46"/>
       <use x="83.399979" xlink:href="#NimbusSans-Regular-48"/>
       <use x="138.999969" xlink:href="#NimbusSans-Regular-48"/>
       <use x="194.59996" xlink:href="#NimbusSans-Regular-49"/>
       <use x="250.199951" xlink:href="#NimbusSans-Regular-48"/>
      </g>
     </g>
    </g>
    <g id="xtick_12">
     <g id="line2d_31">
      <g>
       <use style="stroke:#000000;stroke-width:0.8;" x="185.650902" xlink:href="#m26ba9e958a" y="240.6"/>
      </g>
     </g>
     <g id="text_24">
      <!-- 0.0015 -->
      <g transform="translate(170.362621 254.890625)scale(0.1 -0.1)">
       <use xlink:href="#NimbusSans-Regular-48"/>
       <use x="55.599991" xlink:href="#NimbusSans-Regular-46"/>
       <use x="83.399979" xlink:href="#NimbusSans-Regular-48"/>
       <use x="138.999969" xlink:href="#NimbusSans-Regular-48"/>
       <use x="194.59996" xlink:href="#NimbusSans-Regular-49"/>
       <use x="250.199951" xlink:href="#NimbusSans-Regular-53"/>
      </g>
     </g>
    </g>
    <g id="xtick_13">
     <g id="line2d_32">
      <g>
       <use style="stroke:#000000;stroke-width:0.8;" x="227.794053" xlink:href="#m26ba9e958a" y="240.6"/>
      </g>
     </g>
     <g id="text_25">
      <!-- 0.0020 -->
      <g transform="translate(212.505771 254.890625)scale(0.1 -0.1)">
       <use xlink:href="#NimbusSans-Regular-48"/>
       <use x="55.599991" xlink:href="#NimbusSans-Regular-46"/>
       <use x="83.399979" xlink:href="#NimbusSans-Regular-48"/>
       <use x="138.999969" xlink:href="#NimbusSans-Regular-48"/>
       <use x="194.59996" xlink:href="#NimbusSans-Regular-50"/>
       <use x="250.199951" xlink:href="#NimbusSans-Regular-48"/>
      </g>
     </g>
    </g>
    <g id="text_26">
     <!-- Latent variable $\lambda$ -->
     <g transform="translate(115.207812 268.360938)scale(0.1 -0.1)">
      <defs>
       <path d="M 36.71875 67.4375 
L 48.828125 0 
L 39.3125 0 
L 31.84375 40.4375 
L 5.125 0 
L -4.390625 0 
L 29.734375 52.4375 
L 28.03125 62.109375 
Q 26.953125 68.265625 21.734375 68.265625 
L 17.046875 68.265625 
L 18.5 75.984375 
L 24.21875 75.875 
Q 35.203125 75.734375 36.71875 67.4375 
z
" id="DejaVuSans-Oblique-955"/>
      </defs>
      <use transform="translate(0 0.015625)" xlink:href="#NimbusSans-Regular-76"/>
      <use transform="translate(55.599991 0.015625)" xlink:href="#NimbusSans-Regular-97"/>
      <use transform="translate(111.199982 0.015625)" xlink:href="#NimbusSans-Regular-116"/>
      <use transform="translate(138.999969 0.015625)" xlink:href="#NimbusSans-Regular-101"/>
      <use transform="translate(194.59996 0.015625)" xlink:href="#NimbusSans-Regular-110"/>
      <use transform="translate(250.199951 0.015625)" xlink:href="#NimbusSans-Regular-116"/>
      <use transform="translate(277.999939 0.015625)" xlink:href="#NimbusSans-Regular-32"/>
      <use transform="translate(305.799927 0.015625)" xlink:href="#NimbusSans-Regular-118"/>
      <use transform="translate(355.799911 0.015625)" xlink:href="#NimbusSans-Regular-97"/>
      <use transform="translate(411.399902 0.015625)" xlink:href="#NimbusSans-Regular-114"/>
      <use transform="translate(444.69989 0.015625)" xlink:href="#NimbusSans-Regular-105"/>
      <use transform="translate(466.899887 0.015625)" xlink:href="#NimbusSans-Regular-97"/>
      <use transform="translate(522.499878 0.015625)" xlink:href="#NimbusSans-Regular-98"/>
      <use transform="translate(578.099869 0.015625)" xlink:href="#NimbusSans-Regular-108"/>
      <use transform="translate(600.299866 0.015625)" xlink:href="#NimbusSans-Regular-101"/>
      <use transform="translate(655.899857 0.015625)" xlink:href="#NimbusSans-Regular-32"/>
      <use transform="translate(683.699844 0.015625)" xlink:href="#DejaVuSans-Oblique-955"/>
     </g>
    </g>
   </g>
   <g id="matplotlib.axis_4">
    <g id="ytick_5">
     <g id="line2d_33">
      <g>
       <use style="stroke:#000000;stroke-width:0.8;" x="49.907813" xlink:href="#ma3a9d4720b" y="240.6"/>
      </g>
     </g>
     <g id="text_27">
      <!-- 0 -->
      <g transform="translate(37.348438 244.245313)scale(0.1 -0.1)">
       <use xlink:href="#NimbusSans-Regular-48"/>
      </g>
     </g>
    </g>
    <g id="ytick_6">
     <g id="line2d_34">
      <g>
       <use style="stroke:#000000;stroke-width:0.8;" x="49.907813" xlink:href="#ma3a9d4720b" y="211.039788"/>
      </g>
     </g>
     <g id="text_28">
      <!-- 2000 -->
      <g transform="translate(20.670313 214.685101)scale(0.1 -0.1)">
       <use xlink:href="#NimbusSans-Regular-50"/>
       <use x="55.599991" xlink:href="#NimbusSans-Regular-48"/>
       <use x="111.199982" xlink:href="#NimbusSans-Regular-48"/>
       <use x="166.799973" xlink:href="#NimbusSans-Regular-48"/>
      </g>
     </g>
    </g>
    <g id="ytick_7">
     <g id="line2d_35">
      <g>
       <use style="stroke:#000000;stroke-width:0.8;" x="49.907813" xlink:href="#ma3a9d4720b" y="181.479577"/>
      </g>
     </g>
     <g id="text_29">
      <!-- 4000 -->
      <g transform="translate(20.670313 185.124889)scale(0.1 -0.1)">
       <defs>
        <path d="M 32.703125 17.5 
L 32.703125 0 
L 41.5 0 
L 41.5 17.5 
L 52 17.5 
L 52 25.40625 
L 41.5 25.40625 
L 41.5 72.296875 
L 35 72.296875 
L 2.796875 26.796875 
L 2.796875 17.5 
z
M 32.703125 25.40625 
L 10.5 25.40625 
L 32.703125 57.296875 
z
" id="NimbusSans-Regular-52"/>
       </defs>
       <use xlink:href="#NimbusSans-Regular-52"/>
       <use x="55.599991" xlink:href="#NimbusSans-Regular-48"/>
       <use x="111.199982" xlink:href="#NimbusSans-Regular-48"/>
       <use x="166.799973" xlink:href="#NimbusSans-Regular-48"/>
      </g>
     </g>
    </g>
    <g id="ytick_8">
     <g id="line2d_36">
      <g>
       <use style="stroke:#000000;stroke-width:0.8;" x="49.907813" xlink:href="#ma3a9d4720b" y="151.919365"/>
      </g>
     </g>
     <g id="text_30">
      <!-- 6000 -->
      <g transform="translate(20.670313 155.564678)scale(0.1 -0.1)">
       <use xlink:href="#NimbusSans-Regular-54"/>
       <use x="55.599991" xlink:href="#NimbusSans-Regular-48"/>
       <use x="111.199982" xlink:href="#NimbusSans-Regular-48"/>
       <use x="166.799973" xlink:href="#NimbusSans-Regular-48"/>
      </g>
     </g>
    </g>
    <g id="text_31">
     <!-- Density -->
     <g transform="translate(14.490625 209.869531)rotate(-90)scale(0.1 -0.1)">
      <use xlink:href="#NimbusSans-Regular-68"/>
      <use x="72.199982" xlink:href="#NimbusSans-Regular-101"/>
      <use x="127.799973" xlink:href="#NimbusSans-Regular-110"/>
      <use x="183.399963" xlink:href="#NimbusSans-Regular-115"/>
      <use x="233.399948" xlink:href="#NimbusSans-Regular-105"/>
      <use x="255.599945" xlink:href="#NimbusSans-Regular-116"/>
      <use x="283.399933" xlink:href="#NimbusSans-Regular-121"/>
     </g>
    </g>
   </g>
   <g id="line2d_37">
    <path clip-path="url(#p51e3cda208)" d="M 59.407908 239.620056 
L 59.967286 238.091712 
L 60.899582 236.32458 
L 62.018337 234.70375 
L 63.323551 233.191761 
L 64.815224 231.792521 
L 66.493357 230.519542 
L 68.357949 229.387676 
L 70.409 228.410032 
L 72.64651 227.596621 
L 75.07048 226.953746 
L 77.867368 226.457803 
L 80.850714 226.159129 
L 84.20698 226.045227 
L 88.122623 226.139205 
L 92.784102 226.483518 
L 98.564337 227.147147 
L 106.395623 228.286484 
L 141.822868 233.706869 
L 153.01042 235.054714 
L 164.38443 236.199864 
L 176.504277 237.191502 
L 189.55642 238.032243 
L 204.100237 238.742371 
L 220.881564 239.332336 
L 240.832696 239.80286 
L 245.494176 239.885652 
L 245.494176 239.885652 
" style="fill:none;stroke:#e6ab02;stroke-linecap:square;"/>
   </g>
   <g id="line2d_38">
    <path clip-path="url(#p51e3cda208)" d="M 59.407908 240.6 
L 73.392347 240.489912 
L 77.121531 240.228622 
L 80.291337 239.784163 
L 83.088225 239.170209 
L 85.885113 238.323486 
L 88.682 237.243191 
L 91.851806 235.765571 
L 95.58099 233.768369 
L 107.14146 227.383378 
L 110.311266 225.991465 
L 113.108154 224.99443 
L 115.905042 224.238488 
L 118.51547 223.759458 
L 121.125899 223.498186 
L 123.922787 223.449938 
L 126.719674 223.623318 
L 129.703021 224.025214 
L 133.059287 224.703376 
L 136.97493 225.730414 
L 142.009328 227.299618 
L 162.14692 233.839384 
L 167.740695 235.284032 
L 173.334471 236.49644 
L 179.114706 237.51409 
L 185.267859 238.361641 
L 191.98039 239.052532 
L 199.625216 239.605292 
L 208.575257 240.022304 
L 219.949268 240.320549 
L 236.171217 240.506504 
L 245.494176 240.551503 
L 245.494176 240.551503 
" style="fill:none;stroke:#a6761d;stroke-linecap:square;"/>
   </g>
   <g id="line2d_39">
    <path clip-path="url(#p51e3cda208)" d="M 59.407908 183.660252 
L 59.780826 199.98878 
L 60.153745 206.93836 
L 60.713122 212.900627 
L 61.2725 216.694056 
L 62.018337 220.188284 
L 62.764173 222.70754 
L 63.696469 225.05694 
L 64.628765 226.839451 
L 65.74752 228.48229 
L 66.866276 229.747136 
L 68.17149 230.88322 
L 69.663163 231.858829 
L 71.341296 232.66193 
L 73.205888 233.294333 
L 75.443398 233.800551 
L 78.053827 234.152255 
L 81.223633 234.347749 
L 85.139276 234.356267 
L 89.800755 234.135847 
L 95.021613 233.663283 
L 100.615388 232.929172 
L 106.395623 231.945497 
L 113.294613 230.535692 
L 124.855082 228.138462 
L 129.703021 227.391971 
L 134.178042 226.932057 
L 138.280144 226.735308 
L 141.822868 226.782906 
L 144.992675 227.04782 
L 147.976022 227.521725 
L 151.145828 228.252707 
L 155.807307 229.58881 
L 162.706297 231.781492 
L 167.367777 233.530548 
L 173.148012 235.687228 
L 176.877196 236.814495 
L 180.979298 237.810271 
L 186.200155 238.839804 
L 190.861635 239.548464 
L 195.150196 239.967649 
L 201.11689 240.292796 
L 209.134635 240.513718 
L 221.813859 240.590954 
L 245.494176 240.599751 
L 245.494176 240.599751 
" style="fill:none;stroke:#1b9e77;stroke-linecap:square;"/>
   </g>
   <g id="line2d_40">
    <path clip-path="url(#p51e3cda208)" d="M 59.407908 204.813016 
L 59.594367 203.568347 
L 61.086041 217.849673 
L 61.831877 221.625965 
L 62.577714 224.221968 
L 63.323551 226.117097 
L 64.255847 227.871697 
L 65.188143 229.183501 
L 66.306898 230.374491 
L 67.612112 231.410575 
L 69.103786 232.282657 
L 70.781918 232.995273 
L 72.832969 233.60572 
L 75.256939 234.07928 
L 78.240286 234.418872 
L 81.78301 234.593969 
L 86.258031 234.584384 
L 91.665347 234.343004 
L 98.00496 233.831415 
L 105.090409 233.030569 
L 112.921695 231.913746 
L 122.804031 230.260654 
L 134.923879 228.257075 
L 140.144736 227.62248 
L 144.433297 227.31569 
L 148.162481 227.26112 
L 151.705205 227.428795 
L 155.061471 227.806272 
L 158.417736 228.403585 
L 161.960461 229.262413 
L 165.876104 230.445356 
L 171.096961 232.277737 
L 180.979298 235.789325 
L 185.454318 237.108919 
L 189.55642 238.092734 
L 193.844981 238.889424 
L 198.506461 239.517523 
L 203.727318 239.986725 
L 210.066931 240.319932 
L 218.457594 240.519791 
L 232.442033 240.595948 
L 245.494176 240.59996 
L 245.494176 240.59996 
" style="fill:none;stroke:#d95f02;stroke-linecap:square;"/>
   </g>
   <g id="line2d_41">
    <path clip-path="url(#p51e3cda208)" d="M 59.407908 240.559012 
L 59.594367 240.181837 
L 59.967286 238.360416 
L 60.899582 233.409034 
L 61.458959 231.533671 
L 62.018337 230.333613 
L 62.577714 229.590864 
L 63.137092 229.148411 
L 63.882929 228.851478 
L 64.815224 228.751651 
L 66.120439 228.855728 
L 69.290245 229.41911 
L 73.392347 230.062941 
L 77.494449 230.470779 
L 82.155929 230.70125 
L 87.563245 230.736498 
L 93.716398 230.5474 
L 100.988307 230.087652 
L 110.497725 229.24048 
L 124.295705 228.008722 
L 130.262399 227.709926 
L 135.296797 227.678215 
L 139.771817 227.871175 
L 144.060379 228.284572 
L 148.162481 228.906546 
L 152.264583 229.751456 
L 156.739603 230.907066 
L 161.960461 232.496765 
L 177.809491 237.50595 
L 182.098053 238.526646 
L 186.200155 239.281097 
L 190.488716 239.84203 
L 195.150196 240.226075 
L 200.930431 240.468573 
L 209.507553 240.581263 
L 236.917054 240.599999 
L 245.494176 240.6 
L 245.494176 240.6 
" style="fill:none;stroke:#7570b3;stroke-linecap:square;"/>
   </g>
   <g id="patch_59">
    <path d="M 49.907813 240.6 
L 49.907813 145.8 
" style="fill:none;stroke:#000000;stroke-linecap:square;stroke-linejoin:miter;stroke-width:0.8;"/>
   </g>
   <g id="patch_60">
    <path d="M 254.807812 240.6 
L 254.807812 145.8 
" style="fill:none;stroke:#000000;stroke-linecap:square;stroke-linejoin:miter;stroke-width:0.8;"/>
   </g>
   <g id="patch_61">
    <path d="M 49.907813 240.6 
L 254.807812 240.6 
" style="fill:none;stroke:#000000;stroke-linecap:square;stroke-linejoin:miter;stroke-width:0.8;"/>
   </g>
   <g id="patch_62">
    <path d="M 49.907813 145.8 
L 254.807812 145.8 
" style="fill:none;stroke:#000000;stroke-linecap:square;stroke-linejoin:miter;stroke-width:0.8;"/>
   </g>
   <g id="legend_2">
    <g id="text_32">
     <!-- Initialization (K = 16) -->
     <g transform="translate(274.882812 159.579688)scale(0.1 -0.1)">
      <use xlink:href="#NimbusSans-Regular-73"/>
      <use x="27.799988" xlink:href="#NimbusSans-Regular-110"/>
      <use x="83.399979" xlink:href="#NimbusSans-Regular-105"/>
      <use x="105.599976" xlink:href="#NimbusSans-Regular-116"/>
      <use x="133.399963" xlink:href="#NimbusSans-Regular-105"/>
      <use x="155.59996" xlink:href="#NimbusSans-Regular-97"/>
      <use x="211.199951" xlink:href="#NimbusSans-Regular-108"/>
      <use x="233.399948" xlink:href="#NimbusSans-Regular-105"/>
      <use x="255.599945" xlink:href="#NimbusSans-Regular-122"/>
      <use x="305.59993" xlink:href="#NimbusSans-Regular-97"/>
      <use x="361.199921" xlink:href="#NimbusSans-Regular-116"/>
      <use x="388.999908" xlink:href="#NimbusSans-Regular-105"/>
      <use x="411.199905" xlink:href="#NimbusSans-Regular-111"/>
      <use x="466.799896" xlink:href="#NimbusSans-Regular-110"/>
      <use x="522.399887" xlink:href="#NimbusSans-Regular-32"/>
      <use x="550.199875" xlink:href="#NimbusSans-Regular-40"/>
      <use x="583.499863" xlink:href="#NimbusSans-Regular-75"/>
      <use x="650.19986" xlink:href="#NimbusSans-Regular-32"/>
      <use x="677.999847" xlink:href="#NimbusSans-Regular-61"/>
      <use x="736.399841" xlink:href="#NimbusSans-Regular-32"/>
      <use x="764.199829" xlink:href="#NimbusSans-Regular-49"/>
      <use x="819.79982" xlink:href="#NimbusSans-Regular-54"/>
      <use x="875.399811" xlink:href="#NimbusSans-Regular-41"/>
     </g>
    </g>
    <g id="line2d_42">
     <path d="M 263.807812 170.55 
L 283.807812 170.55 
" style="fill:none;stroke:#e6ab02;stroke-linecap:square;"/>
    </g>
    <g id="line2d_43"/>
    <g id="text_33">
     <!-- Gamma -->
     <g transform="translate(291.807812 174.05)scale(0.1 -0.1)">
      <use xlink:href="#NimbusSans-Regular-71"/>
      <use x="77.799988" xlink:href="#NimbusSans-Regular-97"/>
      <use x="133.399979" xlink:href="#NimbusSans-Regular-109"/>
      <use x="216.699966" xlink:href="#NimbusSans-Regular-109"/>
      <use x="299.999954" xlink:href="#NimbusSans-Regular-97"/>
     </g>
    </g>
    <g id="line2d_44">
     <path d="M 263.807812 185.020312 
L 283.807812 185.020312 
" style="fill:none;stroke:#a6761d;stroke-linecap:square;"/>
    </g>
    <g id="line2d_45"/>
    <g id="text_34">
     <!-- Point-Gamma -->
     <g transform="translate(291.807812 188.520312)scale(0.1 -0.1)">
      <use xlink:href="#NimbusSans-Regular-80"/>
      <use x="66.699997" xlink:href="#NimbusSans-Regular-111"/>
      <use x="122.299988" xlink:href="#NimbusSans-Regular-105"/>
      <use x="144.499985" xlink:href="#NimbusSans-Regular-110"/>
      <use x="200.099976" xlink:href="#NimbusSans-Regular-116"/>
      <use x="227.899963" xlink:href="#NimbusSans-Regular-45"/>
      <use x="261.199951" xlink:href="#NimbusSans-Regular-71"/>
      <use x="338.999939" xlink:href="#NimbusSans-Regular-97"/>
      <use x="394.59993" xlink:href="#NimbusSans-Regular-109"/>
      <use x="477.899918" xlink:href="#NimbusSans-Regular-109"/>
      <use x="561.199905" xlink:href="#NimbusSans-Regular-97"/>
     </g>
    </g>
    <g id="line2d_46">
     <path d="M 263.807812 199.490625 
L 283.807812 199.490625 
" style="fill:none;stroke:#1b9e77;stroke-linecap:square;"/>
    </g>
    <g id="line2d_47"/>
    <g id="text_35">
     <!-- Exp(1) -->
     <g transform="translate(291.807812 202.990625)scale(0.1 -0.1)">
      <use xlink:href="#NimbusSans-Regular-69"/>
      <use x="66.699997" xlink:href="#NimbusSans-Regular-120"/>
      <use x="116.699982" xlink:href="#NimbusSans-Regular-112"/>
      <use x="172.299973" xlink:href="#NimbusSans-Regular-40"/>
      <use x="205.59996" xlink:href="#NimbusSans-Regular-49"/>
      <use x="261.199951" xlink:href="#NimbusSans-Regular-41"/>
     </g>
    </g>
    <g id="line2d_48">
     <path d="M 263.807812 213.960938 
L 283.807812 213.960938 
" style="fill:none;stroke:#d95f02;stroke-linecap:square;"/>
    </g>
    <g id="line2d_49"/>
    <g id="text_36">
     <!-- Gamma MLE -->
     <g transform="translate(291.807812 217.460938)scale(0.1 -0.1)">
      <use xlink:href="#NimbusSans-Regular-71"/>
      <use x="77.799988" xlink:href="#NimbusSans-Regular-97"/>
      <use x="133.399979" xlink:href="#NimbusSans-Regular-109"/>
      <use x="216.699966" xlink:href="#NimbusSans-Regular-109"/>
      <use x="299.999954" xlink:href="#NimbusSans-Regular-97"/>
      <use x="355.599945" xlink:href="#NimbusSans-Regular-32"/>
      <use x="383.399933" xlink:href="#NimbusSans-Regular-77"/>
      <use x="466.699921" xlink:href="#NimbusSans-Regular-76"/>
      <use x="522.299911" xlink:href="#NimbusSans-Regular-69"/>
     </g>
    </g>
    <g id="line2d_50">
     <path d="M 263.807812 228.43125 
L 283.807812 228.43125 
" style="fill:none;stroke:#7570b3;stroke-linecap:square;"/>
    </g>
    <g id="line2d_51"/>
    <g id="text_37">
     <!-- Point-Gamma MLE -->
     <g transform="translate(291.807812 231.93125)scale(0.1 -0.1)">
      <use xlink:href="#NimbusSans-Regular-80"/>
      <use x="66.699997" xlink:href="#NimbusSans-Regular-111"/>
      <use x="122.299988" xlink:href="#NimbusSans-Regular-105"/>
      <use x="144.499985" xlink:href="#NimbusSans-Regular-110"/>
      <use x="200.099976" xlink:href="#NimbusSans-Regular-116"/>
      <use x="227.899963" xlink:href="#NimbusSans-Regular-45"/>
      <use x="261.199951" xlink:href="#NimbusSans-Regular-71"/>
      <use x="338.999939" xlink:href="#NimbusSans-Regular-97"/>
      <use x="394.59993" xlink:href="#NimbusSans-Regular-109"/>
      <use x="477.899918" xlink:href="#NimbusSans-Regular-109"/>
      <use x="561.199905" xlink:href="#NimbusSans-Regular-97"/>
      <use x="616.799896" xlink:href="#NimbusSans-Regular-32"/>
      <use x="644.599884" xlink:href="#NimbusSans-Regular-77"/>
      <use x="727.899872" xlink:href="#NimbusSans-Regular-76"/>
      <use x="783.499863" xlink:href="#NimbusSans-Regular-69"/>
     </g>
    </g>
   </g>
  </g>
 </g>
 <defs>
  <clipPath id="p3b4700d785">
   <rect height="94.8" width="204.9" x="49.907813" y="7.2"/>
  </clipPath>
  <clipPath id="p51e3cda208">
   <rect height="94.8" width="204.9" x="49.907813" y="145.8"/>
  </clipPath>
 </defs>
</svg>
