<?xml version="1.0" encoding="utf-8" standalone="no"?>
<!DOCTYPE svg PUBLIC "-//W3C//DTD SVG 1.1//EN"
  "http://www.w3.org/Graphics/SVG/1.1/DTD/svg11.dtd">
<!-- Created with matplotlib (https://matplotlib.org/) -->
<svg height="277.740625pt" version="1.1" viewBox="0 0 280.41875 277.740625" width="280.41875pt" xmlns="http://www.w3.org/2000/svg" xmlns:xlink="http://www.w3.org/1999/xlink">
 <metadata>
  <rdf:RDF xmlns:cc="http://creativecommons.org/ns#" xmlns:dc="http://purl.org/dc/elements/1.1/" xmlns:rdf="http://www.w3.org/1999/02/22-rdf-syntax-ns#">
   <cc:Work>
    <dc:type rdf:resource="http://purl.org/dc/dcmitype/StillImage"/>
    <dc:date>2021-02-16T21:43:52.305521</dc:date>
    <dc:format>image/svg+xml</dc:format>
    <dc:creator>
     <cc:Agent>
      <dc:title>Matplotlib v3.3.2, https://matplotlib.org/</dc:title>
     </cc:Agent>
    </dc:creator>
   </cc:Work>
  </rdf:RDF>
 </metadata>
 <defs>
  <style type="text/css">*{stroke-linecap:butt;stroke-linejoin:round;}</style>
 </defs>
 <g id="figure_1">
  <g id="patch_1">
   <path d="M 0 277.740625 
L 280.41875 277.740625 
L 280.41875 0 
L 0 0 
z
" style="fill:#ffffff;"/>
  </g>
  <g id="axes_1">
   <g id="patch_2">
    <path d="M 41.56875 102 
L 273.21875 102 
L 273.21875 7.2 
L 41.56875 7.2 
z
" style="fill:#ffffff;"/>
   </g>
   <g id="patch_3">
    <path clip-path="url(#p10867d0d6e)" d="M 52.098295 102 
L 68.297596 102 
L 68.297596 11.714286 
L 52.098295 11.714286 
z
" style="fill:#b2b2b2;"/>
   </g>
   <g id="patch_4">
    <path clip-path="url(#p10867d0d6e)" d="M 68.297596 102 
L 84.496897 102 
L 84.496897 56.946182 
L 68.297596 56.946182 
z
" style="fill:#b2b2b2;"/>
   </g>
   <g id="patch_5">
    <path clip-path="url(#p10867d0d6e)" d="M 84.496897 102 
L 100.696198 102 
L 100.696198 81.69907 
L 84.496897 81.69907 
z
" style="fill:#b2b2b2;"/>
   </g>
   <g id="patch_6">
    <path clip-path="url(#p10867d0d6e)" d="M 100.696198 102 
L 116.895498 102 
L 116.895498 90.424908 
L 100.696198 90.424908 
z
" style="fill:#b2b2b2;"/>
   </g>
   <g id="patch_7">
    <path clip-path="url(#p10867d0d6e)" d="M 116.895498 102 
L 133.094799 102 
L 133.094799 96.65765 
L 116.895498 96.65765 
z
" style="fill:#b2b2b2;"/>
   </g>
   <g id="patch_8">
    <path clip-path="url(#p10867d0d6e)" d="M 133.094799 102 
L 149.2941 102 
L 149.2941 98.972668 
L 133.094799 98.972668 
z
" style="fill:#b2b2b2;"/>
   </g>
   <g id="patch_9">
    <path clip-path="url(#p10867d0d6e)" d="M 149.2941 102 
L 165.4934 102 
L 165.4934 100.575373 
L 149.2941 100.575373 
z
" style="fill:#b2b2b2;"/>
   </g>
   <g id="patch_10">
    <path clip-path="url(#p10867d0d6e)" d="M 165.4934 102 
L 181.692701 102 
L 181.692701 101.643843 
L 165.4934 101.643843 
z
" style="fill:#b2b2b2;"/>
   </g>
   <g id="patch_11">
    <path clip-path="url(#p10867d0d6e)" d="M 181.692701 102 
L 197.892002 102 
L 197.892002 101.821922 
L 181.692701 101.821922 
z
" style="fill:#b2b2b2;"/>
   </g>
   <g id="patch_12">
    <path clip-path="url(#p10867d0d6e)" d="M 197.892002 102 
L 214.091302 102 
L 214.091302 101.821922 
L 197.892002 101.821922 
z
" style="fill:#b2b2b2;"/>
   </g>
   <g id="patch_13">
    <path clip-path="url(#p10867d0d6e)" d="M 214.091302 102 
L 230.290603 102 
L 230.290603 102 
L 214.091302 102 
z
" style="fill:#b2b2b2;"/>
   </g>
   <g id="patch_14">
    <path clip-path="url(#p10867d0d6e)" d="M 230.290603 102 
L 246.489904 102 
L 246.489904 101.821922 
L 230.290603 101.821922 
z
" style="fill:#b2b2b2;"/>
   </g>
   <g id="patch_15">
    <path clip-path="url(#p10867d0d6e)" d="M 246.489904 102 
L 262.689205 102 
L 262.689205 101.821922 
L 246.489904 101.821922 
z
" style="fill:#b2b2b2;"/>
   </g>
   <g id="matplotlib.axis_1">
    <g id="xtick_1">
     <g id="line2d_1">
      <defs>
       <path d="M 0 0 
L 0 3.5 
" id="m2d43f2427a" style="stroke:#000000;stroke-width:0.8;"/>
      </defs>
      <g>
       <use style="stroke:#000000;stroke-width:0.8;" x="52.098295" xlink:href="#m2d43f2427a" y="102"/>
      </g>
     </g>
     <g id="text_1">
      <!-- 0 -->
      <g transform="translate(49.318608 116.290625)scale(0.1 -0.1)">
       <defs>
        <path d="M 27.5 72.296875 
C 20.90625 72.296875 14.90625 69.296875 11.203125 64.40625 
C 6.59375 58 4.296875 48.40625 4.296875 35 
C 4.296875 10.59375 12.296875 -2.296875 27.5 -2.296875 
C 42.5 -2.296875 50.703125 10.59375 50.703125 34.40625 
C 50.703125 48.40625 48.5 57.796875 43.796875 64.40625 
C 40.09375 69.40625 34.203125 72.296875 27.5 72.296875 
z
M 27.5 64.5 
C 37 64.5 41.703125 54.796875 41.703125 35.203125 
C 41.703125 14.59375 37.09375 5 27.296875 5 
C 18 5 13.296875 15 13.296875 34.90625 
C 13.296875 54.796875 18 64.5 27.5 64.5 
z
" id="NimbusSans-Regular-48"/>
       </defs>
       <use xlink:href="#NimbusSans-Regular-48"/>
      </g>
     </g>
    </g>
    <g id="xtick_2">
     <g id="line2d_2">
      <g>
       <use style="stroke:#000000;stroke-width:0.8;" x="68.297596" xlink:href="#m2d43f2427a" y="102"/>
      </g>
     </g>
     <g id="text_2">
      <!-- 1 -->
      <g transform="translate(65.517909 116.290625)scale(0.1 -0.1)">
       <defs>
        <path d="M 25.90625 51.5 
L 25.90625 0 
L 34.703125 0 
L 34.703125 72.296875 
L 28.90625 72.296875 
C 25.796875 61.203125 23.796875 59.703125 10.203125 57.90625 
L 10.203125 51.5 
z
" id="NimbusSans-Regular-49"/>
       </defs>
       <use xlink:href="#NimbusSans-Regular-49"/>
      </g>
     </g>
    </g>
    <g id="xtick_3">
     <g id="line2d_3">
      <g>
       <use style="stroke:#000000;stroke-width:0.8;" x="84.496897" xlink:href="#m2d43f2427a" y="102"/>
      </g>
     </g>
     <g id="text_3">
      <!-- 2 -->
      <g transform="translate(81.717209 116.290625)scale(0.1 -0.1)">
       <defs>
        <path d="M 50.59375 8.703125 
L 13.296875 8.703125 
C 14.203125 14.703125 17.40625 18.5 26.09375 23.796875 
L 36.09375 29.40625 
C 46 34.90625 51.09375 42.296875 51.09375 51.203125 
C 51.09375 57.203125 48.703125 62.796875 44.5 66.703125 
C 40.296875 70.5 35.09375 72.296875 28.40625 72.296875 
C 19.40625 72.296875 12.703125 69.09375 8.796875 62.90625 
C 6.296875 59.09375 5.203125 54.59375 5 47.296875 
L 13.796875 47.296875 
C 14.09375 52.203125 14.703125 55.09375 15.90625 57.5 
C 18.203125 61.90625 22.796875 64.59375 28.09375 64.59375 
C 36.09375 64.59375 42.09375 58.796875 42.09375 51 
C 42.09375 45.203125 38.796875 40.203125 32.5 36.59375 
L 23.296875 31.203125 
C 8.5 22.703125 4.203125 15.90625 3.40625 0.09375 
L 50.59375 0.09375 
z
" id="NimbusSans-Regular-50"/>
       </defs>
       <use xlink:href="#NimbusSans-Regular-50"/>
      </g>
     </g>
    </g>
    <g id="xtick_4">
     <g id="line2d_4">
      <g>
       <use style="stroke:#000000;stroke-width:0.8;" x="100.696198" xlink:href="#m2d43f2427a" y="102"/>
      </g>
     </g>
     <g id="text_4">
      <!-- 3 -->
      <g transform="translate(97.91651 116.290625)scale(0.1 -0.1)">
       <defs>
        <path d="M 22.09375 33.296875 
L 23.203125 33.296875 
L 26.90625 33.296875 
C 36.5 33.296875 41.59375 28.796875 41.59375 20.09375 
C 41.59375 11 36.09375 5.5 27 5.5 
C 17.296875 5.5 12.59375 10.40625 12 21 
L 3.203125 21 
C 3.59375 15.203125 4.59375 11.40625 6.296875 8.203125 
C 10 1.203125 16.90625 -2.296875 26.59375 -2.296875 
C 41.203125 -2.296875 50.59375 6.5 50.59375 20.203125 
C 50.59375 29.40625 47.09375 34.40625 38.59375 37.40625 
C 45.203125 40.09375 48.5 45.09375 48.5 52.40625 
C 48.5 64.796875 40.40625 72.296875 26.90625 72.296875 
C 12.59375 72.296875 5 64.296875 4.703125 49 
L 13.5 49 
C 13.59375 53.40625 14 55.90625 15.09375 58.09375 
C 17.09375 62.203125 21.5 64.59375 27 64.59375 
C 34.796875 64.59375 39.5 59.90625 39.5 52.09375 
C 39.5 47 37.703125 43.90625 33.796875 42.203125 
C 31.40625 41.203125 28.203125 40.796875 22.09375 40.703125 
z
" id="NimbusSans-Regular-51"/>
       </defs>
       <use xlink:href="#NimbusSans-Regular-51"/>
      </g>
     </g>
    </g>
    <g id="xtick_5">
     <g id="line2d_5">
      <g>
       <use style="stroke:#000000;stroke-width:0.8;" x="116.895498" xlink:href="#m2d43f2427a" y="102"/>
      </g>
     </g>
     <g id="text_5">
      <!-- 4 -->
      <g transform="translate(114.115811 116.290625)scale(0.1 -0.1)">
       <defs>
        <path d="M 32.703125 17.5 
L 32.703125 0 
L 41.5 0 
L 41.5 17.5 
L 52 17.5 
L 52 25.40625 
L 41.5 25.40625 
L 41.5 72.296875 
L 35 72.296875 
L 2.796875 26.796875 
L 2.796875 17.5 
z
M 32.703125 25.40625 
L 10.5 25.40625 
L 32.703125 57.296875 
z
" id="NimbusSans-Regular-52"/>
       </defs>
       <use xlink:href="#NimbusSans-Regular-52"/>
      </g>
     </g>
    </g>
    <g id="xtick_6">
     <g id="line2d_6">
      <g>
       <use style="stroke:#000000;stroke-width:0.8;" x="133.094799" xlink:href="#m2d43f2427a" y="102"/>
      </g>
     </g>
     <g id="text_6">
      <!-- 5 -->
      <g transform="translate(130.315111 116.290625)scale(0.1 -0.1)">
       <defs>
        <path d="M 47.59375 70.90625 
L 11 70.90625 
L 5.703125 32.296875 
L 13.796875 32.296875 
C 17.90625 37.203125 21.296875 38.90625 26.90625 38.90625 
C 36.40625 38.90625 42.296875 32.40625 42.296875 21.90625 
C 42.296875 11.703125 36.40625 5.5 26.796875 5.5 
C 19.09375 5.5 14.40625 9.40625 12.296875 17.40625 
L 3.5 17.40625 
C 4.703125 11.59375 5.703125 8.796875 7.796875 6.203125 
C 11.796875 0.796875 19 -2.296875 27 -2.296875 
C 41.296875 -2.296875 51.296875 8.09375 51.296875 23.09375 
C 51.296875 37.09375 42 46.703125 28.40625 46.703125 
C 23.40625 46.703125 19.40625 45.40625 15.296875 42.40625 
L 18.09375 62.203125 
L 47.59375 62.203125 
z
" id="NimbusSans-Regular-53"/>
       </defs>
       <use xlink:href="#NimbusSans-Regular-53"/>
      </g>
     </g>
    </g>
    <g id="xtick_7">
     <g id="line2d_7">
      <g>
       <use style="stroke:#000000;stroke-width:0.8;" x="149.2941" xlink:href="#m2d43f2427a" y="102"/>
      </g>
     </g>
     <g id="text_7">
      <!-- 6 -->
      <g transform="translate(146.514412 116.290625)scale(0.1 -0.1)">
       <defs>
        <path d="M 49.796875 53.5 
C 48.09375 65.296875 40.5 72.296875 29.703125 72.296875 
C 21.90625 72.296875 14.90625 68.5 10.703125 62 
C 6.203125 54.90625 4.296875 46.09375 4.296875 33 
C 4.296875 20.796875 6 13.09375 10.296875 6.703125 
C 14.09375 0.796875 20.296875 -2.296875 28.09375 -2.296875 
C 41.59375 -2.296875 51.296875 7.796875 51.296875 21.90625 
C 51.296875 35.203125 42.296875 44.59375 29.59375 44.59375 
C 22.59375 44.59375 17.09375 42 13.296875 36.703125 
C 13.40625 54.59375 19 64.5 29.09375 64.5 
C 35.296875 64.5 39.59375 60.5 41 53.5 
z
M 28.5 36.796875 
C 37 36.796875 42.296875 30.796875 42.296875 21.203125 
C 42.296875 12.09375 36.296875 5.5 28.203125 5.5 
C 20 5.5 13.796875 12.40625 13.796875 21.59375 
C 13.796875 30.59375 19.796875 36.796875 28.5 36.796875 
z
" id="NimbusSans-Regular-54"/>
       </defs>
       <use xlink:href="#NimbusSans-Regular-54"/>
      </g>
     </g>
    </g>
    <g id="xtick_8">
     <g id="line2d_8">
      <g>
       <use style="stroke:#000000;stroke-width:0.8;" x="165.4934" xlink:href="#m2d43f2427a" y="102"/>
      </g>
     </g>
     <g id="text_8">
      <!-- 7 -->
      <g transform="translate(162.713713 116.290625)scale(0.1 -0.1)">
       <defs>
        <path d="M 52 70.90625 
L 4.59375 70.90625 
L 4.59375 62.203125 
L 42.90625 62.203125 
C 26 38.09375 19.09375 23.296875 13.796875 0 
L 23.203125 0 
C 27.09375 22.703125 36 42.203125 52 63.5 
z
" id="NimbusSans-Regular-55"/>
       </defs>
       <use xlink:href="#NimbusSans-Regular-55"/>
      </g>
     </g>
    </g>
    <g id="xtick_9">
     <g id="line2d_9">
      <g>
       <use style="stroke:#000000;stroke-width:0.8;" x="181.692701" xlink:href="#m2d43f2427a" y="102"/>
      </g>
     </g>
     <g id="text_9">
      <!-- 8 -->
      <g transform="translate(178.913014 116.290625)scale(0.1 -0.1)">
       <defs>
        <path d="M 39.09375 38.09375 
C 46.5 42.59375 48.796875 46.203125 48.796875 53 
C 48.796875 64.40625 40.09375 72.296875 27.5 72.296875 
C 15 72.296875 6.203125 64.40625 6.203125 53.09375 
C 6.203125 46.203125 8.5 42.703125 15.796875 38.09375 
C 7.703125 34 3.703125 28.09375 3.703125 20.09375 
C 3.703125 6.90625 13.40625 -2.296875 27.5 -2.296875 
C 41.5 -2.296875 51.296875 6.90625 51.296875 20.09375 
C 51.296875 28.09375 47.296875 34 39.09375 38.09375 
z
M 27.5 64.5 
C 35 64.5 39.796875 60 39.796875 52.796875 
C 39.796875 46 34.90625 41.5 27.5 41.5 
C 20 41.5 15.203125 46 15.203125 53 
C 15.203125 60 20 64.5 27.5 64.5 
z
M 27.5 34.09375 
C 36.296875 34.09375 42.296875 28.296875 42.296875 19.90625 
C 42.296875 11.203125 36.40625 5.5 27.296875 5.5 
C 18.703125 5.5 12.703125 11.40625 12.703125 19.796875 
C 12.703125 28.40625 18.59375 34.09375 27.5 34.09375 
z
" id="NimbusSans-Regular-56"/>
       </defs>
       <use xlink:href="#NimbusSans-Regular-56"/>
      </g>
     </g>
    </g>
    <g id="xtick_10">
     <g id="line2d_10">
      <g>
       <use style="stroke:#000000;stroke-width:0.8;" x="197.892002" xlink:href="#m2d43f2427a" y="102"/>
      </g>
     </g>
     <g id="text_10">
      <!-- 9 -->
      <g transform="translate(195.112314 116.290625)scale(0.1 -0.1)">
       <defs>
        <path d="M 5.296875 16.5 
C 7 4.703125 14.59375 -2.296875 25.40625 -2.296875 
C 33.296875 -2.296875 40.296875 1.5 44.5 8 
C 48.90625 15.09375 50.90625 23.90625 50.90625 37 
C 50.90625 49.203125 49.09375 56.90625 44.90625 63.296875 
C 41 69.203125 34.796875 72.296875 27 72.296875 
C 13.5 72.296875 3.796875 62.203125 3.796875 48.203125 
C 3.796875 34.90625 12.796875 25.5 25.59375 25.5 
C 32.296875 25.5 37.296875 27.90625 41.796875 33.40625 
C 41.703125 15.40625 36.09375 5.5 26 5.5 
C 19.796875 5.5 15.5 9.5 14.09375 16.5 
z
M 26.90625 64.59375 
C 35.09375 64.59375 41.296875 57.703125 41.296875 48.40625 
C 41.296875 39.5 35.296875 33.296875 26.59375 33.296875 
C 18.09375 33.296875 12.796875 39.296875 12.796875 48.90625 
C 12.796875 58 18.703125 64.59375 26.90625 64.59375 
z
" id="NimbusSans-Regular-57"/>
       </defs>
       <use xlink:href="#NimbusSans-Regular-57"/>
      </g>
     </g>
    </g>
    <g id="xtick_11">
     <g id="line2d_11">
      <g>
       <use style="stroke:#000000;stroke-width:0.8;" x="214.091302" xlink:href="#m2d43f2427a" y="102"/>
      </g>
     </g>
     <g id="text_11">
      <!-- 10 -->
      <g transform="translate(208.531927 116.290625)scale(0.1 -0.1)">
       <use xlink:href="#NimbusSans-Regular-49"/>
       <use x="55.599991" xlink:href="#NimbusSans-Regular-48"/>
      </g>
     </g>
    </g>
    <g id="xtick_12">
     <g id="line2d_12">
      <g>
       <use style="stroke:#000000;stroke-width:0.8;" x="230.290603" xlink:href="#m2d43f2427a" y="102"/>
      </g>
     </g>
     <g id="text_12">
      <!-- 11 -->
      <g transform="translate(224.731228 116.290625)scale(0.1 -0.1)">
       <use xlink:href="#NimbusSans-Regular-49"/>
       <use x="55.599991" xlink:href="#NimbusSans-Regular-49"/>
      </g>
     </g>
    </g>
    <g id="xtick_13">
     <g id="line2d_13">
      <g>
       <use style="stroke:#000000;stroke-width:0.8;" x="246.489904" xlink:href="#m2d43f2427a" y="102"/>
      </g>
     </g>
     <g id="text_13">
      <!-- 12 -->
      <g transform="translate(240.930529 116.290625)scale(0.1 -0.1)">
       <use xlink:href="#NimbusSans-Regular-49"/>
       <use x="55.599991" xlink:href="#NimbusSans-Regular-50"/>
      </g>
     </g>
    </g>
    <g id="xtick_14">
     <g id="line2d_14">
      <g>
       <use style="stroke:#000000;stroke-width:0.8;" x="262.689205" xlink:href="#m2d43f2427a" y="102"/>
      </g>
     </g>
     <g id="text_14">
      <!-- 13 -->
      <g transform="translate(257.12983 116.290625)scale(0.1 -0.1)">
       <use xlink:href="#NimbusSans-Regular-49"/>
       <use x="55.599991" xlink:href="#NimbusSans-Regular-51"/>
      </g>
     </g>
    </g>
    <g id="text_15">
     <!-- Observation $x$ -->
     <g transform="translate(126.04375 129.760938)scale(0.1 -0.1)">
      <defs>
       <path d="M 38.90625 74.09375 
C 18 74.09375 3.796875 58.703125 3.796875 35.90625 
C 3.796875 13 17.90625 -2.296875 39 -2.296875 
C 47.90625 -2.296875 55.703125 0.40625 61.59375 5.40625 
C 69.5 12.09375 74.203125 23.40625 74.203125 35.296875 
C 74.203125 58.796875 60.296875 74.09375 38.90625 74.09375 
z
M 38.90625 65.90625 
C 54.703125 65.90625 64.90625 54 64.90625 35.5 
C 64.90625 17.90625 54.40625 5.90625 39 5.90625 
C 23.40625 5.90625 13.09375 17.90625 13.09375 35.90625 
C 13.09375 53.90625 23.40625 65.90625 38.90625 65.90625 
z
" id="NimbusSans-Regular-79"/>
       <path d="M 5.40625 72.90625 
L 5.40625 0 
L 12.90625 0 
L 12.90625 6.703125 
C 16.90625 0.59375 22.203125 -2.296875 29.5 -2.296875 
C 43.296875 -2.296875 52.296875 9 52.296875 26.40625 
C 52.296875 43.40625 43.796875 53.90625 29.90625 53.90625 
C 22.703125 53.90625 17.59375 51.203125 13.703125 45.296875 
L 13.703125 72.90625 
z
M 28.296875 46.09375 
C 37.59375 46.09375 43.59375 38 43.59375 25.5 
C 43.59375 13.59375 37.40625 5.5 28.296875 5.5 
C 19.40625 5.5 13.703125 13.5 13.703125 25.796875 
C 13.703125 38.09375 19.40625 46.09375 28.296875 46.09375 
z
" id="NimbusSans-Regular-98"/>
       <path d="M 43.796875 37.796875 
C 43.703125 48.09375 36.90625 53.90625 24.796875 53.90625 
C 12.59375 53.90625 4.703125 47.59375 4.703125 37.90625 
C 4.703125 29.703125 8.90625 25.796875 21.296875 22.796875 
L 29.09375 20.90625 
C 34.90625 19.5 37.203125 17.40625 37.203125 13.703125 
C 37.203125 8.703125 32.296875 5.40625 25 5.40625 
C 20.5 5.40625 16.703125 6.703125 14.59375 8.90625 
C 13.296875 10.40625 12.703125 11.90625 12.203125 15.59375 
L 3.40625 15.59375 
C 3.796875 3.5 10.59375 -2.296875 24.296875 -2.296875 
C 37.5 -2.296875 45.90625 4.203125 45.90625 14.296875 
C 45.90625 22.09375 41.5 26.40625 31.09375 28.90625 
L 23.09375 30.796875 
C 16.296875 32.40625 13.40625 34.59375 13.40625 38.296875 
C 13.40625 43.203125 17.703125 46.203125 24.5 46.203125 
C 31.203125 46.203125 34.796875 43.296875 35 37.796875 
z
" id="NimbusSans-Regular-115"/>
       <path d="M 51.296875 23.40625 
C 51.296875 31.40625 50.703125 36.203125 49.203125 40.09375 
C 45.796875 48.703125 37.796875 53.90625 28 53.90625 
C 13.40625 53.90625 4 42.796875 4 25.5 
C 4 8.203125 13 -2.296875 27.796875 -2.296875 
C 39.796875 -2.296875 48.09375 4.5 50.203125 15.90625 
L 41.796875 15.90625 
C 39.5 9 34.796875 5.40625 28.09375 5.40625 
C 22.796875 5.40625 18.296875 7.796875 15.5 12.203125 
C 13.5 15.203125 12.796875 18.203125 12.703125 23.40625 
z
M 12.90625 30.203125 
C 13.59375 39.90625 19.5 46.203125 27.90625 46.203125 
C 36.40625 46.203125 42.296875 39.59375 42.296875 30.203125 
z
" id="NimbusSans-Regular-101"/>
       <path d="M 6.90625 52.40625 
L 6.90625 0 
L 15.296875 0 
L 15.296875 27.203125 
C 15.40625 39.796875 20.59375 45.40625 32.09375 45.09375 
L 32.09375 53.59375 
C 30.703125 53.796875 29.90625 53.90625 28.90625 53.90625 
C 23.5 53.90625 19.40625 50.703125 14.59375 42.90625 
L 14.59375 52.40625 
z
" id="NimbusSans-Regular-114"/>
       <path d="M 28.5 0 
L 48.59375 52.40625 
L 39.203125 52.40625 
L 24.40625 9.90625 
L 10.40625 52.40625 
L 1 52.40625 
L 19.40625 0 
z
" id="NimbusSans-Regular-118"/>
       <path d="M 53.5 4.90625 
C 52.59375 4.703125 52.203125 4.703125 51.703125 4.703125 
C 48.796875 4.703125 47.203125 6.203125 47.203125 8.796875 
L 47.203125 39.59375 
C 47.203125 48.90625 40.40625 53.90625 27.5 53.90625 
C 19.796875 53.90625 13.703125 51.703125 10.09375 47.796875 
C 7.703125 45.09375 6.703125 42.09375 6.5 36.90625 
L 14.90625 36.90625 
C 15.59375 43.296875 19.40625 46.203125 27.203125 46.203125 
C 34.796875 46.203125 38.90625 43.40625 38.90625 38.40625 
L 38.90625 36.203125 
C 38.796875 32.59375 37 31.296875 30.203125 30.40625 
C 18.40625 28.90625 16.59375 28.5 13.40625 27.203125 
C 7.296875 24.59375 4.203125 20 4.203125 13.203125 
C 4.203125 3.703125 10.796875 -2.296875 21.40625 -2.296875 
C 28 -2.296875 33.296875 0 39.203125 5.40625 
C 39.796875 0 42.40625 -2.296875 47.796875 -2.296875 
C 49.59375 -2.296875 50.703125 -2.09375 53.5 -1.40625 
z
M 38.90625 16.5 
C 38.90625 13.703125 38.09375 12 35.59375 9.703125 
C 32.203125 6.59375 28.09375 5 23.203125 5 
C 16.703125 5 12.90625 8.09375 12.90625 13.40625 
C 12.90625 18.90625 16.5 21.703125 25.5 23 
C 34.40625 24.203125 36.09375 24.59375 38.90625 25.90625 
z
" id="NimbusSans-Regular-97"/>
       <path d="M 25.40625 52.40625 
L 16.796875 52.40625 
L 16.796875 66.796875 
L 8.5 66.796875 
L 8.5 52.40625 
L 1.40625 52.40625 
L 1.40625 45.59375 
L 8.5 45.59375 
L 8.5 6 
C 8.5 0.59375 12.09375 -2.296875 18.59375 -2.296875 
C 20.796875 -2.296875 22.59375 -2.09375 25.40625 -1.59375 
L 25.40625 5.40625 
C 24.203125 5.09375 23.09375 5 21.40625 5 
C 17.796875 5 16.796875 6 16.796875 9.703125 
L 16.796875 45.59375 
L 25.40625 45.59375 
z
" id="NimbusSans-Regular-116"/>
       <path d="M 15 52.40625 
L 6.703125 52.40625 
L 6.703125 0 
L 15 0 
z
M 15 72.90625 
L 6.59375 72.90625 
L 6.59375 62.40625 
L 15 62.40625 
z
" id="NimbusSans-Regular-105"/>
       <path d="M 27.203125 53.90625 
C 12.40625 53.90625 3.59375 43.40625 3.59375 25.796875 
C 3.59375 8.09375 12.40625 -2.296875 27.296875 -2.296875 
C 42.09375 -2.296875 51 8.203125 51 25.40625 
C 51 43.59375 42.40625 53.90625 27.203125 53.90625 
z
M 27.296875 46.203125 
C 36.703125 46.203125 42.296875 38.5 42.296875 25.5 
C 42.296875 13.09375 36.5 5.40625 27.296875 5.40625 
C 18 5.40625 12.296875 13.09375 12.296875 25.796875 
C 12.296875 38.5 18 46.203125 27.296875 46.203125 
z
" id="NimbusSans-Regular-111"/>
       <path d="M 7 52.40625 
L 7 0 
L 15.40625 0 
L 15.40625 28.90625 
C 15.40625 39.59375 21 46.59375 29.59375 46.59375 
C 36.203125 46.59375 40.40625 42.59375 40.40625 36.296875 
L 40.40625 0 
L 48.703125 0 
L 48.703125 39.59375 
C 48.703125 48.296875 42.203125 53.90625 32.09375 53.90625 
C 24.296875 53.90625 19.296875 50.90625 14.703125 43.59375 
L 14.703125 52.40625 
z
" id="NimbusSans-Regular-110"/>
       <path id="NimbusSans-Regular-32"/>
       <path d="M 60.015625 54.6875 
L 34.90625 27.875 
L 50.296875 0 
L 39.984375 0 
L 28.421875 21.6875 
L 8.296875 0 
L -2.59375 0 
L 24.3125 28.8125 
L 10.015625 54.6875 
L 20.3125 54.6875 
L 30.8125 34.90625 
L 49.125 54.6875 
z
" id="DejaVuSans-Oblique-120"/>
      </defs>
      <use transform="translate(0 0.90625)" xlink:href="#NimbusSans-Regular-79"/>
      <use transform="translate(77.799988 0.90625)" xlink:href="#NimbusSans-Regular-98"/>
      <use transform="translate(133.399979 0.90625)" xlink:href="#NimbusSans-Regular-115"/>
      <use transform="translate(183.399963 0.90625)" xlink:href="#NimbusSans-Regular-101"/>
      <use transform="translate(238.999954 0.90625)" xlink:href="#NimbusSans-Regular-114"/>
      <use transform="translate(272.299942 0.90625)" xlink:href="#NimbusSans-Regular-118"/>
      <use transform="translate(322.299927 0.90625)" xlink:href="#NimbusSans-Regular-97"/>
      <use transform="translate(377.899918 0.90625)" xlink:href="#NimbusSans-Regular-116"/>
      <use transform="translate(405.699905 0.90625)" xlink:href="#NimbusSans-Regular-105"/>
      <use transform="translate(427.899902 0.90625)" xlink:href="#NimbusSans-Regular-111"/>
      <use transform="translate(483.499893 0.90625)" xlink:href="#NimbusSans-Regular-110"/>
      <use transform="translate(539.099884 0.90625)" xlink:href="#NimbusSans-Regular-32"/>
      <use transform="translate(566.899872 0.90625)" xlink:href="#DejaVuSans-Oblique-120"/>
     </g>
    </g>
   </g>
   <g id="matplotlib.axis_2">
    <g id="ytick_1">
     <g id="line2d_15">
      <defs>
       <path d="M 0 0 
L -3.5 0 
" id="mf5002a4c81" style="stroke:#000000;stroke-width:0.8;"/>
      </defs>
      <g>
       <use style="stroke:#000000;stroke-width:0.8;" x="41.56875" xlink:href="#mf5002a4c81" y="102"/>
      </g>
     </g>
     <g id="text_16">
      <!-- 0.0 -->
      <g transform="translate(20.670313 105.645312)scale(0.1 -0.1)">
       <defs>
        <path d="M 19.09375 10.40625 
L 8.703125 10.40625 
L 8.703125 0 
L 19.09375 0 
z
" id="NimbusSans-Regular-46"/>
       </defs>
       <use xlink:href="#NimbusSans-Regular-48"/>
       <use x="55.599991" xlink:href="#NimbusSans-Regular-46"/>
       <use x="83.399979" xlink:href="#NimbusSans-Regular-48"/>
      </g>
     </g>
    </g>
    <g id="ytick_2">
     <g id="line2d_16">
      <g>
       <use style="stroke:#000000;stroke-width:0.8;" x="41.56875" xlink:href="#mf5002a4c81" y="66.384334"/>
      </g>
     </g>
     <g id="text_17">
      <!-- 0.2 -->
      <g transform="translate(20.670313 70.029646)scale(0.1 -0.1)">
       <use xlink:href="#NimbusSans-Regular-48"/>
       <use x="55.599991" xlink:href="#NimbusSans-Regular-46"/>
       <use x="83.399979" xlink:href="#NimbusSans-Regular-50"/>
      </g>
     </g>
    </g>
    <g id="ytick_3">
     <g id="line2d_17">
      <g>
       <use style="stroke:#000000;stroke-width:0.8;" x="41.56875" xlink:href="#mf5002a4c81" y="30.768667"/>
      </g>
     </g>
     <g id="text_18">
      <!-- 0.4 -->
      <g transform="translate(20.670313 34.41398)scale(0.1 -0.1)">
       <use xlink:href="#NimbusSans-Regular-48"/>
       <use x="55.599991" xlink:href="#NimbusSans-Regular-46"/>
       <use x="83.399979" xlink:href="#NimbusSans-Regular-52"/>
      </g>
     </g>
    </g>
    <g id="text_19">
     <!-- Density -->
     <g transform="translate(14.490625 71.269531)rotate(-90)scale(0.1 -0.1)">
      <defs>
       <path d="M 8.90625 0 
L 37 0 
C 55.40625 0 66.703125 13.796875 66.703125 36.5 
C 66.703125 59.09375 55.5 72.90625 37 72.90625 
L 8.90625 72.90625 
z
M 18.203125 8.203125 
L 18.203125 64.703125 
L 35.40625 64.703125 
C 49.796875 64.703125 57.40625 55 57.40625 36.40625 
C 57.40625 17.90625 49.796875 8.203125 35.40625 8.203125 
z
" id="NimbusSans-Regular-68"/>
       <path d="M 38.796875 52.40625 
L 24.296875 11.59375 
L 10.90625 52.40625 
L 2 52.40625 
L 19.703125 -0.203125 
L 16.5 -8.5 
C 15.09375 -12.203125 13.296875 -13.59375 9.796875 -13.59375 
C 8.40625 -13.59375 7.203125 -13.40625 5.40625 -13 
L 5.40625 -20.5 
C 7.09375 -21.40625 8.796875 -21.796875 11 -21.796875 
C 13.703125 -21.796875 16.59375 -20.90625 18.796875 -19.296875 
C 21.40625 -17.40625 22.90625 -15.203125 24.5 -11 
L 47.796875 52.40625 
z
" id="NimbusSans-Regular-121"/>
      </defs>
      <use xlink:href="#NimbusSans-Regular-68"/>
      <use x="72.199982" xlink:href="#NimbusSans-Regular-101"/>
      <use x="127.799973" xlink:href="#NimbusSans-Regular-110"/>
      <use x="183.399963" xlink:href="#NimbusSans-Regular-115"/>
      <use x="233.399948" xlink:href="#NimbusSans-Regular-105"/>
      <use x="255.599945" xlink:href="#NimbusSans-Regular-116"/>
      <use x="283.399933" xlink:href="#NimbusSans-Regular-121"/>
     </g>
    </g>
   </g>
   <g id="patch_16">
    <path d="M 41.56875 102 
L 41.56875 7.2 
" style="fill:none;stroke:#000000;stroke-linecap:square;stroke-linejoin:miter;stroke-width:0.8;"/>
   </g>
   <g id="patch_17">
    <path d="M 273.21875 102 
L 273.21875 7.2 
" style="fill:none;stroke:#000000;stroke-linecap:square;stroke-linejoin:miter;stroke-width:0.8;"/>
   </g>
   <g id="patch_18">
    <path d="M 41.56875 102 
L 273.21875 102 
" style="fill:none;stroke:#000000;stroke-linecap:square;stroke-linejoin:miter;stroke-width:0.8;"/>
   </g>
   <g id="patch_19">
    <path d="M 41.56875 7.2 
L 273.21875 7.2 
" style="fill:none;stroke:#000000;stroke-linecap:square;stroke-linejoin:miter;stroke-width:0.8;"/>
   </g>
  </g>
  <g id="axes_2">
   <g id="patch_20">
    <path d="M 41.56875 240.6 
L 273.21875 240.6 
L 273.21875 145.8 
L 41.56875 145.8 
z
" style="fill:#ffffff;"/>
   </g>
   <g id="patch_21">
    <path clip-path="url(#pb72579b1d9)" d="M 52.098295 240.6 
L 56.310114 240.6 
L 56.310114 163.231142 
L 52.098295 163.231142 
z
" style="fill:#b2b2b2;"/>
   </g>
   <g id="patch_22">
    <path clip-path="url(#pb72579b1d9)" d="M 56.310114 240.6 
L 60.521932 240.6 
L 60.521932 174.786231 
L 56.310114 174.786231 
z
" style="fill:#b2b2b2;"/>
   </g>
   <g id="patch_23">
    <path clip-path="url(#pb72579b1d9)" d="M 60.521932 240.6 
L 64.73375 240.6 
L 64.73375 181.819764 
L 60.521932 181.819764 
z
" style="fill:#b2b2b2;"/>
   </g>
   <g id="patch_24">
    <path clip-path="url(#pb72579b1d9)" d="M 64.73375 240.6 
L 68.945568 240.6 
L 68.945568 191.867667 
L 64.73375 191.867667 
z
" style="fill:#b2b2b2;"/>
   </g>
   <g id="patch_25">
    <path clip-path="url(#pb72579b1d9)" d="M 68.945568 240.6 
L 73.157386 240.6 
L 73.157386 202.920361 
L 68.945568 202.920361 
z
" style="fill:#b2b2b2;"/>
   </g>
   <g id="patch_26">
    <path clip-path="url(#pb72579b1d9)" d="M 73.157386 240.6 
L 77.369205 240.6 
L 77.369205 208.949103 
L 73.157386 208.949103 
z
" style="fill:#b2b2b2;"/>
   </g>
   <g id="patch_27">
    <path clip-path="url(#pb72579b1d9)" d="M 77.369205 240.6 
L 81.581023 240.6 
L 81.581023 215.480241 
L 77.369205 215.480241 
z
" style="fill:#b2b2b2;"/>
   </g>
   <g id="patch_28">
    <path clip-path="url(#pb72579b1d9)" d="M 81.581023 240.6 
L 85.792841 240.6 
L 85.792841 216.987426 
L 81.581023 216.987426 
z
" style="fill:#b2b2b2;"/>
   </g>
   <g id="patch_29">
    <path clip-path="url(#pb72579b1d9)" d="M 85.792841 240.6 
L 90.004659 240.6 
L 90.004659 218.494612 
L 85.792841 218.494612 
z
" style="fill:#b2b2b2;"/>
   </g>
   <g id="patch_30">
    <path clip-path="url(#pb72579b1d9)" d="M 90.004659 240.6 
L 94.216477 240.6 
L 94.216477 223.518564 
L 90.004659 223.518564 
z
" style="fill:#b2b2b2;"/>
   </g>
   <g id="patch_31">
    <path clip-path="url(#pb72579b1d9)" d="M 94.216477 240.6 
L 98.428295 240.6 
L 98.428295 227.03533 
L 94.216477 227.03533 
z
" style="fill:#b2b2b2;"/>
   </g>
   <g id="patch_32">
    <path clip-path="url(#pb72579b1d9)" d="M 98.428295 240.6 
L 102.640114 240.6 
L 102.640114 226.532935 
L 98.428295 226.532935 
z
" style="fill:#b2b2b2;"/>
   </g>
   <g id="patch_33">
    <path clip-path="url(#pb72579b1d9)" d="M 102.640114 240.6 
L 106.851932 240.6 
L 106.851932 229.547306 
L 102.640114 229.547306 
z
" style="fill:#b2b2b2;"/>
   </g>
   <g id="patch_34">
    <path clip-path="url(#pb72579b1d9)" d="M 106.851932 240.6 
L 111.06375 240.6 
L 111.06375 234.068863 
L 106.851932 234.068863 
z
" style="fill:#b2b2b2;"/>
   </g>
   <g id="patch_35">
    <path clip-path="url(#pb72579b1d9)" d="M 111.06375 240.6 
L 115.275568 240.6 
L 115.275568 230.049701 
L 111.06375 230.049701 
z
" style="fill:#b2b2b2;"/>
   </g>
   <g id="patch_36">
    <path clip-path="url(#pb72579b1d9)" d="M 115.275568 240.6 
L 119.487386 240.6 
L 119.487386 233.064072 
L 115.275568 233.064072 
z
" style="fill:#b2b2b2;"/>
   </g>
   <g id="patch_37">
    <path clip-path="url(#pb72579b1d9)" d="M 119.487386 240.6 
L 123.699205 240.6 
L 123.699205 236.078443 
L 119.487386 236.078443 
z
" style="fill:#b2b2b2;"/>
   </g>
   <g id="patch_38">
    <path clip-path="url(#pb72579b1d9)" d="M 123.699205 240.6 
L 127.911023 240.6 
L 127.911023 238.088024 
L 123.699205 238.088024 
z
" style="fill:#b2b2b2;"/>
   </g>
   <g id="patch_39">
    <path clip-path="url(#pb72579b1d9)" d="M 127.911023 240.6 
L 132.122841 240.6 
L 132.122841 236.580839 
L 127.911023 236.580839 
z
" style="fill:#b2b2b2;"/>
   </g>
   <g id="patch_40">
    <path clip-path="url(#pb72579b1d9)" d="M 132.122841 240.6 
L 136.334659 240.6 
L 136.334659 238.590419 
L 132.122841 238.590419 
z
" style="fill:#b2b2b2;"/>
   </g>
   <g id="patch_41">
    <path clip-path="url(#pb72579b1d9)" d="M 136.334659 240.6 
L 140.546477 240.6 
L 140.546477 237.083234 
L 136.334659 237.083234 
z
" style="fill:#b2b2b2;"/>
   </g>
   <g id="patch_42">
    <path clip-path="url(#pb72579b1d9)" d="M 140.546477 240.6 
L 144.758295 240.6 
L 144.758295 239.59521 
L 140.546477 239.59521 
z
" style="fill:#b2b2b2;"/>
   </g>
   <g id="patch_43">
    <path clip-path="url(#pb72579b1d9)" d="M 144.758295 240.6 
L 148.970114 240.6 
L 148.970114 239.092814 
L 144.758295 239.092814 
z
" style="fill:#b2b2b2;"/>
   </g>
   <g id="patch_44">
    <path clip-path="url(#pb72579b1d9)" d="M 148.970114 240.6 
L 153.181932 240.6 
L 153.181932 240.097605 
L 148.970114 240.097605 
z
" style="fill:#b2b2b2;"/>
   </g>
   <g id="patch_45">
    <path clip-path="url(#pb72579b1d9)" d="M 153.181932 240.6 
L 157.39375 240.6 
L 157.39375 238.590419 
L 153.181932 238.590419 
z
" style="fill:#b2b2b2;"/>
   </g>
   <g id="patch_46">
    <path clip-path="url(#pb72579b1d9)" d="M 157.39375 240.6 
L 161.605568 240.6 
L 161.605568 239.59521 
L 157.39375 239.59521 
z
" style="fill:#b2b2b2;"/>
   </g>
   <g id="patch_47">
    <path clip-path="url(#pb72579b1d9)" d="M 161.605568 240.6 
L 165.817386 240.6 
L 165.817386 238.590419 
L 161.605568 238.590419 
z
" style="fill:#b2b2b2;"/>
   </g>
   <g id="patch_48">
    <path clip-path="url(#pb72579b1d9)" d="M 165.817386 240.6 
L 170.029205 240.6 
L 170.029205 240.097605 
L 165.817386 240.097605 
z
" style="fill:#b2b2b2;"/>
   </g>
   <g id="patch_49">
    <path clip-path="url(#pb72579b1d9)" d="M 170.029205 240.6 
L 174.241023 240.6 
L 174.241023 240.6 
L 170.029205 240.6 
z
" style="fill:#b2b2b2;"/>
   </g>
   <g id="patch_50">
    <path clip-path="url(#pb72579b1d9)" d="M 174.241023 240.6 
L 178.452841 240.6 
L 178.452841 239.092814 
L 174.241023 239.092814 
z
" style="fill:#b2b2b2;"/>
   </g>
   <g id="patch_51">
    <path clip-path="url(#pb72579b1d9)" d="M 178.452841 240.6 
L 182.664659 240.6 
L 182.664659 240.6 
L 178.452841 240.6 
z
" style="fill:#b2b2b2;"/>
   </g>
   <g id="patch_52">
    <path clip-path="url(#pb72579b1d9)" d="M 182.664659 240.6 
L 186.876477 240.6 
L 186.876477 240.097605 
L 182.664659 240.097605 
z
" style="fill:#b2b2b2;"/>
   </g>
   <g id="patch_53">
    <path clip-path="url(#pb72579b1d9)" d="M 186.876477 240.6 
L 191.088295 240.6 
L 191.088295 239.59521 
L 186.876477 239.59521 
z
" style="fill:#b2b2b2;"/>
   </g>
   <g id="patch_54">
    <path clip-path="url(#pb72579b1d9)" d="M 191.088295 240.6 
L 195.300114 240.6 
L 195.300114 240.097605 
L 191.088295 240.097605 
z
" style="fill:#b2b2b2;"/>
   </g>
   <g id="patch_55">
    <path clip-path="url(#pb72579b1d9)" d="M 195.300114 240.6 
L 199.511932 240.6 
L 199.511932 240.097605 
L 195.300114 240.097605 
z
" style="fill:#b2b2b2;"/>
   </g>
   <g id="patch_56">
    <path clip-path="url(#pb72579b1d9)" d="M 199.511932 240.6 
L 203.72375 240.6 
L 203.72375 240.097605 
L 199.511932 240.097605 
z
" style="fill:#b2b2b2;"/>
   </g>
   <g id="patch_57">
    <path clip-path="url(#pb72579b1d9)" d="M 203.72375 240.6 
L 207.935568 240.6 
L 207.935568 239.59521 
L 203.72375 239.59521 
z
" style="fill:#b2b2b2;"/>
   </g>
   <g id="patch_58">
    <path clip-path="url(#pb72579b1d9)" d="M 207.935568 240.6 
L 212.147386 240.6 
L 212.147386 240.6 
L 207.935568 240.6 
z
" style="fill:#b2b2b2;"/>
   </g>
   <g id="patch_59">
    <path clip-path="url(#pb72579b1d9)" d="M 212.147386 240.6 
L 216.359205 240.6 
L 216.359205 240.6 
L 212.147386 240.6 
z
" style="fill:#b2b2b2;"/>
   </g>
   <g id="patch_60">
    <path clip-path="url(#pb72579b1d9)" d="M 216.359205 240.6 
L 220.571023 240.6 
L 220.571023 240.6 
L 216.359205 240.6 
z
" style="fill:#b2b2b2;"/>
   </g>
   <g id="patch_61">
    <path clip-path="url(#pb72579b1d9)" d="M 220.571023 240.6 
L 224.782841 240.6 
L 224.782841 240.6 
L 220.571023 240.6 
z
" style="fill:#b2b2b2;"/>
   </g>
   <g id="patch_62">
    <path clip-path="url(#pb72579b1d9)" d="M 224.782841 240.6 
L 228.994659 240.6 
L 228.994659 240.6 
L 224.782841 240.6 
z
" style="fill:#b2b2b2;"/>
   </g>
   <g id="patch_63">
    <path clip-path="url(#pb72579b1d9)" d="M 228.994659 240.6 
L 233.206477 240.6 
L 233.206477 240.6 
L 228.994659 240.6 
z
" style="fill:#b2b2b2;"/>
   </g>
   <g id="patch_64">
    <path clip-path="url(#pb72579b1d9)" d="M 233.206477 240.6 
L 237.418295 240.6 
L 237.418295 240.6 
L 233.206477 240.6 
z
" style="fill:#b2b2b2;"/>
   </g>
   <g id="patch_65">
    <path clip-path="url(#pb72579b1d9)" d="M 237.418295 240.6 
L 241.630114 240.6 
L 241.630114 240.6 
L 237.418295 240.6 
z
" style="fill:#b2b2b2;"/>
   </g>
   <g id="patch_66">
    <path clip-path="url(#pb72579b1d9)" d="M 241.630114 240.6 
L 245.841932 240.6 
L 245.841932 240.6 
L 241.630114 240.6 
z
" style="fill:#b2b2b2;"/>
   </g>
   <g id="patch_67">
    <path clip-path="url(#pb72579b1d9)" d="M 245.841932 240.6 
L 250.05375 240.6 
L 250.05375 240.6 
L 245.841932 240.6 
z
" style="fill:#b2b2b2;"/>
   </g>
   <g id="patch_68">
    <path clip-path="url(#pb72579b1d9)" d="M 250.05375 240.6 
L 254.265568 240.6 
L 254.265568 240.6 
L 250.05375 240.6 
z
" style="fill:#b2b2b2;"/>
   </g>
   <g id="patch_69">
    <path clip-path="url(#pb72579b1d9)" d="M 254.265568 240.6 
L 258.477386 240.6 
L 258.477386 240.6 
L 254.265568 240.6 
z
" style="fill:#b2b2b2;"/>
   </g>
   <g id="patch_70">
    <path clip-path="url(#pb72579b1d9)" d="M 258.477386 240.6 
L 262.689205 240.6 
L 262.689205 240.097605 
L 258.477386 240.097605 
z
" style="fill:#b2b2b2;"/>
   </g>
   <g id="matplotlib.axis_3">
    <g id="xtick_15">
     <g id="line2d_18">
      <g>
       <use style="stroke:#000000;stroke-width:0.8;" x="52.034486" xlink:href="#m2d43f2427a" y="240.6"/>
      </g>
     </g>
     <g id="text_20">
      <!-- 0 -->
      <g transform="translate(49.254798 254.890625)scale(0.1 -0.1)">
       <use xlink:href="#NimbusSans-Regular-48"/>
      </g>
     </g>
    </g>
    <g id="xtick_16">
     <g id="line2d_19">
      <g>
       <use style="stroke:#000000;stroke-width:0.8;" x="102.053833" xlink:href="#m2d43f2427a" y="240.6"/>
      </g>
     </g>
     <g id="text_21">
      <!-- 2 -->
      <g transform="translate(99.274145 254.890625)scale(0.1 -0.1)">
       <use xlink:href="#NimbusSans-Regular-50"/>
      </g>
     </g>
    </g>
    <g id="xtick_17">
     <g id="line2d_20">
      <g>
       <use style="stroke:#000000;stroke-width:0.8;" x="152.07318" xlink:href="#m2d43f2427a" y="240.6"/>
      </g>
     </g>
     <g id="text_22">
      <!-- 4 -->
      <g transform="translate(149.293493 254.890625)scale(0.1 -0.1)">
       <use xlink:href="#NimbusSans-Regular-52"/>
      </g>
     </g>
    </g>
    <g id="xtick_18">
     <g id="line2d_21">
      <g>
       <use style="stroke:#000000;stroke-width:0.8;" x="202.092527" xlink:href="#m2d43f2427a" y="240.6"/>
      </g>
     </g>
     <g id="text_23">
      <!-- 6 -->
      <g transform="translate(199.31284 254.890625)scale(0.1 -0.1)">
       <use xlink:href="#NimbusSans-Regular-54"/>
      </g>
     </g>
    </g>
    <g id="xtick_19">
     <g id="line2d_22">
      <g>
       <use style="stroke:#000000;stroke-width:0.8;" x="252.111874" xlink:href="#m2d43f2427a" y="240.6"/>
      </g>
     </g>
     <g id="text_24">
      <!-- 8 -->
      <g transform="translate(249.332187 254.890625)scale(0.1 -0.1)">
       <use xlink:href="#NimbusSans-Regular-56"/>
      </g>
     </g>
    </g>
    <g id="text_25">
     <!-- Latent variable $\lambda$ -->
     <g transform="translate(120.24375 268.360938)scale(0.1 -0.1)">
      <defs>
       <path d="M 17.296875 72.90625 
L 8 72.90625 
L 8 0 
L 53.296875 0 
L 53.296875 8.203125 
L 17.296875 8.203125 
z
" id="NimbusSans-Regular-76"/>
       <path d="M 15.203125 72.90625 
L 6.796875 72.90625 
L 6.796875 0 
L 15.203125 0 
z
" id="NimbusSans-Regular-108"/>
       <path d="M 36.71875 67.4375 
L 48.828125 0 
L 39.3125 0 
L 31.84375 40.4375 
L 5.125 0 
L -4.390625 0 
L 29.734375 52.4375 
L 28.03125 62.109375 
Q 26.953125 68.265625 21.734375 68.265625 
L 17.046875 68.265625 
L 18.5 75.984375 
L 24.21875 75.875 
Q 35.203125 75.734375 36.71875 67.4375 
z
" id="DejaVuSans-Oblique-955"/>
      </defs>
      <use transform="translate(0 0.015625)" xlink:href="#NimbusSans-Regular-76"/>
      <use transform="translate(55.599991 0.015625)" xlink:href="#NimbusSans-Regular-97"/>
      <use transform="translate(111.199982 0.015625)" xlink:href="#NimbusSans-Regular-116"/>
      <use transform="translate(138.999969 0.015625)" xlink:href="#NimbusSans-Regular-101"/>
      <use transform="translate(194.59996 0.015625)" xlink:href="#NimbusSans-Regular-110"/>
      <use transform="translate(250.199951 0.015625)" xlink:href="#NimbusSans-Regular-116"/>
      <use transform="translate(277.999939 0.015625)" xlink:href="#NimbusSans-Regular-32"/>
      <use transform="translate(305.799927 0.015625)" xlink:href="#NimbusSans-Regular-118"/>
      <use transform="translate(355.799911 0.015625)" xlink:href="#NimbusSans-Regular-97"/>
      <use transform="translate(411.399902 0.015625)" xlink:href="#NimbusSans-Regular-114"/>
      <use transform="translate(444.69989 0.015625)" xlink:href="#NimbusSans-Regular-105"/>
      <use transform="translate(466.899887 0.015625)" xlink:href="#NimbusSans-Regular-97"/>
      <use transform="translate(522.499878 0.015625)" xlink:href="#NimbusSans-Regular-98"/>
      <use transform="translate(578.099869 0.015625)" xlink:href="#NimbusSans-Regular-108"/>
      <use transform="translate(600.299866 0.015625)" xlink:href="#NimbusSans-Regular-101"/>
      <use transform="translate(655.899857 0.015625)" xlink:href="#NimbusSans-Regular-32"/>
      <use transform="translate(683.699844 0.015625)" xlink:href="#DejaVuSans-Oblique-955"/>
     </g>
    </g>
   </g>
   <g id="matplotlib.axis_4">
    <g id="ytick_4">
     <g id="line2d_23">
      <g>
       <use style="stroke:#000000;stroke-width:0.8;" x="41.56875" xlink:href="#mf5002a4c81" y="240.6"/>
      </g>
     </g>
     <g id="text_26">
      <!-- 0.0 -->
      <g transform="translate(20.670313 244.245313)scale(0.1 -0.1)">
       <use xlink:href="#NimbusSans-Regular-48"/>
       <use x="55.599991" xlink:href="#NimbusSans-Regular-46"/>
       <use x="83.399979" xlink:href="#NimbusSans-Regular-48"/>
      </g>
     </g>
    </g>
    <g id="ytick_5">
     <g id="line2d_24">
      <g>
       <use style="stroke:#000000;stroke-width:0.8;" x="41.56875" xlink:href="#mf5002a4c81" y="198.296426"/>
      </g>
     </g>
     <g id="text_27">
      <!-- 0.5 -->
      <g transform="translate(20.670313 201.941738)scale(0.1 -0.1)">
       <use xlink:href="#NimbusSans-Regular-48"/>
       <use x="55.599991" xlink:href="#NimbusSans-Regular-46"/>
       <use x="83.399979" xlink:href="#NimbusSans-Regular-53"/>
      </g>
     </g>
    </g>
    <g id="ytick_6">
     <g id="line2d_25">
      <g>
       <use style="stroke:#000000;stroke-width:0.8;" x="41.56875" xlink:href="#mf5002a4c81" y="155.992852"/>
      </g>
     </g>
     <g id="text_28">
      <!-- 1.0 -->
      <g transform="translate(20.670313 159.638164)scale(0.1 -0.1)">
       <use xlink:href="#NimbusSans-Regular-49"/>
       <use x="55.599991" xlink:href="#NimbusSans-Regular-46"/>
       <use x="83.399979" xlink:href="#NimbusSans-Regular-48"/>
      </g>
     </g>
    </g>
    <g id="text_29">
     <!-- Density -->
     <g transform="translate(14.490625 209.869531)rotate(-90)scale(0.1 -0.1)">
      <use xlink:href="#NimbusSans-Regular-68"/>
      <use x="72.199982" xlink:href="#NimbusSans-Regular-101"/>
      <use x="127.799973" xlink:href="#NimbusSans-Regular-110"/>
      <use x="183.399963" xlink:href="#NimbusSans-Regular-115"/>
      <use x="233.399948" xlink:href="#NimbusSans-Regular-105"/>
      <use x="255.599945" xlink:href="#NimbusSans-Regular-116"/>
      <use x="283.399933" xlink:href="#NimbusSans-Regular-121"/>
     </g>
    </g>
   </g>
   <g id="line2d_26">
    <path clip-path="url(#pb72579b1d9)" d="M 52.098295 156.208443 
L 54.627916 164.326797 
L 57.157537 171.664176 
L 59.687157 178.295709 
L 62.216778 184.289297 
L 64.746398 189.70631 
L 67.276019 194.602214 
L 69.805639 199.027139 
L 72.33526 203.026392 
L 74.86488 206.640922 
L 77.605302 210.165351 
L 80.345725 213.323999 
L 83.086147 216.154828 
L 86.037371 218.875744 
L 88.988595 221.293803 
L 92.150621 223.586723 
L 95.312646 225.607322 
L 98.685474 227.498837 
L 102.269103 229.247803 
L 106.063533 230.845851 
L 110.068766 232.289287 
L 114.495602 233.637487 
L 119.133239 234.815935 
L 124.192481 235.875247 
L 129.884127 236.836921 
L 136.208178 237.677693 
L 143.375436 238.405852 
L 151.807505 239.033817 
L 161.925987 239.554956 
L 174.363288 239.964435 
L 190.805821 240.270668 
L 214.626414 240.472946 
L 256.997558 240.576654 
L 262.689205 240.581406 
L 262.689205 240.581406 
" style="fill:none;stroke:#000000;stroke-linecap:square;stroke-width:2;"/>
   </g>
   <g id="line2d_27">
    <path clip-path="url(#pb72579b1d9)" d="M 52.098295 150.314286 
L 52.941502 154.477315 
L 54.417114 160.552577 
L 56.31433 167.348561 
L 58.211545 173.357382 
L 60.319562 179.313614 
L 62.427579 184.643387 
L 64.746398 189.894969 
L 67.065217 194.59673 
L 69.384036 198.821695 
L 71.913656 202.955939 
L 74.443277 206.655665 
L 76.972897 209.97327 
L 79.71332 213.187352 
L 82.453742 216.052793 
L 85.194164 218.610559 
L 88.145388 221.061385 
L 91.096612 223.234363 
L 94.258638 225.291557 
L 97.631465 227.215341 
L 101.215094 228.993281 
L 105.009525 230.61783 
L 109.014757 232.085876 
L 113.230792 233.398215 
L 117.868429 234.609321 
L 122.92767 235.699598 
L 128.619316 236.691119 
L 134.943368 237.559718 
L 142.110626 238.313612 
L 150.331893 238.951512 
L 160.239573 239.488924 
L 172.466072 239.917476 
L 188.276201 240.236736 
L 210.831984 240.452387 
L 249.408697 240.568398 
L 262.689205 240.581414 
L 262.689205 240.581414 
" style="fill:none;stroke:#1b9e77;stroke-linecap:square;"/>
   </g>
   <g id="line2d_28">
    <path clip-path="url(#pb72579b1d9)" d="M 52.098295 153.08976 
L 52.730701 156.526212 
L 53.573907 159.771283 
L 55.049519 164.420234 
L 57.789942 172.181651 
L 60.741166 179.906411 
L 63.270786 185.946705 
L 65.800407 191.424923 
L 68.330027 196.362448 
L 70.859648 200.79908 
L 73.389268 204.779778 
L 75.918889 208.349219 
L 78.448509 211.549528 
L 81.188932 214.644894 
L 83.929354 217.397135 
L 86.669776 219.846071 
L 89.621 222.184537 
L 92.572224 224.250723 
L 95.73425 226.200447 
L 99.107077 228.018278 
L 102.690706 229.693975 
L 106.485137 231.221964 
L 110.490369 232.600702 
L 114.917205 233.888371 
L 119.765645 235.061249 
L 125.035687 236.104638 
L 130.938135 237.041936 
L 137.472988 237.853967 
L 145.06185 238.56803 
L 153.915522 239.170658 
L 164.666409 239.668138 
L 178.157719 240.055654 
L 196.075864 240.333698 
L 223.058483 240.509368 
L 262.689205 240.581409 
L 262.689205 240.581409 
" style="fill:none;stroke:#d95f02;stroke-linecap:square;"/>
   </g>
   <g id="line2d_29">
    <path clip-path="url(#pb72579b1d9)" d="M 52.098295 169.348249 
L 52.309097 163.801022 
L 52.730701 160.444798 
L 52.941502 159.845708 
L 53.152304 159.581728 
L 53.363106 159.542746 
L 53.784709 159.902688 
L 54.417114 161.082155 
L 55.471123 163.841457 
L 58.211545 172.104917 
L 60.741166 179.364629 
L 63.059984 185.337588 
L 65.378803 190.663499 
L 67.697622 195.40924 
L 70.016441 199.647959 
L 72.33526 203.445514 
L 74.86488 207.150793 
L 77.394501 210.458243 
L 79.924121 213.418053 
L 82.664544 216.28067 
L 85.404966 218.829167 
L 88.35619 221.26566 
L 91.307414 223.421778 
L 94.469439 225.459625 
L 97.842267 227.362488 
L 101.425896 229.118795 
L 105.220327 230.721806 
L 109.225559 232.169131 
L 113.652395 233.521293 
L 118.290033 234.704304 
L 123.349274 235.769424 
L 129.04092 236.738668 
L 135.364971 237.588796 
L 142.743031 238.346872 
L 151.1751 238.982547 
L 161.293582 239.513578 
L 173.730883 239.93422 
L 189.962614 240.24901 
L 213.361604 240.460865 
L 253.835533 240.572092 
L 262.689205 240.580378 
L 262.689205 240.580378 
" style="fill:none;stroke:#7570b3;stroke-linecap:square;"/>
   </g>
   <g id="line2d_30">
    <path clip-path="url(#pb72579b1d9)" d="M 52.098295 157.059063 
L 52.309097 156.658848 
L 52.519899 156.764962 
L 52.941502 157.357199 
L 53.784709 159.151325 
L 55.049519 162.510952 
L 58.422347 172.458965 
L 61.162769 180.146598 
L 63.481588 186.018708 
L 65.800407 191.28493 
L 68.119225 195.990241 
L 70.438044 200.19721 
L 72.756863 203.967636 
L 75.286484 207.647226 
L 77.816104 210.932699 
L 80.345725 213.873913 
L 83.086147 216.71956 
L 85.826569 219.253572 
L 88.777793 221.676207 
L 91.729017 223.819357 
L 94.891043 225.843462 
L 98.26387 227.731261 
L 101.847499 229.470773 
L 105.64193 231.055046 
L 109.647163 232.481708 
L 114.073998 233.810401 
L 118.711636 234.968633 
L 123.981679 236.045946 
L 129.673325 236.978426 
L 136.208178 237.815448 
L 143.586238 238.529889 
L 152.229108 239.136868 
L 162.558392 239.633245 
L 175.628098 240.027474 
L 192.913838 240.313498 
L 218.631647 240.49764 
L 262.689205 240.582428 
L 262.689205 240.582428 
" style="fill:none;stroke:#e7298a;stroke-linecap:square;"/>
   </g>
   <g id="patch_71">
    <path d="M 41.56875 240.6 
L 41.56875 145.8 
" style="fill:none;stroke:#000000;stroke-linecap:square;stroke-linejoin:miter;stroke-width:0.8;"/>
   </g>
   <g id="patch_72">
    <path d="M 273.21875 240.6 
L 273.21875 145.8 
" style="fill:none;stroke:#000000;stroke-linecap:square;stroke-linejoin:miter;stroke-width:0.8;"/>
   </g>
   <g id="patch_73">
    <path d="M 41.56875 240.6 
L 273.21875 240.6 
" style="fill:none;stroke:#000000;stroke-linecap:square;stroke-linejoin:miter;stroke-width:0.8;"/>
   </g>
   <g id="patch_74">
    <path d="M 41.56875 145.8 
L 273.21875 145.8 
" style="fill:none;stroke:#000000;stroke-linecap:square;stroke-linejoin:miter;stroke-width:0.8;"/>
   </g>
   <g id="legend_1">
    <g id="line2d_31">
     <path d="M 191.760937 158.590625 
L 211.760937 158.590625 
" style="fill:none;stroke:#000000;stroke-linecap:square;stroke-width:2;"/>
    </g>
    <g id="line2d_32"/>
    <g id="text_30">
     <!-- Simulated -->
     <g transform="translate(219.760937 162.090625)scale(0.1 -0.1)">
      <defs>
       <path d="M 59.59375 51.5 
C 59.59375 56.5 59.296875 57.90625 57.703125 61.296875 
C 53.703125 69.703125 45.203125 74.09375 32.90625 74.09375 
C 16.90625 74.09375 7 65.90625 7 52.703125 
C 7 43.796875 11.703125 38.203125 21.296875 35.703125 
L 39.40625 30.90625 
C 48.703125 28.5 52.796875 24.796875 52.796875 19.09375 
C 52.796875 15.203125 50.703125 11.203125 47.59375 9 
C 44.703125 6.90625 40.09375 5.90625 34.203125 5.90625 
C 26.203125 5.90625 20.90625 7.796875 17.40625 12 
C 14.703125 15.203125 13.5 18.703125 13.59375 23.203125 
L 4.796875 23.203125 
C 4.90625 16.5 6.203125 12.09375 9.09375 8.09375 
C 14.09375 1.203125 22.5 -2.296875 33.59375 -2.296875 
C 42.296875 -2.296875 49.40625 -0.296875 54.09375 3.296875 
C 59 7.203125 62.09375 13.703125 62.09375 20 
C 62.09375 29 56.5 35.59375 46.59375 38.296875 
L 28.296875 43.203125 
C 19.5 45.59375 16.296875 48.40625 16.296875 54 
C 16.296875 61.40625 22.796875 66.296875 32.59375 66.296875 
C 44.203125 66.296875 50.703125 61.09375 50.796875 51.5 
z
" id="NimbusSans-Regular-83"/>
       <path d="M 7 52.40625 
L 7 0 
L 15.40625 0 
L 15.40625 32.90625 
C 15.40625 40.5 20.90625 46.59375 27.703125 46.59375 
C 33.90625 46.59375 37.40625 42.796875 37.40625 36.09375 
L 37.40625 0 
L 45.796875 0 
L 45.796875 32.90625 
C 45.796875 40.5 51.296875 46.59375 58.09375 46.59375 
C 64.203125 46.59375 67.796875 42.703125 67.796875 36.09375 
L 67.796875 0 
L 76.203125 0 
L 76.203125 39.296875 
C 76.203125 48.703125 70.796875 53.90625 61 53.90625 
C 54 53.90625 49.796875 51.796875 44.90625 45.90625 
C 41.796875 51.5 37.59375 53.90625 30.796875 53.90625 
C 23.796875 53.90625 19.09375 51.296875 14.703125 45 
L 14.703125 52.40625 
z
" id="NimbusSans-Regular-109"/>
       <path d="M 48.203125 0 
L 48.203125 52.40625 
L 39.90625 52.40625 
L 39.90625 22.703125 
C 39.90625 12 34.296875 5 25.59375 5 
C 19 5 14.796875 9 14.796875 15.296875 
L 14.796875 52.40625 
L 6.5 52.40625 
L 6.5 12 
C 6.5 3.296875 13 -2.296875 23.203125 -2.296875 
C 30.90625 -2.296875 35.796875 0.40625 40.703125 7.296875 
L 40.703125 0 
z
" id="NimbusSans-Regular-117"/>
       <path d="M 49.5 72.90625 
L 41.203125 72.90625 
L 41.203125 45.796875 
C 37.703125 51.09375 32.09375 53.90625 25.09375 53.90625 
C 11.5 53.90625 2.59375 43 2.59375 26.296875 
C 2.59375 8.59375 11.203125 -2.296875 25.40625 -2.296875 
C 32.59375 -2.296875 37.59375 0.40625 42.09375 6.90625 
L 42.09375 0 
L 49.5 0 
z
M 26.5 46.09375 
C 35.5 46.09375 41.203125 38.203125 41.203125 25.59375 
C 41.203125 13.5 35.40625 5.5 26.59375 5.5 
C 17.40625 5.5 11.296875 13.59375 11.296875 25.796875 
C 11.296875 38 17.40625 46.09375 26.5 46.09375 
z
" id="NimbusSans-Regular-100"/>
      </defs>
      <use xlink:href="#NimbusSans-Regular-83"/>
      <use x="66.699997" xlink:href="#NimbusSans-Regular-105"/>
      <use x="88.899994" xlink:href="#NimbusSans-Regular-109"/>
      <use x="172.199982" xlink:href="#NimbusSans-Regular-117"/>
      <use x="227.799973" xlink:href="#NimbusSans-Regular-108"/>
      <use x="249.999969" xlink:href="#NimbusSans-Regular-97"/>
      <use x="305.59996" xlink:href="#NimbusSans-Regular-116"/>
      <use x="333.399948" xlink:href="#NimbusSans-Regular-101"/>
      <use x="388.999939" xlink:href="#NimbusSans-Regular-100"/>
     </g>
    </g>
    <g id="line2d_33">
     <path d="M 191.760937 173.060937 
L 211.760937 173.060937 
" style="fill:none;stroke:#1b9e77;stroke-linecap:square;"/>
    </g>
    <g id="line2d_34"/>
    <g id="text_31">
     <!-- K = 1 -->
     <g transform="translate(219.760937 176.560937)scale(0.1 -0.1)">
      <defs>
       <path d="M 17.203125 25.5 
L 29.09375 37.40625 
L 54.796875 0 
L 65.796875 0 
L 35.796875 43.203125 
L 65.5 72.90625 
L 53.5 72.90625 
L 17.203125 36 
L 17.203125 72.90625 
L 7.90625 72.90625 
L 7.90625 0 
L 17.203125 0 
z
" id="NimbusSans-Regular-75"/>
       <path d="M 53.40625 35.296875 
L 5 35.296875 
L 5 28.296875 
L 53.40625 28.296875 
z
M 53.40625 18.09375 
L 5 18.09375 
L 5 11.09375 
L 53.40625 11.09375 
z
" id="NimbusSans-Regular-61"/>
      </defs>
      <use xlink:href="#NimbusSans-Regular-75"/>
      <use x="66.699997" xlink:href="#NimbusSans-Regular-32"/>
      <use x="94.499985" xlink:href="#NimbusSans-Regular-61"/>
      <use x="152.899979" xlink:href="#NimbusSans-Regular-32"/>
      <use x="180.699966" xlink:href="#NimbusSans-Regular-49"/>
     </g>
    </g>
    <g id="line2d_35">
     <path d="M 191.760937 187.53125 
L 211.760937 187.53125 
" style="fill:none;stroke:#d95f02;stroke-linecap:square;"/>
    </g>
    <g id="line2d_36"/>
    <g id="text_32">
     <!-- K = 2 -->
     <g transform="translate(219.760937 191.03125)scale(0.1 -0.1)">
      <use xlink:href="#NimbusSans-Regular-75"/>
      <use x="66.699997" xlink:href="#NimbusSans-Regular-32"/>
      <use x="94.499985" xlink:href="#NimbusSans-Regular-61"/>
      <use x="152.899979" xlink:href="#NimbusSans-Regular-32"/>
      <use x="180.699966" xlink:href="#NimbusSans-Regular-50"/>
     </g>
    </g>
    <g id="line2d_37">
     <path d="M 191.760937 202.001562 
L 211.760937 202.001562 
" style="fill:none;stroke:#7570b3;stroke-linecap:square;"/>
    </g>
    <g id="line2d_38"/>
    <g id="text_33">
     <!-- K = 3 -->
     <g transform="translate(219.760937 205.501562)scale(0.1 -0.1)">
      <use xlink:href="#NimbusSans-Regular-75"/>
      <use x="66.699997" xlink:href="#NimbusSans-Regular-32"/>
      <use x="94.499985" xlink:href="#NimbusSans-Regular-61"/>
      <use x="152.899979" xlink:href="#NimbusSans-Regular-32"/>
      <use x="180.699966" xlink:href="#NimbusSans-Regular-51"/>
     </g>
    </g>
    <g id="line2d_39">
     <path d="M 191.760937 216.471875 
L 211.760937 216.471875 
" style="fill:none;stroke:#e7298a;stroke-linecap:square;"/>
    </g>
    <g id="line2d_40"/>
    <g id="text_34">
     <!-- K = 4 -->
     <g transform="translate(219.760937 219.971875)scale(0.1 -0.1)">
      <use xlink:href="#NimbusSans-Regular-75"/>
      <use x="66.699997" xlink:href="#NimbusSans-Regular-32"/>
      <use x="94.499985" xlink:href="#NimbusSans-Regular-61"/>
      <use x="152.899979" xlink:href="#NimbusSans-Regular-32"/>
      <use x="180.699966" xlink:href="#NimbusSans-Regular-52"/>
     </g>
    </g>
   </g>
  </g>
 </g>
 <defs>
  <clipPath id="p10867d0d6e">
   <rect height="94.8" width="231.65" x="41.56875" y="7.2"/>
  </clipPath>
  <clipPath id="pb72579b1d9">
   <rect height="94.8" width="231.65" x="41.56875" y="145.8"/>
  </clipPath>
 </defs>
</svg>
