<?xml version="1.0" encoding="utf-8" standalone="no"?>
<!DOCTYPE svg PUBLIC "-//W3C//DTD SVG 1.1//EN"
  "http://www.w3.org/Graphics/SVG/1.1/DTD/svg11.dtd">
<!-- Created with matplotlib (https://matplotlib.org/) -->
<svg height="279.489375pt" version="1.1" viewBox="0 0 352.65625 279.489375" width="352.65625pt" xmlns="http://www.w3.org/2000/svg" xmlns:xlink="http://www.w3.org/1999/xlink">
 <metadata>
  <rdf:RDF xmlns:cc="http://creativecommons.org/ns#" xmlns:dc="http://purl.org/dc/elements/1.1/" xmlns:rdf="http://www.w3.org/1999/02/22-rdf-syntax-ns#">
   <cc:Work>
    <dc:type rdf:resource="http://purl.org/dc/dcmitype/StillImage"/>
    <dc:date>2021-03-10T13:10:09.694869</dc:date>
    <dc:format>image/svg+xml</dc:format>
    <dc:creator>
     <cc:Agent>
      <dc:title>Matplotlib v3.3.4, https://matplotlib.org/</dc:title>
     </cc:Agent>
    </dc:creator>
   </cc:Work>
  </rdf:RDF>
 </metadata>
 <defs>
  <style type="text/css">*{stroke-linecap:butt;stroke-linejoin:round;}</style>
 </defs>
 <g id="figure_1">
  <g id="patch_1">
   <path d="M 0 279.489375 
L 352.65625 279.489375 
L 352.65625 0 
L 0 0 
z
" style="fill:#ffffff;"/>
  </g>
  <g id="axes_1">
   <g id="patch_2">
    <path d="M 49.907813 111.24875 
L 258.057813 111.24875 
L 258.057813 21.94875 
L 49.907813 21.94875 
z
" style="fill:#ffffff;"/>
   </g>
   <g id="patch_3">
    <path clip-path="url(#p63ff921066)" d="M 59.369176 111.24875 
L 61.097279 111.24875 
L 61.097279 111.24875 
L 59.369176 111.24875 
z
" style="fill:#b2b2b2;"/>
   </g>
   <g id="patch_4">
    <path clip-path="url(#p63ff921066)" d="M 61.097279 111.24875 
L 62.825382 111.24875 
L 62.825382 111.24875 
L 61.097279 111.24875 
z
" style="fill:#b2b2b2;"/>
   </g>
   <g id="patch_5">
    <path clip-path="url(#p63ff921066)" d="M 62.825382 111.24875 
L 64.553485 111.24875 
L 64.553485 111.24875 
L 62.825382 111.24875 
z
" style="fill:#b2b2b2;"/>
   </g>
   <g id="patch_6">
    <path clip-path="url(#p63ff921066)" d="M 64.553485 111.24875 
L 66.281588 111.24875 
L 66.281588 111.24875 
L 64.553485 111.24875 
z
" style="fill:#b2b2b2;"/>
   </g>
   <g id="patch_7">
    <path clip-path="url(#p63ff921066)" d="M 66.281588 111.24875 
L 68.009691 111.24875 
L 68.009691 111.24875 
L 66.281588 111.24875 
z
" style="fill:#b2b2b2;"/>
   </g>
   <g id="patch_8">
    <path clip-path="url(#p63ff921066)" d="M 68.009691 111.24875 
L 69.737794 111.24875 
L 69.737794 111.24875 
L 68.009691 111.24875 
z
" style="fill:#b2b2b2;"/>
   </g>
   <g id="patch_9">
    <path clip-path="url(#p63ff921066)" d="M 69.737794 111.24875 
L 71.465897 111.24875 
L 71.465897 111.24875 
L 69.737794 111.24875 
z
" style="fill:#b2b2b2;"/>
   </g>
   <g id="patch_10">
    <path clip-path="url(#p63ff921066)" d="M 71.465897 111.24875 
L 73.194 111.24875 
L 73.194 97.074147 
L 71.465897 97.074147 
z
" style="fill:#b2b2b2;"/>
   </g>
   <g id="patch_11">
    <path clip-path="url(#p63ff921066)" d="M 73.194 111.24875 
L 74.922103 111.24875 
L 74.922103 82.899544 
L 73.194 82.899544 
z
" style="fill:#b2b2b2;"/>
   </g>
   <g id="patch_12">
    <path clip-path="url(#p63ff921066)" d="M 74.922103 111.24875 
L 76.650206 111.24875 
L 76.650206 97.074147 
L 74.922103 97.074147 
z
" style="fill:#b2b2b2;"/>
   </g>
   <g id="patch_13">
    <path clip-path="url(#p63ff921066)" d="M 76.650206 111.24875 
L 78.378309 111.24875 
L 78.378309 104.161448 
L 76.650206 104.161448 
z
" style="fill:#b2b2b2;"/>
   </g>
   <g id="patch_14">
    <path clip-path="url(#p63ff921066)" d="M 78.378309 111.24875 
L 80.106412 111.24875 
L 80.106412 97.074147 
L 78.378309 97.074147 
z
" style="fill:#b2b2b2;"/>
   </g>
   <g id="patch_15">
    <path clip-path="url(#p63ff921066)" d="M 80.106412 111.24875 
L 81.834514 111.24875 
L 81.834514 104.161448 
L 80.106412 104.161448 
z
" style="fill:#b2b2b2;"/>
   </g>
   <g id="patch_16">
    <path clip-path="url(#p63ff921066)" d="M 81.834514 111.24875 
L 83.562617 111.24875 
L 83.562617 104.161448 
L 81.834514 104.161448 
z
" style="fill:#b2b2b2;"/>
   </g>
   <g id="patch_17">
    <path clip-path="url(#p63ff921066)" d="M 83.562617 111.24875 
L 85.29072 111.24875 
L 85.29072 75.812242 
L 83.562617 75.812242 
z
" style="fill:#b2b2b2;"/>
   </g>
   <g id="patch_18">
    <path clip-path="url(#p63ff921066)" d="M 85.29072 111.24875 
L 87.018823 111.24875 
L 87.018823 89.986845 
L 85.29072 89.986845 
z
" style="fill:#b2b2b2;"/>
   </g>
   <g id="patch_19">
    <path clip-path="url(#p63ff921066)" d="M 87.018823 111.24875 
L 88.746926 111.24875 
L 88.746926 104.161448 
L 87.018823 104.161448 
z
" style="fill:#b2b2b2;"/>
   </g>
   <g id="patch_20">
    <path clip-path="url(#p63ff921066)" d="M 88.746926 111.24875 
L 90.475029 111.24875 
L 90.475029 104.161448 
L 88.746926 104.161448 
z
" style="fill:#b2b2b2;"/>
   </g>
   <g id="patch_21">
    <path clip-path="url(#p63ff921066)" d="M 90.475029 111.24875 
L 92.203132 111.24875 
L 92.203132 104.161448 
L 90.475029 104.161448 
z
" style="fill:#b2b2b2;"/>
   </g>
   <g id="patch_22">
    <path clip-path="url(#p63ff921066)" d="M 92.203132 111.24875 
L 93.931235 111.24875 
L 93.931235 68.72494 
L 92.203132 68.72494 
z
" style="fill:#b2b2b2;"/>
   </g>
   <g id="patch_23">
    <path clip-path="url(#p63ff921066)" d="M 93.931235 111.24875 
L 95.659338 111.24875 
L 95.659338 104.161448 
L 93.931235 104.161448 
z
" style="fill:#b2b2b2;"/>
   </g>
   <g id="patch_24">
    <path clip-path="url(#p63ff921066)" d="M 95.659338 111.24875 
L 97.387441 111.24875 
L 97.387441 104.161448 
L 95.659338 104.161448 
z
" style="fill:#b2b2b2;"/>
   </g>
   <g id="patch_25">
    <path clip-path="url(#p63ff921066)" d="M 97.387441 111.24875 
L 99.115544 111.24875 
L 99.115544 97.074147 
L 97.387441 97.074147 
z
" style="fill:#b2b2b2;"/>
   </g>
   <g id="patch_26">
    <path clip-path="url(#p63ff921066)" d="M 99.115544 111.24875 
L 100.843647 111.24875 
L 100.843647 82.899544 
L 99.115544 82.899544 
z
" style="fill:#b2b2b2;"/>
   </g>
   <g id="patch_27">
    <path clip-path="url(#p63ff921066)" d="M 100.843647 111.24875 
L 102.57175 111.24875 
L 102.57175 97.074147 
L 100.843647 97.074147 
z
" style="fill:#b2b2b2;"/>
   </g>
   <g id="patch_28">
    <path clip-path="url(#p63ff921066)" d="M 102.57175 111.24875 
L 104.299853 111.24875 
L 104.299853 82.899544 
L 102.57175 82.899544 
z
" style="fill:#b2b2b2;"/>
   </g>
   <g id="patch_29">
    <path clip-path="url(#p63ff921066)" d="M 104.299853 111.24875 
L 106.027956 111.24875 
L 106.027956 75.812242 
L 104.299853 75.812242 
z
" style="fill:#b2b2b2;"/>
   </g>
   <g id="patch_30">
    <path clip-path="url(#p63ff921066)" d="M 106.027956 111.24875 
L 107.756059 111.24875 
L 107.756059 97.074147 
L 106.027956 97.074147 
z
" style="fill:#b2b2b2;"/>
   </g>
   <g id="patch_31">
    <path clip-path="url(#p63ff921066)" d="M 107.756059 111.24875 
L 109.484162 111.24875 
L 109.484162 82.899544 
L 107.756059 82.899544 
z
" style="fill:#b2b2b2;"/>
   </g>
   <g id="patch_32">
    <path clip-path="url(#p63ff921066)" d="M 109.484162 111.24875 
L 111.212265 111.24875 
L 111.212265 104.161448 
L 109.484162 104.161448 
z
" style="fill:#b2b2b2;"/>
   </g>
   <g id="patch_33">
    <path clip-path="url(#p63ff921066)" d="M 111.212265 111.24875 
L 112.940368 111.24875 
L 112.940368 104.161448 
L 111.212265 104.161448 
z
" style="fill:#b2b2b2;"/>
   </g>
   <g id="patch_34">
    <path clip-path="url(#p63ff921066)" d="M 112.940368 111.24875 
L 114.66847 111.24875 
L 114.66847 75.812242 
L 112.940368 75.812242 
z
" style="fill:#b2b2b2;"/>
   </g>
   <g id="patch_35">
    <path clip-path="url(#p63ff921066)" d="M 114.66847 111.24875 
L 116.396573 111.24875 
L 116.396573 89.986845 
L 114.66847 89.986845 
z
" style="fill:#b2b2b2;"/>
   </g>
   <g id="patch_36">
    <path clip-path="url(#p63ff921066)" d="M 116.396573 111.24875 
L 118.124676 111.24875 
L 118.124676 75.812242 
L 116.396573 75.812242 
z
" style="fill:#b2b2b2;"/>
   </g>
   <g id="patch_37">
    <path clip-path="url(#p63ff921066)" d="M 118.124676 111.24875 
L 119.852779 111.24875 
L 119.852779 89.986845 
L 118.124676 89.986845 
z
" style="fill:#b2b2b2;"/>
   </g>
   <g id="patch_38">
    <path clip-path="url(#p63ff921066)" d="M 119.852779 111.24875 
L 121.580882 111.24875 
L 121.580882 61.637639 
L 119.852779 61.637639 
z
" style="fill:#b2b2b2;"/>
   </g>
   <g id="patch_39">
    <path clip-path="url(#p63ff921066)" d="M 121.580882 111.24875 
L 123.308985 111.24875 
L 123.308985 68.72494 
L 121.580882 68.72494 
z
" style="fill:#b2b2b2;"/>
   </g>
   <g id="patch_40">
    <path clip-path="url(#p63ff921066)" d="M 123.308985 111.24875 
L 125.037088 111.24875 
L 125.037088 68.72494 
L 123.308985 68.72494 
z
" style="fill:#b2b2b2;"/>
   </g>
   <g id="patch_41">
    <path clip-path="url(#p63ff921066)" d="M 125.037088 111.24875 
L 126.765191 111.24875 
L 126.765191 26.201131 
L 125.037088 26.201131 
z
" style="fill:#b2b2b2;"/>
   </g>
   <g id="patch_42">
    <path clip-path="url(#p63ff921066)" d="M 126.765191 111.24875 
L 128.493294 111.24875 
L 128.493294 61.637639 
L 126.765191 61.637639 
z
" style="fill:#b2b2b2;"/>
   </g>
   <g id="patch_43">
    <path clip-path="url(#p63ff921066)" d="M 128.493294 111.24875 
L 130.221397 111.24875 
L 130.221397 97.074147 
L 128.493294 97.074147 
z
" style="fill:#b2b2b2;"/>
   </g>
   <g id="patch_44">
    <path clip-path="url(#p63ff921066)" d="M 130.221397 111.24875 
L 131.9495 111.24875 
L 131.9495 75.812242 
L 130.221397 75.812242 
z
" style="fill:#b2b2b2;"/>
   </g>
   <g id="patch_45">
    <path clip-path="url(#p63ff921066)" d="M 131.9495 111.24875 
L 133.677603 111.24875 
L 133.677603 61.637639 
L 131.9495 61.637639 
z
" style="fill:#b2b2b2;"/>
   </g>
   <g id="patch_46">
    <path clip-path="url(#p63ff921066)" d="M 133.677603 111.24875 
L 135.405706 111.24875 
L 135.405706 61.637639 
L 133.677603 61.637639 
z
" style="fill:#b2b2b2;"/>
   </g>
   <g id="patch_47">
    <path clip-path="url(#p63ff921066)" d="M 135.405706 111.24875 
L 137.133809 111.24875 
L 137.133809 54.550337 
L 135.405706 54.550337 
z
" style="fill:#b2b2b2;"/>
   </g>
   <g id="patch_48">
    <path clip-path="url(#p63ff921066)" d="M 137.133809 111.24875 
L 138.861912 111.24875 
L 138.861912 26.201131 
L 137.133809 26.201131 
z
" style="fill:#b2b2b2;"/>
   </g>
   <g id="patch_49">
    <path clip-path="url(#p63ff921066)" d="M 138.861912 111.24875 
L 140.590015 111.24875 
L 140.590015 75.812242 
L 138.861912 75.812242 
z
" style="fill:#b2b2b2;"/>
   </g>
   <g id="patch_50">
    <path clip-path="url(#p63ff921066)" d="M 140.590015 111.24875 
L 142.318118 111.24875 
L 142.318118 54.550337 
L 140.590015 54.550337 
z
" style="fill:#b2b2b2;"/>
   </g>
   <g id="patch_51">
    <path clip-path="url(#p63ff921066)" d="M 142.318118 111.24875 
L 144.046221 111.24875 
L 144.046221 68.72494 
L 142.318118 68.72494 
z
" style="fill:#b2b2b2;"/>
   </g>
   <g id="patch_52">
    <path clip-path="url(#p63ff921066)" d="M 144.046221 111.24875 
L 145.774324 111.24875 
L 145.774324 61.637639 
L 144.046221 61.637639 
z
" style="fill:#b2b2b2;"/>
   </g>
   <g id="patch_53">
    <path clip-path="url(#p63ff921066)" d="M 145.774324 111.24875 
L 147.502426 111.24875 
L 147.502426 61.637639 
L 145.774324 61.637639 
z
" style="fill:#b2b2b2;"/>
   </g>
   <g id="patch_54">
    <path clip-path="url(#p63ff921066)" d="M 147.502426 111.24875 
L 149.230529 111.24875 
L 149.230529 82.899544 
L 147.502426 82.899544 
z
" style="fill:#b2b2b2;"/>
   </g>
   <g id="patch_55">
    <path clip-path="url(#p63ff921066)" d="M 149.230529 111.24875 
L 150.958632 111.24875 
L 150.958632 75.812242 
L 149.230529 75.812242 
z
" style="fill:#b2b2b2;"/>
   </g>
   <g id="patch_56">
    <path clip-path="url(#p63ff921066)" d="M 150.958632 111.24875 
L 152.686735 111.24875 
L 152.686735 75.812242 
L 150.958632 75.812242 
z
" style="fill:#b2b2b2;"/>
   </g>
   <g id="patch_57">
    <path clip-path="url(#p63ff921066)" d="M 152.686735 111.24875 
L 154.414838 111.24875 
L 154.414838 111.24875 
L 152.686735 111.24875 
z
" style="fill:#b2b2b2;"/>
   </g>
   <g id="patch_58">
    <path clip-path="url(#p63ff921066)" d="M 154.414838 111.24875 
L 156.142941 111.24875 
L 156.142941 54.550337 
L 154.414838 54.550337 
z
" style="fill:#b2b2b2;"/>
   </g>
   <g id="patch_59">
    <path clip-path="url(#p63ff921066)" d="M 156.142941 111.24875 
L 157.871044 111.24875 
L 157.871044 75.812242 
L 156.142941 75.812242 
z
" style="fill:#b2b2b2;"/>
   </g>
   <g id="patch_60">
    <path clip-path="url(#p63ff921066)" d="M 157.871044 111.24875 
L 159.599147 111.24875 
L 159.599147 97.074147 
L 157.871044 97.074147 
z
" style="fill:#b2b2b2;"/>
   </g>
   <g id="patch_61">
    <path clip-path="url(#p63ff921066)" d="M 159.599147 111.24875 
L 161.32725 111.24875 
L 161.32725 68.72494 
L 159.599147 68.72494 
z
" style="fill:#b2b2b2;"/>
   </g>
   <g id="patch_62">
    <path clip-path="url(#p63ff921066)" d="M 161.32725 111.24875 
L 163.055353 111.24875 
L 163.055353 75.812242 
L 161.32725 75.812242 
z
" style="fill:#b2b2b2;"/>
   </g>
   <g id="patch_63">
    <path clip-path="url(#p63ff921066)" d="M 163.055353 111.24875 
L 164.783456 111.24875 
L 164.783456 82.899544 
L 163.055353 82.899544 
z
" style="fill:#b2b2b2;"/>
   </g>
   <g id="patch_64">
    <path clip-path="url(#p63ff921066)" d="M 164.783456 111.24875 
L 166.511559 111.24875 
L 166.511559 68.72494 
L 164.783456 68.72494 
z
" style="fill:#b2b2b2;"/>
   </g>
   <g id="patch_65">
    <path clip-path="url(#p63ff921066)" d="M 166.511559 111.24875 
L 168.239662 111.24875 
L 168.239662 89.986845 
L 166.511559 89.986845 
z
" style="fill:#b2b2b2;"/>
   </g>
   <g id="patch_66">
    <path clip-path="url(#p63ff921066)" d="M 168.239662 111.24875 
L 169.967765 111.24875 
L 169.967765 61.637639 
L 168.239662 61.637639 
z
" style="fill:#b2b2b2;"/>
   </g>
   <g id="patch_67">
    <path clip-path="url(#p63ff921066)" d="M 169.967765 111.24875 
L 171.695868 111.24875 
L 171.695868 82.899544 
L 169.967765 82.899544 
z
" style="fill:#b2b2b2;"/>
   </g>
   <g id="patch_68">
    <path clip-path="url(#p63ff921066)" d="M 171.695868 111.24875 
L 173.423971 111.24875 
L 173.423971 89.986845 
L 171.695868 89.986845 
z
" style="fill:#b2b2b2;"/>
   </g>
   <g id="patch_69">
    <path clip-path="url(#p63ff921066)" d="M 173.423971 111.24875 
L 175.152074 111.24875 
L 175.152074 82.899544 
L 173.423971 82.899544 
z
" style="fill:#b2b2b2;"/>
   </g>
   <g id="patch_70">
    <path clip-path="url(#p63ff921066)" d="M 175.152074 111.24875 
L 176.880177 111.24875 
L 176.880177 97.074147 
L 175.152074 97.074147 
z
" style="fill:#b2b2b2;"/>
   </g>
   <g id="patch_71">
    <path clip-path="url(#p63ff921066)" d="M 176.880177 111.24875 
L 178.608279 111.24875 
L 178.608279 89.986845 
L 176.880177 89.986845 
z
" style="fill:#b2b2b2;"/>
   </g>
   <g id="patch_72">
    <path clip-path="url(#p63ff921066)" d="M 178.608279 111.24875 
L 180.336382 111.24875 
L 180.336382 97.074147 
L 178.608279 97.074147 
z
" style="fill:#b2b2b2;"/>
   </g>
   <g id="patch_73">
    <path clip-path="url(#p63ff921066)" d="M 180.336382 111.24875 
L 182.064485 111.24875 
L 182.064485 104.161448 
L 180.336382 104.161448 
z
" style="fill:#b2b2b2;"/>
   </g>
   <g id="patch_74">
    <path clip-path="url(#p63ff921066)" d="M 182.064485 111.24875 
L 183.792588 111.24875 
L 183.792588 104.161448 
L 182.064485 104.161448 
z
" style="fill:#b2b2b2;"/>
   </g>
   <g id="patch_75">
    <path clip-path="url(#p63ff921066)" d="M 183.792588 111.24875 
L 185.520691 111.24875 
L 185.520691 97.074147 
L 183.792588 97.074147 
z
" style="fill:#b2b2b2;"/>
   </g>
   <g id="patch_76">
    <path clip-path="url(#p63ff921066)" d="M 185.520691 111.24875 
L 187.248794 111.24875 
L 187.248794 111.24875 
L 185.520691 111.24875 
z
" style="fill:#b2b2b2;"/>
   </g>
   <g id="patch_77">
    <path clip-path="url(#p63ff921066)" d="M 187.248794 111.24875 
L 188.976897 111.24875 
L 188.976897 104.161448 
L 187.248794 104.161448 
z
" style="fill:#b2b2b2;"/>
   </g>
   <g id="patch_78">
    <path clip-path="url(#p63ff921066)" d="M 188.976897 111.24875 
L 190.705 111.24875 
L 190.705 89.986845 
L 188.976897 89.986845 
z
" style="fill:#b2b2b2;"/>
   </g>
   <g id="patch_79">
    <path clip-path="url(#p63ff921066)" d="M 190.705 111.24875 
L 192.433103 111.24875 
L 192.433103 104.161448 
L 190.705 104.161448 
z
" style="fill:#b2b2b2;"/>
   </g>
   <g id="patch_80">
    <path clip-path="url(#p63ff921066)" d="M 192.433103 111.24875 
L 194.161206 111.24875 
L 194.161206 111.24875 
L 192.433103 111.24875 
z
" style="fill:#b2b2b2;"/>
   </g>
   <g id="patch_81">
    <path clip-path="url(#p63ff921066)" d="M 194.161206 111.24875 
L 195.889309 111.24875 
L 195.889309 97.074147 
L 194.161206 97.074147 
z
" style="fill:#b2b2b2;"/>
   </g>
   <g id="patch_82">
    <path clip-path="url(#p63ff921066)" d="M 195.889309 111.24875 
L 197.617412 111.24875 
L 197.617412 111.24875 
L 195.889309 111.24875 
z
" style="fill:#b2b2b2;"/>
   </g>
   <g id="patch_83">
    <path clip-path="url(#p63ff921066)" d="M 197.617412 111.24875 
L 199.345515 111.24875 
L 199.345515 111.24875 
L 197.617412 111.24875 
z
" style="fill:#b2b2b2;"/>
   </g>
   <g id="patch_84">
    <path clip-path="url(#p63ff921066)" d="M 199.345515 111.24875 
L 201.073618 111.24875 
L 201.073618 97.074147 
L 199.345515 97.074147 
z
" style="fill:#b2b2b2;"/>
   </g>
   <g id="patch_85">
    <path clip-path="url(#p63ff921066)" d="M 201.073618 111.24875 
L 202.801721 111.24875 
L 202.801721 111.24875 
L 201.073618 111.24875 
z
" style="fill:#b2b2b2;"/>
   </g>
   <g id="patch_86">
    <path clip-path="url(#p63ff921066)" d="M 202.801721 111.24875 
L 204.529824 111.24875 
L 204.529824 104.161448 
L 202.801721 104.161448 
z
" style="fill:#b2b2b2;"/>
   </g>
   <g id="patch_87">
    <path clip-path="url(#p63ff921066)" d="M 204.529824 111.24875 
L 206.257927 111.24875 
L 206.257927 111.24875 
L 204.529824 111.24875 
z
" style="fill:#b2b2b2;"/>
   </g>
   <g id="patch_88">
    <path clip-path="url(#p63ff921066)" d="M 206.257927 111.24875 
L 207.98603 111.24875 
L 207.98603 111.24875 
L 206.257927 111.24875 
z
" style="fill:#b2b2b2;"/>
   </g>
   <g id="patch_89">
    <path clip-path="url(#p63ff921066)" d="M 207.98603 111.24875 
L 209.714133 111.24875 
L 209.714133 111.24875 
L 207.98603 111.24875 
z
" style="fill:#b2b2b2;"/>
   </g>
   <g id="patch_90">
    <path clip-path="url(#p63ff921066)" d="M 209.714133 111.24875 
L 211.442235 111.24875 
L 211.442235 111.24875 
L 209.714133 111.24875 
z
" style="fill:#b2b2b2;"/>
   </g>
   <g id="patch_91">
    <path clip-path="url(#p63ff921066)" d="M 211.442235 111.24875 
L 213.170338 111.24875 
L 213.170338 104.161448 
L 211.442235 104.161448 
z
" style="fill:#b2b2b2;"/>
   </g>
   <g id="patch_92">
    <path clip-path="url(#p63ff921066)" d="M 213.170338 111.24875 
L 214.898441 111.24875 
L 214.898441 111.24875 
L 213.170338 111.24875 
z
" style="fill:#b2b2b2;"/>
   </g>
   <g id="patch_93">
    <path clip-path="url(#p63ff921066)" d="M 214.898441 111.24875 
L 216.626544 111.24875 
L 216.626544 111.24875 
L 214.898441 111.24875 
z
" style="fill:#b2b2b2;"/>
   </g>
   <g id="patch_94">
    <path clip-path="url(#p63ff921066)" d="M 216.626544 111.24875 
L 218.354647 111.24875 
L 218.354647 104.161448 
L 216.626544 104.161448 
z
" style="fill:#b2b2b2;"/>
   </g>
   <g id="patch_95">
    <path clip-path="url(#p63ff921066)" d="M 218.354647 111.24875 
L 220.08275 111.24875 
L 220.08275 111.24875 
L 218.354647 111.24875 
z
" style="fill:#b2b2b2;"/>
   </g>
   <g id="patch_96">
    <path clip-path="url(#p63ff921066)" d="M 220.08275 111.24875 
L 221.810853 111.24875 
L 221.810853 111.24875 
L 220.08275 111.24875 
z
" style="fill:#b2b2b2;"/>
   </g>
   <g id="patch_97">
    <path clip-path="url(#p63ff921066)" d="M 221.810853 111.24875 
L 223.538956 111.24875 
L 223.538956 111.24875 
L 221.810853 111.24875 
z
" style="fill:#b2b2b2;"/>
   </g>
   <g id="patch_98">
    <path clip-path="url(#p63ff921066)" d="M 223.538956 111.24875 
L 225.267059 111.24875 
L 225.267059 104.161448 
L 223.538956 104.161448 
z
" style="fill:#b2b2b2;"/>
   </g>
   <g id="patch_99">
    <path clip-path="url(#p63ff921066)" d="M 225.267059 111.24875 
L 226.995162 111.24875 
L 226.995162 111.24875 
L 225.267059 111.24875 
z
" style="fill:#b2b2b2;"/>
   </g>
   <g id="patch_100">
    <path clip-path="url(#p63ff921066)" d="M 226.995162 111.24875 
L 228.723265 111.24875 
L 228.723265 111.24875 
L 226.995162 111.24875 
z
" style="fill:#b2b2b2;"/>
   </g>
   <g id="patch_101">
    <path clip-path="url(#p63ff921066)" d="M 228.723265 111.24875 
L 230.451368 111.24875 
L 230.451368 111.24875 
L 228.723265 111.24875 
z
" style="fill:#b2b2b2;"/>
   </g>
   <g id="patch_102">
    <path clip-path="url(#p63ff921066)" d="M 230.451368 111.24875 
L 232.179471 111.24875 
L 232.179471 111.24875 
L 230.451368 111.24875 
z
" style="fill:#b2b2b2;"/>
   </g>
   <g id="patch_103">
    <path clip-path="url(#p63ff921066)" d="M 232.179471 111.24875 
L 233.907574 111.24875 
L 233.907574 111.24875 
L 232.179471 111.24875 
z
" style="fill:#b2b2b2;"/>
   </g>
   <g id="patch_104">
    <path clip-path="url(#p63ff921066)" d="M 233.907574 111.24875 
L 235.635677 111.24875 
L 235.635677 111.24875 
L 233.907574 111.24875 
z
" style="fill:#b2b2b2;"/>
   </g>
   <g id="patch_105">
    <path clip-path="url(#p63ff921066)" d="M 235.635677 111.24875 
L 237.36378 111.24875 
L 237.36378 111.24875 
L 235.635677 111.24875 
z
" style="fill:#b2b2b2;"/>
   </g>
   <g id="patch_106">
    <path clip-path="url(#p63ff921066)" d="M 237.36378 111.24875 
L 239.091883 111.24875 
L 239.091883 111.24875 
L 237.36378 111.24875 
z
" style="fill:#b2b2b2;"/>
   </g>
   <g id="patch_107">
    <path clip-path="url(#p63ff921066)" d="M 239.091883 111.24875 
L 240.819986 111.24875 
L 240.819986 111.24875 
L 239.091883 111.24875 
z
" style="fill:#b2b2b2;"/>
   </g>
   <g id="patch_108">
    <path clip-path="url(#p63ff921066)" d="M 240.819986 111.24875 
L 242.548089 111.24875 
L 242.548089 111.24875 
L 240.819986 111.24875 
z
" style="fill:#b2b2b2;"/>
   </g>
   <g id="patch_109">
    <path clip-path="url(#p63ff921066)" d="M 242.548089 111.24875 
L 244.276191 111.24875 
L 244.276191 111.24875 
L 242.548089 111.24875 
z
" style="fill:#b2b2b2;"/>
   </g>
   <g id="patch_110">
    <path clip-path="url(#p63ff921066)" d="M 244.276191 111.24875 
L 246.004294 111.24875 
L 246.004294 111.24875 
L 244.276191 111.24875 
z
" style="fill:#b2b2b2;"/>
   </g>
   <g id="patch_111">
    <path clip-path="url(#p63ff921066)" d="M 246.004294 111.24875 
L 247.732397 111.24875 
L 247.732397 104.161448 
L 246.004294 104.161448 
z
" style="fill:#b2b2b2;"/>
   </g>
   <g id="matplotlib.axis_1">
    <g id="xtick_1">
     <g id="line2d_1">
      <defs>
       <path d="M 0 0 
L 0 3.5 
" id="m142e5e6747" style="stroke:#000000;stroke-width:0.8;"/>
      </defs>
      <g>
       <use style="stroke:#000000;stroke-width:0.8;" x="59.369176" xlink:href="#m142e5e6747" y="111.24875"/>
      </g>
     </g>
     <g id="text_1">
      <!-- 0 -->
      <g transform="translate(56.589489 125.539375)scale(0.1 -0.1)">
       <defs>
        <path d="M 27.5 72.296875 
C 20.90625 72.296875 14.90625 69.296875 11.203125 64.40625 
C 6.59375 58 4.296875 48.40625 4.296875 35 
C 4.296875 10.59375 12.296875 -2.296875 27.5 -2.296875 
C 42.5 -2.296875 50.703125 10.59375 50.703125 34.40625 
C 50.703125 48.40625 48.5 57.796875 43.796875 64.40625 
C 40.09375 69.40625 34.203125 72.296875 27.5 72.296875 
z
M 27.5 64.5 
C 37 64.5 41.703125 54.796875 41.703125 35.203125 
C 41.703125 14.59375 37.09375 5 27.296875 5 
C 18 5 13.296875 15 13.296875 34.90625 
C 13.296875 54.796875 18 64.5 27.5 64.5 
z
" id="NimbusSans-Regular-48"/>
       </defs>
       <use xlink:href="#NimbusSans-Regular-48"/>
      </g>
     </g>
    </g>
    <g id="xtick_2">
     <g id="line2d_2">
      <g>
       <use style="stroke:#000000;stroke-width:0.8;" x="102.57175" xlink:href="#m142e5e6747" y="111.24875"/>
      </g>
     </g>
     <g id="text_2">
      <!-- 25 -->
      <g transform="translate(97.012375 125.539375)scale(0.1 -0.1)">
       <defs>
        <path d="M 50.59375 8.703125 
L 13.296875 8.703125 
C 14.203125 14.703125 17.40625 18.5 26.09375 23.796875 
L 36.09375 29.40625 
C 46 34.90625 51.09375 42.296875 51.09375 51.203125 
C 51.09375 57.203125 48.703125 62.796875 44.5 66.703125 
C 40.296875 70.5 35.09375 72.296875 28.40625 72.296875 
C 19.40625 72.296875 12.703125 69.09375 8.796875 62.90625 
C 6.296875 59.09375 5.203125 54.59375 5 47.296875 
L 13.796875 47.296875 
C 14.09375 52.203125 14.703125 55.09375 15.90625 57.5 
C 18.203125 61.90625 22.796875 64.59375 28.09375 64.59375 
C 36.09375 64.59375 42.09375 58.796875 42.09375 51 
C 42.09375 45.203125 38.796875 40.203125 32.5 36.59375 
L 23.296875 31.203125 
C 8.5 22.703125 4.203125 15.90625 3.40625 0.09375 
L 50.59375 0.09375 
z
" id="NimbusSans-Regular-50"/>
        <path d="M 47.59375 70.90625 
L 11 70.90625 
L 5.703125 32.296875 
L 13.796875 32.296875 
C 17.90625 37.203125 21.296875 38.90625 26.90625 38.90625 
C 36.40625 38.90625 42.296875 32.40625 42.296875 21.90625 
C 42.296875 11.703125 36.40625 5.5 26.796875 5.5 
C 19.09375 5.5 14.40625 9.40625 12.296875 17.40625 
L 3.5 17.40625 
C 4.703125 11.59375 5.703125 8.796875 7.796875 6.203125 
C 11.796875 0.796875 19 -2.296875 27 -2.296875 
C 41.296875 -2.296875 51.296875 8.09375 51.296875 23.09375 
C 51.296875 37.09375 42 46.703125 28.40625 46.703125 
C 23.40625 46.703125 19.40625 45.40625 15.296875 42.40625 
L 18.09375 62.203125 
L 47.59375 62.203125 
z
" id="NimbusSans-Regular-53"/>
       </defs>
       <use xlink:href="#NimbusSans-Regular-50"/>
       <use x="55.599991" xlink:href="#NimbusSans-Regular-53"/>
      </g>
     </g>
    </g>
    <g id="xtick_3">
     <g id="line2d_3">
      <g>
       <use style="stroke:#000000;stroke-width:0.8;" x="145.774324" xlink:href="#m142e5e6747" y="111.24875"/>
      </g>
     </g>
     <g id="text_3">
      <!-- 50 -->
      <g transform="translate(140.214949 125.539375)scale(0.1 -0.1)">
       <use xlink:href="#NimbusSans-Regular-53"/>
       <use x="55.599991" xlink:href="#NimbusSans-Regular-48"/>
      </g>
     </g>
    </g>
    <g id="xtick_4">
     <g id="line2d_4">
      <g>
       <use style="stroke:#000000;stroke-width:0.8;" x="188.976897" xlink:href="#m142e5e6747" y="111.24875"/>
      </g>
     </g>
     <g id="text_4">
      <!-- 75 -->
      <g transform="translate(183.417522 125.539375)scale(0.1 -0.1)">
       <defs>
        <path d="M 52 70.90625 
L 4.59375 70.90625 
L 4.59375 62.203125 
L 42.90625 62.203125 
C 26 38.09375 19.09375 23.296875 13.796875 0 
L 23.203125 0 
C 27.09375 22.703125 36 42.203125 52 63.5 
z
" id="NimbusSans-Regular-55"/>
       </defs>
       <use xlink:href="#NimbusSans-Regular-55"/>
       <use x="55.599991" xlink:href="#NimbusSans-Regular-53"/>
      </g>
     </g>
    </g>
    <g id="xtick_5">
     <g id="line2d_5">
      <g>
       <use style="stroke:#000000;stroke-width:0.8;" x="232.179471" xlink:href="#m142e5e6747" y="111.24875"/>
      </g>
     </g>
     <g id="text_5">
      <!-- 100 -->
      <g transform="translate(223.840408 125.539375)scale(0.1 -0.1)">
       <defs>
        <path d="M 25.90625 51.5 
L 25.90625 0 
L 34.703125 0 
L 34.703125 72.296875 
L 28.90625 72.296875 
C 25.796875 61.203125 23.796875 59.703125 10.203125 57.90625 
L 10.203125 51.5 
z
" id="NimbusSans-Regular-49"/>
       </defs>
       <use xlink:href="#NimbusSans-Regular-49"/>
       <use x="55.599991" xlink:href="#NimbusSans-Regular-48"/>
       <use x="111.199982" xlink:href="#NimbusSans-Regular-48"/>
      </g>
     </g>
    </g>
    <g id="text_6">
     <!-- Number of molecules -->
     <g transform="translate(106.750781 139.009688)scale(0.1 -0.1)">
      <defs>
       <path d="M 64.59375 72.90625 
L 55.796875 72.90625 
L 55.796875 13.296875 
L 17.703125 72.90625 
L 7.59375 72.90625 
L 7.59375 0 
L 16.40625 0 
L 16.40625 59.09375 
L 54.09375 0 
L 64.59375 0 
z
" id="NimbusSans-Regular-78"/>
       <path d="M 48.203125 0 
L 48.203125 52.40625 
L 39.90625 52.40625 
L 39.90625 22.703125 
C 39.90625 12 34.296875 5 25.59375 5 
C 19 5 14.796875 9 14.796875 15.296875 
L 14.796875 52.40625 
L 6.5 52.40625 
L 6.5 12 
C 6.5 3.296875 13 -2.296875 23.203125 -2.296875 
C 30.90625 -2.296875 35.796875 0.40625 40.703125 7.296875 
L 40.703125 0 
z
" id="NimbusSans-Regular-117"/>
       <path d="M 7 52.40625 
L 7 0 
L 15.40625 0 
L 15.40625 32.90625 
C 15.40625 40.5 20.90625 46.59375 27.703125 46.59375 
C 33.90625 46.59375 37.40625 42.796875 37.40625 36.09375 
L 37.40625 0 
L 45.796875 0 
L 45.796875 32.90625 
C 45.796875 40.5 51.296875 46.59375 58.09375 46.59375 
C 64.203125 46.59375 67.796875 42.703125 67.796875 36.09375 
L 67.796875 0 
L 76.203125 0 
L 76.203125 39.296875 
C 76.203125 48.703125 70.796875 53.90625 61 53.90625 
C 54 53.90625 49.796875 51.796875 44.90625 45.90625 
C 41.796875 51.5 37.59375 53.90625 30.796875 53.90625 
C 23.796875 53.90625 19.09375 51.296875 14.703125 45 
L 14.703125 52.40625 
z
" id="NimbusSans-Regular-109"/>
       <path d="M 5.40625 72.90625 
L 5.40625 0 
L 12.90625 0 
L 12.90625 6.703125 
C 16.90625 0.59375 22.203125 -2.296875 29.5 -2.296875 
C 43.296875 -2.296875 52.296875 9 52.296875 26.40625 
C 52.296875 43.40625 43.796875 53.90625 29.90625 53.90625 
C 22.703125 53.90625 17.59375 51.203125 13.703125 45.296875 
L 13.703125 72.90625 
z
M 28.296875 46.09375 
C 37.59375 46.09375 43.59375 38 43.59375 25.5 
C 43.59375 13.59375 37.40625 5.5 28.296875 5.5 
C 19.40625 5.5 13.703125 13.5 13.703125 25.796875 
C 13.703125 38.09375 19.40625 46.09375 28.296875 46.09375 
z
" id="NimbusSans-Regular-98"/>
       <path d="M 51.296875 23.40625 
C 51.296875 31.40625 50.703125 36.203125 49.203125 40.09375 
C 45.796875 48.703125 37.796875 53.90625 28 53.90625 
C 13.40625 53.90625 4 42.796875 4 25.5 
C 4 8.203125 13 -2.296875 27.796875 -2.296875 
C 39.796875 -2.296875 48.09375 4.5 50.203125 15.90625 
L 41.796875 15.90625 
C 39.5 9 34.796875 5.40625 28.09375 5.40625 
C 22.796875 5.40625 18.296875 7.796875 15.5 12.203125 
C 13.5 15.203125 12.796875 18.203125 12.703125 23.40625 
z
M 12.90625 30.203125 
C 13.59375 39.90625 19.5 46.203125 27.90625 46.203125 
C 36.40625 46.203125 42.296875 39.59375 42.296875 30.203125 
z
" id="NimbusSans-Regular-101"/>
       <path d="M 6.90625 52.40625 
L 6.90625 0 
L 15.296875 0 
L 15.296875 27.203125 
C 15.40625 39.796875 20.59375 45.40625 32.09375 45.09375 
L 32.09375 53.59375 
C 30.703125 53.796875 29.90625 53.90625 28.90625 53.90625 
C 23.5 53.90625 19.40625 50.703125 14.59375 42.90625 
L 14.59375 52.40625 
z
" id="NimbusSans-Regular-114"/>
       <path id="NimbusSans-Regular-32"/>
       <path d="M 27.203125 53.90625 
C 12.40625 53.90625 3.59375 43.40625 3.59375 25.796875 
C 3.59375 8.09375 12.40625 -2.296875 27.296875 -2.296875 
C 42.09375 -2.296875 51 8.203125 51 25.40625 
C 51 43.59375 42.40625 53.90625 27.203125 53.90625 
z
M 27.296875 46.203125 
C 36.703125 46.203125 42.296875 38.5 42.296875 25.5 
C 42.296875 13.09375 36.5 5.40625 27.296875 5.40625 
C 18 5.40625 12.296875 13.09375 12.296875 25.796875 
C 12.296875 38.5 18 46.203125 27.296875 46.203125 
z
" id="NimbusSans-Regular-111"/>
       <path d="M 25.796875 52.40625 
L 17.09375 52.40625 
L 17.09375 60.59375 
C 17.09375 64.09375 19 65.90625 22.90625 65.90625 
C 23.59375 65.90625 23.90625 65.90625 25.796875 65.796875 
L 25.796875 72.703125 
C 23.90625 73.09375 22.796875 73.203125 21.09375 73.203125 
C 13.40625 73.203125 8.796875 68.796875 8.796875 61.296875 
L 8.796875 52.40625 
L 1.796875 52.40625 
L 1.796875 45.59375 
L 8.796875 45.59375 
L 8.796875 0 
L 17.09375 0 
L 17.09375 45.59375 
L 25.796875 45.59375 
z
" id="NimbusSans-Regular-102"/>
       <path d="M 15.203125 72.90625 
L 6.796875 72.90625 
L 6.796875 0 
L 15.203125 0 
z
" id="NimbusSans-Regular-108"/>
       <path d="M 47.09375 34.796875 
C 46.703125 39.90625 45.59375 43.203125 43.59375 46.09375 
C 40 51 33.703125 53.90625 26.40625 53.90625 
C 12.203125 53.90625 3.09375 42.703125 3.09375 25.296875 
C 3.09375 8.40625 12.09375 -2.296875 26.296875 -2.296875 
C 38.796875 -2.296875 46.703125 5.203125 47.703125 18 
L 39.296875 18 
C 37.90625 9.59375 33.59375 5.40625 26.5 5.40625 
C 17.296875 5.40625 11.796875 12.90625 11.796875 25.296875 
C 11.796875 38.40625 17.203125 46.203125 26.296875 46.203125 
C 33.296875 46.203125 37.703125 42.09375 38.703125 34.796875 
z
" id="NimbusSans-Regular-99"/>
       <path d="M 43.796875 37.796875 
C 43.703125 48.09375 36.90625 53.90625 24.796875 53.90625 
C 12.59375 53.90625 4.703125 47.59375 4.703125 37.90625 
C 4.703125 29.703125 8.90625 25.796875 21.296875 22.796875 
L 29.09375 20.90625 
C 34.90625 19.5 37.203125 17.40625 37.203125 13.703125 
C 37.203125 8.703125 32.296875 5.40625 25 5.40625 
C 20.5 5.40625 16.703125 6.703125 14.59375 8.90625 
C 13.296875 10.40625 12.703125 11.90625 12.203125 15.59375 
L 3.40625 15.59375 
C 3.796875 3.5 10.59375 -2.296875 24.296875 -2.296875 
C 37.5 -2.296875 45.90625 4.203125 45.90625 14.296875 
C 45.90625 22.09375 41.5 26.40625 31.09375 28.90625 
L 23.09375 30.796875 
C 16.296875 32.40625 13.40625 34.59375 13.40625 38.296875 
C 13.40625 43.203125 17.703125 46.203125 24.5 46.203125 
C 31.203125 46.203125 34.796875 43.296875 35 37.796875 
z
" id="NimbusSans-Regular-115"/>
      </defs>
      <use xlink:href="#NimbusSans-Regular-78"/>
      <use x="72.199982" xlink:href="#NimbusSans-Regular-117"/>
      <use x="127.799973" xlink:href="#NimbusSans-Regular-109"/>
      <use x="211.09996" xlink:href="#NimbusSans-Regular-98"/>
      <use x="266.699951" xlink:href="#NimbusSans-Regular-101"/>
      <use x="322.299942" xlink:href="#NimbusSans-Regular-114"/>
      <use x="355.59993" xlink:href="#NimbusSans-Regular-32"/>
      <use x="383.399918" xlink:href="#NimbusSans-Regular-111"/>
      <use x="438.999908" xlink:href="#NimbusSans-Regular-102"/>
      <use x="466.799896" xlink:href="#NimbusSans-Regular-32"/>
      <use x="494.599884" xlink:href="#NimbusSans-Regular-109"/>
      <use x="577.899872" xlink:href="#NimbusSans-Regular-111"/>
      <use x="633.499863" xlink:href="#NimbusSans-Regular-108"/>
      <use x="655.69986" xlink:href="#NimbusSans-Regular-101"/>
      <use x="711.29985" xlink:href="#NimbusSans-Regular-99"/>
      <use x="761.299835" xlink:href="#NimbusSans-Regular-117"/>
      <use x="816.899826" xlink:href="#NimbusSans-Regular-108"/>
      <use x="839.099823" xlink:href="#NimbusSans-Regular-101"/>
      <use x="894.699814" xlink:href="#NimbusSans-Regular-115"/>
     </g>
    </g>
   </g>
   <g id="matplotlib.axis_2">
    <g id="ytick_1">
     <g id="line2d_6">
      <defs>
       <path d="M 0 0 
L -3.5 0 
" id="m06f0daebb9" style="stroke:#000000;stroke-width:0.8;"/>
      </defs>
      <g>
       <use style="stroke:#000000;stroke-width:0.8;" x="49.907813" xlink:href="#m06f0daebb9" y="111.24875"/>
      </g>
     </g>
     <g id="text_7">
      <!-- 0.00 -->
      <g transform="translate(23.45 114.894062)scale(0.1 -0.1)">
       <defs>
        <path d="M 19.09375 10.40625 
L 8.703125 10.40625 
L 8.703125 0 
L 19.09375 0 
z
" id="NimbusSans-Regular-46"/>
       </defs>
       <use xlink:href="#NimbusSans-Regular-48"/>
       <use x="55.599991" xlink:href="#NimbusSans-Regular-46"/>
       <use x="83.399979" xlink:href="#NimbusSans-Regular-48"/>
       <use x="138.999969" xlink:href="#NimbusSans-Regular-48"/>
      </g>
     </g>
    </g>
    <g id="ytick_2">
     <g id="line2d_7">
      <g>
       <use style="stroke:#000000;stroke-width:0.8;" x="49.907813" xlink:href="#m06f0daebb9" y="71.418115"/>
      </g>
     </g>
     <g id="text_8">
      <!-- 0.02 -->
      <g transform="translate(23.45 75.063428)scale(0.1 -0.1)">
       <use xlink:href="#NimbusSans-Regular-48"/>
       <use x="55.599991" xlink:href="#NimbusSans-Regular-46"/>
       <use x="83.399979" xlink:href="#NimbusSans-Regular-48"/>
       <use x="138.999969" xlink:href="#NimbusSans-Regular-50"/>
      </g>
     </g>
    </g>
    <g id="ytick_3">
     <g id="line2d_8">
      <g>
       <use style="stroke:#000000;stroke-width:0.8;" x="49.907813" xlink:href="#m06f0daebb9" y="31.58748"/>
      </g>
     </g>
     <g id="text_9">
      <!-- 0.04 -->
      <g transform="translate(23.45 35.232793)scale(0.1 -0.1)">
       <defs>
        <path d="M 32.703125 17.5 
L 32.703125 0 
L 41.5 0 
L 41.5 17.5 
L 52 17.5 
L 52 25.40625 
L 41.5 25.40625 
L 41.5 72.296875 
L 35 72.296875 
L 2.796875 26.796875 
L 2.796875 17.5 
z
M 32.703125 25.40625 
L 10.5 25.40625 
L 32.703125 57.296875 
z
" id="NimbusSans-Regular-52"/>
       </defs>
       <use xlink:href="#NimbusSans-Regular-48"/>
       <use x="55.599991" xlink:href="#NimbusSans-Regular-46"/>
       <use x="83.399979" xlink:href="#NimbusSans-Regular-48"/>
       <use x="138.999969" xlink:href="#NimbusSans-Regular-52"/>
      </g>
     </g>
    </g>
    <g id="text_10">
     <!-- Density -->
     <g transform="translate(17.270313 83.268281)rotate(-90)scale(0.1 -0.1)">
      <defs>
       <path d="M 8.90625 0 
L 37 0 
C 55.40625 0 66.703125 13.796875 66.703125 36.5 
C 66.703125 59.09375 55.5 72.90625 37 72.90625 
L 8.90625 72.90625 
z
M 18.203125 8.203125 
L 18.203125 64.703125 
L 35.40625 64.703125 
C 49.796875 64.703125 57.40625 55 57.40625 36.40625 
C 57.40625 17.90625 49.796875 8.203125 35.40625 8.203125 
z
" id="NimbusSans-Regular-68"/>
       <path d="M 7 52.40625 
L 7 0 
L 15.40625 0 
L 15.40625 28.90625 
C 15.40625 39.59375 21 46.59375 29.59375 46.59375 
C 36.203125 46.59375 40.40625 42.59375 40.40625 36.296875 
L 40.40625 0 
L 48.703125 0 
L 48.703125 39.59375 
C 48.703125 48.296875 42.203125 53.90625 32.09375 53.90625 
C 24.296875 53.90625 19.296875 50.90625 14.703125 43.59375 
L 14.703125 52.40625 
z
" id="NimbusSans-Regular-110"/>
       <path d="M 15 52.40625 
L 6.703125 52.40625 
L 6.703125 0 
L 15 0 
z
M 15 72.90625 
L 6.59375 72.90625 
L 6.59375 62.40625 
L 15 62.40625 
z
" id="NimbusSans-Regular-105"/>
       <path d="M 25.40625 52.40625 
L 16.796875 52.40625 
L 16.796875 66.796875 
L 8.5 66.796875 
L 8.5 52.40625 
L 1.40625 52.40625 
L 1.40625 45.59375 
L 8.5 45.59375 
L 8.5 6 
C 8.5 0.59375 12.09375 -2.296875 18.59375 -2.296875 
C 20.796875 -2.296875 22.59375 -2.09375 25.40625 -1.59375 
L 25.40625 5.40625 
C 24.203125 5.09375 23.09375 5 21.40625 5 
C 17.796875 5 16.796875 6 16.796875 9.703125 
L 16.796875 45.59375 
L 25.40625 45.59375 
z
" id="NimbusSans-Regular-116"/>
       <path d="M 38.796875 52.40625 
L 24.296875 11.59375 
L 10.90625 52.40625 
L 2 52.40625 
L 19.703125 -0.203125 
L 16.5 -8.5 
C 15.09375 -12.203125 13.296875 -13.59375 9.796875 -13.59375 
C 8.40625 -13.59375 7.203125 -13.40625 5.40625 -13 
L 5.40625 -20.5 
C 7.09375 -21.40625 8.796875 -21.796875 11 -21.796875 
C 13.703125 -21.796875 16.59375 -20.90625 18.796875 -19.296875 
C 21.40625 -17.40625 22.90625 -15.203125 24.5 -11 
L 47.796875 52.40625 
z
" id="NimbusSans-Regular-121"/>
      </defs>
      <use xlink:href="#NimbusSans-Regular-68"/>
      <use x="72.199982" xlink:href="#NimbusSans-Regular-101"/>
      <use x="127.799973" xlink:href="#NimbusSans-Regular-110"/>
      <use x="183.399963" xlink:href="#NimbusSans-Regular-115"/>
      <use x="233.399948" xlink:href="#NimbusSans-Regular-105"/>
      <use x="255.599945" xlink:href="#NimbusSans-Regular-116"/>
      <use x="283.399933" xlink:href="#NimbusSans-Regular-121"/>
     </g>
    </g>
   </g>
   <g id="line2d_9">
    <path clip-path="url(#p63ff921066)" d="M 60.233228 111.24875 
L 61.961331 111.248749 
L 63.689434 111.248742 
L 65.417536 111.248708 
L 67.145639 111.248577 
L 68.873742 111.248154 
L 70.601845 111.246967 
L 72.329948 111.244011 
L 74.058051 111.237332 
L 75.786154 111.22345 
L 77.514257 111.196611 
L 79.24236 111.147909 
L 80.970463 111.064368 
L 82.698566 110.928099 
L 84.426669 110.715685 
L 86.154772 110.397952 
L 87.882875 109.940265 
L 89.610978 109.303442 
L 91.339081 108.445326 
L 93.067184 107.322976 
L 94.795287 105.895343 
L 96.52339 104.12627 
L 98.251492 101.987556 
L 99.979595 99.461842 
L 101.707698 96.545053 
L 103.435801 93.248178 
L 105.163904 89.598217 
L 106.892007 85.638192 
L 108.62011 81.426209 
L 110.348213 77.033622 
L 112.076316 72.542414 
L 113.804419 68.042 
L 115.532522 63.625634 
L 117.260625 59.386672 
L 118.988728 55.414909 
L 120.716831 51.793195 
L 122.444934 48.59451 
L 124.173037 45.879609 
L 125.90114 43.695345 
L 127.629243 42.073679 
L 129.357346 41.031382 
L 131.085448 40.570381 
L 132.813551 40.678657 
L 134.541654 41.331616 
L 136.269757 42.493805 
L 137.99786 44.120861 
L 139.725963 46.161589 
L 141.454066 48.560049 
L 143.182169 51.257583 
L 144.910272 54.19469 
L 146.638375 57.312709 
L 148.366478 60.555253 
L 150.094581 63.869394 
L 151.822684 67.206578 
L 153.550787 70.523278 
L 155.27889 73.781404 
L 157.006993 76.948492 
L 158.735096 79.997702 
L 160.463199 82.90765 
L 162.191301 85.662119 
L 163.919404 88.249663 
L 165.647507 90.663152 
L 167.37561 92.899269 
L 169.103713 94.95799 
L 170.831816 96.84207 
L 172.559919 98.556539 
L 174.288022 100.108229 
L 176.016125 101.505346 
L 177.744228 102.757072 
L 179.472331 103.873225 
L 181.200434 104.863963 
L 182.928537 105.739529 
L 184.65664 106.510054 
L 186.384743 107.185383 
L 188.112846 107.774957 
L 189.840949 108.287714 
L 191.569052 108.732028 
L 193.297155 109.115667 
L 195.025257 109.445779 
L 196.75336 109.728882 
L 198.481463 109.970886 
L 200.209566 110.177106 
L 201.937669 110.352296 
L 203.665772 110.500683 
L 205.393875 110.626004 
L 207.121978 110.731547 
L 208.850081 110.820189 
L 210.578184 110.894437 
L 212.306287 110.956468 
L 214.03439 111.008158 
L 215.762493 111.051126 
L 217.490596 111.086757 
L 219.218699 111.116233 
L 220.946802 111.140562 
L 222.674905 111.160597 
L 224.403008 111.177059 
L 226.131111 111.190557 
L 227.859213 111.2016 
L 229.587316 111.210617 
L 231.315419 111.217965 
L 233.043522 111.22394 
L 234.771625 111.228789 
L 236.499728 111.232718 
L 238.227831 111.235895 
L 239.955934 111.238459 
L 241.684037 111.240524 
L 243.41214 111.242186 
L 245.140243 111.24352 
L 246.868346 111.244589 
L 248.596449 111.245444 
" style="fill:none;stroke:#1b9e77;stroke-linecap:square;"/>
   </g>
   <g id="line2d_10">
    <path clip-path="url(#p63ff921066)" d="M 60.233228 111.244342 
L 61.961331 111.21811 
L 63.689434 111.136262 
L 65.417536 110.956634 
L 67.145639 110.642197 
L 68.873742 110.16937 
L 70.601845 109.526604 
L 72.329948 108.707118 
L 74.058051 107.702669 
L 75.786154 106.502534 
L 77.514257 105.097501 
L 79.24236 103.485989 
L 80.970463 101.679045 
L 82.698566 99.702249 
L 84.426669 97.59412 
L 86.154772 95.401841 
L 87.882875 93.175691 
L 89.610978 90.963543 
L 91.339081 88.806479 
L 93.067184 86.736026 
L 94.795287 84.77313 
L 96.52339 82.928631 
L 98.251492 81.204836 
L 99.979595 79.59775 
L 101.707698 78.09953 
L 103.435801 76.700829 
L 105.163904 75.392758 
L 106.892007 74.168346 
L 108.62011 73.023417 
L 110.348213 71.95692 
L 112.076316 70.970806 
L 113.804419 70.06956 
L 115.532522 69.259526 
L 117.260625 68.54815 
L 118.988728 67.943239 
L 120.716831 67.452302 
L 122.444934 67.082017 
L 124.173037 66.837824 
L 125.90114 66.723652 
L 127.629243 66.741745 
L 129.357346 66.892588 
L 131.085448 67.174896 
L 132.813551 67.585665 
L 134.541654 68.120275 
L 136.269757 68.772622 
L 137.99786 69.535306 
L 139.725963 70.399826 
L 141.454066 71.356811 
L 143.182169 72.396262 
L 144.910272 73.507786 
L 146.638375 74.680831 
L 148.366478 75.904895 
L 150.094581 77.169717 
L 151.822684 78.465425 
L 153.550787 79.782663 
L 155.27889 81.112674 
L 157.006993 82.447358 
L 158.735096 83.779303 
L 160.463199 85.101796 
L 162.191301 86.40881 
L 163.919404 87.694991 
L 165.647507 88.955627 
L 167.37561 90.186625 
L 169.103713 91.384472 
L 170.831816 92.54621 
L 172.559919 93.669398 
L 174.288022 94.752089 
L 176.016125 95.792788 
L 177.744228 96.790432 
L 179.472331 97.744346 
L 181.200434 98.654217 
L 182.928537 99.520058 
L 184.65664 100.34217 
L 186.384743 101.121111 
L 188.112846 101.857658 
L 189.840949 102.552774 
L 191.569052 103.207577 
L 193.297155 103.823308 
L 195.025257 104.401307 
L 196.75336 104.942982 
L 198.481463 105.449795 
L 200.209566 105.923237 
L 201.937669 106.364814 
L 203.665772 106.776035 
L 205.393875 107.158399 
L 207.121978 107.513387 
L 208.850081 107.842455 
L 210.578184 108.147026 
L 212.306287 108.428491 
L 214.03439 108.688198 
L 215.762493 108.927455 
L 217.490596 109.147526 
L 219.218699 109.349628 
L 220.946802 109.534931 
L 222.674905 109.704559 
L 224.403008 109.859584 
L 226.131111 110.001031 
L 227.859213 110.129876 
L 229.587316 110.247046 
L 231.315419 110.353417 
L 233.043522 110.449821 
L 234.771625 110.537041 
L 236.499728 110.615813 
L 238.227831 110.686831 
L 239.955934 110.750743 
L 241.684037 110.808157 
L 243.41214 110.859639 
L 245.140243 110.905717 
L 246.868346 110.946882 
L 248.596449 110.983587 
" style="fill:none;stroke:#d95f02;stroke-linecap:square;"/>
   </g>
   <g id="line2d_11">
    <path clip-path="url(#p63ff921066)" d="M 60.233228 111.24875 
L 61.961331 111.248745 
L 63.689434 111.248717 
L 65.417536 111.248586 
L 67.145639 111.248115 
L 68.873742 111.246698 
L 70.601845 111.242992 
L 72.329948 111.234354 
L 74.058051 111.216047 
L 75.786154 111.180273 
L 77.514257 111.115102 
L 79.24236 111.00344 
L 80.970463 110.822235 
L 82.698566 110.542093 
L 84.426669 110.127502 
L 86.154772 109.537767 
L 87.882875 108.728705 
L 89.610978 107.65505 
L 91.339081 106.273403 
L 93.067184 104.545522 
L 94.795287 102.441656 
L 96.52339 99.943623 
L 98.251492 97.047358 
L 99.979595 93.764684 
L 101.707698 90.124143 
L 103.435801 86.170804 
L 105.163904 81.96505 
L 106.892007 77.580455 
L 108.62011 73.100889 
L 110.348213 68.61707 
L 112.076316 64.222811 
L 113.804419 60.011199 
L 115.532522 56.070928 
L 117.260625 52.483007 
L 118.988728 49.31798 
L 120.716831 46.633788 
L 122.444934 44.474306 
L 124.173037 42.868601 
L 125.90114 41.830843 
L 127.629243 41.360841 
L 129.357346 41.445077 
L 131.085448 42.05817 
L 132.813551 43.164619 
L 134.541654 44.720742 
L 136.269757 46.676688 
L 137.99786 48.978434 
L 139.725963 51.569682 
L 141.454066 54.393606 
L 143.182169 57.394385 
L 144.910272 60.518509 
L 146.638375 63.715834 
L 148.366478 66.940393 
L 150.094581 70.150962 
L 151.822684 73.311405 
L 153.550787 76.390826 
L 155.27889 79.363546 
L 157.006993 82.208938 
L 158.735096 84.911155 
L 160.463199 87.458766 
L 162.191301 89.84434 
L 163.919404 92.063991 
L 165.647507 94.116913 
L 167.37561 96.004911 
L 169.103713 97.73195 
L 170.831816 99.303732 
L 172.559919 100.7273 
L 174.288022 102.010686 
L 176.016125 103.162597 
L 177.744228 104.192142 
L 179.472331 105.108597 
L 181.200434 105.921219 
L 182.928537 106.639081 
L 184.65664 107.270954 
L 186.384743 107.825214 
L 188.112846 108.30977 
L 189.840949 108.732023 
L 191.569052 109.098835 
L 193.297155 109.416528 
L 195.025257 109.690875 
L 196.75336 109.927122 
L 198.481463 110.130003 
L 200.209566 110.303768 
L 201.937669 110.452212 
L 203.665772 110.578708 
L 205.393875 110.686239 
L 207.121978 110.777432 
L 208.850081 110.854593 
L 210.578184 110.919734 
L 212.306287 110.974609 
L 214.03439 111.020737 
L 215.762493 111.059433 
L 217.490596 111.091829 
L 219.218699 111.118898 
L 220.946802 111.141472 
L 222.674905 111.160263 
L 224.403008 111.175876 
L 226.131111 111.188826 
L 227.859213 111.199548 
L 229.587316 111.208411 
L 231.315419 111.215725 
L 233.043522 111.22175 
L 234.771625 111.226707 
L 236.499728 111.230778 
L 238.227831 111.234116 
L 239.955934 111.23685 
L 241.684037 111.239086 
L 243.41214 111.240911 
L 245.140243 111.242399 
L 246.868346 111.243611 
L 248.596449 111.244597 
" style="fill:none;stroke:#7570b3;stroke-linecap:square;"/>
   </g>
   <g id="patch_112">
    <path d="M 49.907813 111.24875 
L 49.907813 21.94875 
" style="fill:none;stroke:#000000;stroke-linecap:square;stroke-linejoin:miter;stroke-width:0.8;"/>
   </g>
   <g id="patch_113">
    <path d="M 258.057813 111.24875 
L 258.057813 21.94875 
" style="fill:none;stroke:#000000;stroke-linecap:square;stroke-linejoin:miter;stroke-width:0.8;"/>
   </g>
   <g id="patch_114">
    <path d="M 49.907813 111.24875 
L 258.057813 111.24875 
" style="fill:none;stroke:#000000;stroke-linecap:square;stroke-linejoin:miter;stroke-width:0.8;"/>
   </g>
   <g id="patch_115">
    <path d="M 49.907813 21.94875 
L 258.057813 21.94875 
" style="fill:none;stroke:#000000;stroke-linecap:square;stroke-linejoin:miter;stroke-width:0.8;"/>
   </g>
   <g id="text_11">
    <!-- SKP1 -->
    <g transform="translate(138.640625 15.94875)scale(0.12 -0.12)">
     <defs>
      <path d="M 59.59375 51.5 
C 59.59375 56.5 59.296875 57.90625 57.703125 61.296875 
C 53.703125 69.703125 45.203125 74.09375 32.90625 74.09375 
C 16.90625 74.09375 7 65.90625 7 52.703125 
C 7 43.796875 11.703125 38.203125 21.296875 35.703125 
L 39.40625 30.90625 
C 48.703125 28.5 52.796875 24.796875 52.796875 19.09375 
C 52.796875 15.203125 50.703125 11.203125 47.59375 9 
C 44.703125 6.90625 40.09375 5.90625 34.203125 5.90625 
C 26.203125 5.90625 20.90625 7.796875 17.40625 12 
C 14.703125 15.203125 13.5 18.703125 13.59375 23.203125 
L 4.796875 23.203125 
C 4.90625 16.5 6.203125 12.09375 9.09375 8.09375 
C 14.09375 1.203125 22.5 -2.296875 33.59375 -2.296875 
C 42.296875 -2.296875 49.40625 -0.296875 54.09375 3.296875 
C 59 7.203125 62.09375 13.703125 62.09375 20 
C 62.09375 29 56.5 35.59375 46.59375 38.296875 
L 28.296875 43.203125 
C 19.5 45.59375 16.296875 48.40625 16.296875 54 
C 16.296875 61.40625 22.796875 66.296875 32.59375 66.296875 
C 44.203125 66.296875 50.703125 61.09375 50.796875 51.5 
z
" id="NimbusSans-Regular-83"/>
      <path d="M 17.203125 25.5 
L 29.09375 37.40625 
L 54.796875 0 
L 65.796875 0 
L 35.796875 43.203125 
L 65.5 72.90625 
L 53.5 72.90625 
L 17.203125 36 
L 17.203125 72.90625 
L 7.90625 72.90625 
L 7.90625 0 
L 17.203125 0 
z
" id="NimbusSans-Regular-75"/>
      <path d="M 18.40625 30.90625 
L 41.296875 30.90625 
C 47 30.90625 51.5 32.59375 55.40625 36.09375 
C 59.796875 40.09375 61.703125 44.796875 61.703125 51.5 
C 61.703125 65.203125 53.59375 72.90625 39.203125 72.90625 
L 9.09375 72.90625 
L 9.09375 0 
L 18.40625 0 
z
M 18.40625 39.09375 
L 18.40625 64.703125 
L 37.796875 64.703125 
C 46.703125 64.703125 52 59.90625 52 51.90625 
C 52 43.90625 46.703125 39.09375 37.796875 39.09375 
z
" id="NimbusSans-Regular-80"/>
     </defs>
     <use xlink:href="#NimbusSans-Regular-83"/>
     <use x="66.699997" xlink:href="#NimbusSans-Regular-75"/>
     <use x="133.399994" xlink:href="#NimbusSans-Regular-80"/>
     <use x="200.099991" xlink:href="#NimbusSans-Regular-49"/>
    </g>
   </g>
   <g id="legend_1">
    <g id="line2d_12">
     <path d="M 267.057813 51.183906 
L 287.057813 51.183906 
" style="fill:none;stroke:#1b9e77;stroke-linecap:square;"/>
    </g>
    <g id="line2d_13"/>
    <g id="text_12">
     <!-- Gamma -->
     <g transform="translate(295.057813 54.683906)scale(0.1 -0.1)">
      <defs>
       <path d="M 70.90625 38.5 
L 40.5 38.5 
L 40.5 30.296875 
L 62.703125 30.296875 
L 62.703125 28.296875 
C 62.703125 15.296875 53.09375 5.90625 39.796875 5.90625 
C 32.40625 5.90625 25.703125 8.59375 21.40625 13.296875 
C 16.59375 18.5 13.703125 27.203125 13.703125 36.203125 
C 13.703125 54.09375 23.90625 65.90625 39.296875 65.90625 
C 50.40625 65.90625 58.40625 60.203125 60.40625 50.796875 
L 69.90625 50.796875 
C 67.296875 65.59375 56.09375 74.09375 39.40625 74.09375 
C 30.5 74.09375 23.296875 71.796875 17.59375 67.09375 
C 9.09375 60.09375 4.40625 48.796875 4.40625 35.703125 
C 4.40625 13.296875 18.09375 -2.296875 37.796875 -2.296875 
C 47.703125 -2.296875 55.5 1.40625 62.703125 9.296875 
L 65 -0.40625 
L 70.90625 -0.40625 
z
" id="NimbusSans-Regular-71"/>
       <path d="M 53.5 4.90625 
C 52.59375 4.703125 52.203125 4.703125 51.703125 4.703125 
C 48.796875 4.703125 47.203125 6.203125 47.203125 8.796875 
L 47.203125 39.59375 
C 47.203125 48.90625 40.40625 53.90625 27.5 53.90625 
C 19.796875 53.90625 13.703125 51.703125 10.09375 47.796875 
C 7.703125 45.09375 6.703125 42.09375 6.5 36.90625 
L 14.90625 36.90625 
C 15.59375 43.296875 19.40625 46.203125 27.203125 46.203125 
C 34.796875 46.203125 38.90625 43.40625 38.90625 38.40625 
L 38.90625 36.203125 
C 38.796875 32.59375 37 31.296875 30.203125 30.40625 
C 18.40625 28.90625 16.59375 28.5 13.40625 27.203125 
C 7.296875 24.59375 4.203125 20 4.203125 13.203125 
C 4.203125 3.703125 10.796875 -2.296875 21.40625 -2.296875 
C 28 -2.296875 33.296875 0 39.203125 5.40625 
C 39.796875 0 42.40625 -2.296875 47.796875 -2.296875 
C 49.59375 -2.296875 50.703125 -2.09375 53.5 -1.40625 
z
M 38.90625 16.5 
C 38.90625 13.703125 38.09375 12 35.59375 9.703125 
C 32.203125 6.59375 28.09375 5 23.203125 5 
C 16.703125 5 12.90625 8.09375 12.90625 13.40625 
C 12.90625 18.90625 16.5 21.703125 25.5 23 
C 34.40625 24.203125 36.09375 24.59375 38.90625 25.90625 
z
" id="NimbusSans-Regular-97"/>
      </defs>
      <use xlink:href="#NimbusSans-Regular-71"/>
      <use x="77.799988" xlink:href="#NimbusSans-Regular-97"/>
      <use x="133.399979" xlink:href="#NimbusSans-Regular-109"/>
      <use x="216.699966" xlink:href="#NimbusSans-Regular-109"/>
      <use x="299.999954" xlink:href="#NimbusSans-Regular-97"/>
     </g>
    </g>
    <g id="line2d_14">
     <path d="M 267.057813 65.654219 
L 287.057813 65.654219 
" style="fill:none;stroke:#d95f02;stroke-linecap:square;"/>
    </g>
    <g id="line2d_15"/>
    <g id="text_13">
     <!-- Unimodal -->
     <g transform="translate(295.057813 69.154219)scale(0.1 -0.1)">
      <defs>
       <path d="M 55.203125 72.90625 
L 55.203125 21.703125 
C 55.203125 11.90625 48.09375 5.90625 36.40625 5.90625 
C 31 5.90625 26.59375 7.203125 23.09375 9.703125 
C 19.5 12.5 17.796875 16.203125 17.796875 21.703125 
L 17.796875 72.90625 
L 8.5 72.90625 
L 8.5 21.703125 
C 8.5 6.90625 19.09375 -2.296875 36.40625 -2.296875 
C 53.5 -2.296875 64.5 7.09375 64.5 21.703125 
L 64.5 72.90625 
z
" id="NimbusSans-Regular-85"/>
       <path d="M 49.5 72.90625 
L 41.203125 72.90625 
L 41.203125 45.796875 
C 37.703125 51.09375 32.09375 53.90625 25.09375 53.90625 
C 11.5 53.90625 2.59375 43 2.59375 26.296875 
C 2.59375 8.59375 11.203125 -2.296875 25.40625 -2.296875 
C 32.59375 -2.296875 37.59375 0.40625 42.09375 6.90625 
L 42.09375 0 
L 49.5 0 
z
M 26.5 46.09375 
C 35.5 46.09375 41.203125 38.203125 41.203125 25.59375 
C 41.203125 13.5 35.40625 5.5 26.59375 5.5 
C 17.40625 5.5 11.296875 13.59375 11.296875 25.796875 
C 11.296875 38 17.40625 46.09375 26.5 46.09375 
z
" id="NimbusSans-Regular-100"/>
      </defs>
      <use xlink:href="#NimbusSans-Regular-85"/>
      <use x="72.199982" xlink:href="#NimbusSans-Regular-110"/>
      <use x="127.799973" xlink:href="#NimbusSans-Regular-105"/>
      <use x="149.999969" xlink:href="#NimbusSans-Regular-109"/>
      <use x="233.299957" xlink:href="#NimbusSans-Regular-111"/>
      <use x="288.899948" xlink:href="#NimbusSans-Regular-100"/>
      <use x="344.499939" xlink:href="#NimbusSans-Regular-97"/>
      <use x="400.09993" xlink:href="#NimbusSans-Regular-108"/>
     </g>
    </g>
    <g id="line2d_16">
     <path d="M 267.057813 80.124531 
L 287.057813 80.124531 
" style="fill:none;stroke:#7570b3;stroke-linecap:square;"/>
    </g>
    <g id="line2d_17"/>
    <g id="text_14">
     <!-- NF (K = 8) -->
     <g transform="translate(295.057813 83.624531)scale(0.1 -0.1)">
      <defs>
       <path d="M 18.296875 33.203125 
L 53.09375 33.203125 
L 53.09375 41.40625 
L 18.296875 41.40625 
L 18.296875 64.703125 
L 57.90625 64.703125 
L 57.90625 72.90625 
L 9 72.90625 
L 9 0 
L 18.296875 0 
z
" id="NimbusSans-Regular-70"/>
       <path d="M 23.59375 72.90625 
C 13.59375 59.796875 7.296875 41.59375 7.296875 25.90625 
C 7.296875 10.09375 13.59375 -8.09375 23.59375 -21.203125 
L 29.09375 -21.203125 
C 20.296875 -6.90625 15.40625 9.90625 15.40625 25.90625 
C 15.40625 41.796875 20.296875 58.703125 29.09375 72.90625 
z
" id="NimbusSans-Regular-40"/>
       <path d="M 53.40625 35.296875 
L 5 35.296875 
L 5 28.296875 
L 53.40625 28.296875 
z
M 53.40625 18.09375 
L 5 18.09375 
L 5 11.09375 
L 53.40625 11.09375 
z
" id="NimbusSans-Regular-61"/>
       <path d="M 39.09375 38.09375 
C 46.5 42.59375 48.796875 46.203125 48.796875 53 
C 48.796875 64.40625 40.09375 72.296875 27.5 72.296875 
C 15 72.296875 6.203125 64.40625 6.203125 53.09375 
C 6.203125 46.203125 8.5 42.703125 15.796875 38.09375 
C 7.703125 34 3.703125 28.09375 3.703125 20.09375 
C 3.703125 6.90625 13.40625 -2.296875 27.5 -2.296875 
C 41.5 -2.296875 51.296875 6.90625 51.296875 20.09375 
C 51.296875 28.09375 47.296875 34 39.09375 38.09375 
z
M 27.5 64.5 
C 35 64.5 39.796875 60 39.796875 52.796875 
C 39.796875 46 34.90625 41.5 27.5 41.5 
C 20 41.5 15.203125 46 15.203125 53 
C 15.203125 60 20 64.5 27.5 64.5 
z
M 27.5 34.09375 
C 36.296875 34.09375 42.296875 28.296875 42.296875 19.90625 
C 42.296875 11.203125 36.40625 5.5 27.296875 5.5 
C 18.703125 5.5 12.703125 11.40625 12.703125 19.796875 
C 12.703125 28.40625 18.59375 34.09375 27.5 34.09375 
z
" id="NimbusSans-Regular-56"/>
       <path d="M 9.296875 -21.203125 
C 19.296875 -8.09375 25.59375 10.09375 25.59375 25.796875 
C 25.59375 41.59375 19.296875 59.796875 9.296875 72.90625 
L 3.796875 72.90625 
C 12.59375 58.59375 17.5 41.796875 17.5 25.796875 
C 17.5 9.90625 12.59375 -7 3.796875 -21.203125 
z
" id="NimbusSans-Regular-41"/>
      </defs>
      <use xlink:href="#NimbusSans-Regular-78"/>
      <use x="72.199982" xlink:href="#NimbusSans-Regular-70"/>
      <use x="133.299973" xlink:href="#NimbusSans-Regular-32"/>
      <use x="161.09996" xlink:href="#NimbusSans-Regular-40"/>
      <use x="194.399948" xlink:href="#NimbusSans-Regular-75"/>
      <use x="261.099945" xlink:href="#NimbusSans-Regular-32"/>
      <use x="288.899933" xlink:href="#NimbusSans-Regular-61"/>
      <use x="347.299927" xlink:href="#NimbusSans-Regular-32"/>
      <use x="375.099915" xlink:href="#NimbusSans-Regular-56"/>
      <use x="430.699905" xlink:href="#NimbusSans-Regular-41"/>
     </g>
    </g>
   </g>
  </g>
  <g id="axes_2">
   <g id="patch_116">
    <path d="M 49.907813 242.34875 
L 258.057813 242.34875 
L 258.057813 153.04875 
L 49.907813 153.04875 
z
" style="fill:#ffffff;"/>
   </g>
   <g id="patch_117">
    <path clip-path="url(#p21a04faa2b)" d="M 73.336561 242.34875 
L 79.060856 242.34875 
L 79.060856 240.536696 
L 73.336561 240.536696 
z
" style="fill:#b2b2b2;"/>
   </g>
   <g id="patch_118">
    <path clip-path="url(#p21a04faa2b)" d="M 79.060856 242.34875 
L 84.785151 242.34875 
L 84.785151 233.288482 
L 79.060856 233.288482 
z
" style="fill:#b2b2b2;"/>
   </g>
   <g id="patch_119">
    <path clip-path="url(#p21a04faa2b)" d="M 84.785151 242.34875 
L 90.509447 242.34875 
L 90.509447 229.664375 
L 84.785151 229.664375 
z
" style="fill:#b2b2b2;"/>
   </g>
   <g id="patch_120">
    <path clip-path="url(#p21a04faa2b)" d="M 90.509447 242.34875 
L 96.233742 242.34875 
L 96.233742 231.476429 
L 90.509447 231.476429 
z
" style="fill:#b2b2b2;"/>
   </g>
   <g id="patch_121">
    <path clip-path="url(#p21a04faa2b)" d="M 96.233742 242.34875 
L 101.958037 242.34875 
L 101.958037 220.604108 
L 96.233742 220.604108 
z
" style="fill:#b2b2b2;"/>
   </g>
   <g id="patch_122">
    <path clip-path="url(#p21a04faa2b)" d="M 101.958037 242.34875 
L 107.682333 242.34875 
L 107.682333 213.355894 
L 101.958037 213.355894 
z
" style="fill:#b2b2b2;"/>
   </g>
   <g id="patch_123">
    <path clip-path="url(#p21a04faa2b)" d="M 107.682333 242.34875 
L 113.406628 242.34875 
L 113.406628 200.671519 
L 107.682333 200.671519 
z
" style="fill:#b2b2b2;"/>
   </g>
   <g id="patch_124">
    <path clip-path="url(#p21a04faa2b)" d="M 113.406628 242.34875 
L 119.130923 242.34875 
L 119.130923 191.611252 
L 113.406628 191.611252 
z
" style="fill:#b2b2b2;"/>
   </g>
   <g id="patch_125">
    <path clip-path="url(#p21a04faa2b)" d="M 119.130923 242.34875 
L 124.855219 242.34875 
L 124.855219 160.806342 
L 119.130923 160.806342 
z
" style="fill:#b2b2b2;"/>
   </g>
   <g id="patch_126">
    <path clip-path="url(#p21a04faa2b)" d="M 124.855219 242.34875 
L 130.579514 242.34875 
L 130.579514 184.363038 
L 124.855219 184.363038 
z
" style="fill:#b2b2b2;"/>
   </g>
   <g id="patch_127">
    <path clip-path="url(#p21a04faa2b)" d="M 130.579514 242.34875 
L 136.303809 242.34875 
L 136.303809 177.114824 
L 130.579514 177.114824 
z
" style="fill:#b2b2b2;"/>
   </g>
   <g id="patch_128">
    <path clip-path="url(#p21a04faa2b)" d="M 136.303809 242.34875 
L 142.028104 242.34875 
L 142.028104 197.047412 
L 136.303809 197.047412 
z
" style="fill:#b2b2b2;"/>
   </g>
   <g id="patch_129">
    <path clip-path="url(#p21a04faa2b)" d="M 142.028104 242.34875 
L 147.7524 242.34875 
L 147.7524 197.047412 
L 142.028104 197.047412 
z
" style="fill:#b2b2b2;"/>
   </g>
   <g id="patch_130">
    <path clip-path="url(#p21a04faa2b)" d="M 147.7524 242.34875 
L 153.476695 242.34875 
L 153.476695 224.228215 
L 147.7524 224.228215 
z
" style="fill:#b2b2b2;"/>
   </g>
   <g id="patch_131">
    <path clip-path="url(#p21a04faa2b)" d="M 153.476695 242.34875 
L 159.20099 242.34875 
L 159.20099 231.476429 
L 153.476695 231.476429 
z
" style="fill:#b2b2b2;"/>
   </g>
   <g id="patch_132">
    <path clip-path="url(#p21a04faa2b)" d="M 159.20099 242.34875 
L 164.925286 242.34875 
L 164.925286 238.724643 
L 159.20099 238.724643 
z
" style="fill:#b2b2b2;"/>
   </g>
   <g id="patch_133">
    <path clip-path="url(#p21a04faa2b)" d="M 164.925286 242.34875 
L 170.649581 242.34875 
L 170.649581 238.724643 
L 164.925286 238.724643 
z
" style="fill:#b2b2b2;"/>
   </g>
   <g id="matplotlib.axis_3">
    <g id="xtick_6">
     <g id="line2d_18">
      <g>
       <use style="stroke:#000000;stroke-width:0.8;" x="59.369176" xlink:href="#m142e5e6747" y="242.34875"/>
      </g>
     </g>
     <g id="text_15">
      <!-- 0.0000 -->
      <g transform="translate(44.080895 256.639375)scale(0.1 -0.1)">
       <use xlink:href="#NimbusSans-Regular-48"/>
       <use x="55.599991" xlink:href="#NimbusSans-Regular-46"/>
       <use x="83.399979" xlink:href="#NimbusSans-Regular-48"/>
       <use x="138.999969" xlink:href="#NimbusSans-Regular-48"/>
       <use x="194.59996" xlink:href="#NimbusSans-Regular-48"/>
       <use x="250.199951" xlink:href="#NimbusSans-Regular-48"/>
      </g>
     </g>
    </g>
    <g id="xtick_7">
     <g id="line2d_19">
      <g>
       <use style="stroke:#000000;stroke-width:0.8;" x="97.814751" xlink:href="#m142e5e6747" y="242.34875"/>
      </g>
     </g>
     <g id="text_16">
      <!-- 0.0002 -->
      <g transform="translate(82.52647 256.639375)scale(0.1 -0.1)">
       <use xlink:href="#NimbusSans-Regular-48"/>
       <use x="55.599991" xlink:href="#NimbusSans-Regular-46"/>
       <use x="83.399979" xlink:href="#NimbusSans-Regular-48"/>
       <use x="138.999969" xlink:href="#NimbusSans-Regular-48"/>
       <use x="194.59996" xlink:href="#NimbusSans-Regular-48"/>
       <use x="250.199951" xlink:href="#NimbusSans-Regular-50"/>
      </g>
     </g>
    </g>
    <g id="xtick_8">
     <g id="line2d_20">
      <g>
       <use style="stroke:#000000;stroke-width:0.8;" x="136.260327" xlink:href="#m142e5e6747" y="242.34875"/>
      </g>
     </g>
     <g id="text_17">
      <!-- 0.0004 -->
      <g transform="translate(120.972046 256.639375)scale(0.1 -0.1)">
       <use xlink:href="#NimbusSans-Regular-48"/>
       <use x="55.599991" xlink:href="#NimbusSans-Regular-46"/>
       <use x="83.399979" xlink:href="#NimbusSans-Regular-48"/>
       <use x="138.999969" xlink:href="#NimbusSans-Regular-48"/>
       <use x="194.59996" xlink:href="#NimbusSans-Regular-48"/>
       <use x="250.199951" xlink:href="#NimbusSans-Regular-52"/>
      </g>
     </g>
    </g>
    <g id="xtick_9">
     <g id="line2d_21">
      <g>
       <use style="stroke:#000000;stroke-width:0.8;" x="174.705902" xlink:href="#m142e5e6747" y="242.34875"/>
      </g>
     </g>
     <g id="text_18">
      <!-- 0.0006 -->
      <g transform="translate(159.417621 256.639375)scale(0.1 -0.1)">
       <defs>
        <path d="M 49.796875 53.5 
C 48.09375 65.296875 40.5 72.296875 29.703125 72.296875 
C 21.90625 72.296875 14.90625 68.5 10.703125 62 
C 6.203125 54.90625 4.296875 46.09375 4.296875 33 
C 4.296875 20.796875 6 13.09375 10.296875 6.703125 
C 14.09375 0.796875 20.296875 -2.296875 28.09375 -2.296875 
C 41.59375 -2.296875 51.296875 7.796875 51.296875 21.90625 
C 51.296875 35.203125 42.296875 44.59375 29.59375 44.59375 
C 22.59375 44.59375 17.09375 42 13.296875 36.703125 
C 13.40625 54.59375 19 64.5 29.09375 64.5 
C 35.296875 64.5 39.59375 60.5 41 53.5 
z
M 28.5 36.796875 
C 37 36.796875 42.296875 30.796875 42.296875 21.203125 
C 42.296875 12.09375 36.296875 5.5 28.203125 5.5 
C 20 5.5 13.796875 12.40625 13.796875 21.59375 
C 13.796875 30.59375 19.796875 36.796875 28.5 36.796875 
z
" id="NimbusSans-Regular-54"/>
       </defs>
       <use xlink:href="#NimbusSans-Regular-48"/>
       <use x="55.599991" xlink:href="#NimbusSans-Regular-46"/>
       <use x="83.399979" xlink:href="#NimbusSans-Regular-48"/>
       <use x="138.999969" xlink:href="#NimbusSans-Regular-48"/>
       <use x="194.59996" xlink:href="#NimbusSans-Regular-48"/>
       <use x="250.199951" xlink:href="#NimbusSans-Regular-54"/>
      </g>
     </g>
    </g>
    <g id="xtick_10">
     <g id="line2d_22">
      <g>
       <use style="stroke:#000000;stroke-width:0.8;" x="213.151477" xlink:href="#m142e5e6747" y="242.34875"/>
      </g>
     </g>
     <g id="text_19">
      <!-- 0.0008 -->
      <g transform="translate(197.863196 256.639375)scale(0.1 -0.1)">
       <use xlink:href="#NimbusSans-Regular-48"/>
       <use x="55.599991" xlink:href="#NimbusSans-Regular-46"/>
       <use x="83.399979" xlink:href="#NimbusSans-Regular-48"/>
       <use x="138.999969" xlink:href="#NimbusSans-Regular-48"/>
       <use x="194.59996" xlink:href="#NimbusSans-Regular-48"/>
       <use x="250.199951" xlink:href="#NimbusSans-Regular-56"/>
      </g>
     </g>
    </g>
    <g id="xtick_11">
     <g id="line2d_23">
      <g>
       <use style="stroke:#000000;stroke-width:0.8;" x="251.597053" xlink:href="#m142e5e6747" y="242.34875"/>
      </g>
     </g>
     <g id="text_20">
      <!-- 0.0010 -->
      <g transform="translate(236.308772 256.639375)scale(0.1 -0.1)">
       <use xlink:href="#NimbusSans-Regular-48"/>
       <use x="55.599991" xlink:href="#NimbusSans-Regular-46"/>
       <use x="83.399979" xlink:href="#NimbusSans-Regular-48"/>
       <use x="138.999969" xlink:href="#NimbusSans-Regular-48"/>
       <use x="194.59996" xlink:href="#NimbusSans-Regular-49"/>
       <use x="250.199951" xlink:href="#NimbusSans-Regular-48"/>
      </g>
     </g>
    </g>
    <g id="text_21">
     <!-- Latent gene expression -->
     <g transform="translate(102.0125 270.109688)scale(0.1 -0.1)">
      <defs>
       <path d="M 17.296875 72.90625 
L 8 72.90625 
L 8 0 
L 53.296875 0 
L 53.296875 8.203125 
L 17.296875 8.203125 
z
" id="NimbusSans-Regular-76"/>
       <path d="M 40.40625 52.40625 
L 40.40625 44.796875 
C 36.203125 51.09375 31.59375 53.90625 25 53.90625 
C 12.296875 53.90625 3.5 42.09375 3.5 25.296875 
C 3.5 16.5 5.59375 10.09375 10.09375 4.796875 
C 14 0.203125 19 -2.296875 24.40625 -2.296875 
C 30.703125 -2.296875 35.203125 0.5 39.59375 7.09375 
L 39.59375 4.40625 
C 39.59375 -9.59375 35.703125 -14.796875 25.296875 -14.796875 
C 18.203125 -14.796875 14.5 -12 13.703125 -6 
L 5.203125 -6 
C 6 -15.703125 13.703125 -21.796875 25.09375 -21.796875 
C 32.796875 -21.796875 39.203125 -19.296875 42.59375 -15.09375 
C 46.59375 -10.203125 48.09375 -3.703125 48.09375 8.59375 
L 48.09375 52.40625 
z
M 25.796875 46.203125 
C 34.59375 46.203125 39.59375 38.796875 39.59375 25.5 
C 39.59375 12.796875 34.5 5.40625 25.796875 5.40625 
C 17.203125 5.40625 12.203125 12.90625 12.203125 25.796875 
C 12.203125 38.59375 17.203125 46.203125 25.796875 46.203125 
z
" id="NimbusSans-Regular-103"/>
       <path d="M 29.203125 27.09375 
L 46.796875 52.40625 
L 37.40625 52.40625 
L 24.796875 33.40625 
L 12.203125 52.40625 
L 2.703125 52.40625 
L 20.203125 26.703125 
L 1.703125 0 
L 11.203125 0 
L 24.5 20.09375 
L 37.59375 0 
L 47.296875 0 
z
" id="NimbusSans-Regular-120"/>
       <path d="M 5.40625 -21.796875 
L 13.796875 -21.796875 
L 13.796875 5.5 
C 18.203125 0.09375 23.09375 -2.296875 29.90625 -2.296875 
C 43.5 -2.296875 52.296875 8.59375 52.296875 25.296875 
C 52.296875 42.90625 43.703125 53.90625 29.796875 53.90625 
C 22.703125 53.90625 17 50.703125 13.09375 44.5 
L 13.09375 52.40625 
L 5.40625 52.40625 
z
M 28.40625 46.09375 
C 37.59375 46.09375 43.59375 38 43.59375 25.5 
C 43.59375 13.59375 37.5 5.5 28.40625 5.5 
C 19.5 5.5 13.796875 13.5 13.796875 25.796875 
C 13.796875 38.09375 19.5 46.09375 28.40625 46.09375 
z
" id="NimbusSans-Regular-112"/>
      </defs>
      <use xlink:href="#NimbusSans-Regular-76"/>
      <use x="55.599991" xlink:href="#NimbusSans-Regular-97"/>
      <use x="111.199982" xlink:href="#NimbusSans-Regular-116"/>
      <use x="138.999969" xlink:href="#NimbusSans-Regular-101"/>
      <use x="194.59996" xlink:href="#NimbusSans-Regular-110"/>
      <use x="250.199951" xlink:href="#NimbusSans-Regular-116"/>
      <use x="277.999939" xlink:href="#NimbusSans-Regular-32"/>
      <use x="305.799927" xlink:href="#NimbusSans-Regular-103"/>
      <use x="361.399918" xlink:href="#NimbusSans-Regular-101"/>
      <use x="416.999908" xlink:href="#NimbusSans-Regular-110"/>
      <use x="472.599899" xlink:href="#NimbusSans-Regular-101"/>
      <use x="528.19989" xlink:href="#NimbusSans-Regular-32"/>
      <use x="555.999878" xlink:href="#NimbusSans-Regular-101"/>
      <use x="611.599869" xlink:href="#NimbusSans-Regular-120"/>
      <use x="661.599854" xlink:href="#NimbusSans-Regular-112"/>
      <use x="717.199844" xlink:href="#NimbusSans-Regular-114"/>
      <use x="750.499832" xlink:href="#NimbusSans-Regular-101"/>
      <use x="806.099823" xlink:href="#NimbusSans-Regular-115"/>
      <use x="856.099808" xlink:href="#NimbusSans-Regular-115"/>
      <use x="906.099792" xlink:href="#NimbusSans-Regular-105"/>
      <use x="928.299789" xlink:href="#NimbusSans-Regular-111"/>
      <use x="983.89978" xlink:href="#NimbusSans-Regular-110"/>
     </g>
    </g>
   </g>
   <g id="matplotlib.axis_4">
    <g id="ytick_4">
     <g id="line2d_24">
      <g>
       <use style="stroke:#000000;stroke-width:0.8;" x="49.907813" xlink:href="#m06f0daebb9" y="242.34875"/>
      </g>
     </g>
     <g id="text_22">
      <!-- 0 -->
      <g transform="translate(37.348438 245.994062)scale(0.1 -0.1)">
       <use xlink:href="#NimbusSans-Regular-48"/>
      </g>
     </g>
    </g>
    <g id="ytick_5">
     <g id="line2d_25">
      <g>
       <use style="stroke:#000000;stroke-width:0.8;" x="49.907813" xlink:href="#m06f0daebb9" y="212.022899"/>
      </g>
     </g>
     <g id="text_23">
      <!-- 2000 -->
      <g transform="translate(20.670313 215.668212)scale(0.1 -0.1)">
       <use xlink:href="#NimbusSans-Regular-50"/>
       <use x="55.599991" xlink:href="#NimbusSans-Regular-48"/>
       <use x="111.199982" xlink:href="#NimbusSans-Regular-48"/>
       <use x="166.799973" xlink:href="#NimbusSans-Regular-48"/>
      </g>
     </g>
    </g>
    <g id="ytick_6">
     <g id="line2d_26">
      <g>
       <use style="stroke:#000000;stroke-width:0.8;" x="49.907813" xlink:href="#m06f0daebb9" y="181.697048"/>
      </g>
     </g>
     <g id="text_24">
      <!-- 4000 -->
      <g transform="translate(20.670313 185.342361)scale(0.1 -0.1)">
       <use xlink:href="#NimbusSans-Regular-52"/>
       <use x="55.599991" xlink:href="#NimbusSans-Regular-48"/>
       <use x="111.199982" xlink:href="#NimbusSans-Regular-48"/>
       <use x="166.799973" xlink:href="#NimbusSans-Regular-48"/>
      </g>
     </g>
    </g>
    <g id="text_25">
     <!-- Density -->
     <g transform="translate(14.490625 214.368281)rotate(-90)scale(0.1 -0.1)">
      <use xlink:href="#NimbusSans-Regular-68"/>
      <use x="72.199982" xlink:href="#NimbusSans-Regular-101"/>
      <use x="127.799973" xlink:href="#NimbusSans-Regular-110"/>
      <use x="183.399963" xlink:href="#NimbusSans-Regular-115"/>
      <use x="233.399948" xlink:href="#NimbusSans-Regular-105"/>
      <use x="255.599945" xlink:href="#NimbusSans-Regular-116"/>
      <use x="283.399933" xlink:href="#NimbusSans-Regular-121"/>
     </g>
    </g>
   </g>
   <g id="line2d_27">
    <path clip-path="url(#p21a04faa2b)" d="M 59.369176 242.34875 
L 84.182762 242.240738 
L 86.645179 242.006801 
L 88.539346 241.611375 
L 90.05468 241.069968 
L 91.380597 240.363819 
L 92.706513 239.376449 
L 93.843014 238.257089 
L 94.979514 236.842877 
L 96.116014 235.096155 
L 97.441931 232.595435 
L 98.767848 229.561283 
L 100.093764 225.976047 
L 101.609098 221.212611 
L 103.313848 215.068496 
L 105.397432 206.636385 
L 108.806932 191.678346 
L 111.837599 178.776914 
L 113.731766 171.684949 
L 115.2471 166.84655 
L 116.573016 163.347974 
L 117.709516 160.953684 
L 118.6566 159.408827 
L 119.603683 158.284703 
L 120.36135 157.69099 
L 121.119017 157.367906 
L 121.876684 157.311874 
L 122.63435 157.516983 
L 123.392017 157.975171 
L 124.149684 158.676425 
L 125.096767 159.876763 
L 126.233268 161.757051 
L 127.369768 164.06911 
L 128.885101 167.728032 
L 130.589851 172.474248 
L 132.862852 179.513053 
L 141.576019 207.256165 
L 143.84902 213.410585 
L 145.932603 218.420192 
L 147.82677 222.428668 
L 149.720937 225.924007 
L 151.615104 228.930007 
L 153.319854 231.24619 
L 155.024604 233.225651 
L 156.918771 235.070864 
L 158.812938 236.588495 
L 160.707105 237.824141 
L 162.790689 238.908644 
L 165.063689 239.82212 
L 167.526106 240.559772 
L 170.367356 241.163634 
L 173.58744 241.6178 
L 177.754607 241.96714 
L 183.437108 242.197844 
L 192.718525 242.318528 
L 219.236862 242.348568 
L 248.596449 242.34875 
L 248.596449 242.34875 
" style="fill:none;stroke:#1b9e77;stroke-linecap:square;"/>
   </g>
   <g id="line2d_28">
    <path clip-path="url(#p21a04faa2b)" d="M 59.369176 242.34875 
L 80.583845 242.34875 
L 80.773262 233.307176 
L 80.962679 233.072245 
L 110.511682 233.072245 
L 110.890516 162.389116 
L 140.628936 162.389116 
L 140.818353 223.277978 
L 141.197186 223.382614 
L 152.941021 223.382614 
L 153.130437 230.026918 
L 153.319854 242.34875 
L 248.596449 242.34875 
L 248.596449 242.34875 
" style="fill:none;stroke:#d95f02;stroke-linecap:square;"/>
   </g>
   <g id="line2d_29">
    <path clip-path="url(#p21a04faa2b)" d="M 59.369176 242.34875 
L 82.099179 242.244681 
L 84.561596 242.012713 
L 86.455763 241.619537 
L 87.971096 241.082472 
L 89.297013 240.38493 
L 90.62293 239.41477 
L 91.75943 238.321017 
L 92.89593 236.94695 
L 94.03243 235.259612 
L 95.358347 232.859703 
L 96.684264 229.967682 
L 98.010181 226.572935 
L 99.525514 222.092492 
L 101.230264 216.351302 
L 103.313848 208.523428 
L 106.912765 193.945031 
L 109.754016 182.801961 
L 111.648182 176.196978 
L 113.163516 171.632286 
L 114.489433 168.268567 
L 115.625933 165.906438 
L 116.762433 164.052008 
L 117.709516 162.908081 
L 118.6566 162.130862 
L 119.414267 161.772957 
L 120.171933 161.646833 
L 120.9296 161.745215 
L 121.687267 162.064895 
L 122.444934 162.595716 
L 123.392017 163.541851 
L 124.528517 165.065303 
L 125.665017 166.969886 
L 126.990934 169.619052 
L 128.506268 173.114588 
L 130.589851 178.543219 
L 133.620518 187.191454 
L 139.303019 203.503423 
L 141.954853 210.377851 
L 144.227853 215.678447 
L 146.311437 220.007978 
L 148.39502 223.819588 
L 150.289187 226.845093 
L 152.183354 229.472757 
L 154.077521 231.730872 
L 155.971688 233.652617 
L 157.865855 235.273006 
L 159.949438 236.749547 
L 162.033022 237.94995 
L 164.306022 238.994504 
L 166.768439 239.870249 
L 169.420273 240.576899 
L 172.45094 241.155525 
L 176.049857 241.613946 
L 180.595857 241.959187 
L 186.846608 242.191866 
L 196.885693 242.315117 
L 224.351113 242.348415 
L 248.596449 242.348746 
L 248.596449 242.348746 
" style="fill:none;stroke:#7570b3;stroke-linecap:square;"/>
   </g>
   <g id="patch_134">
    <path d="M 49.907813 242.34875 
L 49.907813 153.04875 
" style="fill:none;stroke:#000000;stroke-linecap:square;stroke-linejoin:miter;stroke-width:0.8;"/>
   </g>
   <g id="patch_135">
    <path d="M 258.057813 242.34875 
L 258.057813 153.04875 
" style="fill:none;stroke:#000000;stroke-linecap:square;stroke-linejoin:miter;stroke-width:0.8;"/>
   </g>
   <g id="patch_136">
    <path d="M 49.907813 242.34875 
L 258.057813 242.34875 
" style="fill:none;stroke:#000000;stroke-linecap:square;stroke-linejoin:miter;stroke-width:0.8;"/>
   </g>
   <g id="patch_137">
    <path d="M 49.907813 153.04875 
L 258.057813 153.04875 
" style="fill:none;stroke:#000000;stroke-linecap:square;stroke-linejoin:miter;stroke-width:0.8;"/>
   </g>
   <g id="legend_2">
    <g id="line2d_30">
     <path d="M 267.057813 175.04875 
L 287.057813 175.04875 
" style="fill:none;stroke:#1b9e77;stroke-linecap:square;"/>
    </g>
    <g id="line2d_31"/>
    <g id="text_26">
     <!-- Gamma -->
     <g transform="translate(295.057813 178.54875)scale(0.1 -0.1)">
      <use xlink:href="#NimbusSans-Regular-71"/>
      <use x="77.799988" xlink:href="#NimbusSans-Regular-97"/>
      <use x="133.399979" xlink:href="#NimbusSans-Regular-109"/>
      <use x="216.699966" xlink:href="#NimbusSans-Regular-109"/>
      <use x="299.999954" xlink:href="#NimbusSans-Regular-97"/>
     </g>
    </g>
    <g id="line2d_32">
     <path d="M 267.057813 189.519063 
L 287.057813 189.519063 
" style="fill:none;stroke:#d95f02;stroke-linecap:square;"/>
    </g>
    <g id="line2d_33"/>
    <g id="text_27">
     <!-- Unimodal -->
     <g transform="translate(295.057813 193.019063)scale(0.1 -0.1)">
      <use xlink:href="#NimbusSans-Regular-85"/>
      <use x="72.199982" xlink:href="#NimbusSans-Regular-110"/>
      <use x="127.799973" xlink:href="#NimbusSans-Regular-105"/>
      <use x="149.999969" xlink:href="#NimbusSans-Regular-109"/>
      <use x="233.299957" xlink:href="#NimbusSans-Regular-111"/>
      <use x="288.899948" xlink:href="#NimbusSans-Regular-100"/>
      <use x="344.499939" xlink:href="#NimbusSans-Regular-97"/>
      <use x="400.09993" xlink:href="#NimbusSans-Regular-108"/>
     </g>
    </g>
    <g id="line2d_34">
     <path d="M 267.057813 203.989375 
L 287.057813 203.989375 
" style="fill:none;stroke:#7570b3;stroke-linecap:square;"/>
    </g>
    <g id="line2d_35"/>
    <g id="text_28">
     <!-- NF (K = 8) -->
     <g transform="translate(295.057813 207.489375)scale(0.1 -0.1)">
      <use xlink:href="#NimbusSans-Regular-78"/>
      <use x="72.199982" xlink:href="#NimbusSans-Regular-70"/>
      <use x="133.299973" xlink:href="#NimbusSans-Regular-32"/>
      <use x="161.09996" xlink:href="#NimbusSans-Regular-40"/>
      <use x="194.399948" xlink:href="#NimbusSans-Regular-75"/>
      <use x="261.099945" xlink:href="#NimbusSans-Regular-32"/>
      <use x="288.899933" xlink:href="#NimbusSans-Regular-61"/>
      <use x="347.299927" xlink:href="#NimbusSans-Regular-32"/>
      <use x="375.099915" xlink:href="#NimbusSans-Regular-56"/>
      <use x="430.699905" xlink:href="#NimbusSans-Regular-41"/>
     </g>
    </g>
    <g id="patch_138">
     <path d="M 267.057813 221.959688 
L 287.057813 221.959688 
L 287.057813 214.959688 
L 267.057813 214.959688 
z
" style="fill:#b2b2b2;"/>
    </g>
    <g id="text_29">
     <!-- $x_i / s_i$ -->
     <g transform="translate(295.057813 221.959688)scale(0.1 -0.1)">
      <defs>
       <path d="M 60.015625 54.6875 
L 34.90625 27.875 
L 50.296875 0 
L 39.984375 0 
L 28.421875 21.6875 
L 8.296875 0 
L -2.59375 0 
L 24.3125 28.8125 
L 10.015625 54.6875 
L 20.3125 54.6875 
L 30.8125 34.90625 
L 49.125 54.6875 
z
" id="DejaVuSans-Oblique-120"/>
       <path d="M 18.3125 75.984375 
L 27.296875 75.984375 
L 25.09375 64.59375 
L 16.109375 64.59375 
z
M 14.203125 54.6875 
L 23.1875 54.6875 
L 12.5 0 
L 3.515625 0 
z
" id="DejaVuSans-Oblique-105"/>
       <path d="M 25.390625 72.90625 
L 33.6875 72.90625 
L 8.296875 -9.28125 
L 0 -9.28125 
z
" id="DejaVuSans-47"/>
       <path d="M 50 53.078125 
L 48.296875 44.578125 
Q 44.734375 46.53125 40.765625 47.5 
Q 36.8125 48.484375 32.625 48.484375 
Q 25.53125 48.484375 21.453125 46.0625 
Q 17.390625 43.65625 17.390625 39.5 
Q 17.390625 34.671875 26.859375 32.078125 
Q 27.59375 31.890625 27.9375 31.78125 
L 30.8125 30.90625 
Q 39.796875 28.421875 42.796875 25.6875 
Q 45.796875 22.953125 45.796875 18.21875 
Q 45.796875 9.515625 38.890625 4.046875 
Q 31.984375 -1.421875 20.796875 -1.421875 
Q 16.453125 -1.421875 11.671875 -0.578125 
Q 6.890625 0.25 1.125 2 
L 2.875 11.28125 
Q 7.8125 8.734375 12.59375 7.421875 
Q 17.390625 6.109375 21.78125 6.109375 
Q 28.375 6.109375 32.5 8.9375 
Q 36.625 11.765625 36.625 16.109375 
Q 36.625 20.796875 25.78125 23.6875 
L 24.859375 23.921875 
L 21.78125 24.703125 
Q 14.9375 26.515625 11.765625 29.46875 
Q 8.59375 32.421875 8.59375 37.015625 
Q 8.59375 45.75 15.15625 50.875 
Q 21.734375 56 33.015625 56 
Q 37.453125 56 41.671875 55.265625 
Q 45.90625 54.546875 50 53.078125 
z
" id="DejaVuSans-Oblique-115"/>
      </defs>
      <use transform="translate(0 0.09375)" xlink:href="#DejaVuSans-Oblique-120"/>
      <use transform="translate(59.179688 -16.3125)scale(0.7)" xlink:href="#DejaVuSans-Oblique-105"/>
      <use transform="translate(81.362305 0.09375)" xlink:href="#DejaVuSans-47"/>
      <use transform="translate(115.053711 0.09375)" xlink:href="#DejaVuSans-Oblique-115"/>
      <use transform="translate(167.15332 -16.3125)scale(0.7)" xlink:href="#DejaVuSans-Oblique-105"/>
     </g>
    </g>
   </g>
  </g>
 </g>
 <defs>
  <clipPath id="p63ff921066">
   <rect height="89.3" width="208.15" x="49.907813" y="21.94875"/>
  </clipPath>
  <clipPath id="p21a04faa2b">
   <rect height="89.3" width="208.15" x="49.907813" y="153.04875"/>
  </clipPath>
 </defs>
</svg>
